<?xml version="1.0" encoding="UTF-8" standalone="no"?>
<!-- Created with Inkscape (http://www.inkscape.org/) -->

<svg
   version="1.1"
   width="156"
   height="244"
   viewBox="0 0 156 244"
   id="svg10047"
   sodipodi:docname="10_of_hearts.svg"
   inkscape:version="1.2.2 (b0a8486541, 2022-12-01)"
   xmlns:inkscape="http://www.inkscape.org/namespaces/inkscape"
   xmlns:sodipodi="http://sodipodi.sourceforge.net/DTD/sodipodi-0.dtd"
   xmlns:xlink="http://www.w3.org/1999/xlink"
   xmlns="http://www.w3.org/2000/svg"
   xmlns:svg="http://www.w3.org/2000/svg"
   xmlns:rdf="http://www.w3.org/1999/02/22-rdf-syntax-ns#"
   xmlns:cc="http://creativecommons.org/ns#"
   xmlns:dc="http://purl.org/dc/elements/1.1/">
  <sodipodi:namedview
     id="namedview47"
     pagecolor="#ffffff"
     bordercolor="#666666"
     borderopacity="1.0"
     inkscape:showpageshadow="2"
     inkscape:pageopacity="0.0"
     inkscape:pagecheckerboard="0"
     inkscape:deskcolor="#d1d1d1"
     showgrid="false"
     inkscape:zoom="3.203252"
     inkscape:cx="71.802031"
     inkscape:cy="122.06345"
     inkscape:window-width="1854"
     inkscape:window-height="1011"
     inkscape:window-x="0"
     inkscape:window-y="0"
     inkscape:window-maximized="1"
     inkscape:current-layer="svg10047" />
  <metadata
     id="metadata16869">
    <rdf:RDF>
      <cc:Work
         rdf:about="">
        <dc:format>image/svg+xml</dc:format>
        <dc:type
           rdf:resource="http://purl.org/dc/dcmitype/StillImage" />
      </cc:Work>
    </rdf:RDF>
  </metadata>
  <defs
     id="defs3059">
    <path
       d="M -1.0670015,-0.78036012 V 2.43839 l -3.09375,-1.53125017 c -3.234346,-1.61350401 -10.3026155,-1.322386 -12.1250015,0.50000017 -0.571494,0.571496 0.67247,0.535844 3.03125,-0.09375 2.62809,-0.70147818 5.0958535,-0.76072718 7.3125015,-0.1250001 3.226841,0.9254451 3.728199,1.6906671 5.49999984,8.2187501 0.521402,1.921065 2.37500016,0.409853 2.37500016,-1.9375 0,-5.451574 5.801962,-8.20450115 12.7812485,-6.0625 2.333378,0.716138 3.180661,0.743161 2.5,0.0625 C 15.331283,-0.41332417 8.315706,-0.73360815 5.0267485,0.90713983 L 1.9329985,2.43839 v -3.21875012 c 0.0077,-3.05923288 0.35725,-4.31078378 -1.50000006,-4.31078378 -1.85724994,0 -1.51001594,2.2181209 -1.49999994,4.31078378 z"
       transform="translate(-1)"
       id="brown-bottom"
       style="color:#000000;display:inline;overflow:visible;visibility:visible;fill:#9b0000;fill-opacity:1;fill-rule:nonzero;stroke:#000000;stroke-width:0;stroke-linecap:butt;stroke-linejoin:miter;stroke-miterlimit:4;stroke-dasharray:none;stroke-dashoffset:0;stroke-opacity:1;marker:none;enable-background:accumulate" />
    <g
       transform="translate(-246,-14.260579)"
       id="hl">
      <path
         d="M 240.714,19.217272 C 235.99487,14.426097 234.95065,11.449352 237.2,9.2 c 1.67166,-1.671664 5.30754,-1.498303 6.82094,0.325228 1.13448,1.366971 1.4407,1.366971 2.95118,0 C 248.9924,7.696902 252.14666,7.546657 253.8,9.2 c 2.29289,2.292895 1.19594,5.379184 -3.586,10.089213 l -4.78599,4.714029 z"
         id="path4346"
         style="fill:#fe0000" />
      <path
         d="M 246,16.908208 C 246,10.012178 247.01646,8 250.5,8 c 1.155,0 2.64,0.54 3.3,1.2 2.25758,2.257582 1.20739,5.37633 -3.3,9.8 l -4.5,4.416416 z"
         id="path4306"
         style="fill:#bc0000" />
    </g>
    <g
       id="cf">
      <path
         d="m 78.25,117.25 c 0,2.762 -2.238,5 -5,5 H 5.75 c -2.761,0 -5,-2.238 -5,-5 V 5.75 c 0,-2.762 2.239,-5 5,-5 h 67.5 c 2.762,0 5,2.238 5,5 z"
         id="path8383"
         style="fill:#ffffff;stroke:#000000;stroke-width:1" />
      <path
         d="m 72.226712,114.23425 c 0,2.61259 -1.890126,4.72953 -4.222801,4.72953 H 10.996089 c -2.3318303,0 -4.2228009,-2.11694 -4.2228009,-4.72953 V 8.7657498 c 0,-2.6125922 1.8909706,-4.7295293 4.2228009,-4.7295293 h 57.007822 c 2.332675,0 4.222801,2.1169371 4.222801,4.7295293 z"
         id="path10068"
         style="fill:#ffffff;stroke:#000000;stroke-width:0.75" />
    </g>
    <g
       transform="matrix(0.34594092,0,0,0.34594092,-185.65022,-104.46734)"
       id="letter-10">
      <path
         d="m 551.3495,394.97529 c -0.78398,-0.78398 -1.22919,-4.3821 -1.22919,-9.93403 v -8.70485 c 0,-3.14229 -0.45504,-7.56314 0.16329,-9.22887 0.85361,-2.29958 1.59396,-2.99524 3.20345,-2.76569 2.07275,0.29562 2.13326,0.74353 2.13326,15.79055 0,13.06475 -0.23781,15.53211 -1.52081,15.77919 -0.83645,0.16109 -2.07395,-0.26025 -2.75,-0.9363 z"
         id="path6265"
         style="fill:#000000" />
      <path
         d="m 558.26396,390.50393 c -3.12324,-7.04142 -3.39374,-18.83549 0.95469,-24.44186 3.95898,-5.10425 10.38346,-2.42768 12.10902,4.99529 4.65563,20.02749 -7.08212,32.93224 -13.06371,19.44657 z m 8.79015,1.81127 c 4.22384,-5.82341 4.05045,-21.3955 0.64672,-24.35911 -7.36838,-6.41559 -10.20856,3.82631 -9.58242,13.89657 0.47537,7.64533 5.35707,15.39638 8.9357,10.46254 z m -2.95082,-1.03006 c -3.24901,-0.23462 -5.52162,-10.89309 -4.79797,-14.80732 0.81078,-4.3856 1.88658,-8.72653 4.76725,-8.5334 2.44993,0.16427 5.07549,2.88006 5.07549,11.13278 0,9.67863 -2.78144,12.37139 -5.04477,12.20794 z m 1.27769,-3.14676 c 2.61258,-2.90447 2.73762,-17.01113 -0.96192,-18.11955 -3.15048,-0.94392 -3.56828,9.14967 -1.78701,16.1632 0.48357,1.90401 1.76303,3.05242 2.74893,1.95635 z"
         id="path6257-9"
         style="fill:#000000" />
      <path
         d="m 564.10329,391.28514 c -3.24901,-0.23462 -5.52162,-10.89309 -4.79797,-14.80732 0.81078,-4.3856 1.88658,-8.72653 4.76725,-8.5334 2.44993,0.16427 5.07549,2.88006 5.07549,11.13278 0,9.67863 -2.78144,12.37139 -5.04477,12.20794 z m 2.95082,1.03006 c 4.22384,-5.82341 4.05045,-21.3955 0.64672,-24.35911 -7.36838,-6.41559 -10.20856,3.82631 -9.58242,13.89657 0.47537,7.64533 5.35707,15.39638 8.9357,10.46254 z m -12.9338,-12.1691 c 0,-12.8887 -0.92171,-17.43238 -2.36762,-11.67144 0.12254,5.95036 0.31608,10.4154 0.36762,15.06445 0.071,6.40427 0.39618,10.60699 1,10.60699 0.61905,0 1,-5.33333 1,-14 z"
         id="path6520"
         style="fill:#ffffff" />
    </g>
    <g
       id="indicator-background">
      <path
         d="M 4.9840521,32.578091 C 1.870653,29.325097 2.1087365,23.444548 5.4655326,20.6857 c 2.2986147,-1.889165 5.5112604,-0.81715 6.9669734,2.324782 3.118592,6.731 -2.8390681,14.383666 -7.4484539,9.567609 z"
         id="path6341-2"
         style="stroke:#000000" />
    </g>
    <g
       transform="translate(-0.975,-6)"
       id="it10">
      <use
         id="use8679"
         x="0"
         y="0"
         width="1027"
         height="615"
         xlink:href="#indicator-background" />
      <use
         id="use8681"
         x="0"
         y="0"
         width="1027"
         height="615"
         xlink:href="#letter-10" />
    </g>
    <g
       id="ib10">
      <use
         transform="rotate(180,39.5,61.5)"
         id="use8726"
         x="0"
         y="0"
         width="1027"
         height="615"
         xlink:href="#it10" />
    </g>
  </defs>
  <g
     id="10_heart"
     transform="matrix(2,0,0,2,-1423,-493)"
     style="stroke-width:0.5;stroke-dasharray:none">
    <g
       id="use11249"
       transform="translate(711,246)"
       style="stroke-width:0.5;stroke-dasharray:none">
      <path
         d="m 78.25,117.25 c 0,2.762 -2.238,5 -5,5 H 5.75 c -2.761,0 -5,-2.238 -5,-5 V 5.75 c 0,-2.762 2.239,-5 5,-5 h 67.5 c 2.762,0 5,2.238 5,5 z"
         id="path330"
         style="fill:#ffffff;stroke:#000000;stroke-width:0.5;stroke-dasharray:none" />
      <path
         d="m 72.226712,114.23425 c 0,2.61259 -1.890126,4.72953 -4.222801,4.72953 H 10.996089 c -2.3318303,0 -4.2228009,-2.11694 -4.2228009,-4.72953 V 8.7657498 c 0,-2.6125922 1.8909706,-4.7295293 4.2228009,-4.7295293 h 57.007822 c 2.332675,0 4.222801,2.1169371 4.222801,4.7295293 z"
         id="path332"
         style="fill:#ffffff;stroke:#000000;stroke-width:0.5;stroke-dasharray:none" />
    </g>
    <g
       transform="translate(479.5,254.73942)"
       id="use9865"
       style="stroke-width:0.5;stroke-dasharray:none">
      <path
         d="M 240.714,19.217272 C 235.99487,14.426097 234.95065,11.449352 237.2,9.2 c 1.67166,-1.671664 5.30754,-1.498303 6.82094,0.325228 1.13448,1.366971 1.4407,1.366971 2.95118,0 C 248.9924,7.696902 252.14666,7.546657 253.8,9.2 c 2.29289,2.292895 1.19594,5.379184 -3.586,10.089213 l -4.78599,4.714029 z"
         id="path336"
         style="fill:#fe0000;stroke-width:0.5;stroke-dasharray:none" />
      <path
         d="M 246,16.908208 C 246,10.012178 247.01646,8 250.5,8 c 1.155,0 2.64,0.54 3.3,1.2 2.25758,2.257582 1.20739,5.37633 -3.3,9.8 l -4.5,4.416416 z"
         id="path338"
         style="fill:#bc0000;stroke-width:0.5;stroke-dasharray:none" />
    </g>
    <g
       transform="translate(479.5,272.73942)"
       id="use9867"
       style="stroke-width:0.5;stroke-dasharray:none">
      <path
         d="M 240.714,19.217272 C 235.99487,14.426097 234.95065,11.449352 237.2,9.2 c 1.67166,-1.671664 5.30754,-1.498303 6.82094,0.325228 1.13448,1.366971 1.4407,1.366971 2.95118,0 C 248.9924,7.696902 252.14666,7.546657 253.8,9.2 c 2.29289,2.292895 1.19594,5.379184 -3.586,10.089213 l -4.78599,4.714029 z"
         id="path342"
         style="fill:#fe0000;stroke-width:0.5;stroke-dasharray:none" />
      <path
         d="M 246,16.908208 C 246,10.012178 247.01646,8 250.5,8 c 1.155,0 2.64,0.54 3.3,1.2 2.25758,2.257582 1.20739,5.37633 -3.3,9.8 l -4.5,4.416416 z"
         id="path344"
         style="fill:#bc0000;stroke-width:0.5;stroke-dasharray:none" />
    </g>
    <g
       transform="translate(494.5,245.73942)"
       id="use9869"
       style="stroke-width:0.5;stroke-dasharray:none">
      <path
         d="M 240.714,19.217272 C 235.99487,14.426097 234.95065,11.449352 237.2,9.2 c 1.67166,-1.671664 5.30754,-1.498303 6.82094,0.325228 1.13448,1.366971 1.4407,1.366971 2.95118,0 C 248.9924,7.696902 252.14666,7.546657 253.8,9.2 c 2.29289,2.292895 1.19594,5.379184 -3.586,10.089213 l -4.78599,4.714029 z"
         id="path348"
         style="fill:#fe0000;stroke-width:0.5;stroke-dasharray:none" />
      <path
         d="M 246,16.908208 C 246,10.012178 247.01646,8 250.5,8 c 1.155,0 2.64,0.54 3.3,1.2 2.25758,2.257582 1.20739,5.37633 -3.3,9.8 l -4.5,4.416416 z"
         id="path350"
         style="fill:#bc0000;stroke-width:0.5;stroke-dasharray:none" />
    </g>
    <g
       transform="translate(494.5,263.73942)"
       id="use9871"
       style="stroke-width:0.5;stroke-dasharray:none">
      <path
         d="M 240.714,19.217272 C 235.99487,14.426097 234.95065,11.449352 237.2,9.2 c 1.67166,-1.671664 5.30754,-1.498303 6.82094,0.325228 1.13448,1.366971 1.4407,1.366971 2.95118,0 C 248.9924,7.696902 252.14666,7.546657 253.8,9.2 c 2.29289,2.292895 1.19594,5.379184 -3.586,10.089213 l -4.78599,4.714029 z"
         id="path354"
         style="fill:#fe0000;stroke-width:0.5;stroke-dasharray:none" />
      <path
         d="M 246,16.908208 C 246,10.012178 247.01646,8 250.5,8 c 1.155,0 2.64,0.54 3.3,1.2 2.25758,2.257582 1.20739,5.37633 -3.3,9.8 l -4.5,4.416416 z"
         id="path356"
         style="fill:#bc0000;stroke-width:0.5;stroke-dasharray:none" />
    </g>
    <g
       transform="translate(494.5,281.73942)"
       id="use9873"
       style="stroke-width:0.5;stroke-dasharray:none">
      <path
         d="M 240.714,19.217272 C 235.99487,14.426097 234.95065,11.449352 237.2,9.2 c 1.67166,-1.671664 5.30754,-1.498303 6.82094,0.325228 1.13448,1.366971 1.4407,1.366971 2.95118,0 C 248.9924,7.696902 252.14666,7.546657 253.8,9.2 c 2.29289,2.292895 1.19594,5.379184 -3.586,10.089213 l -4.78599,4.714029 z"
         id="path360"
         style="fill:#fe0000;stroke-width:0.5;stroke-dasharray:none" />
      <path
         d="M 246,16.908208 C 246,10.012178 247.01646,8 250.5,8 c 1.155,0 2.64,0.54 3.3,1.2 2.25758,2.257582 1.20739,5.37633 -3.3,9.8 l -4.5,4.416416 z"
         id="path362"
         style="fill:#bc0000;stroke-width:0.5;stroke-dasharray:none" />
    </g>
    <g
       transform="translate(514.5,245.73942)"
       id="use9875"
       style="stroke-width:0.5;stroke-dasharray:none">
      <path
         d="M 240.714,19.217272 C 235.99487,14.426097 234.95065,11.449352 237.2,9.2 c 1.67166,-1.671664 5.30754,-1.498303 6.82094,0.325228 1.13448,1.366971 1.4407,1.366971 2.95118,0 C 248.9924,7.696902 252.14666,7.546657 253.8,9.2 c 2.29289,2.292895 1.19594,5.379184 -3.586,10.089213 l -4.78599,4.714029 z"
         id="path366"
         style="fill:#fe0000;stroke-width:0.5;stroke-dasharray:none" />
      <path
         d="M 246,16.908208 C 246,10.012178 247.01646,8 250.5,8 c 1.155,0 2.64,0.54 3.3,1.2 2.25758,2.257582 1.20739,5.37633 -3.3,9.8 l -4.5,4.416416 z"
         id="path368"
         style="fill:#bc0000;stroke-width:0.5;stroke-dasharray:none" />
    </g>
    <g
       transform="translate(514.5,263.73942)"
       id="use9877"
       style="stroke-width:0.5;stroke-dasharray:none">
      <path
         d="M 240.714,19.217272 C 235.99487,14.426097 234.95065,11.449352 237.2,9.2 c 1.67166,-1.671664 5.30754,-1.498303 6.82094,0.325228 1.13448,1.366971 1.4407,1.366971 2.95118,0 C 248.9924,7.696902 252.14666,7.546657 253.8,9.2 c 2.29289,2.292895 1.19594,5.379184 -3.586,10.089213 l -4.78599,4.714029 z"
         id="path372"
         style="fill:#fe0000;stroke-width:0.5;stroke-dasharray:none" />
      <path
         d="M 246,16.908208 C 246,10.012178 247.01646,8 250.5,8 c 1.155,0 2.64,0.54 3.3,1.2 2.25758,2.257582 1.20739,5.37633 -3.3,9.8 l -4.5,4.416416 z"
         id="path374"
         style="fill:#bc0000;stroke-width:0.5;stroke-dasharray:none" />
    </g>
    <g
       transform="translate(514.5,281.73942)"
       id="use9879"
       style="stroke-width:0.5;stroke-dasharray:none">
      <path
         d="M 240.714,19.217272 C 235.99487,14.426097 234.95065,11.449352 237.2,9.2 c 1.67166,-1.671664 5.30754,-1.498303 6.82094,0.325228 1.13448,1.366971 1.4407,1.366971 2.95118,0 C 248.9924,7.696902 252.14666,7.546657 253.8,9.2 c 2.29289,2.292895 1.19594,5.379184 -3.586,10.089213 l -4.78599,4.714029 z"
         id="path378"
         style="fill:#fe0000;stroke-width:0.5;stroke-dasharray:none" />
      <path
         d="M 246,16.908208 C 246,10.012178 247.01646,8 250.5,8 c 1.155,0 2.64,0.54 3.3,1.2 2.25758,2.257582 1.20739,5.37633 -3.3,9.8 l -4.5,4.416416 z"
         id="path380"
         style="fill:#bc0000;stroke-width:0.5;stroke-dasharray:none" />
    </g>
    <g
       transform="translate(529.5,254.73942)"
       id="use9881"
       style="stroke-width:0.5;stroke-dasharray:none">
      <path
         d="M 240.714,19.217272 C 235.99487,14.426097 234.95065,11.449352 237.2,9.2 c 1.67166,-1.671664 5.30754,-1.498303 6.82094,0.325228 1.13448,1.366971 1.4407,1.366971 2.95118,0 C 248.9924,7.696902 252.14666,7.546657 253.8,9.2 c 2.29289,2.292895 1.19594,5.379184 -3.586,10.089213 l -4.78599,4.714029 z"
         id="path384"
         style="fill:#fe0000;stroke-width:0.5;stroke-dasharray:none" />
      <path
         d="M 246,16.908208 C 246,10.012178 247.01646,8 250.5,8 c 1.155,0 2.64,0.54 3.3,1.2 2.25758,2.257582 1.20739,5.37633 -3.3,9.8 l -4.5,4.416416 z"
         id="path386"
         style="fill:#bc0000;stroke-width:0.5;stroke-dasharray:none" />
    </g>
    <g
       transform="translate(529.5,272.73942)"
       id="use9883"
       style="stroke-width:0.5;stroke-dasharray:none">
      <path
         d="M 240.714,19.217272 C 235.99487,14.426097 234.95065,11.449352 237.2,9.2 c 1.67166,-1.671664 5.30754,-1.498303 6.82094,0.325228 1.13448,1.366971 1.4407,1.366971 2.95118,0 C 248.9924,7.696902 252.14666,7.546657 253.8,9.2 c 2.29289,2.292895 1.19594,5.379184 -3.586,10.089213 l -4.78599,4.714029 z"
         id="path390"
         style="fill:#fe0000;stroke-width:0.5;stroke-dasharray:none" />
      <path
         d="M 246,16.908208 C 246,10.012178 247.01646,8 250.5,8 c 1.155,0 2.64,0.54 3.3,1.2 2.25758,2.257582 1.20739,5.37633 -3.3,9.8 l -4.5,4.416416 z"
         id="path392"
         style="fill:#bc0000;stroke-width:0.5;stroke-dasharray:none" />
    </g>
    <g
       transform="rotate(180,510.75,180.13029)"
       id="use9885"
       style="stroke-width:0.5;stroke-dasharray:none">
      <path
         d="M 240.714,19.217272 C 235.99487,14.426097 234.95065,11.449352 237.2,9.2 c 1.67166,-1.671664 5.30754,-1.498303 6.82094,0.325228 1.13448,1.366971 1.4407,1.366971 2.95118,0 C 248.9924,7.696902 252.14666,7.546657 253.8,9.2 c 2.29289,2.292895 1.19594,5.379184 -3.586,10.089213 l -4.78599,4.714029 z"
         id="path396"
         style="fill:#fe0000;stroke-width:0.5;stroke-dasharray:none" />
      <path
         d="M 246,16.908208 C 246,10.012178 247.01646,8 250.5,8 c 1.155,0 2.64,0.54 3.3,1.2 2.25758,2.257582 1.20739,5.37633 -3.3,9.8 l -4.5,4.416416 z"
         id="path398"
         style="fill:#bc0000;stroke-width:0.5;stroke-dasharray:none" />
    </g>
    <g
       transform="rotate(180,510.75,171.13029)"
       id="use9887"
       style="stroke-width:0.5;stroke-dasharray:none">
      <path
         d="M 240.714,19.217272 C 235.99487,14.426097 234.95065,11.449352 237.2,9.2 c 1.67166,-1.671664 5.30754,-1.498303 6.82094,0.325228 1.13448,1.366971 1.4407,1.366971 2.95118,0 C 248.9924,7.696902 252.14666,7.546657 253.8,9.2 c 2.29289,2.292895 1.19594,5.379184 -3.586,10.089213 l -4.78599,4.714029 z"
         id="path402"
         style="fill:#fe0000;stroke-width:0.5;stroke-dasharray:none" />
      <path
         d="M 246,16.908208 C 246,10.012178 247.01646,8 250.5,8 c 1.155,0 2.64,0.54 3.3,1.2 2.25758,2.257582 1.20739,5.37633 -3.3,9.8 l -4.5,4.416416 z"
         id="path404"
         style="fill:#bc0000;stroke-width:0.5;stroke-dasharray:none" />
    </g>
    <g
       transform="rotate(180,503.25,184.63029)"
       id="use9889"
       style="stroke-width:0.5;stroke-dasharray:none">
      <path
         d="M 240.714,19.217272 C 235.99487,14.426097 234.95065,11.449352 237.2,9.2 c 1.67166,-1.671664 5.30754,-1.498303 6.82094,0.325228 1.13448,1.366971 1.4407,1.366971 2.95118,0 C 248.9924,7.696902 252.14666,7.546657 253.8,9.2 c 2.29289,2.292895 1.19594,5.379184 -3.586,10.089213 l -4.78599,4.714029 z"
         id="path408"
         style="fill:#fe0000;stroke-width:0.5;stroke-dasharray:none" />
      <path
         d="M 246,16.908208 C 246,10.012178 247.01646,8 250.5,8 c 1.155,0 2.64,0.54 3.3,1.2 2.25758,2.257582 1.20739,5.37633 -3.3,9.8 l -4.5,4.416416 z"
         id="path410"
         style="fill:#bc0000;stroke-width:0.5;stroke-dasharray:none" />
    </g>
    <g
       transform="rotate(180,503.25,175.63029)"
       id="use9891"
       style="stroke-width:0.5;stroke-dasharray:none">
      <path
         d="M 240.714,19.217272 C 235.99487,14.426097 234.95065,11.449352 237.2,9.2 c 1.67166,-1.671664 5.30754,-1.498303 6.82094,0.325228 1.13448,1.366971 1.4407,1.366971 2.95118,0 C 248.9924,7.696902 252.14666,7.546657 253.8,9.2 c 2.29289,2.292895 1.19594,5.379184 -3.586,10.089213 l -4.78599,4.714029 z"
         id="path414"
         style="fill:#fe0000;stroke-width:0.5;stroke-dasharray:none" />
      <path
         d="M 246,16.908208 C 246,10.012178 247.01646,8 250.5,8 c 1.155,0 2.64,0.54 3.3,1.2 2.25758,2.257582 1.20739,5.37633 -3.3,9.8 l -4.5,4.416416 z"
         id="path416"
         style="fill:#bc0000;stroke-width:0.5;stroke-dasharray:none" />
    </g>
    <g
       transform="rotate(180,503.25,166.63029)"
       id="use9893"
       style="stroke-width:0.5;stroke-dasharray:none">
      <path
         d="M 240.714,19.217272 C 235.99487,14.426097 234.95065,11.449352 237.2,9.2 c 1.67166,-1.671664 5.30754,-1.498303 6.82094,0.325228 1.13448,1.366971 1.4407,1.366971 2.95118,0 C 248.9924,7.696902 252.14666,7.546657 253.8,9.2 c 2.29289,2.292895 1.19594,5.379184 -3.586,10.089213 l -4.78599,4.714029 z"
         id="path420"
         style="fill:#fe0000;stroke-width:0.5;stroke-dasharray:none" />
      <path
         d="M 246,16.908208 C 246,10.012178 247.01646,8 250.5,8 c 1.155,0 2.64,0.54 3.3,1.2 2.25758,2.257582 1.20739,5.37633 -3.3,9.8 l -4.5,4.416416 z"
         id="path422"
         style="fill:#bc0000;stroke-width:0.5;stroke-dasharray:none" />
    </g>
    <g
       transform="rotate(180,493.25,184.63029)"
       id="use9895"
       style="stroke-width:0.5;stroke-dasharray:none">
      <path
         d="M 240.714,19.217272 C 235.99487,14.426097 234.95065,11.449352 237.2,9.2 c 1.67166,-1.671664 5.30754,-1.498303 6.82094,0.325228 1.13448,1.366971 1.4407,1.366971 2.95118,0 C 248.9924,7.696902 252.14666,7.546657 253.8,9.2 c 2.29289,2.292895 1.19594,5.379184 -3.586,10.089213 l -4.78599,4.714029 z"
         id="path426"
         style="fill:#fe0000;stroke-width:0.5;stroke-dasharray:none" />
      <path
         d="M 246,16.908208 C 246,10.012178 247.01646,8 250.5,8 c 1.155,0 2.64,0.54 3.3,1.2 2.25758,2.257582 1.20739,5.37633 -3.3,9.8 l -4.5,4.416416 z"
         id="path428"
         style="fill:#bc0000;stroke-width:0.5;stroke-dasharray:none" />
    </g>
    <g
       transform="rotate(180,493.25,175.63029)"
       id="use9897"
       style="stroke-width:0.5;stroke-dasharray:none">
      <path
         d="M 240.714,19.217272 C 235.99487,14.426097 234.95065,11.449352 237.2,9.2 c 1.67166,-1.671664 5.30754,-1.498303 6.82094,0.325228 1.13448,1.366971 1.4407,1.366971 2.95118,0 C 248.9924,7.696902 252.14666,7.546657 253.8,9.2 c 2.29289,2.292895 1.19594,5.379184 -3.586,10.089213 l -4.78599,4.714029 z"
         id="path432"
         style="fill:#fe0000;stroke-width:0.5;stroke-dasharray:none" />
      <path
         d="M 246,16.908208 C 246,10.012178 247.01646,8 250.5,8 c 1.155,0 2.64,0.54 3.3,1.2 2.25758,2.257582 1.20739,5.37633 -3.3,9.8 l -4.5,4.416416 z"
         id="path434"
         style="fill:#bc0000;stroke-width:0.5;stroke-dasharray:none" />
    </g>
    <g
       transform="rotate(180,493.25,166.63029)"
       id="use9899"
       style="stroke-width:0.5;stroke-dasharray:none">
      <path
         d="M 240.714,19.217272 C 235.99487,14.426097 234.95065,11.449352 237.2,9.2 c 1.67166,-1.671664 5.30754,-1.498303 6.82094,0.325228 1.13448,1.366971 1.4407,1.366971 2.95118,0 C 248.9924,7.696902 252.14666,7.546657 253.8,9.2 c 2.29289,2.292895 1.19594,5.379184 -3.586,10.089213 l -4.78599,4.714029 z"
         id="path438"
         style="fill:#fe0000;stroke-width:0.5;stroke-dasharray:none" />
      <path
         d="M 246,16.908208 C 246,10.012178 247.01646,8 250.5,8 c 1.155,0 2.64,0.54 3.3,1.2 2.25758,2.257582 1.20739,5.37633 -3.3,9.8 l -4.5,4.416416 z"
         id="path440"
         style="fill:#bc0000;stroke-width:0.5;stroke-dasharray:none" />
    </g>
    <g
       transform="rotate(180,485.75,180.13029)"
       id="use9901"
       style="stroke-width:0.5;stroke-dasharray:none">
      <path
         d="M 240.714,19.217272 C 235.99487,14.426097 234.95065,11.449352 237.2,9.2 c 1.67166,-1.671664 5.30754,-1.498303 6.82094,0.325228 1.13448,1.366971 1.4407,1.366971 2.95118,0 C 248.9924,7.696902 252.14666,7.546657 253.8,9.2 c 2.29289,2.292895 1.19594,5.379184 -3.586,10.089213 l -4.78599,4.714029 z"
         id="path444"
         style="fill:#fe0000;stroke-width:0.5;stroke-dasharray:none" />
      <path
         d="M 246,16.908208 C 246,10.012178 247.01646,8 250.5,8 c 1.155,0 2.64,0.54 3.3,1.2 2.25758,2.257582 1.20739,5.37633 -3.3,9.8 l -4.5,4.416416 z"
         id="path446"
         style="fill:#bc0000;stroke-width:0.5;stroke-dasharray:none" />
    </g>
    <g
       transform="rotate(180,485.75,171.13029)"
       id="use9903"
       style="stroke-width:0.5;stroke-dasharray:none">
      <path
         d="M 240.714,19.217272 C 235.99487,14.426097 234.95065,11.449352 237.2,9.2 c 1.67166,-1.671664 5.30754,-1.498303 6.82094,0.325228 1.13448,1.366971 1.4407,1.366971 2.95118,0 C 248.9924,7.696902 252.14666,7.546657 253.8,9.2 c 2.29289,2.292895 1.19594,5.379184 -3.586,10.089213 l -4.78599,4.714029 z"
         id="path450"
         style="fill:#fe0000;stroke-width:0.5;stroke-dasharray:none" />
      <path
         d="M 246,16.908208 C 246,10.012178 247.01646,8 250.5,8 c 1.155,0 2.64,0.54 3.3,1.2 2.25758,2.257582 1.20739,5.37633 -3.3,9.8 l -4.5,4.416416 z"
         id="path452"
         style="fill:#bc0000;stroke-width:0.5;stroke-dasharray:none" />
    </g>
    <g
       transform="translate(710.025,240)"
       id="use11251"
       style="fill:#df0000;stroke-width:0.5;stroke-dasharray:none">
      <g
         id="use456"
         style="stroke-width:0.5;stroke-dasharray:none">
        <path
           d="M 4.9840521,32.578091 C 1.870653,29.325097 2.1087365,23.444548 5.4655326,20.6857 c 2.2986147,-1.889165 5.5112604,-0.81715 6.9669734,2.324782 3.118592,6.731 -2.8390681,14.383666 -7.4484539,9.567609 z"
           id="path462"
           style="stroke:#000000;stroke-width:0.5;stroke-dasharray:none" />
      </g>
      <g
         transform="matrix(0.34594092,0,0,0.34594092,-185.65022,-104.46734)"
         id="use458"
         style="stroke-width:1.44533;stroke-dasharray:none">
        <path
           d="m 551.3495,394.97529 c -0.78398,-0.78398 -1.22919,-4.3821 -1.22919,-9.93403 v -8.70485 c 0,-3.14229 -0.45504,-7.56314 0.16329,-9.22887 0.85361,-2.29958 1.59396,-2.99524 3.20345,-2.76569 2.07275,0.29562 2.13326,0.74353 2.13326,15.79055 0,13.06475 -0.23781,15.53211 -1.52081,15.77919 -0.83645,0.16109 -2.07395,-0.26025 -2.75,-0.9363 z"
           id="path466"
           style="fill:#000000;stroke-width:1.44533;stroke-dasharray:none" />
        <path
           d="m 558.26396,390.50393 c -3.12324,-7.04142 -3.39374,-18.83549 0.95469,-24.44186 3.95898,-5.10425 10.38346,-2.42768 12.10902,4.99529 4.65563,20.02749 -7.08212,32.93224 -13.06371,19.44657 z m 8.79015,1.81127 c 4.22384,-5.82341 4.05045,-21.3955 0.64672,-24.35911 -7.36838,-6.41559 -10.20856,3.82631 -9.58242,13.89657 0.47537,7.64533 5.35707,15.39638 8.9357,10.46254 z m -2.95082,-1.03006 c -3.24901,-0.23462 -5.52162,-10.89309 -4.79797,-14.80732 0.81078,-4.3856 1.88658,-8.72653 4.76725,-8.5334 2.44993,0.16427 5.07549,2.88006 5.07549,11.13278 0,9.67863 -2.78144,12.37139 -5.04477,12.20794 z m 1.27769,-3.14676 c 2.61258,-2.90447 2.73762,-17.01113 -0.96192,-18.11955 -3.15048,-0.94392 -3.56828,9.14967 -1.78701,16.1632 0.48357,1.90401 1.76303,3.05242 2.74893,1.95635 z"
           id="path468"
           style="fill:#000000;stroke-width:1.44533;stroke-dasharray:none" />
        <path
           d="m 564.10329,391.28514 c -3.24901,-0.23462 -5.52162,-10.89309 -4.79797,-14.80732 0.81078,-4.3856 1.88658,-8.72653 4.76725,-8.5334 2.44993,0.16427 5.07549,2.88006 5.07549,11.13278 0,9.67863 -2.78144,12.37139 -5.04477,12.20794 z m 2.95082,1.03006 c 4.22384,-5.82341 4.05045,-21.3955 0.64672,-24.35911 -7.36838,-6.41559 -10.20856,3.82631 -9.58242,13.89657 0.47537,7.64533 5.35707,15.39638 8.9357,10.46254 z m -12.9338,-12.1691 c 0,-12.8887 -0.92171,-17.43238 -2.36762,-11.67144 0.12254,5.95036 0.31608,10.4154 0.36762,15.06445 0.071,6.40427 0.39618,10.60699 1,10.60699 0.61905,0 1,-5.33333 1,-14 z"
           id="path470"
           style="fill:#ffffff;stroke-width:1.44533;stroke-dasharray:none" />
      </g>
    </g>
    <g
       id="use11253"
       style="fill:#df0000;stroke-width:0.5;stroke-dasharray:none"
       transform="translate(711,246)">
      <g
         transform="rotate(180,39.9875,64.5)"
         id="use474"
         style="stroke-width:0.5;stroke-dasharray:none">
        <g
           id="use478"
           style="stroke-width:0.5;stroke-dasharray:none">
          <path
             d="M 4.9840521,32.578091 C 1.870653,29.325097 2.1087365,23.444548 5.4655326,20.6857 c 2.2986147,-1.889165 5.5112604,-0.81715 6.9669734,2.324782 3.118592,6.731 -2.8390681,14.383666 -7.4484539,9.567609 z"
             id="path484"
             style="stroke:#000000;stroke-width:0.5;stroke-dasharray:none" />
        </g>
        <g
           transform="matrix(0.34594092,0,0,0.34594092,-185.65022,-104.46734)"
           id="use480"
           style="stroke-width:1.44533;stroke-dasharray:none">
          <path
             d="m 551.3495,394.97529 c -0.78398,-0.78398 -1.22919,-4.3821 -1.22919,-9.93403 v -8.70485 c 0,-3.14229 -0.45504,-7.56314 0.16329,-9.22887 0.85361,-2.29958 1.59396,-2.99524 3.20345,-2.76569 2.07275,0.29562 2.13326,0.74353 2.13326,15.79055 0,13.06475 -0.23781,15.53211 -1.52081,15.77919 -0.83645,0.16109 -2.07395,-0.26025 -2.75,-0.9363 z"
             id="path488"
             style="fill:#000000;stroke-width:1.44533;stroke-dasharray:none" />
          <path
             d="m 558.26396,390.50393 c -3.12324,-7.04142 -3.39374,-18.83549 0.95469,-24.44186 3.95898,-5.10425 10.38346,-2.42768 12.10902,4.99529 4.65563,20.02749 -7.08212,32.93224 -13.06371,19.44657 z m 8.79015,1.81127 c 4.22384,-5.82341 4.05045,-21.3955 0.64672,-24.35911 -7.36838,-6.41559 -10.20856,3.82631 -9.58242,13.89657 0.47537,7.64533 5.35707,15.39638 8.9357,10.46254 z m -2.95082,-1.03006 c -3.24901,-0.23462 -5.52162,-10.89309 -4.79797,-14.80732 0.81078,-4.3856 1.88658,-8.72653 4.76725,-8.5334 2.44993,0.16427 5.07549,2.88006 5.07549,11.13278 0,9.67863 -2.78144,12.37139 -5.04477,12.20794 z m 1.27769,-3.14676 c 2.61258,-2.90447 2.73762,-17.01113 -0.96192,-18.11955 -3.15048,-0.94392 -3.56828,9.14967 -1.78701,16.1632 0.48357,1.90401 1.76303,3.05242 2.74893,1.95635 z"
             id="path490"
             style="fill:#000000;stroke-width:1.44533;stroke-dasharray:none" />
          <path
             d="m 564.10329,391.28514 c -3.24901,-0.23462 -5.52162,-10.89309 -4.79797,-14.80732 0.81078,-4.3856 1.88658,-8.72653 4.76725,-8.5334 2.44993,0.16427 5.07549,2.88006 5.07549,11.13278 0,9.67863 -2.78144,12.37139 -5.04477,12.20794 z m 2.95082,1.03006 c 4.22384,-5.82341 4.05045,-21.3955 0.64672,-24.35911 -7.36838,-6.41559 -10.20856,3.82631 -9.58242,13.89657 0.47537,7.64533 5.35707,15.39638 8.9357,10.46254 z m -12.9338,-12.1691 c 0,-12.8887 -0.92171,-17.43238 -2.36762,-11.67144 0.12254,5.95036 0.31608,10.4154 0.36762,15.06445 0.071,6.40427 0.39618,10.60699 1,10.60699 0.61905,0 1,-5.33333 1,-14 z"
             id="path492"
             style="fill:#ffffff;stroke-width:1.44533;stroke-dasharray:none" />
        </g>
      </g>
    </g>
  </g>
</svg>
