<?xml version="1.0" encoding="UTF-8" standalone="no"?>
<!-- Created with Inkscape (http://www.inkscape.org/) -->

<svg
   version="1.1"
   width="177.58273"
   height="277.58493"
   viewBox="0 0 177.58273 277.58493"
   id="svg10047"
   sodipodi:docname="ace_of_spades.svg"
   inkscape:version="1.2.2 (b0a8486541, 2022-12-01)"
   xmlns:inkscape="http://www.inkscape.org/namespaces/inkscape"
   xmlns:sodipodi="http://sodipodi.sourceforge.net/DTD/sodipodi-0.dtd"
   xmlns:xlink="http://www.w3.org/1999/xlink"
   xmlns="http://www.w3.org/2000/svg"
   xmlns:svg="http://www.w3.org/2000/svg"
   xmlns:rdf="http://www.w3.org/1999/02/22-rdf-syntax-ns#"
   xmlns:cc="http://creativecommons.org/ns#"
   xmlns:dc="http://purl.org/dc/elements/1.1/">
  <sodipodi:namedview
     id="namedview37"
     pagecolor="#ffffff"
     bordercolor="#666666"
     borderopacity="1.0"
     inkscape:showpageshadow="2"
     inkscape:pageopacity="0.0"
     inkscape:pagecheckerboard="0"
     inkscape:deskcolor="#d1d1d1"
     showgrid="false"
     inkscape:zoom="2.8142857"
     inkscape:cx="89.543148"
     inkscape:cy="138.93401"
     inkscape:window-width="1854"
     inkscape:window-height="1011"
     inkscape:window-x="0"
     inkscape:window-y="0"
     inkscape:window-maximized="1"
     inkscape:current-layer="svg10047" />
  <metadata
     id="metadata16869">
    <rdf:RDF>
      <cc:Work
         rdf:about="">
        <dc:format>image/svg+xml</dc:format>
        <dc:type
           rdf:resource="http://purl.org/dc/dcmitype/StillImage" />
      </cc:Work>
    </rdf:RDF>
  </metadata>
  <defs
     id="defs3059">
    <g
       transform="rotate(180,-27.35,62.8549)"
       id="sl">
      <path
         d="m -55.25,118.65625 c -0.395568,1.06793 -1.148622,1.08315 -3,1 -2.3326,-0.10477 -3.286311,0.33957 -3.5625,1.6875 -0.631234,3.08072 0.690447,6.45372 3.96875,10.1875 l 3.125,3.5625 2.78125,-2.65625 c 3.331613,-3.19189 5.235439,-7.3857 4.78125,-10.59375 -0.275883,-1.94862 -0.893036,-2.31003 -3.59375,-2.1875 -1.955657,0.0887 -2.742953,0.11592 -3.09375,-1 z"
         id="path5833"
         style="fill:#009800" />
      <path
         d="m 1.8125,-6.78125 -2.34375,2 C -6.560052,0.32008 -7.222579,8.78997 -2.65625,8.5625 -2.003917,8.53 -1.240062,8.32894 -0.375,7.90625 c 1.906609,-0.93163 1.760773,-0.99451 -1.0625,-0.5 -3.002478,0.5259 -3.25,0.36081 -3.25,-2.125 0,-3.0795 1.326818,-5.98672 4.375,-9.5625 z M 1.90625,-6.3125 1.71875,0.71875 C 1.6609561,2.8917995 -2,-0.40625 -2,-0.40625 -2,-0.40624929 0.42115553,2.2201295 1.5,1.75 1.9444621,1.8952379 1.571078,2.9991345 1.65625,3.6875 1.7923646,4.7875911 1.750814,5.0562184 0.78125,4.625 -0.18831439,4.1937816 -1.5849481,4.188967 -2.78125,4 c 1.2509513,0.295075 2.49904869,0.2593374 3.75,1 0.435704,0.1018058 0.8052698,0.3670812 0.75,1.15625 l -0.25,1.75 c 0.118392,0.3977563 0.088671,1.0649278 0.375,0.875 C 2.1300791,8.5913222 1.0928515,5.8484711 3.125,4.625 L 7.0625,2.53125 c -1.3260084,0.6004566 -2.7614041,0.7995693 -4,1.8125 C 1.8239041,5.3566807 1.941421,4.7789823 1.96875,3.5625 1.996079,2.3460172 1.8859064,2.7587412 2.0625,2.28125 1.9965235,0.9007439 5.836,-1.28254 5.84375,-1.28125 c -1.1508752,0.73806126 -2.0595898,0.62899049 -2.5,1.25 -0.9386081,1.3235035 -1.0999845,1.00681765 -1.25,-0.5625 C 1.9437344,-2.1630676 1.90625,-6.3125 1.90625,-6.3125 Z"
         transform="rotate(180,-26.35,63.8549)"
         id="path17552-0"
         style="fill:#000000" />
    </g>
    <g
       id="def_1">
      <path
         d="m 30,96.45034 c 0,-7.137984 0.456217,-11.422928 1.410724,-13.25 1.812337,-3.469091 6.182685,-7.514233 10.441968,-9.664963 3.985938,-2.012704 7.410258,-0.999424 12.894099,3.815452 C 60.150771,82.095586 61,84.689433 61,96.45034 V 107 H 45.5 30 Z M 41.5,66.341153 C 37.498575,64.235375 33.143803,60.117039 31.410724,56.79966 30.456217,54.972588 30,50.687644 30,43.54966 V 33 H 45.5 61 V 43.54966 C 61,54.998265 60.200662,57.622778 55.339276,62.135838 52.533714,64.740379 46.849994,68.037585 45.29966,67.959962 44.859847,67.937942 43.15,67.209478 41.5,66.341153 Z"
         id="path4730"
         style="fill:#ccc9cc" />
      <path
         d="m 31,95.95034 c 0,-11.044955 0.96977,-14.064227 5.831227,-18.154873 5.142061,-4.32676 8.464385,-5.205426 12.316081,-3.257278 C 57.992155,79.011823 60,82.973261 60,95.95034 V 106 H 45.5 31 Z M 57.996262,94.75 c -0.0044,-10.973309 -1.602756,-14.488276 -8.093908,-17.799815 -4.038568,-2.060324 -4.301524,-2.073933 -7.984341,-0.413214 -7.34495,3.312111 -8.375403,5.3169 -8.759038,17.041056 L 32.81795,104 H 45.408975 58 L 57.9963,94.75 Z M 41.5,65.338367 C 32.953859,60.83296 31,56.871519 31,44.04966 V 34 H 45.5 60 V 44.04966 C 60,56.964803 57.976516,60.999041 49.29966,65.383027 45.439545,67.333352 45.282509,67.332452 41.5,65.338367 Z m 8.289838,-2.231957 c 6.9066,-3.524987 7.670802,-5.110943 8.051187,-16.708711 L 58.18205,36 H 45.591025 33 l 0.0037,9.25 c 0.0044,10.802397 1.587882,14.432445 7.703782,17.660121 4.71763,2.489736 4.593943,2.487063 9.082318,0.196289 z"
         id="path4728"
         style="fill:#9b989b" />
    </g>
    <g
       id="cf">
      <path
         d="m 78.25,117.25 c 0,2.762 -2.238,5 -5,5 H 5.75 c -2.761,0 -5,-2.238 -5,-5 V 5.75 c 0,-2.762 2.239,-5 5,-5 h 67.5 c 2.762,0 5,2.238 5,5 z"
         id="path8383"
         style="fill:#ffffff;stroke:#000000;stroke-width:1.5" />
      <path
         d="m 72.226712,114.23425 c 0,2.61259 -1.890126,4.72953 -4.222801,4.72953 H 10.996089 c -2.3318303,0 -4.2228009,-2.11694 -4.2228009,-4.72953 V 8.7657498 c 0,-2.6125922 1.8909706,-4.7295293 4.2228009,-4.7295293 h 57.007822 c 2.332675,0 4.222801,2.1169371 4.222801,4.7295293 z"
         id="path10068"
         style="fill:#ffffff;stroke:#000000;stroke-width:1" />
    </g>
    <g
       id="indicator-background">
      <path
         d="M 4.9840521,32.578091 C 1.870653,29.325097 2.1087365,23.444548 5.4655326,20.6857 c 2.2986147,-1.889165 5.5112604,-0.81715 6.9669734,2.324782 3.118592,6.731 -2.8390681,14.383666 -7.4484539,9.567609 z"
         id="path6341-2"
         style="stroke:#000000" />
    </g>
    <g
       id="letter-a">
      <path
         d="m 11.353991,31.254174 c 0.250559,-0.464306 -1.136266,-0.658828 -0.794309,-1.466557 0.148167,-0.349985 0.120064,-0.898159 0.130546,-1.97199 0.01691,-1.731786 -0.422375,-3.057995 -2.636873,-2.8998 -0.9874527,0.07054 -2.7573339,0.415073 -2.7628337,1.498239 -0.00153,0.300471 0.1813712,0.423239 0.6129303,0.471365 0.7153111,0.07977 3.0141764,-0.738637 3.0141764,-0.158511 0,0.279836 -0.1861506,0.602264 -1.0979282,0.534011 -0.9910959,-0.07419 -1.3859052,-0.278504 -2.1404034,0.313743 -1.2458117,0.977886 -1.1834626,2.48785 0.044545,3.45177 0.5889565,0.462299 1.3370637,0.44862 1.9867094,0.319521 2.0255418,-0.402519 3.4098902,0.340997 3.6434402,-0.09179 z M 7.3472602,28.837586 C 8.6039014,28.697757 9.5558394,29.00025 8.7004816,29.671656 8.4987628,29.830001 7.8137572,29.92902 7.4068669,29.891699 6.6008663,29.356744 6.9060377,29.149165 7.3472602,28.837586 Z"
         id="path6289"
         style="fill:#000000" />
      <path
         d="m 8.8471675,30.113367 c 0.2656044,-0.159241 0.5680646,-0.56713 0.6721402,-0.906422 0.4453296,-0.822936 -1.8701094,-1.413035 -2.989328,-0.636206 -1.5403452,1.069125 1.1428417,2.148128 2.3171878,1.542628 z M 6.2092418,30.362523 C 4.771744,29.302497 5.6692811,27.683912 7.5878825,27.683912 c 0.4692412,0 1.1100439,0.107897 1.4239534,0.239772 0.4927001,0.206977 0.6456003,-0.36223 0.6456003,-0.856105 0,-0.971331 -0.9935386,-1.401341 -2.0788213,-0.971245 -2.5439579,1.008168 -1.760076,-0.354687 -0.4693186,-0.662768 1.9320111,-0.461138 3.3925087,0.05337 3.0898247,2.788051 -0.08356,0.754923 -0.181682,1.205538 -0.2429423,1.528774 -0.1689426,0.891417 0.7650813,0.921879 0.6844203,1.203655 -0.04854,0.169577 -1.0618398,-0.572119 -2.8673165,-0.104125 -0.5326397,0.138064 -1.1406848,-0.175198 -1.5640407,-0.487398 z"
         id="path6594"
         style="fill:#ffffff" />
    </g>
    <g
       transform="translate(-0.975,-6)"
       id="it1">
      <use
         id="use8634"
         x="0"
         y="0"
         width="1027"
         height="615"
         xlink:href="#indicator-background" />
      <use
         id="use8636"
         x="0"
         y="0"
         width="1027"
         height="615"
         xlink:href="#letter-a" />
    </g>
    <g
       id="ib1">
      <use
         transform="rotate(180,39.5,61.5)"
         id="use8699"
         x="0"
         y="0"
         width="1027"
         height="615"
         xlink:href="#it1" />
    </g>
    <g
       id="1_spade">
      <use
         id="use3277"
         x="0"
         y="369"
         width="1027"
         height="615"
         xlink:href="#cf" />
      <use
         transform="matrix(0.87777778,0,0,0.87857143,0,369)"
         id="use3279"
         x="0"
         y="0"
         width="1027"
         height="615"
         xlink:href="#def_1" />
      <use
         transform="matrix(0.99073307,-0.572,0.572,0.99073307,18,385)"
         id="use9014"
         x="0"
         y="0"
         width="1027"
         height="615"
         xlink:href="#sl" />
      <use
         transform="matrix(0.99073307,0.572,-0.572,0.99073307,61,385)"
         id="use9016"
         x="0"
         y="0"
         width="1027"
         height="615"
         xlink:href="#sl" />
      <use
         transform="matrix(0.88,0,0,0.88,39.5,413)"
         id="use9018"
         x="0"
         y="0"
         width="1027"
         height="615"
         xlink:href="#sl" />
      <use
         transform="matrix(0.88,0,0,-0.88,39.5,448)"
         id="use9020"
         x="0"
         y="0"
         width="1027"
         height="615"
         xlink:href="#sl" />
      <use
         transform="matrix(0.99073307,0.572,0.572,-0.99073307,18,476)"
         id="use9022"
         x="0"
         y="0"
         width="1027"
         height="615"
         xlink:href="#sl" />
      <use
         transform="matrix(0.99073307,-0.572,-0.572,-0.99073307,61,476)"
         id="use9024"
         x="0"
         y="0"
         width="1027"
         height="615"
         xlink:href="#sl" />
      <use
         id="use3281"
         style="fill:#00a000"
         x="0"
         y="369"
         width="1027"
         height="615"
         xlink:href="#it1" />
      <use
         id="use3283"
         style="fill:#00a000"
         x="0"
         y="369"
         width="1027"
         height="615"
         xlink:href="#ib1" />
    </g>
  </defs>
  <g
     id="use34"
     transform="matrix(2.278481,0,0,2.2764228,-1.2086348,-841.20756)"
     style="stroke-width:0.439087;stroke-dasharray:none">
    <g
       id="use320"
       transform="translate(0,369)"
       style="stroke-width:0.439087;stroke-dasharray:none">
      <path
         d="m 78.25,117.25 c 0,2.762 -2.238,5 -5,5 H 5.75 c -2.761,0 -5,-2.238 -5,-5 V 5.75 c 0,-2.762 2.239,-5 5,-5 h 67.5 c 2.762,0 5,2.238 5,5 z"
         id="path342"
         style="fill:#ffffff;stroke:#000000;stroke-width:0.439087;stroke-dasharray:none" />
      <path
         d="m 72.226712,114.23425 c 0,2.61259 -1.890126,4.72953 -4.222801,4.72953 H 10.996089 c -2.3318303,0 -4.2228009,-2.11694 -4.2228009,-4.72953 V 8.7657498 c 0,-2.6125922 1.8909706,-4.7295293 4.2228009,-4.7295293 h 57.007822 c 2.332675,0 4.222801,2.1169371 4.222801,4.7295293 z"
         id="path344"
         style="fill:#ffffff;stroke:#000000;stroke-width:0.439087;stroke-dasharray:none" />
    </g>
    <g
       id="use322"
       transform="matrix(0.87777778,0,0,0.87857143,0,369)"
       style="stroke-width:0.5;stroke-dasharray:none">
      <path
         d="m 30,96.45034 c 0,-7.137984 0.456217,-11.422928 1.410724,-13.25 1.812337,-3.469091 6.182685,-7.514233 10.441968,-9.664963 3.985938,-2.012704 7.410258,-0.999424 12.894099,3.815452 C 60.150771,82.095586 61,84.689433 61,96.45034 V 107 H 45.5 30 Z M 41.5,66.341153 C 37.498575,64.235375 33.143803,60.117039 31.410724,56.79966 30.456217,54.972588 30,50.687644 30,43.54966 V 33 H 45.5 61 V 43.54966 C 61,54.998265 60.200662,57.622778 55.339276,62.135838 52.533714,64.740379 46.849994,68.037585 45.29966,67.959962 44.859847,67.937942 43.15,67.209478 41.5,66.341153 Z"
         id="path348"
         style="fill:#ccc9cc;stroke-width:0.5;stroke-dasharray:none" />
      <path
         d="m 31,95.95034 c 0,-11.044955 0.96977,-14.064227 5.831227,-18.154873 5.142061,-4.32676 8.464385,-5.205426 12.316081,-3.257278 C 57.992155,79.011823 60,82.973261 60,95.95034 V 106 H 45.5 31 Z M 57.996262,94.75 c -0.0044,-10.973309 -1.602756,-14.488276 -8.093908,-17.799815 -4.038568,-2.060324 -4.301524,-2.073933 -7.984341,-0.413214 -7.34495,3.312111 -8.375403,5.3169 -8.759038,17.041056 L 32.81795,104 H 45.408975 58 L 57.9963,94.75 Z M 41.5,65.338367 C 32.953859,60.83296 31,56.871519 31,44.04966 V 34 H 45.5 60 V 44.04966 C 60,56.964803 57.976516,60.999041 49.29966,65.383027 45.439545,67.333352 45.282509,67.332452 41.5,65.338367 Z m 8.289838,-2.231957 c 6.9066,-3.524987 7.670802,-5.110943 8.051187,-16.708711 L 58.18205,36 H 45.591025 33 l 0.0037,9.25 c 0.0044,10.802397 1.587882,14.432445 7.703782,17.660121 4.71763,2.489736 4.593943,2.487063 9.082318,0.196289 z"
         id="path350"
         style="fill:#9b989b;stroke-width:0.5;stroke-dasharray:none" />
    </g>
    <g
       transform="matrix(-0.99073307,0.572,-0.572,-0.99073307,35.712907,540.83326)"
       id="use324"
       style="stroke-width:0.383818;stroke-dasharray:none">
      <path
         d="m -55.25,118.65625 c -0.395568,1.06793 -1.148622,1.08315 -3,1 -2.3326,-0.10477 -3.286311,0.33957 -3.5625,1.6875 -0.631234,3.08072 0.690447,6.45372 3.96875,10.1875 l 3.125,3.5625 2.78125,-2.65625 c 3.331613,-3.19189 5.235439,-7.3857 4.78125,-10.59375 -0.275883,-1.94862 -0.893036,-2.31003 -3.59375,-2.1875 -1.955657,0.0887 -2.742953,0.11592 -3.09375,-1 z"
         id="path354"
         style="fill:#009800;stroke-width:0.383818;stroke-dasharray:none" />
      <path
         d="m 1.8125,-6.78125 -2.34375,2 C -6.560052,0.32008 -7.222579,8.78997 -2.65625,8.5625 -2.003917,8.53 -1.240062,8.32894 -0.375,7.90625 c 1.906609,-0.93163 1.760773,-0.99451 -1.0625,-0.5 -3.002478,0.5259 -3.25,0.36081 -3.25,-2.125 0,-3.0795 1.326818,-5.98672 4.375,-9.5625 z M 1.90625,-6.3125 1.71875,0.71875 C 1.6609561,2.8917995 -2,-0.40625 -2,-0.40625 -2,-0.40624929 0.42115553,2.2201295 1.5,1.75 1.9444621,1.8952379 1.571078,2.9991345 1.65625,3.6875 1.7923646,4.7875911 1.750814,5.0562184 0.78125,4.625 -0.18831439,4.1937816 -1.5849481,4.188967 -2.78125,4 c 1.2509513,0.295075 2.49904869,0.2593374 3.75,1 0.435704,0.1018058 0.8052698,0.3670812 0.75,1.15625 l -0.25,1.75 c 0.118392,0.3977563 0.088671,1.0649278 0.375,0.875 C 2.1300791,8.5913222 1.0928515,5.8484711 3.125,4.625 L 7.0625,2.53125 c -1.3260084,0.6004566 -2.7614041,0.7995693 -4,1.8125 C 1.8239041,5.3566807 1.941421,4.7789823 1.96875,3.5625 1.996079,2.3460172 1.8859064,2.7587412 2.0625,2.28125 1.9965235,0.9007439 5.836,-1.28254 5.84375,-1.28125 c -1.1508752,0.73806126 -2.0595898,0.62899049 -2.5,1.25 -0.9386081,1.3235035 -1.0999845,1.00681765 -1.25,-0.5625 C 1.9437344,-2.1630676 1.90625,-6.3125 1.90625,-6.3125 Z"
         transform="rotate(180,-26.35,63.8549)"
         id="path356"
         style="fill:#000000;stroke-width:0.383818;stroke-dasharray:none" />
    </g>
    <g
       transform="matrix(-0.99073307,-0.572,0.572,-0.99073307,-65.099105,478.25646)"
       id="use326"
       style="stroke-width:0.383818;stroke-dasharray:none">
      <path
         d="m -55.25,118.65625 c -0.395568,1.06793 -1.148622,1.08315 -3,1 -2.3326,-0.10477 -3.286311,0.33957 -3.5625,1.6875 -0.631234,3.08072 0.690447,6.45372 3.96875,10.1875 l 3.125,3.5625 2.78125,-2.65625 c 3.331613,-3.19189 5.235439,-7.3857 4.78125,-10.59375 -0.275883,-1.94862 -0.893036,-2.31003 -3.59375,-2.1875 -1.955657,0.0887 -2.742953,0.11592 -3.09375,-1 z"
         id="path360"
         style="fill:#009800;stroke-width:0.383818;stroke-dasharray:none" />
      <path
         d="m 1.8125,-6.78125 -2.34375,2 C -6.560052,0.32008 -7.222579,8.78997 -2.65625,8.5625 -2.003917,8.53 -1.240062,8.32894 -0.375,7.90625 c 1.906609,-0.93163 1.760773,-0.99451 -1.0625,-0.5 -3.002478,0.5259 -3.25,0.36081 -3.25,-2.125 0,-3.0795 1.326818,-5.98672 4.375,-9.5625 z M 1.90625,-6.3125 1.71875,0.71875 C 1.6609561,2.8917995 -2,-0.40625 -2,-0.40625 -2,-0.40624929 0.42115553,2.2201295 1.5,1.75 1.9444621,1.8952379 1.571078,2.9991345 1.65625,3.6875 1.7923646,4.7875911 1.750814,5.0562184 0.78125,4.625 -0.18831439,4.1937816 -1.5849481,4.188967 -2.78125,4 c 1.2509513,0.295075 2.49904869,0.2593374 3.75,1 0.435704,0.1018058 0.8052698,0.3670812 0.75,1.15625 l -0.25,1.75 c 0.118392,0.3977563 0.088671,1.0649278 0.375,0.875 C 2.1300791,8.5913222 1.0928515,5.8484711 3.125,4.625 L 7.0625,2.53125 c -1.3260084,0.6004566 -2.7614041,0.7995693 -4,1.8125 C 1.8239041,5.3566807 1.941421,4.7789823 1.96875,3.5625 1.996079,2.3460172 1.8859064,2.7587412 2.0625,2.28125 1.9965235,0.9007439 5.836,-1.28254 5.84375,-1.28125 c -1.1508752,0.73806126 -2.0595898,0.62899049 -2.5,1.25 -0.9386081,1.3235035 -1.0999845,1.00681765 -1.25,-0.5625 C 1.9437344,-2.1630676 1.90625,-6.3125 1.90625,-6.3125 Z"
         transform="rotate(180,-26.35,63.8549)"
         id="path362"
         style="fill:#000000;stroke-width:0.383818;stroke-dasharray:none" />
    </g>
    <g
       transform="matrix(-0.88,0,0,-0.88,-8.636,523.62462)"
       id="use328"
       style="stroke-width:0.498963;stroke-dasharray:none">
      <path
         d="m -55.25,118.65625 c -0.395568,1.06793 -1.148622,1.08315 -3,1 -2.3326,-0.10477 -3.286311,0.33957 -3.5625,1.6875 -0.631234,3.08072 0.690447,6.45372 3.96875,10.1875 l 3.125,3.5625 2.78125,-2.65625 c 3.331613,-3.19189 5.235439,-7.3857 4.78125,-10.59375 -0.275883,-1.94862 -0.893036,-2.31003 -3.59375,-2.1875 -1.955657,0.0887 -2.742953,0.11592 -3.09375,-1 z"
         id="path366"
         style="fill:#009800;stroke-width:0.498963;stroke-dasharray:none" />
      <path
         d="m 1.8125,-6.78125 -2.34375,2 C -6.560052,0.32008 -7.222579,8.78997 -2.65625,8.5625 -2.003917,8.53 -1.240062,8.32894 -0.375,7.90625 c 1.906609,-0.93163 1.760773,-0.99451 -1.0625,-0.5 -3.002478,0.5259 -3.25,0.36081 -3.25,-2.125 0,-3.0795 1.326818,-5.98672 4.375,-9.5625 z M 1.90625,-6.3125 1.71875,0.71875 C 1.6609561,2.8917995 -2,-0.40625 -2,-0.40625 -2,-0.40624929 0.42115553,2.2201295 1.5,1.75 1.9444621,1.8952379 1.571078,2.9991345 1.65625,3.6875 1.7923646,4.7875911 1.750814,5.0562184 0.78125,4.625 -0.18831439,4.1937816 -1.5849481,4.188967 -2.78125,4 c 1.2509513,0.295075 2.49904869,0.2593374 3.75,1 0.435704,0.1018058 0.8052698,0.3670812 0.75,1.15625 l -0.25,1.75 c 0.118392,0.3977563 0.088671,1.0649278 0.375,0.875 C 2.1300791,8.5913222 1.0928515,5.8484711 3.125,4.625 L 7.0625,2.53125 c -1.3260084,0.6004566 -2.7614041,0.7995693 -4,1.8125 C 1.8239041,5.3566807 1.941421,4.7789823 1.96875,3.5625 1.996079,2.3460172 1.8859064,2.7587412 2.0625,2.28125 1.9965235,0.9007439 5.836,-1.28254 5.84375,-1.28125 c -1.1508752,0.73806126 -2.0595898,0.62899049 -2.5,1.25 -0.9386081,1.3235035 -1.0999845,1.00681765 -1.25,-0.5625 C 1.9437344,-2.1630676 1.90625,-6.3125 1.90625,-6.3125 Z"
         transform="rotate(180,-26.35,63.8549)"
         id="path368"
         style="fill:#000000;stroke-width:0.498963;stroke-dasharray:none" />
    </g>
    <g
       transform="matrix(-0.88,0,0,0.88,-8.636,337.37538)"
       id="use330"
       style="stroke-width:0.498963;stroke-dasharray:none">
      <path
         d="m -55.25,118.65625 c -0.395568,1.06793 -1.148622,1.08315 -3,1 -2.3326,-0.10477 -3.286311,0.33957 -3.5625,1.6875 -0.631234,3.08072 0.690447,6.45372 3.96875,10.1875 l 3.125,3.5625 2.78125,-2.65625 c 3.331613,-3.19189 5.235439,-7.3857 4.78125,-10.59375 -0.275883,-1.94862 -0.893036,-2.31003 -3.59375,-2.1875 -1.955657,0.0887 -2.742953,0.11592 -3.09375,-1 z"
         id="path372"
         style="fill:#009800;stroke-width:0.498963;stroke-dasharray:none" />
      <path
         d="m 1.8125,-6.78125 -2.34375,2 C -6.560052,0.32008 -7.222579,8.78997 -2.65625,8.5625 -2.003917,8.53 -1.240062,8.32894 -0.375,7.90625 c 1.906609,-0.93163 1.760773,-0.99451 -1.0625,-0.5 -3.002478,0.5259 -3.25,0.36081 -3.25,-2.125 0,-3.0795 1.326818,-5.98672 4.375,-9.5625 z M 1.90625,-6.3125 1.71875,0.71875 C 1.6609561,2.8917995 -2,-0.40625 -2,-0.40625 -2,-0.40624929 0.42115553,2.2201295 1.5,1.75 1.9444621,1.8952379 1.571078,2.9991345 1.65625,3.6875 1.7923646,4.7875911 1.750814,5.0562184 0.78125,4.625 -0.18831439,4.1937816 -1.5849481,4.188967 -2.78125,4 c 1.2509513,0.295075 2.49904869,0.2593374 3.75,1 0.435704,0.1018058 0.8052698,0.3670812 0.75,1.15625 l -0.25,1.75 c 0.118392,0.3977563 0.088671,1.0649278 0.375,0.875 C 2.1300791,8.5913222 1.0928515,5.8484711 3.125,4.625 L 7.0625,2.53125 c -1.3260084,0.6004566 -2.7614041,0.7995693 -4,1.8125 C 1.8239041,5.3566807 1.941421,4.7789823 1.96875,3.5625 1.996079,2.3460172 1.8859064,2.7587412 2.0625,2.28125 1.9965235,0.9007439 5.836,-1.28254 5.84375,-1.28125 c -1.1508752,0.73806126 -2.0595898,0.62899049 -2.5,1.25 -0.9386081,1.3235035 -1.0999845,1.00681765 -1.25,-0.5625 C 1.9437344,-2.1630676 1.90625,-6.3125 1.90625,-6.3125 Z"
         transform="rotate(180,-26.35,63.8549)"
         id="path374"
         style="fill:#000000;stroke-width:0.498963;stroke-dasharray:none" />
    </g>
    <g
       transform="matrix(-0.99073307,-0.572,-0.572,0.99073307,35.712907,320.16674)"
       id="use332"
       style="stroke-width:0.383818;stroke-dasharray:none">
      <path
         d="m -55.25,118.65625 c -0.395568,1.06793 -1.148622,1.08315 -3,1 -2.3326,-0.10477 -3.286311,0.33957 -3.5625,1.6875 -0.631234,3.08072 0.690447,6.45372 3.96875,10.1875 l 3.125,3.5625 2.78125,-2.65625 c 3.331613,-3.19189 5.235439,-7.3857 4.78125,-10.59375 -0.275883,-1.94862 -0.893036,-2.31003 -3.59375,-2.1875 -1.955657,0.0887 -2.742953,0.11592 -3.09375,-1 z"
         id="path378"
         style="fill:#009800;stroke-width:0.383818;stroke-dasharray:none" />
      <path
         d="m 1.8125,-6.78125 -2.34375,2 C -6.560052,0.32008 -7.222579,8.78997 -2.65625,8.5625 -2.003917,8.53 -1.240062,8.32894 -0.375,7.90625 c 1.906609,-0.93163 1.760773,-0.99451 -1.0625,-0.5 -3.002478,0.5259 -3.25,0.36081 -3.25,-2.125 0,-3.0795 1.326818,-5.98672 4.375,-9.5625 z M 1.90625,-6.3125 1.71875,0.71875 C 1.6609561,2.8917995 -2,-0.40625 -2,-0.40625 -2,-0.40624929 0.42115553,2.2201295 1.5,1.75 1.9444621,1.8952379 1.571078,2.9991345 1.65625,3.6875 1.7923646,4.7875911 1.750814,5.0562184 0.78125,4.625 -0.18831439,4.1937816 -1.5849481,4.188967 -2.78125,4 c 1.2509513,0.295075 2.49904869,0.2593374 3.75,1 0.435704,0.1018058 0.8052698,0.3670812 0.75,1.15625 l -0.25,1.75 c 0.118392,0.3977563 0.088671,1.0649278 0.375,0.875 C 2.1300791,8.5913222 1.0928515,5.8484711 3.125,4.625 L 7.0625,2.53125 c -1.3260084,0.6004566 -2.7614041,0.7995693 -4,1.8125 C 1.8239041,5.3566807 1.941421,4.7789823 1.96875,3.5625 1.996079,2.3460172 1.8859064,2.7587412 2.0625,2.28125 1.9965235,0.9007439 5.836,-1.28254 5.84375,-1.28125 c -1.1508752,0.73806126 -2.0595898,0.62899049 -2.5,1.25 -0.9386081,1.3235035 -1.0999845,1.00681765 -1.25,-0.5625 C 1.9437344,-2.1630676 1.90625,-6.3125 1.90625,-6.3125 Z"
         transform="rotate(180,-26.35,63.8549)"
         id="path380"
         style="fill:#000000;stroke-width:0.383818;stroke-dasharray:none" />
    </g>
    <g
       transform="matrix(-0.99073307,0.572,0.572,0.99073307,-65.099105,382.74354)"
       id="use334"
       style="stroke-width:0.383818;stroke-dasharray:none">
      <path
         d="m -55.25,118.65625 c -0.395568,1.06793 -1.148622,1.08315 -3,1 -2.3326,-0.10477 -3.286311,0.33957 -3.5625,1.6875 -0.631234,3.08072 0.690447,6.45372 3.96875,10.1875 l 3.125,3.5625 2.78125,-2.65625 c 3.331613,-3.19189 5.235439,-7.3857 4.78125,-10.59375 -0.275883,-1.94862 -0.893036,-2.31003 -3.59375,-2.1875 -1.955657,0.0887 -2.742953,0.11592 -3.09375,-1 z"
         id="path384"
         style="fill:#009800;stroke-width:0.383818;stroke-dasharray:none" />
      <path
         d="m 1.8125,-6.78125 -2.34375,2 C -6.560052,0.32008 -7.222579,8.78997 -2.65625,8.5625 -2.003917,8.53 -1.240062,8.32894 -0.375,7.90625 c 1.906609,-0.93163 1.760773,-0.99451 -1.0625,-0.5 -3.002478,0.5259 -3.25,0.36081 -3.25,-2.125 0,-3.0795 1.326818,-5.98672 4.375,-9.5625 z M 1.90625,-6.3125 1.71875,0.71875 C 1.6609561,2.8917995 -2,-0.40625 -2,-0.40625 -2,-0.40624929 0.42115553,2.2201295 1.5,1.75 1.9444621,1.8952379 1.571078,2.9991345 1.65625,3.6875 1.7923646,4.7875911 1.750814,5.0562184 0.78125,4.625 -0.18831439,4.1937816 -1.5849481,4.188967 -2.78125,4 c 1.2509513,0.295075 2.49904869,0.2593374 3.75,1 0.435704,0.1018058 0.8052698,0.3670812 0.75,1.15625 l -0.25,1.75 c 0.118392,0.3977563 0.088671,1.0649278 0.375,0.875 C 2.1300791,8.5913222 1.0928515,5.8484711 3.125,4.625 L 7.0625,2.53125 c -1.3260084,0.6004566 -2.7614041,0.7995693 -4,1.8125 C 1.8239041,5.3566807 1.941421,4.7789823 1.96875,3.5625 1.996079,2.3460172 1.8859064,2.7587412 2.0625,2.28125 1.9965235,0.9007439 5.836,-1.28254 5.84375,-1.28125 c -1.1508752,0.73806126 -2.0595898,0.62899049 -2.5,1.25 -0.9386081,1.3235035 -1.0999845,1.00681765 -1.25,-0.5625 C 1.9437344,-2.1630676 1.90625,-6.3125 1.90625,-6.3125 Z"
         transform="rotate(180,-26.35,63.8549)"
         id="path386"
         style="fill:#000000;stroke-width:0.383818;stroke-dasharray:none" />
    </g>
    <g
       transform="translate(-0.975,363)"
       id="use336"
       style="fill:#00a000;stroke-width:0.439087;stroke-dasharray:none">
      <g
         id="use390"
         style="stroke-width:0.439087;stroke-dasharray:none">
        <path
           d="M 4.9840521,32.578091 C 1.870653,29.325097 2.1087365,23.444548 5.4655326,20.6857 c 2.2986147,-1.889165 5.5112604,-0.81715 6.9669734,2.324782 3.118592,6.731 -2.8390681,14.383666 -7.4484539,9.567609 z"
           id="path396"
           style="stroke:#000000;stroke-width:0.439087;stroke-dasharray:none" />
      </g>
      <g
         id="use392"
         style="stroke-width:0.439087;stroke-dasharray:none">
        <path
           d="m 11.353991,31.254174 c 0.250559,-0.464306 -1.136266,-0.658828 -0.794309,-1.466557 0.148167,-0.349985 0.120064,-0.898159 0.130546,-1.97199 0.01691,-1.731786 -0.422375,-3.057995 -2.636873,-2.8998 -0.9874527,0.07054 -2.7573339,0.415073 -2.7628337,1.498239 -0.00153,0.300471 0.1813712,0.423239 0.6129303,0.471365 0.7153111,0.07977 3.0141764,-0.738637 3.0141764,-0.158511 0,0.279836 -0.1861506,0.602264 -1.0979282,0.534011 -0.9910959,-0.07419 -1.3859052,-0.278504 -2.1404034,0.313743 -1.2458117,0.977886 -1.1834626,2.48785 0.044545,3.45177 0.5889565,0.462299 1.3370637,0.44862 1.9867094,0.319521 2.0255418,-0.402519 3.4098902,0.340997 3.6434402,-0.09179 z M 7.3472602,28.837586 C 8.6039014,28.697757 9.5558394,29.00025 8.7004816,29.671656 8.4987628,29.830001 7.8137572,29.92902 7.4068669,29.891699 6.6008663,29.356744 6.9060377,29.149165 7.3472602,28.837586 Z"
           id="path400"
           style="fill:#000000;stroke-width:0.439087;stroke-dasharray:none" />
        <path
           d="m 8.8471675,30.113367 c 0.2656044,-0.159241 0.5680646,-0.56713 0.6721402,-0.906422 0.4453296,-0.822936 -1.8701094,-1.413035 -2.989328,-0.636206 -1.5403452,1.069125 1.1428417,2.148128 2.3171878,1.542628 z M 6.2092418,30.362523 C 4.771744,29.302497 5.6692811,27.683912 7.5878825,27.683912 c 0.4692412,0 1.1100439,0.107897 1.4239534,0.239772 0.4927001,0.206977 0.6456003,-0.36223 0.6456003,-0.856105 0,-0.971331 -0.9935386,-1.401341 -2.0788213,-0.971245 -2.5439579,1.008168 -1.760076,-0.354687 -0.4693186,-0.662768 1.9320111,-0.461138 3.3925087,0.05337 3.0898247,2.788051 -0.08356,0.754923 -0.181682,1.205538 -0.2429423,1.528774 -0.1689426,0.891417 0.7650813,0.921879 0.6844203,1.203655 -0.04854,0.169577 -1.0618398,-0.572119 -2.8673165,-0.104125 -0.5326397,0.138064 -1.1406848,-0.175198 -1.5640407,-0.487398 z"
           id="path402"
           style="fill:#ffffff;stroke-width:0.439087;stroke-dasharray:none" />
      </g>
    </g>
    <g
       id="use338"
       style="fill:#00a000;stroke-width:0.439087;stroke-dasharray:none"
       transform="translate(0,369)">
      <g
         transform="rotate(180,39.9875,64.5)"
         id="use406"
         style="stroke-width:0.439087;stroke-dasharray:none">
        <g
           id="use410"
           style="stroke-width:0.439087;stroke-dasharray:none">
          <path
             d="M 4.9840521,32.578091 C 1.870653,29.325097 2.1087365,23.444548 5.4655326,20.6857 c 2.2986147,-1.889165 5.5112604,-0.81715 6.9669734,2.324782 3.118592,6.731 -2.8390681,14.383666 -7.4484539,9.567609 z"
             id="path416"
             style="stroke:#000000;stroke-width:0.439087;stroke-dasharray:none" />
        </g>
        <g
           id="use412"
           style="stroke-width:0.439087;stroke-dasharray:none">
          <path
             d="m 11.353991,31.254174 c 0.250559,-0.464306 -1.136266,-0.658828 -0.794309,-1.466557 0.148167,-0.349985 0.120064,-0.898159 0.130546,-1.97199 0.01691,-1.731786 -0.422375,-3.057995 -2.636873,-2.8998 -0.9874527,0.07054 -2.7573339,0.415073 -2.7628337,1.498239 -0.00153,0.300471 0.1813712,0.423239 0.6129303,0.471365 0.7153111,0.07977 3.0141764,-0.738637 3.0141764,-0.158511 0,0.279836 -0.1861506,0.602264 -1.0979282,0.534011 -0.9910959,-0.07419 -1.3859052,-0.278504 -2.1404034,0.313743 -1.2458117,0.977886 -1.1834626,2.48785 0.044545,3.45177 0.5889565,0.462299 1.3370637,0.44862 1.9867094,0.319521 2.0255418,-0.402519 3.4098902,0.340997 3.6434402,-0.09179 z M 7.3472602,28.837586 C 8.6039014,28.697757 9.5558394,29.00025 8.7004816,29.671656 8.4987628,29.830001 7.8137572,29.92902 7.4068669,29.891699 6.6008663,29.356744 6.9060377,29.149165 7.3472602,28.837586 Z"
             id="path420"
             style="fill:#000000;stroke-width:0.439087;stroke-dasharray:none" />
          <path
             d="m 8.8471675,30.113367 c 0.2656044,-0.159241 0.5680646,-0.56713 0.6721402,-0.906422 0.4453296,-0.822936 -1.8701094,-1.413035 -2.989328,-0.636206 -1.5403452,1.069125 1.1428417,2.148128 2.3171878,1.542628 z M 6.2092418,30.362523 C 4.771744,29.302497 5.6692811,27.683912 7.5878825,27.683912 c 0.4692412,0 1.1100439,0.107897 1.4239534,0.239772 0.4927001,0.206977 0.6456003,-0.36223 0.6456003,-0.856105 0,-0.971331 -0.9935386,-1.401341 -2.0788213,-0.971245 -2.5439579,1.008168 -1.760076,-0.354687 -0.4693186,-0.662768 1.9320111,-0.461138 3.3925087,0.05337 3.0898247,2.788051 -0.08356,0.754923 -0.181682,1.205538 -0.2429423,1.528774 -0.1689426,0.891417 0.7650813,0.921879 0.6844203,1.203655 -0.04854,0.169577 -1.0618398,-0.572119 -2.8673165,-0.104125 -0.5326397,0.138064 -1.1406848,-0.175198 -1.5640407,-0.487398 z"
             id="path422"
             style="fill:#ffffff;stroke-width:0.439087;stroke-dasharray:none" />
        </g>
      </g>
    </g>
  </g>
</svg>
