<?xml version="1.0" encoding="UTF-8" standalone="no"?>
<!-- Created with Inkscape (http://www.inkscape.org/) -->

<svg
   version="1.1"
   width="156"
   height="244"
   viewBox="0 0 156 244"
   id="svg10047"
   sodipodi:docname="ace_of_hearts.svg"
   inkscape:version="1.2.2 (b0a8486541, 2022-12-01)"
   xmlns:inkscape="http://www.inkscape.org/namespaces/inkscape"
   xmlns:sodipodi="http://sodipodi.sourceforge.net/DTD/sodipodi-0.dtd"
   xmlns:xlink="http://www.w3.org/1999/xlink"
   xmlns="http://www.w3.org/2000/svg"
   xmlns:svg="http://www.w3.org/2000/svg"
   xmlns:rdf="http://www.w3.org/1999/02/22-rdf-syntax-ns#"
   xmlns:cc="http://creativecommons.org/ns#"
   xmlns:dc="http://purl.org/dc/elements/1.1/">
  <sodipodi:namedview
     id="namedview42"
     pagecolor="#ffffff"
     bordercolor="#666666"
     borderopacity="1.0"
     inkscape:showpageshadow="2"
     inkscape:pageopacity="0.0"
     inkscape:pagecheckerboard="0"
     inkscape:deskcolor="#d1d1d1"
     showgrid="false"
     inkscape:zoom="3.203252"
     inkscape:cx="71.802031"
     inkscape:cy="122.06345"
     inkscape:window-width="1854"
     inkscape:window-height="1011"
     inkscape:window-x="0"
     inkscape:window-y="0"
     inkscape:window-maximized="1"
     inkscape:current-layer="svg10047" />
  <metadata
     id="metadata16869">
    <rdf:RDF>
      <cc:Work
         rdf:about="">
        <dc:format>image/svg+xml</dc:format>
        <dc:type
           rdf:resource="http://purl.org/dc/dcmitype/StillImage" />
      </cc:Work>
    </rdf:RDF>
  </metadata>
  <defs
     id="defs3059">
    <path
       d="M -1.0670015,-0.78036012 V 2.43839 l -3.09375,-1.53125017 c -3.234346,-1.61350401 -10.3021235,-1.322386 -12.1250015,0.50000017 -0.571494,0.571496 0.67247,0.535844 3.03125,-0.09375 2.62809,-0.70147818 5.0958535,-0.76072718 7.3125015,-0.1250001 3.226841,0.9254451 3.728199,1.6906671 5.49999984,8.2187501 0.521402,1.921065 2.37500016,0.409853 2.37500016,-1.9375 0,-5.451574 5.801962,-8.20450115 12.7812485,-6.0625 2.333378,0.716138 3.180661,0.743161 2.5,0.0625 C 15.331283,-0.41332417 8.315706,-0.73360815 5.0267485,0.90713983 L 1.9329985,2.43839 v -3.21875012 c 0.0077,-3.05923288 0.35725,-4.31078378 -1.50000006,-4.31078378 -1.85724994,0 -1.51001594,2.2181209 -1.49999994,4.31078378 z"
       transform="translate(-1)"
       id="brown-bottom"
       style="color:#000000;display:inline;overflow:visible;visibility:visible;fill:#9b0000;fill-opacity:1;fill-rule:nonzero;stroke:#000000;stroke-width:0;stroke-linecap:butt;stroke-linejoin:miter;stroke-miterlimit:4;stroke-dasharray:none;stroke-dashoffset:0;stroke-opacity:1;marker:none;enable-background:accumulate" />
    <g
       transform="translate(-245.58095,-16)"
       id="cl">
      <path
         d="m 245.40625,4.9375 -2.09375,2.28125 c -1.45799,1.6011931 -2.2177,4.142135 -2.59375,8.5625 -0.49591,5.829222 -0.35818,6.411761 1.875,7.875 3.88986,1.054159 1.93898,1.205334 5.8125,0 2.23096,-1.461778 2.35995,-2.051596 1.875,-7.875 -0.38442,-4.616201 -1.08314,-6.8903691 -2.6875,-8.5625 z"
         id="rect9015-7"
         style="color:#000000;display:inline;overflow:visible;visibility:visible;fill:#fe0000;fill-opacity:1;fill-rule:nonzero;stroke:#000000;stroke-width:0;stroke-linecap:butt;stroke-linejoin:miter;stroke-miterlimit:4;stroke-dasharray:none;stroke-dashoffset:0;stroke-opacity:1;marker:none;enable-background:accumulate" />
      <path
         d="m 245.4375,5.5 -2.09375,2 c -1.53797,1.4674124 -2.23963,3.668521 -2.625,8.28125 -0.48659,5.824276 -0.35629,6.413003 1.875,7.875 1.04401,0.684063 2.1704,1.430477 2.53345,2.45603 l 0.95079,0.04397 c 0.37165,-1.029682 1.17595,-1.90071 2.27544,-2.621126 C 252.41321,20.875053 251.71836,19 246.5,19 H 242 v -4.65625 c 0,-2.934528 0.6427,-5.4441161 1.71875,-6.75 z"
         id="path17388"
         style="fill:#9b0000" />
      <path
         d="m 245.4375,5.5 -2.09375,2 c -1.53797,1.4674124 -2.23963,3.668521 -2.625,8.28125 -0.48659,5.824276 -0.35629,6.413003 1.875,7.875 0.91454,0.599232 2.087,1.509988 2.53539,2.5 l 0.84626,0.04397 c 0.54844,-1.031796 1.72297,-2.071519 2.5871,-2.63772 C 252.56746,20.938348 251.69165,19 246.5,19 H 242 v -4.65625 c 0,-2.934528 0.6427,-5.4441161 1.71875,-6.75 z"
         id="path17386"
         style="fill:#009800" />
      <path
         d="m 1.84375,-8.5625 c -0.0653,-0.025539 -1.01584,0.9921681 -2.0625,1.875 -1.62382,1.3696494 -2.26003,3.28047 -2.625,8 -0.26373,3.4103 -0.0419,6.75 0.5,7.4375 0.54193,0.6875 1.24484,1.25 1.5625,1.25 0.31765,0 0.10304,-0.490714 -0.5,-1.09375 C -2.05559,7.600236 -2,4.5625 -2,4.5625 l 4.25,-1.25 c 0,0 -4.22895,0.2640283 -4.21875,0.0625 C -1.95855,3.173472 2.25,2.09375 2.25,2.09375 c 0,0 -4.1426,0.2703143 -4.125,0.0625 0.0177,-0.207813 4.125,-1.3125 4.125,-1.3125 0,0 -4.0246,0.272028 -4,0.0625 0.0246,-0.209527 4,-1.3125 4,-1.3125 0,0 -3.87485,0.269171 -3.84375,0.0625 0.0311,-0.20667 3.84375,-1.3125 3.84375,-1.3125 0,0 -3.66215,0.2929923 -3.625,0.09375 0.0372,-0.199242 3.625,-1.28125 3.625,-1.28125 0,0 -3.44898,0.312242 -3.40625,0.125 0.0427,-0.187242 3.36089,-1.070472 3.40625,-1.25 0.0454,-0.1795271 -3.17283,0.326921 -3.125,0.15625 C -0.8271,-3.983171 2.19974,-4.8393284 2.25,-5 2.3002,-5.1606716 -0.12301,-4.6317209 -0.5625,-4.78125 -0.51,-4.930779 2.19534,-5.7377563 2.25,-5.875 2.3047,-6.0122438 -0.3067,-5.4699344 -0.25,-5.59375 -0.1933,-5.7175656 2.19138,-6.5157553 2.25,-6.625 2.3086,-6.7342447 0.06456,-6.1564691 0.125,-6.25 0.18549,-6.343531 2.18787,-7.1108257 2.25,-7.1875 0.21311126,-6.7753842 0.95835089,-7.3269482 1.84375,-8.5625 Z M -1.34375,5.125 c -0.1317534,0 -0.21875,0.1182466 -0.21875,0.25 0,0.1317534 0.086997,0.21875 0.21875,0.21875 0.1317534,0 0.25,-0.086997 0.25,-0.21875 0,-0.1317534 -0.1182466,-0.25 -0.25,-0.25 z M 0.3125,5.28125 c -0.13175338,0 -0.25,0.1182466 -0.25,0.25 0,0.1317534 0.11824662,0.25 0.25,0.25 0.13175338,0 0.25,-0.1182466 0.25,-0.25 0,-0.1317534 -0.11824662,-0.25 -0.25,-0.25 z m 2,0.3125 c -0.1317534,0 -0.25,0.1182466 -0.25,0.25 0,0.1317534 0.1182466,0.25 0.25,0.25 0.1317534,0 0.21875,-0.1182466 0.21875,-0.25 0,-0.1317534 -0.086997,-0.25 -0.21875,-0.25 z M 3.875,5.75 c -0.1317534,0 -0.25,0.086997 -0.25,0.21875 0,0.1317534 0.1182466,0.25 0.25,0.25 0.1317534,0 0.25,-0.1182466 0.25,-0.25 C 4.125,5.8369966 4.0067534,5.75 3.875,5.75 Z m 1.25,0 c -0.1317534,0 -0.25,0.086997 -0.25,0.21875 0,0.1317534 0.1182466,0.25 0.25,0.25 0.1317534,0 0.21875,-0.1182466 0.21875,-0.25 C 5.34375,5.8369966 5.2567534,5.75 5.125,5.75 Z m -6.09375,0.4375 c -0.1317534,0 -0.21875,0.1182466 -0.21875,0.25 0,0.1317534 0.086997,0.21875 0.21875,0.21875 0.13175338,0 0.25,-0.086997 0.25,-0.21875 0,-0.1317534 -0.11824662,-0.25 -0.25,-0.25 z M 0.71875,6.25 c -0.13175338,0 -0.25,0.1182466 -0.25,0.25 0,0.1317534 0.11824662,0.21875 0.25,0.21875 0.13175338,0 0.25,-0.086997 0.25,-0.21875 0,-0.1317534 -0.11824662,-0.25 -0.25,-0.25 z m 5.1875,0.1875 c -0.1317534,0 -0.25,0.086997 -0.25,0.21875 0,0.1317534 0.1182466,0.25 0.25,0.25 0.1317534,0 0.25,-0.1182466 0.25,-0.25 0,-0.1317534 -0.1182466,-0.21875 -0.25,-0.21875 z M 4.625,6.46875 c -0.1317534,0 -0.21875,0.086997 -0.21875,0.21875 0,0.1317534 0.086997,0.25 0.21875,0.25 0.1317534,0 0.25,-0.1182466 0.25,-0.25 0,-0.1317534 -0.1182466,-0.21875 -0.25,-0.21875 z M 2.75,6.625 c -0.1317534,0 -0.25,0.1182466 -0.25,0.25 0,0.1317534 0.1182466,0.25 0.25,0.25 C 2.8817534,7.125 3,7.0067534 3,6.875 3,6.7432466 2.8817534,6.625 2.75,6.625 Z M 1.625,7.03125 c -0.1317534,0 -0.25,0.1182466 -0.25,0.25 0,0.1317534 0.1182466,0.25 0.25,0.25 0.1317534,0 0.21875,-0.1182466 0.21875,-0.25 0,-0.1317534 -0.086997,-0.25 -0.21875,-0.25 z m -1.125,0.25 c -0.13175338,0 -0.21875,0.1182466 -0.21875,0.25 0,0.1317534 0.0869966,0.21875 0.21875,0.21875 0.13175338,0 0.25,-0.086997 0.25,-0.21875 0,-0.1317534 -0.11824662,-0.25 -0.25,-0.25 z m -1.09375,0.1875 c -0.13175338,0 -0.21875,0.086997 -0.21875,0.21875 0,0.1317534 0.0869966,0.25 0.21875,0.25 0.13175338,0 0.25,-0.1182466 0.25,-0.25 0,-0.1317534 -0.11824662,-0.21875 -0.25,-0.21875 z m 3.78125,0.0625 c -0.1317534,0 -0.21875,0.086997 -0.21875,0.21875 0,0.1317534 0.086997,0.25 0.21875,0.25 0.1317534,0 0.25,-0.1182466 0.25,-0.25 0,-0.1317534 -0.1182466,-0.21875 -0.25,-0.21875 z m 2.34375,0 c -0.1317534,0 -0.25,0.086997 -0.25,0.21875 0,0.1317534 0.1182466,0.25 0.25,0.25 C 5.6630034,8 5.75,7.8817534 5.75,7.75 5.75,7.6182466 5.6630034,7.53125 5.53125,7.53125 Z M 2.21875,7.8125 C 2.0869966,7.8125 2,7.8994966 2,8.03125 c 0,0.1317534 0.086997,0.25 0.21875,0.25 0.1317534,0 0.25,-0.1182466 0.25,-0.25 0,-0.1317534 -0.1182466,-0.21875 -0.25,-0.21875 z m 1.8125,0 c -0.1317534,0 -0.25,0.086997 -0.25,0.21875 0,0.1317534 0.1182466,0.25 0.25,0.25 0.1317534,0 0.21875,-0.1182466 0.21875,-0.25 C 4.25,7.8994966 4.1630034,7.8125 4.03125,7.8125 Z M 0.46875,8.15625 C 0.33699662,8.15625 0.25,8.2432466 0.25,8.375 c 0,0.1317534 0.0869966,0.25 0.21875,0.25 0.13175338,0 0.25,-0.1182466 0.25,-0.25 0,-0.1317534 -0.11824662,-0.21875 -0.25,-0.21875 z m 3.25,0.53125 c -0.1317534,0 -0.25,0.1182466 -0.25,0.25 0,0.1317534 0.1182466,0.21875 0.25,0.21875 0.1317534,0 0.21875,-0.086997 0.21875,-0.21875 0,-0.1317534 -0.086997,-0.25 -0.21875,-0.25 z M 2.25,9.0625 c -0.1317534,0 -0.21875,0.1182466 -0.21875,0.25 0,0.1317534 0.086997,0.25 0.21875,0.25 0.1317534,0 0.25,-0.1182466 0.25,-0.25 0,-0.1317534 -0.1182466,-0.25 -0.25,-0.25 z M 0.75,9.25 c -0.13175338,0 -0.21875,0.086997 -0.21875,0.21875 0,0.1317534 0.0869966,0.25 0.21875,0.25 0.13175338,0 0.25,-0.1182466 0.25,-0.25 C 1,9.3369966 0.88175338,9.25 0.75,9.25 Z m 2.625,0.21875 c -0.1317534,0 -0.25,0.1182466 -0.25,0.25 0,0.1317534 0.1182466,0.25 0.25,0.25 0.1317534,0 0.21875,-0.1182466 0.21875,-0.25 0,-0.1317534 -0.086997,-0.25 -0.21875,-0.25 z M 2.0625,10.125 c -0.1317534,0 -0.25,0.118247 -0.25,0.25 0,0.131753 0.1182466,0.25 0.25,0.25 0.1317534,0 0.25,-0.118247 0.25,-0.25 0,-0.131753 -0.1182466,-0.25 -0.25,-0.25 z"
         transform="translate(243.58095,14)"
         id="path17384"
         style="fill:#000000" />
    </g>
    <path
       d="M -1.0670015,-0.78036012 V 2.43839 l -3.09375,-1.53125017 c -3.234346,-1.61350401 -10.3026155,-1.322386 -12.1250015,0.50000017 -0.571494,0.571496 0.67247,0.535844 3.03125,-0.09375 2.62809,-0.70147818 5.0958535,-0.76072718 7.3125015,-0.1250001 3.226841,0.9254451 3.728199,1.6906671 5.49999984,8.2187501 0.521402,1.921065 2.37500016,0.409853 2.37500016,-1.9375 0,-5.451574 5.801962,-8.20450115 12.7812485,-6.0625 2.333378,0.716138 3.180661,0.743161 2.5,0.0625 C 15.331283,-0.41332417 8.315706,-0.73360815 5.0267485,0.90713983 L 1.9329985,2.43839 v -3.21875012 c 0.0077,-3.05923288 0.35725,-4.31078378 -1.50000006,-4.31078378 -1.85724994,0 -1.51001594,2.2181209 -1.49999994,4.31078378 z"
       transform="translate(-1)"
       id="path8331"
       style="color:#000000;display:inline;overflow:visible;visibility:visible;fill:#9b0000;fill-opacity:1;fill-rule:nonzero;stroke:#000000;stroke-width:0;stroke-linecap:butt;stroke-linejoin:miter;stroke-miterlimit:4;stroke-dasharray:none;stroke-dashoffset:0;stroke-opacity:1;marker:none;enable-background:accumulate" />
    <g
       transform="translate(-246,-14.260579)"
       id="hl">
      <path
         d="M 240.714,19.217272 C 235.99487,14.426097 234.95065,11.449352 237.2,9.2 c 1.67166,-1.671664 5.30754,-1.498303 6.82094,0.325228 1.13448,1.366971 1.4407,1.366971 2.95118,0 C 248.9924,7.696902 252.14666,7.546657 253.8,9.2 c 2.29289,2.292895 1.19594,5.379184 -3.586,10.089213 l -4.78599,4.714029 z"
         id="path4346"
         style="fill:#fe0000" />
      <path
         d="M 246,16.908208 C 246,10.012178 247.01646,8 250.5,8 c 1.155,0 2.64,0.54 3.3,1.2 2.25758,2.257582 1.20739,5.37633 -3.3,9.8 l -4.5,4.416416 z"
         id="path4306"
         style="fill:#bc0000" />
    </g>
    <g
       id="cf">
      <path
         d="m 78.25,117.25 c 0,2.762 -2.238,5 -5,5 H 5.75 c -2.761,0 -5,-2.238 -5,-5 V 5.75 c 0,-2.762 2.239,-5 5,-5 h 67.5 c 2.762,0 5,2.238 5,5 z"
         id="path8383"
         style="fill:#ffffff;stroke:#000000;stroke-width:1" />
      <path
         d="m 72.226712,114.23425 c 0,2.61259 -1.890126,4.72953 -4.222801,4.72953 H 10.996089 c -2.3318303,0 -4.2228009,-2.11694 -4.2228009,-4.72953 V 8.7657498 c 0,-2.6125922 1.8909706,-4.7295293 4.2228009,-4.7295293 h 57.007822 c 2.332675,0 4.222801,2.1169371 4.222801,4.7295293 z"
         id="path10068"
         style="fill:#ffffff;stroke:#000000;stroke-width:0.75" />
    </g>
    <g
       id="def_1">
      <path
         d="m 30,96.45034 c 0,-7.137984 0.456217,-11.422928 1.410724,-13.25 1.812337,-3.469091 6.182685,-7.514233 10.441968,-9.664963 3.985938,-2.012704 7.410258,-0.999424 12.894099,3.815452 C 60.150771,82.095586 61,84.689433 61,96.45034 V 107 H 45.5 30 Z M 41.5,66.341153 C 37.498575,64.235375 33.143803,60.117039 31.410724,56.79966 30.456217,54.972588 30,50.687644 30,43.54966 V 33 H 45.5 61 V 43.54966 C 61,54.998265 60.200662,57.622778 55.339276,62.135838 52.533714,64.740379 46.849994,68.037585 45.29966,67.959962 44.859847,67.937942 43.15,67.209478 41.5,66.341153 Z"
         id="path4730"
         style="fill:#ccc9cc" />
      <path
         d="m 31,95.95034 c 0,-11.044955 0.96977,-14.064227 5.831227,-18.154873 5.142061,-4.32676 8.464385,-5.205426 12.316081,-3.257278 C 57.992155,79.011823 60,82.973261 60,95.95034 V 106 H 45.5 31 Z M 57.996262,94.75 c -0.0044,-10.973309 -1.602756,-14.488276 -8.093908,-17.799815 -4.038568,-2.060324 -4.301524,-2.073933 -7.984341,-0.413214 -7.34495,3.312111 -8.375403,5.3169 -8.759038,17.041056 L 32.81795,104 H 45.408975 58 L 57.9963,94.75 Z M 41.5,65.338367 C 32.953859,60.83296 31,56.871519 31,44.04966 V 34 H 45.5 60 V 44.04966 C 60,56.964803 57.976516,60.999041 49.29966,65.383027 45.439545,67.333352 45.282509,67.332452 41.5,65.338367 Z m 8.289838,-2.231957 c 6.9066,-3.524987 7.670802,-5.110943 8.051187,-16.708711 L 58.18205,36 H 45.591025 33 l 0.0037,9.25 c 0.0044,10.802397 1.587882,14.432445 7.703782,17.660121 4.71763,2.489736 4.593943,2.487063 9.082318,0.196289 z"
         id="path4728"
         style="fill:#9b989b" />
    </g>
    <g
       id="letter-a">
      <path
         d="m 11.353991,31.254174 c 0.250559,-0.464306 -1.136266,-0.658828 -0.794309,-1.466557 0.148167,-0.349985 0.120064,-0.898159 0.130546,-1.97199 0.01691,-1.731786 -0.422375,-3.057995 -2.636873,-2.8998 -0.9874527,0.07054 -2.7573339,0.415073 -2.7628337,1.498239 -0.00153,0.300471 0.1813712,0.423239 0.6129303,0.471365 0.7153111,0.07977 3.0141764,-0.738637 3.0141764,-0.158511 0,0.279836 -0.1861506,0.602264 -1.0979282,0.534011 -0.9910959,-0.07419 -1.3859052,-0.278504 -2.1404034,0.313743 -1.2458117,0.977886 -1.1834626,2.48785 0.044545,3.45177 0.5889565,0.462299 1.3370637,0.44862 1.9867094,0.319521 2.0255418,-0.402519 3.4098902,0.340997 3.6434402,-0.09179 z M 7.3472602,28.837586 C 8.6039014,28.697757 9.5558394,29.00025 8.7004816,29.671656 8.4987628,29.830001 7.8137572,29.92902 7.4068669,29.891699 6.6008663,29.356744 6.9060377,29.149165 7.3472602,28.837586 Z"
         id="path6289"
         style="fill:#000000" />
      <path
         d="m 8.8471675,30.113367 c 0.2656044,-0.159241 0.5680646,-0.56713 0.6721402,-0.906422 0.4453296,-0.822936 -1.8701094,-1.413035 -2.989328,-0.636206 -1.5403452,1.069125 1.1428417,2.148128 2.3171878,1.542628 z M 6.2092418,30.362523 C 4.771744,29.302497 5.6692811,27.683912 7.5878825,27.683912 c 0.4692412,0 1.1100439,0.107897 1.4239534,0.239772 0.4927001,0.206977 0.6456003,-0.36223 0.6456003,-0.856105 0,-0.971331 -0.9935386,-1.401341 -2.0788213,-0.971245 -2.5439579,1.008168 -1.760076,-0.354687 -0.4693186,-0.662768 1.9320111,-0.461138 3.3925087,0.05337 3.0898247,2.788051 -0.08356,0.754923 -0.181682,1.205538 -0.2429423,1.528774 -0.1689426,0.891417 0.7650813,0.921879 0.6844203,1.203655 -0.04854,0.169577 -1.0618398,-0.572119 -2.8673165,-0.104125 -0.5326397,0.138064 -1.1406848,-0.175198 -1.5640407,-0.487398 z"
         id="path6594"
         style="fill:#ffffff" />
    </g>
    <g
       id="indicator-background">
      <path
         d="M 4.9840521,32.578091 C 1.870653,29.325097 2.1087365,23.444548 5.4655326,20.6857 c 2.2986147,-1.889165 5.5112604,-0.81715 6.9669734,2.324782 3.118592,6.731 -2.8390681,14.383666 -7.4484539,9.567609 z"
         id="path6341-2"
         style="stroke:#000000" />
    </g>
    <g
       transform="translate(-0.975,-6)"
       id="it1">
      <use
         id="use8634"
         x="0"
         y="0"
         width="123"
         height="615"
         xlink:href="#indicator-background" />
      <use
         id="use8636"
         x="0"
         y="0"
         width="123"
         height="615"
         xlink:href="#letter-a" />
    </g>
    <g
       id="ib1">
      <use
         transform="rotate(180,39.5,61.5)"
         id="use8699"
         x="0"
         y="0"
         width="1027"
         height="615"
         xlink:href="#it1" />
    </g>
  </defs>
  <g
     id="1_heart"
     transform="matrix(2,0,0,2,-1,-493)"
     style="stroke-width:0.5;stroke-dasharray:none">
    <g
       id="use3268"
       transform="translate(0,246)"
       style="stroke-width:0.5;stroke-dasharray:none">
      <path
         d="m 78.25,117.25 c 0,2.762 -2.238,5 -5,5 H 5.75 c -2.761,0 -5,-2.238 -5,-5 V 5.75 c 0,-2.762 2.239,-5 5,-5 h 67.5 c 2.762,0 5,2.238 5,5 z"
         id="path325"
         style="fill:#ffffff;stroke:#000000;stroke-width:0.5;stroke-dasharray:none" />
      <path
         d="m 72.226712,114.23425 c 0,2.61259 -1.890126,4.72953 -4.222801,4.72953 H 10.996089 c -2.3318303,0 -4.2228009,-2.11694 -4.2228009,-4.72953 V 8.7657498 c 0,-2.6125922 1.8909706,-4.7295293 4.2228009,-4.7295293 h 57.007822 c 2.332675,0 4.222801,2.1169371 4.222801,4.7295293 z"
         id="path327"
         style="fill:#ffffff;stroke:#000000;stroke-width:0.5;stroke-dasharray:none" />
    </g>
    <g
       id="use3270"
       transform="matrix(0.87777778,0,0,0.87857143,0,246)"
       style="stroke-width:0.569363;stroke-dasharray:none">
      <path
         d="m 30,96.45034 c 0,-7.137984 0.456217,-11.422928 1.410724,-13.25 1.812337,-3.469091 6.182685,-7.514233 10.441968,-9.664963 3.985938,-2.012704 7.410258,-0.999424 12.894099,3.815452 C 60.150771,82.095586 61,84.689433 61,96.45034 V 107 H 45.5 30 Z M 41.5,66.341153 C 37.498575,64.235375 33.143803,60.117039 31.410724,56.79966 30.456217,54.972588 30,50.687644 30,43.54966 V 33 H 45.5 61 V 43.54966 C 61,54.998265 60.200662,57.622778 55.339276,62.135838 52.533714,64.740379 46.849994,68.037585 45.29966,67.959962 44.859847,67.937942 43.15,67.209478 41.5,66.341153 Z"
         id="path331"
         style="fill:#ccc9cc;stroke-width:0.569363;stroke-dasharray:none" />
      <path
         d="m 31,95.95034 c 0,-11.044955 0.96977,-14.064227 5.831227,-18.154873 5.142061,-4.32676 8.464385,-5.205426 12.316081,-3.257278 C 57.992155,79.011823 60,82.973261 60,95.95034 V 106 H 45.5 31 Z M 57.996262,94.75 c -0.0044,-10.973309 -1.602756,-14.488276 -8.093908,-17.799815 -4.038568,-2.060324 -4.301524,-2.073933 -7.984341,-0.413214 -7.34495,3.312111 -8.375403,5.3169 -8.759038,17.041056 L 32.81795,104 H 45.408975 58 L 57.9963,94.75 Z M 41.5,65.338367 C 32.953859,60.83296 31,56.871519 31,44.04966 V 34 H 45.5 60 V 44.04966 C 60,56.964803 57.976516,60.999041 49.29966,65.383027 45.439545,67.333352 45.282509,67.332452 41.5,65.338367 Z m 8.289838,-2.231957 c 6.9066,-3.524987 7.670802,-5.110943 8.051187,-16.708711 L 58.18205,36 H 45.591025 33 l 0.0037,9.25 c 0.0044,10.802397 1.587882,14.432445 7.703782,17.660121 4.71763,2.489736 4.593943,2.487063 9.082318,0.196289 z"
         id="path333"
         style="fill:#9b989b;stroke-width:0.569363;stroke-dasharray:none" />
    </g>
    <g
       transform="matrix(0.99073307,-0.572,0.572,0.99073307,-231.87739,389.58357)"
       id="use8997"
       style="stroke-width:0.437063;stroke-dasharray:none">
      <path
         d="M 240.714,19.217272 C 235.99487,14.426097 234.95065,11.449352 237.2,9.2 c 1.67166,-1.671664 5.30754,-1.498303 6.82094,0.325228 1.13448,1.366971 1.4407,1.366971 2.95118,0 C 248.9924,7.696902 252.14666,7.546657 253.8,9.2 c 2.29289,2.292895 1.19594,5.379184 -3.586,10.089213 l -4.78599,4.714029 z"
         id="path337"
         style="fill:#fe0000;stroke-width:0.437063;stroke-dasharray:none" />
      <path
         d="M 246,16.908208 C 246,10.012178 247.01646,8 250.5,8 c 1.155,0 2.64,0.54 3.3,1.2 2.25758,2.257582 1.20739,5.37633 -3.3,9.8 l -4.5,4.416416 z"
         id="path339"
         style="fill:#bc0000;stroke-width:0.437063;stroke-dasharray:none" />
    </g>
    <g
       transform="matrix(0.99073307,0.572,-0.572,0.99073307,-176.56328,108.15957)"
       id="use8999"
       style="stroke-width:0.437063;stroke-dasharray:none">
      <path
         d="M 240.714,19.217272 C 235.99487,14.426097 234.95065,11.449352 237.2,9.2 c 1.67166,-1.671664 5.30754,-1.498303 6.82094,0.325228 1.13448,1.366971 1.4407,1.366971 2.95118,0 C 248.9924,7.696902 252.14666,7.546657 253.8,9.2 c 2.29289,2.292895 1.19594,5.379184 -3.586,10.089213 l -4.78599,4.714029 z"
         id="path343"
         style="fill:#fe0000;stroke-width:0.437063;stroke-dasharray:none" />
      <path
         d="M 246,16.908208 C 246,10.012178 247.01646,8 250.5,8 c 1.155,0 2.64,0.54 3.3,1.2 2.25758,2.257582 1.20739,5.37633 -3.3,9.8 l -4.5,4.416416 z"
         id="path345"
         style="fill:#bc0000;stroke-width:0.437063;stroke-dasharray:none" />
    </g>
    <g
       transform="matrix(0.88,0,0,0.88,-176.98,277.45069)"
       id="use9001"
       style="stroke-width:0.568182;stroke-dasharray:none">
      <path
         d="M 240.714,19.217272 C 235.99487,14.426097 234.95065,11.449352 237.2,9.2 c 1.67166,-1.671664 5.30754,-1.498303 6.82094,0.325228 1.13448,1.366971 1.4407,1.366971 2.95118,0 C 248.9924,7.696902 252.14666,7.546657 253.8,9.2 c 2.29289,2.292895 1.19594,5.379184 -3.586,10.089213 l -4.78599,4.714029 z"
         id="path349"
         style="fill:#fe0000;stroke-width:0.568182;stroke-dasharray:none" />
      <path
         d="M 246,16.908208 C 246,10.012178 247.01646,8 250.5,8 c 1.155,0 2.64,0.54 3.3,1.2 2.25758,2.257582 1.20739,5.37633 -3.3,9.8 l -4.5,4.416416 z"
         id="path351"
         style="fill:#bc0000;stroke-width:0.568182;stroke-dasharray:none" />
    </g>
    <g
       transform="matrix(0.88,0,0,-0.88,-176.98,337.54931)"
       id="use9003"
       style="stroke-width:0.568182;stroke-dasharray:none">
      <path
         d="M 240.714,19.217272 C 235.99487,14.426097 234.95065,11.449352 237.2,9.2 c 1.67166,-1.671664 5.30754,-1.498303 6.82094,0.325228 1.13448,1.366971 1.4407,1.366971 2.95118,0 C 248.9924,7.696902 252.14666,7.546657 253.8,9.2 c 2.29289,2.292895 1.19594,5.379184 -3.586,10.089213 l -4.78599,4.714029 z"
         id="path355"
         style="fill:#fe0000;stroke-width:0.568182;stroke-dasharray:none" />
      <path
         d="M 246,16.908208 C 246,10.012178 247.01646,8 250.5,8 c 1.155,0 2.64,0.54 3.3,1.2 2.25758,2.257582 1.20739,5.37633 -3.3,9.8 l -4.5,4.416416 z"
         id="path357"
         style="fill:#bc0000;stroke-width:0.568182;stroke-dasharray:none" />
    </g>
    <g
       transform="matrix(0.99073307,0.572,0.572,-0.99073307,-231.87739,225.41643)"
       id="use9005"
       style="stroke-width:0.437063;stroke-dasharray:none">
      <path
         d="M 240.714,19.217272 C 235.99487,14.426097 234.95065,11.449352 237.2,9.2 c 1.67166,-1.671664 5.30754,-1.498303 6.82094,0.325228 1.13448,1.366971 1.4407,1.366971 2.95118,0 C 248.9924,7.696902 252.14666,7.546657 253.8,9.2 c 2.29289,2.292895 1.19594,5.379184 -3.586,10.089213 l -4.78599,4.714029 z"
         id="path361"
         style="fill:#fe0000;stroke-width:0.437063;stroke-dasharray:none" />
      <path
         d="M 246,16.908208 C 246,10.012178 247.01646,8 250.5,8 c 1.155,0 2.64,0.54 3.3,1.2 2.25758,2.257582 1.20739,5.37633 -3.3,9.8 l -4.5,4.416416 z"
         id="path363"
         style="fill:#bc0000;stroke-width:0.437063;stroke-dasharray:none" />
    </g>
    <g
       transform="matrix(0.99073307,-0.572,-0.572,-0.99073307,-176.56328,506.84043)"
       id="use9007"
       style="stroke-width:0.437063;stroke-dasharray:none">
      <path
         d="M 240.714,19.217272 C 235.99487,14.426097 234.95065,11.449352 237.2,9.2 c 1.67166,-1.671664 5.30754,-1.498303 6.82094,0.325228 1.13448,1.366971 1.4407,1.366971 2.95118,0 C 248.9924,7.696902 252.14666,7.546657 253.8,9.2 c 2.29289,2.292895 1.19594,5.379184 -3.586,10.089213 l -4.78599,4.714029 z"
         id="path367"
         style="fill:#fe0000;stroke-width:0.437063;stroke-dasharray:none" />
      <path
         d="M 246,16.908208 C 246,10.012178 247.01646,8 250.5,8 c 1.155,0 2.64,0.54 3.3,1.2 2.25758,2.257582 1.20739,5.37633 -3.3,9.8 l -4.5,4.416416 z"
         id="path369"
         style="fill:#bc0000;stroke-width:0.437063;stroke-dasharray:none" />
    </g>
    <g
       transform="translate(-0.975,240)"
       id="use3272"
       style="fill:#df0000;stroke-width:0.5;stroke-dasharray:none">
      <g
         id="use373"
         style="stroke-width:0.5;stroke-dasharray:none">
        <path
           d="M 4.9840521,32.578091 C 1.870653,29.325097 2.1087365,23.444548 5.4655326,20.6857 c 2.2986147,-1.889165 5.5112604,-0.81715 6.9669734,2.324782 3.118592,6.731 -2.8390681,14.383666 -7.4484539,9.567609 z"
           id="path379"
           style="stroke:#000000;stroke-width:0.5;stroke-dasharray:none" />
      </g>
      <g
         id="use375"
         style="stroke-width:0.5;stroke-dasharray:none">
        <path
           d="m 11.353991,31.254174 c 0.250559,-0.464306 -1.136266,-0.658828 -0.794309,-1.466557 0.148167,-0.349985 0.120064,-0.898159 0.130546,-1.97199 0.01691,-1.731786 -0.422375,-3.057995 -2.636873,-2.8998 -0.9874527,0.07054 -2.7573339,0.415073 -2.7628337,1.498239 -0.00153,0.300471 0.1813712,0.423239 0.6129303,0.471365 0.7153111,0.07977 3.0141764,-0.738637 3.0141764,-0.158511 0,0.279836 -0.1861506,0.602264 -1.0979282,0.534011 -0.9910959,-0.07419 -1.3859052,-0.278504 -2.1404034,0.313743 -1.2458117,0.977886 -1.1834626,2.48785 0.044545,3.45177 0.5889565,0.462299 1.3370637,0.44862 1.9867094,0.319521 2.0255418,-0.402519 3.4098902,0.340997 3.6434402,-0.09179 z M 7.3472602,28.837586 C 8.6039014,28.697757 9.5558394,29.00025 8.7004816,29.671656 8.4987628,29.830001 7.8137572,29.92902 7.4068669,29.891699 6.6008663,29.356744 6.9060377,29.149165 7.3472602,28.837586 Z"
           id="path383"
           style="fill:#000000;stroke-width:0.5;stroke-dasharray:none" />
        <path
           d="m 8.8471675,30.113367 c 0.2656044,-0.159241 0.5680646,-0.56713 0.6721402,-0.906422 0.4453296,-0.822936 -1.8701094,-1.413035 -2.989328,-0.636206 -1.5403452,1.069125 1.1428417,2.148128 2.3171878,1.542628 z M 6.2092418,30.362523 C 4.771744,29.302497 5.6692811,27.683912 7.5878825,27.683912 c 0.4692412,0 1.1100439,0.107897 1.4239534,0.239772 0.4927001,0.206977 0.6456003,-0.36223 0.6456003,-0.856105 0,-0.971331 -0.9935386,-1.401341 -2.0788213,-0.971245 -2.5439579,1.008168 -1.760076,-0.354687 -0.4693186,-0.662768 1.9320111,-0.461138 3.3925087,0.05337 3.0898247,2.788051 -0.08356,0.754923 -0.181682,1.205538 -0.2429423,1.528774 -0.1689426,0.891417 0.7650813,0.921879 0.6844203,1.203655 -0.04854,0.169577 -1.0618398,-0.572119 -2.8673165,-0.104125 -0.5326397,0.138064 -1.1406848,-0.175198 -1.5640407,-0.487398 z"
           id="path385"
           style="fill:#ffffff;stroke-width:0.5;stroke-dasharray:none" />
      </g>
    </g>
    <g
       id="use3274"
       style="fill:#df0000;stroke-width:0.5;stroke-dasharray:none"
       transform="translate(0,246)">
      <g
         transform="rotate(180,39.9875,64.5)"
         id="use389"
         style="stroke-width:0.5;stroke-dasharray:none">
        <g
           id="use393"
           style="stroke-width:0.5;stroke-dasharray:none">
          <path
             d="M 4.9840521,32.578091 C 1.870653,29.325097 2.1087365,23.444548 5.4655326,20.6857 c 2.2986147,-1.889165 5.5112604,-0.81715 6.9669734,2.324782 3.118592,6.731 -2.8390681,14.383666 -7.4484539,9.567609 z"
             id="path399"
             style="stroke:#000000;stroke-width:0.5;stroke-dasharray:none" />
        </g>
        <g
           id="use395"
           style="stroke-width:0.5;stroke-dasharray:none">
          <path
             d="m 11.353991,31.254174 c 0.250559,-0.464306 -1.136266,-0.658828 -0.794309,-1.466557 0.148167,-0.349985 0.120064,-0.898159 0.130546,-1.97199 0.01691,-1.731786 -0.422375,-3.057995 -2.636873,-2.8998 -0.9874527,0.07054 -2.7573339,0.415073 -2.7628337,1.498239 -0.00153,0.300471 0.1813712,0.423239 0.6129303,0.471365 0.7153111,0.07977 3.0141764,-0.738637 3.0141764,-0.158511 0,0.279836 -0.1861506,0.602264 -1.0979282,0.534011 -0.9910959,-0.07419 -1.3859052,-0.278504 -2.1404034,0.313743 -1.2458117,0.977886 -1.1834626,2.48785 0.044545,3.45177 0.5889565,0.462299 1.3370637,0.44862 1.9867094,0.319521 2.0255418,-0.402519 3.4098902,0.340997 3.6434402,-0.09179 z M 7.3472602,28.837586 C 8.6039014,28.697757 9.5558394,29.00025 8.7004816,29.671656 8.4987628,29.830001 7.8137572,29.92902 7.4068669,29.891699 6.6008663,29.356744 6.9060377,29.149165 7.3472602,28.837586 Z"
             id="path403"
             style="fill:#000000;stroke-width:0.5;stroke-dasharray:none" />
          <path
             d="m 8.8471675,30.113367 c 0.2656044,-0.159241 0.5680646,-0.56713 0.6721402,-0.906422 0.4453296,-0.822936 -1.8701094,-1.413035 -2.989328,-0.636206 -1.5403452,1.069125 1.1428417,2.148128 2.3171878,1.542628 z M 6.2092418,30.362523 C 4.771744,29.302497 5.6692811,27.683912 7.5878825,27.683912 c 0.4692412,0 1.1100439,0.107897 1.4239534,0.239772 0.4927001,0.206977 0.6456003,-0.36223 0.6456003,-0.856105 0,-0.971331 -0.9935386,-1.401341 -2.0788213,-0.971245 -2.5439579,1.008168 -1.760076,-0.354687 -0.4693186,-0.662768 1.9320111,-0.461138 3.3925087,0.05337 3.0898247,2.788051 -0.08356,0.754923 -0.181682,1.205538 -0.2429423,1.528774 -0.1689426,0.891417 0.7650813,0.921879 0.6844203,1.203655 -0.04854,0.169577 -1.0618398,-0.572119 -2.8673165,-0.104125 -0.5326397,0.138064 -1.1406848,-0.175198 -1.5640407,-0.487398 z"
             id="path405"
             style="fill:#ffffff;stroke-width:0.5;stroke-dasharray:none" />
        </g>
      </g>
    </g>
  </g>
</svg>
