<?xml version="1.0" encoding="UTF-8" standalone="no"?>
<!-- Created with Inkscape (http://www.inkscape.org/) -->

<svg
   version="1.1"
   width="177.58273"
   height="277.58493"
   viewBox="0 0 177.58273 277.58493"
   id="svg10047"
   sodipodi:docname="ace_of_diamonds.svg"
   inkscape:version="1.2.2 (b0a8486541, 2022-12-01)"
   xmlns:inkscape="http://www.inkscape.org/namespaces/inkscape"
   xmlns:sodipodi="http://sodipodi.sourceforge.net/DTD/sodipodi-0.dtd"
   xmlns:xlink="http://www.w3.org/1999/xlink"
   xmlns="http://www.w3.org/2000/svg"
   xmlns:svg="http://www.w3.org/2000/svg"
   xmlns:rdf="http://www.w3.org/1999/02/22-rdf-syntax-ns#"
   xmlns:cc="http://creativecommons.org/ns#"
   xmlns:dc="http://purl.org/dc/elements/1.1/">
  <sodipodi:namedview
     id="namedview40"
     pagecolor="#ffffff"
     bordercolor="#666666"
     borderopacity="1.0"
     inkscape:showpageshadow="2"
     inkscape:pageopacity="0.0"
     inkscape:pagecheckerboard="0"
     inkscape:deskcolor="#d1d1d1"
     showgrid="false"
     inkscape:zoom="2.8142857"
     inkscape:cx="89.543148"
     inkscape:cy="138.93401"
     inkscape:window-width="1854"
     inkscape:window-height="1011"
     inkscape:window-x="0"
     inkscape:window-y="0"
     inkscape:window-maximized="1"
     inkscape:current-layer="svg10047" />
  <metadata
     id="metadata16869">
    <rdf:RDF>
      <cc:Work
         rdf:about="">
        <dc:format>image/svg+xml</dc:format>
        <dc:type
           rdf:resource="http://purl.org/dc/dcmitype/StillImage" />
      </cc:Work>
    </rdf:RDF>
  </metadata>
  <defs
     id="defs3059">
    <g
       transform="translate(-346,-13.597296)"
       id="dl">
      <path
         d="m 342,21.316021 c -4.23127,-4.185585 -5.01467,-6.38697 -3.39057,-9.527637 0.78343,-1.514992 2.65972,-3.3933288 4.16954,-4.1740827 2.3728,-1.2270258 3.11474,-1.2258833 5.4705,0.00842 3.69088,1.9338476 5.91235,6.3069767 4.52518,8.9081627 -1.23516,2.316167 -6.59227,7.515981 -7.58637,7.363626 C 344.80973,23.836496 343.375,22.676174 342,21.316021 Z"
         id="path4598"
         style="fill:#dfc800" />
      <path
         d="m 343.63837,22.5 c -0.31658,-0.825 -0.13972,-1.5 0.39301,-1.5 0.53274,0 1.00415,0.5625 1.04757,1.25 0.0632,1 0.17982,1 0.58333,0 0.27741,-0.6875 0.90276,-1.25 1.38967,-1.25 0.4869,0 0.62626,0.675 0.30968,1.5 -0.31659,0.825 -1.15432,1.5 -1.86163,1.5 -0.70731,0 -1.54504,-0.675 -1.86163,-1.5 z"
         id="path4486"
         style="fill:#fe0000" />
      <path
         d="m 347.09068,8.0772074 c -0.77512,-0.4906919 -2.01262,-0.6606562 -2.75,-0.3776984 -2.11462,0.8114588 -1.57691,1.3018064 1.40932,1.2851782 2.00139,-0.011144 2.36635,-0.258181 1.34068,-0.9074798 z m 5.17563,7.2223556 c 1.44754,-0.826914 -0.22162,-2.030627 -3.5691,-2.573848 -3.9979,-0.64877 -10.22034,0.465124 -10.14051,1.81528 0.11671,1.974254 10.56911,2.552596 13.70961,0.758568 z m -13.35528,2.313746 c -1.60643,-2.641564 -1.64129,-3.234256 -0.3384,-5.753763 0.79888,-1.544864 2.67894,-3.4514338 4.1779,-4.2368208 2.35576,-1.2343072 3.0977,-1.2354497 5.4705,-0.00842 1.50982,0.7807539 3.40002,2.6859908 4.20045,4.2338608 1.30115,2.516147 1.27228,3.116943 -0.27249,5.670847 -1.50344,2.485572 -2.35893,2.868401 -6.58744,2.947879 -4.35226,0.0818 -5.04658,-0.216109 -6.65052,-2.853579 z"
         id="path4474"
         style="fill:#fe0000" />
      <path
         d="M 339.9217,11.146309 C 340.83107,9.4471299 341.99317,9 345.5,9 c 3.50683,0 4.66893,0.4471299 5.5783,2.146309 1.05737,1.975712 0.96081,2.085759 -1.21481,1.384521 C 348.56357,12.111848 346.6,11.769044 345.5,11.769044 c -1.1,0 -3.06357,0.342804 -4.36349,0.761786 -2.17562,0.701238 -2.27218,0.591191 -1.21481,-1.384521 z"
         id="path17444"
         style="fill:#0000fe" />
      <path
         d="m 339.9217,17.853691 c -1.05737,-1.975712 -0.96081,-2.085759 1.21481,-1.384521 1.29992,0.418982 3.26349,0.761786 4.36349,0.761786 1.1,0 3.06357,-0.342804 4.36349,-0.761786 2.17562,-0.701238 2.27218,-0.591191 1.21481,1.384521 C 350.16893,19.55287 349.00683,20 345.5,20 c -3.50683,0 -4.66893,-0.44713 -5.5783,-2.146309 z"
         id="path4412"
         style="fill:#0000fe" />
    </g>
    <g
       id="letter-a">
      <path
         d="m 11.353991,31.254174 c 0.250559,-0.464306 -1.136266,-0.658828 -0.794309,-1.466557 0.148167,-0.349985 0.120064,-0.898159 0.130546,-1.97199 0.01691,-1.731786 -0.422375,-3.057995 -2.636873,-2.8998 -0.9874527,0.07054 -2.7573339,0.415073 -2.7628337,1.498239 -0.00153,0.300471 0.1813712,0.423239 0.6129303,0.471365 0.7153111,0.07977 3.0141764,-0.738637 3.0141764,-0.158511 0,0.279836 -0.1861506,0.602264 -1.0979282,0.534011 -0.9910959,-0.07419 -1.3859052,-0.278504 -2.1404034,0.313743 -1.2458117,0.977886 -1.1834626,2.48785 0.044545,3.45177 0.5889565,0.462299 1.3370637,0.44862 1.9867094,0.319521 2.0255418,-0.402519 3.4098902,0.340997 3.6434402,-0.09179 z M 7.3472602,28.837586 C 8.6039014,28.697757 9.5558394,29.00025 8.7004816,29.671656 8.4987628,29.830001 7.8137572,29.92902 7.4068669,29.891699 6.6008663,29.356744 6.9060377,29.149165 7.3472602,28.837586 Z"
         id="path6289"
         style="fill:#000000" />
      <path
         d="m 8.8471675,30.113367 c 0.2656044,-0.159241 0.5680646,-0.56713 0.6721402,-0.906422 0.4453296,-0.822936 -1.8701094,-1.413035 -2.989328,-0.636206 -1.5403452,1.069125 1.1428417,2.148128 2.3171878,1.542628 z M 6.2092418,30.362523 C 4.771744,29.302497 5.6692811,27.683912 7.5878825,27.683912 c 0.4692412,0 1.1100439,0.107897 1.4239534,0.239772 0.4927001,0.206977 0.6456003,-0.36223 0.6456003,-0.856105 0,-0.971331 -0.9935386,-1.401341 -2.0788213,-0.971245 -2.5439579,1.008168 -1.760076,-0.354687 -0.4693186,-0.662768 1.9320111,-0.461138 3.3925087,0.05337 3.0898247,2.788051 -0.08356,0.754923 -0.181682,1.205538 -0.2429423,1.528774 -0.1689426,0.891417 0.7650813,0.921879 0.6844203,1.203655 -0.04854,0.169577 -1.0618398,-0.572119 -2.8673165,-0.104125 -0.5326397,0.138064 -1.1406848,-0.175198 -1.5640407,-0.487398 z"
         id="path6594"
         style="fill:#ffffff" />
    </g>
    <g
       id="indicator-background">
      <path
         d="M 4.9840521,32.578091 C 1.870653,29.325097 2.1087365,23.444548 5.4655326,20.6857 c 2.2986147,-1.889165 5.5112604,-0.81715 6.9669734,2.324782 3.118592,6.731 -2.8390681,14.383666 -7.4484539,9.567609 z"
         id="path6341-2"
         style="stroke:#000000" />
    </g>
    <g
       id="ib1">
      <use
         transform="rotate(180,39.5,61.5)"
         id="use8699"
         x="0"
         y="0"
         width="1027"
         height="615"
         xlink:href="#it1" />
    </g>
    <g
       transform="translate(-0.975,-6)"
       id="it1">
      <use
         id="use8634"
         x="0"
         y="0"
         width="1027"
         height="615"
         xlink:href="#indicator-background" />
      <use
         id="use8636"
         x="0"
         y="0"
         width="1027"
         height="615"
         xlink:href="#letter-a" />
    </g>
    <g
       id="def_1">
      <path
         d="m 30,96.45034 c 0,-7.137984 0.456217,-11.422928 1.410724,-13.25 1.812337,-3.469091 6.182685,-7.514233 10.441968,-9.664963 3.985938,-2.012704 7.410258,-0.999424 12.894099,3.815452 C 60.150771,82.095586 61,84.689433 61,96.45034 V 107 H 45.5 30 Z M 41.5,66.341153 C 37.498575,64.235375 33.143803,60.117039 31.410724,56.79966 30.456217,54.972588 30,50.687644 30,43.54966 V 33 H 45.5 61 V 43.54966 C 61,54.998265 60.200662,57.622778 55.339276,62.135838 52.533714,64.740379 46.849994,68.037585 45.29966,67.959962 44.859847,67.937942 43.15,67.209478 41.5,66.341153 Z"
         id="path4730"
         style="fill:#ccc9cc" />
      <path
         d="m 31,95.95034 c 0,-11.044955 0.96977,-14.064227 5.831227,-18.154873 5.142061,-4.32676 8.464385,-5.205426 12.316081,-3.257278 C 57.992155,79.011823 60,82.973261 60,95.95034 V 106 H 45.5 31 Z M 57.996262,94.75 c -0.0044,-10.973309 -1.602756,-14.488276 -8.093908,-17.799815 -4.038568,-2.060324 -4.301524,-2.073933 -7.984341,-0.413214 -7.34495,3.312111 -8.375403,5.3169 -8.759038,17.041056 L 32.81795,104 H 45.408975 58 L 57.9963,94.75 Z M 41.5,65.338367 C 32.953859,60.83296 31,56.871519 31,44.04966 V 34 H 45.5 60 V 44.04966 C 60,56.964803 57.976516,60.999041 49.29966,65.383027 45.439545,67.333352 45.282509,67.332452 41.5,65.338367 Z m 8.289838,-2.231957 c 6.9066,-3.524987 7.670802,-5.110943 8.051187,-16.708711 L 58.18205,36 H 45.591025 33 l 0.0037,9.25 c 0.0044,10.802397 1.587882,14.432445 7.703782,17.660121 4.71763,2.489736 4.593943,2.487063 9.082318,0.196289 z"
         id="path4728"
         style="fill:#9b989b" />
    </g>
    <g
       id="cf">
      <path
         d="m 78.25,117.25 c 0,2.762 -2.238,5 -5,5 H 5.75 c -2.761,0 -5,-2.238 -5,-5 V 5.75 c 0,-2.762 2.239,-5 5,-5 h 67.5 c 2.762,0 5,2.238 5,5 z"
         id="path8383"
         style="fill:#ffffff;stroke:#000000;stroke-width:1.5" />
      <path
         d="m 72.226712,114.23425 c 0,2.61259 -1.890126,4.72953 -4.222801,4.72953 H 10.996089 c -2.3318303,0 -4.2228009,-2.11694 -4.2228009,-4.72953 V 8.7657498 c 0,-2.6125922 1.8909706,-4.7295293 4.2228009,-4.7295293 h 57.007822 c 2.332675,0 4.222801,2.1169371 4.222801,4.7295293 z"
         id="path10068"
         style="fill:#ffffff;stroke:#000000;stroke-width:1" />
    </g>
    <g
       id="1_diamond">
      <use
         id="use3259"
         x="0"
         y="123"
         width="1027"
         height="615"
         xlink:href="#cf" />
      <use
         transform="matrix(0.87777778,0,0,0.87857143,0,123)"
         id="use3261"
         x="0"
         y="0"
         width="1027"
         height="615"
         xlink:href="#def_1" />
      <use
         transform="matrix(0.99073307,-0.572,0.572,0.99073307,18,139)"
         id="use8980"
         x="0"
         y="0"
         width="1027"
         height="615"
         xlink:href="#dl" />
      <use
         transform="matrix(0.99073307,0.572,-0.572,0.99073307,61,139)"
         id="use8982"
         x="0"
         y="0"
         width="1027"
         height="615"
         xlink:href="#dl" />
      <use
         transform="matrix(0.88,0,0,0.88,39.5,167)"
         id="use8984"
         x="0"
         y="0"
         width="1027"
         height="615"
         xlink:href="#dl" />
      <use
         transform="matrix(0.88,0,0,-0.88,39.5,202)"
         id="use8986"
         x="0"
         y="0"
         width="1027"
         height="615"
         xlink:href="#dl" />
      <use
         transform="matrix(0.99073307,0.572,0.572,-0.99073307,18,230)"
         id="use8988"
         x="0"
         y="0"
         width="1027"
         height="615"
         xlink:href="#dl" />
      <use
         transform="matrix(0.99073307,-0.572,-0.572,-0.99073307,61,230)"
         id="use8990"
         x="0"
         y="0"
         width="1027"
         height="615"
         xlink:href="#dl" />
      <use
         id="use3263"
         style="fill:#df9000"
         x="0"
         y="123"
         width="1027"
         height="615"
         xlink:href="#it1" />
      <use
         id="use3265"
         style="fill:#df9000"
         x="0"
         y="123"
         width="1027"
         height="615"
         xlink:href="#ib1" />
    </g>
  </defs>
  <g
     id="use37"
     transform="matrix(2.278481,0,0,2.2764228,-1.2086348,-281.20755)"
     style="stroke-width:0.439087;stroke-dasharray:none">
    <g
       id="use323"
       transform="translate(0,123)"
       style="stroke-width:0.439087;stroke-dasharray:none">
      <path
         d="m 78.25,117.25 c 0,2.762 -2.238,5 -5,5 H 5.75 c -2.761,0 -5,-2.238 -5,-5 V 5.75 c 0,-2.762 2.239,-5 5,-5 h 67.5 c 2.762,0 5,2.238 5,5 z"
         id="path345"
         style="fill:#ffffff;stroke:#000000;stroke-width:0.439087;stroke-dasharray:none" />
      <path
         d="m 72.226712,114.23425 c 0,2.61259 -1.890126,4.72953 -4.222801,4.72953 H 10.996089 c -2.3318303,0 -4.2228009,-2.11694 -4.2228009,-4.72953 V 8.7657498 c 0,-2.6125922 1.8909706,-4.7295293 4.2228009,-4.7295293 h 57.007822 c 2.332675,0 4.222801,2.1169371 4.222801,4.7295293 z"
         id="path347"
         style="fill:#ffffff;stroke:#000000;stroke-width:0.439087;stroke-dasharray:none" />
    </g>
    <g
       id="use325"
       transform="matrix(0.87777778,0,0,0.87857143,0,123)"
       style="stroke-width:0.5;stroke-dasharray:none">
      <path
         d="m 30,96.45034 c 0,-7.137984 0.456217,-11.422928 1.410724,-13.25 1.812337,-3.469091 6.182685,-7.514233 10.441968,-9.664963 3.985938,-2.012704 7.410258,-0.999424 12.894099,3.815452 C 60.150771,82.095586 61,84.689433 61,96.45034 V 107 H 45.5 30 Z M 41.5,66.341153 C 37.498575,64.235375 33.143803,60.117039 31.410724,56.79966 30.456217,54.972588 30,50.687644 30,43.54966 V 33 H 45.5 61 V 43.54966 C 61,54.998265 60.200662,57.622778 55.339276,62.135838 52.533714,64.740379 46.849994,68.037585 45.29966,67.959962 44.859847,67.937942 43.15,67.209478 41.5,66.341153 Z"
         id="path351"
         style="fill:#ccc9cc;stroke-width:0.5;stroke-dasharray:none" />
      <path
         d="m 31,95.95034 c 0,-11.044955 0.96977,-14.064227 5.831227,-18.154873 5.142061,-4.32676 8.464385,-5.205426 12.316081,-3.257278 C 57.992155,79.011823 60,82.973261 60,95.95034 V 106 H 45.5 31 Z M 57.996262,94.75 c -0.0044,-10.973309 -1.602756,-14.488276 -8.093908,-17.799815 -4.038568,-2.060324 -4.301524,-2.073933 -7.984341,-0.413214 -7.34495,3.312111 -8.375403,5.3169 -8.759038,17.041056 L 32.81795,104 H 45.408975 58 L 57.9963,94.75 Z M 41.5,65.338367 C 32.953859,60.83296 31,56.871519 31,44.04966 V 34 H 45.5 60 V 44.04966 C 60,56.964803 57.976516,60.999041 49.29966,65.383027 45.439545,67.333352 45.282509,67.332452 41.5,65.338367 Z m 8.289838,-2.231957 c 6.9066,-3.524987 7.670802,-5.110943 8.051187,-16.708711 L 58.18205,36 H 45.591025 33 l 0.0037,9.25 c 0.0044,10.802397 1.587882,14.432445 7.703782,17.660121 4.71763,2.489736 4.593943,2.487063 9.082318,0.196289 z"
         id="path353"
         style="fill:#9b989b;stroke-width:0.5;stroke-dasharray:none" />
    </g>
    <g
       transform="matrix(0.99073307,-0.572,0.572,0.99073307,-332.5713,323.44071)"
       id="use327"
       style="stroke-width:0.383818;stroke-dasharray:none">
      <path
         d="m 342,21.316021 c -4.23127,-4.185585 -5.01467,-6.38697 -3.39057,-9.527637 0.78343,-1.514992 2.65972,-3.3933288 4.16954,-4.1740827 2.3728,-1.2270258 3.11474,-1.2258833 5.4705,0.00842 3.69088,1.9338476 5.91235,6.3069767 4.52518,8.9081627 -1.23516,2.316167 -6.59227,7.515981 -7.58637,7.363626 C 344.80973,23.836496 343.375,22.676174 342,21.316021 Z"
         id="path357"
         style="fill:#dfc800;stroke-width:0.383818;stroke-dasharray:none" />
      <path
         d="m 343.63837,22.5 c -0.31658,-0.825 -0.13972,-1.5 0.39301,-1.5 0.53274,0 1.00415,0.5625 1.04757,1.25 0.0632,1 0.17982,1 0.58333,0 0.27741,-0.6875 0.90276,-1.25 1.38967,-1.25 0.4869,0 0.62626,0.675 0.30968,1.5 -0.31659,0.825 -1.15432,1.5 -1.86163,1.5 -0.70731,0 -1.54504,-0.675 -1.86163,-1.5 z"
         id="path359"
         style="fill:#fe0000;stroke-width:0.383818;stroke-dasharray:none" />
      <path
         d="m 347.09068,8.0772074 c -0.77512,-0.4906919 -2.01262,-0.6606562 -2.75,-0.3776984 -2.11462,0.8114588 -1.57691,1.3018064 1.40932,1.2851782 2.00139,-0.011144 2.36635,-0.258181 1.34068,-0.9074798 z m 5.17563,7.2223556 c 1.44754,-0.826914 -0.22162,-2.030627 -3.5691,-2.573848 -3.9979,-0.64877 -10.22034,0.465124 -10.14051,1.81528 0.11671,1.974254 10.56911,2.552596 13.70961,0.758568 z m -13.35528,2.313746 c -1.60643,-2.641564 -1.64129,-3.234256 -0.3384,-5.753763 0.79888,-1.544864 2.67894,-3.4514338 4.1779,-4.2368208 2.35576,-1.2343072 3.0977,-1.2354497 5.4705,-0.00842 1.50982,0.7807539 3.40002,2.6859908 4.20045,4.2338608 1.30115,2.516147 1.27228,3.116943 -0.27249,5.670847 -1.50344,2.485572 -2.35893,2.868401 -6.58744,2.947879 -4.35226,0.0818 -5.04658,-0.216109 -6.65052,-2.853579 z"
         id="path361"
         style="fill:#fe0000;stroke-width:0.383818;stroke-dasharray:none" />
      <path
         d="M 339.9217,11.146309 C 340.83107,9.4471299 341.99317,9 345.5,9 c 3.50683,0 4.66893,0.4471299 5.5783,2.146309 1.05737,1.975712 0.96081,2.085759 -1.21481,1.384521 C 348.56357,12.111848 346.6,11.769044 345.5,11.769044 c -1.1,0 -3.06357,0.342804 -4.36349,0.761786 -2.17562,0.701238 -2.27218,0.591191 -1.21481,-1.384521 z"
         id="path363"
         style="fill:#0000fe;stroke-width:0.383818;stroke-dasharray:none" />
      <path
         d="m 339.9217,17.853691 c -1.05737,-1.975712 -0.96081,-2.085759 1.21481,-1.384521 1.29992,0.418982 3.26349,0.761786 4.36349,0.761786 1.1,0 3.06357,-0.342804 4.36349,-0.761786 2.17562,-0.701238 2.27218,-0.591191 1.21481,1.384521 C 350.16893,19.55287 349.00683,20 345.5,20 c -3.50683,0 -4.66893,-0.44713 -5.5783,-2.146309 z"
         id="path365"
         style="fill:#0000fe;stroke-width:0.383818;stroke-dasharray:none" />
    </g>
    <g
       transform="matrix(0.99073307,0.572,-0.572,0.99073307,-274.01599,-72.383291)"
       id="use329"
       style="stroke-width:0.383818;stroke-dasharray:none">
      <path
         d="m 342,21.316021 c -4.23127,-4.185585 -5.01467,-6.38697 -3.39057,-9.527637 0.78343,-1.514992 2.65972,-3.3933288 4.16954,-4.1740827 2.3728,-1.2270258 3.11474,-1.2258833 5.4705,0.00842 3.69088,1.9338476 5.91235,6.3069767 4.52518,8.9081627 -1.23516,2.316167 -6.59227,7.515981 -7.58637,7.363626 C 344.80973,23.836496 343.375,22.676174 342,21.316021 Z"
         id="path369"
         style="fill:#dfc800;stroke-width:0.383818;stroke-dasharray:none" />
      <path
         d="m 343.63837,22.5 c -0.31658,-0.825 -0.13972,-1.5 0.39301,-1.5 0.53274,0 1.00415,0.5625 1.04757,1.25 0.0632,1 0.17982,1 0.58333,0 0.27741,-0.6875 0.90276,-1.25 1.38967,-1.25 0.4869,0 0.62626,0.675 0.30968,1.5 -0.31659,0.825 -1.15432,1.5 -1.86163,1.5 -0.70731,0 -1.54504,-0.675 -1.86163,-1.5 z"
         id="path371"
         style="fill:#fe0000;stroke-width:0.383818;stroke-dasharray:none" />
      <path
         d="m 347.09068,8.0772074 c -0.77512,-0.4906919 -2.01262,-0.6606562 -2.75,-0.3776984 -2.11462,0.8114588 -1.57691,1.3018064 1.40932,1.2851782 2.00139,-0.011144 2.36635,-0.258181 1.34068,-0.9074798 z m 5.17563,7.2223556 c 1.44754,-0.826914 -0.22162,-2.030627 -3.5691,-2.573848 -3.9979,-0.64877 -10.22034,0.465124 -10.14051,1.81528 0.11671,1.974254 10.56911,2.552596 13.70961,0.758568 z m -13.35528,2.313746 c -1.60643,-2.641564 -1.64129,-3.234256 -0.3384,-5.753763 0.79888,-1.544864 2.67894,-3.4514338 4.1779,-4.2368208 2.35576,-1.2343072 3.0977,-1.2354497 5.4705,-0.00842 1.50982,0.7807539 3.40002,2.6859908 4.20045,4.2338608 1.30115,2.516147 1.27228,3.116943 -0.27249,5.670847 -1.50344,2.485572 -2.35893,2.868401 -6.58744,2.947879 -4.35226,0.0818 -5.04658,-0.216109 -6.65052,-2.853579 z"
         id="path373"
         style="fill:#fe0000;stroke-width:0.383818;stroke-dasharray:none" />
      <path
         d="M 339.9217,11.146309 C 340.83107,9.4471299 341.99317,9 345.5,9 c 3.50683,0 4.66893,0.4471299 5.5783,2.146309 1.05737,1.975712 0.96081,2.085759 -1.21481,1.384521 C 348.56357,12.111848 346.6,11.769044 345.5,11.769044 c -1.1,0 -3.06357,0.342804 -4.36349,0.761786 -2.17562,0.701238 -2.27218,0.591191 -1.21481,-1.384521 z"
         id="path375"
         style="fill:#0000fe;stroke-width:0.383818;stroke-dasharray:none" />
      <path
         d="m 339.9217,17.853691 c -1.05737,-1.975712 -0.96081,-2.085759 1.21481,-1.384521 1.29992,0.418982 3.26349,0.761786 4.36349,0.761786 1.1,0 3.06357,-0.342804 4.36349,-0.761786 2.17562,-0.701238 2.27218,-0.591191 1.21481,1.384521 C 350.16893,19.55287 349.00683,20 345.5,20 c -3.50683,0 -4.66893,-0.44713 -5.5783,-2.146309 z"
         id="path377"
         style="fill:#0000fe;stroke-width:0.383818;stroke-dasharray:none" />
    </g>
    <g
       transform="matrix(0.88,0,0,0.88,-264.98,155.03438)"
       id="use331"
       style="stroke-width:0.498963;stroke-dasharray:none">
      <path
         d="m 342,21.316021 c -4.23127,-4.185585 -5.01467,-6.38697 -3.39057,-9.527637 0.78343,-1.514992 2.65972,-3.3933288 4.16954,-4.1740827 2.3728,-1.2270258 3.11474,-1.2258833 5.4705,0.00842 3.69088,1.9338476 5.91235,6.3069767 4.52518,8.9081627 -1.23516,2.316167 -6.59227,7.515981 -7.58637,7.363626 C 344.80973,23.836496 343.375,22.676174 342,21.316021 Z"
         id="path381"
         style="fill:#dfc800;stroke-width:0.498963;stroke-dasharray:none" />
      <path
         d="m 343.63837,22.5 c -0.31658,-0.825 -0.13972,-1.5 0.39301,-1.5 0.53274,0 1.00415,0.5625 1.04757,1.25 0.0632,1 0.17982,1 0.58333,0 0.27741,-0.6875 0.90276,-1.25 1.38967,-1.25 0.4869,0 0.62626,0.675 0.30968,1.5 -0.31659,0.825 -1.15432,1.5 -1.86163,1.5 -0.70731,0 -1.54504,-0.675 -1.86163,-1.5 z"
         id="path383"
         style="fill:#fe0000;stroke-width:0.498963;stroke-dasharray:none" />
      <path
         d="m 347.09068,8.0772074 c -0.77512,-0.4906919 -2.01262,-0.6606562 -2.75,-0.3776984 -2.11462,0.8114588 -1.57691,1.3018064 1.40932,1.2851782 2.00139,-0.011144 2.36635,-0.258181 1.34068,-0.9074798 z m 5.17563,7.2223556 c 1.44754,-0.826914 -0.22162,-2.030627 -3.5691,-2.573848 -3.9979,-0.64877 -10.22034,0.465124 -10.14051,1.81528 0.11671,1.974254 10.56911,2.552596 13.70961,0.758568 z m -13.35528,2.313746 c -1.60643,-2.641564 -1.64129,-3.234256 -0.3384,-5.753763 0.79888,-1.544864 2.67894,-3.4514338 4.1779,-4.2368208 2.35576,-1.2343072 3.0977,-1.2354497 5.4705,-0.00842 1.50982,0.7807539 3.40002,2.6859908 4.20045,4.2338608 1.30115,2.516147 1.27228,3.116943 -0.27249,5.670847 -1.50344,2.485572 -2.35893,2.868401 -6.58744,2.947879 -4.35226,0.0818 -5.04658,-0.216109 -6.65052,-2.853579 z"
         id="path385"
         style="fill:#fe0000;stroke-width:0.498963;stroke-dasharray:none" />
      <path
         d="M 339.9217,11.146309 C 340.83107,9.4471299 341.99317,9 345.5,9 c 3.50683,0 4.66893,0.4471299 5.5783,2.146309 1.05737,1.975712 0.96081,2.085759 -1.21481,1.384521 C 348.56357,12.111848 346.6,11.769044 345.5,11.769044 c -1.1,0 -3.06357,0.342804 -4.36349,0.761786 -2.17562,0.701238 -2.27218,0.591191 -1.21481,-1.384521 z"
         id="path387"
         style="fill:#0000fe;stroke-width:0.498963;stroke-dasharray:none" />
      <path
         d="m 339.9217,17.853691 c -1.05737,-1.975712 -0.96081,-2.085759 1.21481,-1.384521 1.29992,0.418982 3.26349,0.761786 4.36349,0.761786 1.1,0 3.06357,-0.342804 4.36349,-0.761786 2.17562,-0.701238 2.27218,-0.591191 1.21481,1.384521 C 350.16893,19.55287 349.00683,20 345.5,20 c -3.50683,0 -4.66893,-0.44713 -5.5783,-2.146309 z"
         id="path389"
         style="fill:#0000fe;stroke-width:0.498963;stroke-dasharray:none" />
    </g>
    <g
       transform="matrix(0.88,0,0,-0.88,-264.98,213.96562)"
       id="use333"
       style="stroke-width:0.498963;stroke-dasharray:none">
      <path
         d="m 342,21.316021 c -4.23127,-4.185585 -5.01467,-6.38697 -3.39057,-9.527637 0.78343,-1.514992 2.65972,-3.3933288 4.16954,-4.1740827 2.3728,-1.2270258 3.11474,-1.2258833 5.4705,0.00842 3.69088,1.9338476 5.91235,6.3069767 4.52518,8.9081627 -1.23516,2.316167 -6.59227,7.515981 -7.58637,7.363626 C 344.80973,23.836496 343.375,22.676174 342,21.316021 Z"
         id="path393"
         style="fill:#dfc800;stroke-width:0.498963;stroke-dasharray:none" />
      <path
         d="m 343.63837,22.5 c -0.31658,-0.825 -0.13972,-1.5 0.39301,-1.5 0.53274,0 1.00415,0.5625 1.04757,1.25 0.0632,1 0.17982,1 0.58333,0 0.27741,-0.6875 0.90276,-1.25 1.38967,-1.25 0.4869,0 0.62626,0.675 0.30968,1.5 -0.31659,0.825 -1.15432,1.5 -1.86163,1.5 -0.70731,0 -1.54504,-0.675 -1.86163,-1.5 z"
         id="path395"
         style="fill:#fe0000;stroke-width:0.498963;stroke-dasharray:none" />
      <path
         d="m 347.09068,8.0772074 c -0.77512,-0.4906919 -2.01262,-0.6606562 -2.75,-0.3776984 -2.11462,0.8114588 -1.57691,1.3018064 1.40932,1.2851782 2.00139,-0.011144 2.36635,-0.258181 1.34068,-0.9074798 z m 5.17563,7.2223556 c 1.44754,-0.826914 -0.22162,-2.030627 -3.5691,-2.573848 -3.9979,-0.64877 -10.22034,0.465124 -10.14051,1.81528 0.11671,1.974254 10.56911,2.552596 13.70961,0.758568 z m -13.35528,2.313746 c -1.60643,-2.641564 -1.64129,-3.234256 -0.3384,-5.753763 0.79888,-1.544864 2.67894,-3.4514338 4.1779,-4.2368208 2.35576,-1.2343072 3.0977,-1.2354497 5.4705,-0.00842 1.50982,0.7807539 3.40002,2.6859908 4.20045,4.2338608 1.30115,2.516147 1.27228,3.116943 -0.27249,5.670847 -1.50344,2.485572 -2.35893,2.868401 -6.58744,2.947879 -4.35226,0.0818 -5.04658,-0.216109 -6.65052,-2.853579 z"
         id="path397"
         style="fill:#fe0000;stroke-width:0.498963;stroke-dasharray:none" />
      <path
         d="M 339.9217,11.146309 C 340.83107,9.4471299 341.99317,9 345.5,9 c 3.50683,0 4.66893,0.4471299 5.5783,2.146309 1.05737,1.975712 0.96081,2.085759 -1.21481,1.384521 C 348.56357,12.111848 346.6,11.769044 345.5,11.769044 c -1.1,0 -3.06357,0.342804 -4.36349,0.761786 -2.17562,0.701238 -2.27218,0.591191 -1.21481,-1.384521 z"
         id="path399"
         style="fill:#0000fe;stroke-width:0.498963;stroke-dasharray:none" />
      <path
         d="m 339.9217,17.853691 c -1.05737,-1.975712 -0.96081,-2.085759 1.21481,-1.384521 1.29992,0.418982 3.26349,0.761786 4.36349,0.761786 1.1,0 3.06357,-0.342804 4.36349,-0.761786 2.17562,-0.701238 2.27218,-0.591191 1.21481,1.384521 C 350.16893,19.55287 349.00683,20 345.5,20 c -3.50683,0 -4.66893,-0.44713 -5.5783,-2.146309 z"
         id="path401"
         style="fill:#0000fe;stroke-width:0.498963;stroke-dasharray:none" />
    </g>
    <g
       transform="matrix(0.99073307,0.572,0.572,-0.99073307,-332.5713,45.559291)"
       id="use335"
       style="stroke-width:0.383818;stroke-dasharray:none">
      <path
         d="m 342,21.316021 c -4.23127,-4.185585 -5.01467,-6.38697 -3.39057,-9.527637 0.78343,-1.514992 2.65972,-3.3933288 4.16954,-4.1740827 2.3728,-1.2270258 3.11474,-1.2258833 5.4705,0.00842 3.69088,1.9338476 5.91235,6.3069767 4.52518,8.9081627 -1.23516,2.316167 -6.59227,7.515981 -7.58637,7.363626 C 344.80973,23.836496 343.375,22.676174 342,21.316021 Z"
         id="path405"
         style="fill:#dfc800;stroke-width:0.383818;stroke-dasharray:none" />
      <path
         d="m 343.63837,22.5 c -0.31658,-0.825 -0.13972,-1.5 0.39301,-1.5 0.53274,0 1.00415,0.5625 1.04757,1.25 0.0632,1 0.17982,1 0.58333,0 0.27741,-0.6875 0.90276,-1.25 1.38967,-1.25 0.4869,0 0.62626,0.675 0.30968,1.5 -0.31659,0.825 -1.15432,1.5 -1.86163,1.5 -0.70731,0 -1.54504,-0.675 -1.86163,-1.5 z"
         id="path407"
         style="fill:#fe0000;stroke-width:0.383818;stroke-dasharray:none" />
      <path
         d="m 347.09068,8.0772074 c -0.77512,-0.4906919 -2.01262,-0.6606562 -2.75,-0.3776984 -2.11462,0.8114588 -1.57691,1.3018064 1.40932,1.2851782 2.00139,-0.011144 2.36635,-0.258181 1.34068,-0.9074798 z m 5.17563,7.2223556 c 1.44754,-0.826914 -0.22162,-2.030627 -3.5691,-2.573848 -3.9979,-0.64877 -10.22034,0.465124 -10.14051,1.81528 0.11671,1.974254 10.56911,2.552596 13.70961,0.758568 z m -13.35528,2.313746 c -1.60643,-2.641564 -1.64129,-3.234256 -0.3384,-5.753763 0.79888,-1.544864 2.67894,-3.4514338 4.1779,-4.2368208 2.35576,-1.2343072 3.0977,-1.2354497 5.4705,-0.00842 1.50982,0.7807539 3.40002,2.6859908 4.20045,4.2338608 1.30115,2.516147 1.27228,3.116943 -0.27249,5.670847 -1.50344,2.485572 -2.35893,2.868401 -6.58744,2.947879 -4.35226,0.0818 -5.04658,-0.216109 -6.65052,-2.853579 z"
         id="path409"
         style="fill:#fe0000;stroke-width:0.383818;stroke-dasharray:none" />
      <path
         d="M 339.9217,11.146309 C 340.83107,9.4471299 341.99317,9 345.5,9 c 3.50683,0 4.66893,0.4471299 5.5783,2.146309 1.05737,1.975712 0.96081,2.085759 -1.21481,1.384521 C 348.56357,12.111848 346.6,11.769044 345.5,11.769044 c -1.1,0 -3.06357,0.342804 -4.36349,0.761786 -2.17562,0.701238 -2.27218,0.591191 -1.21481,-1.384521 z"
         id="path411"
         style="fill:#0000fe;stroke-width:0.383818;stroke-dasharray:none" />
      <path
         d="m 339.9217,17.853691 c -1.05737,-1.975712 -0.96081,-2.085759 1.21481,-1.384521 1.29992,0.418982 3.26349,0.761786 4.36349,0.761786 1.1,0 3.06357,-0.342804 4.36349,-0.761786 2.17562,-0.701238 2.27218,-0.591191 1.21481,1.384521 C 350.16893,19.55287 349.00683,20 345.5,20 c -3.50683,0 -4.66893,-0.44713 -5.5783,-2.146309 z"
         id="path413"
         style="fill:#0000fe;stroke-width:0.383818;stroke-dasharray:none" />
    </g>
    <g
       transform="matrix(0.99073307,-0.572,-0.572,-0.99073307,-274.01599,441.38329)"
       id="use337"
       style="stroke-width:0.383818;stroke-dasharray:none">
      <path
         d="m 342,21.316021 c -4.23127,-4.185585 -5.01467,-6.38697 -3.39057,-9.527637 0.78343,-1.514992 2.65972,-3.3933288 4.16954,-4.1740827 2.3728,-1.2270258 3.11474,-1.2258833 5.4705,0.00842 3.69088,1.9338476 5.91235,6.3069767 4.52518,8.9081627 -1.23516,2.316167 -6.59227,7.515981 -7.58637,7.363626 C 344.80973,23.836496 343.375,22.676174 342,21.316021 Z"
         id="path417"
         style="fill:#dfc800;stroke-width:0.383818;stroke-dasharray:none" />
      <path
         d="m 343.63837,22.5 c -0.31658,-0.825 -0.13972,-1.5 0.39301,-1.5 0.53274,0 1.00415,0.5625 1.04757,1.25 0.0632,1 0.17982,1 0.58333,0 0.27741,-0.6875 0.90276,-1.25 1.38967,-1.25 0.4869,0 0.62626,0.675 0.30968,1.5 -0.31659,0.825 -1.15432,1.5 -1.86163,1.5 -0.70731,0 -1.54504,-0.675 -1.86163,-1.5 z"
         id="path419"
         style="fill:#fe0000;stroke-width:0.383818;stroke-dasharray:none" />
      <path
         d="m 347.09068,8.0772074 c -0.77512,-0.4906919 -2.01262,-0.6606562 -2.75,-0.3776984 -2.11462,0.8114588 -1.57691,1.3018064 1.40932,1.2851782 2.00139,-0.011144 2.36635,-0.258181 1.34068,-0.9074798 z m 5.17563,7.2223556 c 1.44754,-0.826914 -0.22162,-2.030627 -3.5691,-2.573848 -3.9979,-0.64877 -10.22034,0.465124 -10.14051,1.81528 0.11671,1.974254 10.56911,2.552596 13.70961,0.758568 z m -13.35528,2.313746 c -1.60643,-2.641564 -1.64129,-3.234256 -0.3384,-5.753763 0.79888,-1.544864 2.67894,-3.4514338 4.1779,-4.2368208 2.35576,-1.2343072 3.0977,-1.2354497 5.4705,-0.00842 1.50982,0.7807539 3.40002,2.6859908 4.20045,4.2338608 1.30115,2.516147 1.27228,3.116943 -0.27249,5.670847 -1.50344,2.485572 -2.35893,2.868401 -6.58744,2.947879 -4.35226,0.0818 -5.04658,-0.216109 -6.65052,-2.853579 z"
         id="path421"
         style="fill:#fe0000;stroke-width:0.383818;stroke-dasharray:none" />
      <path
         d="M 339.9217,11.146309 C 340.83107,9.4471299 341.99317,9 345.5,9 c 3.50683,0 4.66893,0.4471299 5.5783,2.146309 1.05737,1.975712 0.96081,2.085759 -1.21481,1.384521 C 348.56357,12.111848 346.6,11.769044 345.5,11.769044 c -1.1,0 -3.06357,0.342804 -4.36349,0.761786 -2.17562,0.701238 -2.27218,0.591191 -1.21481,-1.384521 z"
         id="path423"
         style="fill:#0000fe;stroke-width:0.383818;stroke-dasharray:none" />
      <path
         d="m 339.9217,17.853691 c -1.05737,-1.975712 -0.96081,-2.085759 1.21481,-1.384521 1.29992,0.418982 3.26349,0.761786 4.36349,0.761786 1.1,0 3.06357,-0.342804 4.36349,-0.761786 2.17562,-0.701238 2.27218,-0.591191 1.21481,1.384521 C 350.16893,19.55287 349.00683,20 345.5,20 c -3.50683,0 -4.66893,-0.44713 -5.5783,-2.146309 z"
         id="path425"
         style="fill:#0000fe;stroke-width:0.383818;stroke-dasharray:none" />
    </g>
    <g
       transform="translate(-0.975,117)"
       id="use339"
       style="fill:#df9000;stroke-width:0.439087;stroke-dasharray:none">
      <g
         id="use429"
         style="stroke-width:0.439087;stroke-dasharray:none">
        <path
           d="M 4.9840521,32.578091 C 1.870653,29.325097 2.1087365,23.444548 5.4655326,20.6857 c 2.2986147,-1.889165 5.5112604,-0.81715 6.9669734,2.324782 3.118592,6.731 -2.8390681,14.383666 -7.4484539,9.567609 z"
           id="path435"
           style="stroke:#000000;stroke-width:0.439087;stroke-dasharray:none" />
      </g>
      <g
         id="use431"
         style="stroke-width:0.439087;stroke-dasharray:none">
        <path
           d="m 11.353991,31.254174 c 0.250559,-0.464306 -1.136266,-0.658828 -0.794309,-1.466557 0.148167,-0.349985 0.120064,-0.898159 0.130546,-1.97199 0.01691,-1.731786 -0.422375,-3.057995 -2.636873,-2.8998 -0.9874527,0.07054 -2.7573339,0.415073 -2.7628337,1.498239 -0.00153,0.300471 0.1813712,0.423239 0.6129303,0.471365 0.7153111,0.07977 3.0141764,-0.738637 3.0141764,-0.158511 0,0.279836 -0.1861506,0.602264 -1.0979282,0.534011 -0.9910959,-0.07419 -1.3859052,-0.278504 -2.1404034,0.313743 -1.2458117,0.977886 -1.1834626,2.48785 0.044545,3.45177 0.5889565,0.462299 1.3370637,0.44862 1.9867094,0.319521 2.0255418,-0.402519 3.4098902,0.340997 3.6434402,-0.09179 z M 7.3472602,28.837586 C 8.6039014,28.697757 9.5558394,29.00025 8.7004816,29.671656 8.4987628,29.830001 7.8137572,29.92902 7.4068669,29.891699 6.6008663,29.356744 6.9060377,29.149165 7.3472602,28.837586 Z"
           id="path439"
           style="fill:#000000;stroke-width:0.439087;stroke-dasharray:none" />
        <path
           d="m 8.8471675,30.113367 c 0.2656044,-0.159241 0.5680646,-0.56713 0.6721402,-0.906422 0.4453296,-0.822936 -1.8701094,-1.413035 -2.989328,-0.636206 -1.5403452,1.069125 1.1428417,2.148128 2.3171878,1.542628 z M 6.2092418,30.362523 C 4.771744,29.302497 5.6692811,27.683912 7.5878825,27.683912 c 0.4692412,0 1.1100439,0.107897 1.4239534,0.239772 0.4927001,0.206977 0.6456003,-0.36223 0.6456003,-0.856105 0,-0.971331 -0.9935386,-1.401341 -2.0788213,-0.971245 -2.5439579,1.008168 -1.760076,-0.354687 -0.4693186,-0.662768 1.9320111,-0.461138 3.3925087,0.05337 3.0898247,2.788051 -0.08356,0.754923 -0.181682,1.205538 -0.2429423,1.528774 -0.1689426,0.891417 0.7650813,0.921879 0.6844203,1.203655 -0.04854,0.169577 -1.0618398,-0.572119 -2.8673165,-0.104125 -0.5326397,0.138064 -1.1406848,-0.175198 -1.5640407,-0.487398 z"
           id="path441"
           style="fill:#ffffff;stroke-width:0.439087;stroke-dasharray:none" />
      </g>
    </g>
    <g
       id="use341"
       style="fill:#df9000;stroke-width:0.439087;stroke-dasharray:none"
       transform="translate(0,123)">
      <g
         transform="rotate(180,39.9875,64.5)"
         id="use445"
         style="stroke-width:0.439087;stroke-dasharray:none">
        <g
           id="use449"
           style="stroke-width:0.439087;stroke-dasharray:none">
          <path
             d="M 4.9840521,32.578091 C 1.870653,29.325097 2.1087365,23.444548 5.4655326,20.6857 c 2.2986147,-1.889165 5.5112604,-0.81715 6.9669734,2.324782 3.118592,6.731 -2.8390681,14.383666 -7.4484539,9.567609 z"
             id="path455"
             style="stroke:#000000;stroke-width:0.439087;stroke-dasharray:none" />
        </g>
        <g
           id="use451"
           style="stroke-width:0.439087;stroke-dasharray:none">
          <path
             d="m 11.353991,31.254174 c 0.250559,-0.464306 -1.136266,-0.658828 -0.794309,-1.466557 0.148167,-0.349985 0.120064,-0.898159 0.130546,-1.97199 0.01691,-1.731786 -0.422375,-3.057995 -2.636873,-2.8998 -0.9874527,0.07054 -2.7573339,0.415073 -2.7628337,1.498239 -0.00153,0.300471 0.1813712,0.423239 0.6129303,0.471365 0.7153111,0.07977 3.0141764,-0.738637 3.0141764,-0.158511 0,0.279836 -0.1861506,0.602264 -1.0979282,0.534011 -0.9910959,-0.07419 -1.3859052,-0.278504 -2.1404034,0.313743 -1.2458117,0.977886 -1.1834626,2.48785 0.044545,3.45177 0.5889565,0.462299 1.3370637,0.44862 1.9867094,0.319521 2.0255418,-0.402519 3.4098902,0.340997 3.6434402,-0.09179 z M 7.3472602,28.837586 C 8.6039014,28.697757 9.5558394,29.00025 8.7004816,29.671656 8.4987628,29.830001 7.8137572,29.92902 7.4068669,29.891699 6.6008663,29.356744 6.9060377,29.149165 7.3472602,28.837586 Z"
             id="path459"
             style="fill:#000000;stroke-width:0.439087;stroke-dasharray:none" />
          <path
             d="m 8.8471675,30.113367 c 0.2656044,-0.159241 0.5680646,-0.56713 0.6721402,-0.906422 0.4453296,-0.822936 -1.8701094,-1.413035 -2.989328,-0.636206 -1.5403452,1.069125 1.1428417,2.148128 2.3171878,1.542628 z M 6.2092418,30.362523 C 4.771744,29.302497 5.6692811,27.683912 7.5878825,27.683912 c 0.4692412,0 1.1100439,0.107897 1.4239534,0.239772 0.4927001,0.206977 0.6456003,-0.36223 0.6456003,-0.856105 0,-0.971331 -0.9935386,-1.401341 -2.0788213,-0.971245 -2.5439579,1.008168 -1.760076,-0.354687 -0.4693186,-0.662768 1.9320111,-0.461138 3.3925087,0.05337 3.0898247,2.788051 -0.08356,0.754923 -0.181682,1.205538 -0.2429423,1.528774 -0.1689426,0.891417 0.7650813,0.921879 0.6844203,1.203655 -0.04854,0.169577 -1.0618398,-0.572119 -2.8673165,-0.104125 -0.5326397,0.138064 -1.1406848,-0.175198 -1.5640407,-0.487398 z"
             id="path461"
             style="fill:#ffffff;stroke-width:0.439087;stroke-dasharray:none" />
        </g>
      </g>
    </g>
  </g>
</svg>
