<?xml version="1.0" encoding="UTF-8" standalone="no"?>
<!-- Created with Inkscape (http://www.inkscape.org/) -->

<svg
   version="1.1"
   width="156"
   height="244"
   viewBox="0 0 156 244"
   id="svg10047"
   sodipodi:docname="ace_of_clubs.svg"
   inkscape:version="1.2.2 (b0a8486541, 2022-12-01)"
   xmlns:inkscape="http://www.inkscape.org/namespaces/inkscape"
   xmlns:sodipodi="http://sodipodi.sourceforge.net/DTD/sodipodi-0.dtd"
   xmlns:xlink="http://www.w3.org/1999/xlink"
   xmlns="http://www.w3.org/2000/svg"
   xmlns:svg="http://www.w3.org/2000/svg"
   xmlns:rdf="http://www.w3.org/1999/02/22-rdf-syntax-ns#"
   xmlns:cc="http://creativecommons.org/ns#"
   xmlns:dc="http://purl.org/dc/elements/1.1/">
  <sodipodi:namedview
     id="namedview93"
     pagecolor="#ffffff"
     bordercolor="#666666"
     borderopacity="1.0"
     inkscape:showpageshadow="2"
     inkscape:pageopacity="0.0"
     inkscape:pagecheckerboard="0"
     inkscape:deskcolor="#d1d1d1"
     showgrid="false"
     inkscape:zoom="3.203252"
     inkscape:cx="78.670052"
     inkscape:cy="122.06345"
     inkscape:window-width="1854"
     inkscape:window-height="1011"
     inkscape:window-x="0"
     inkscape:window-y="0"
     inkscape:window-maximized="1"
     inkscape:current-layer="svg10047" />
  <metadata
     id="metadata16869">
    <rdf:RDF>
      <cc:Work
         rdf:about="">
        <dc:format>image/svg+xml</dc:format>
        <dc:type
           rdf:resource="http://purl.org/dc/dcmitype/StillImage" />
      </cc:Work>
    </rdf:RDF>
  </metadata>
  <defs
     id="defs3059">
    <path
       d="M -1.0670015,-0.78036012 V 2.43839 l -3.09375,-1.53125017 c -3.234346,-1.61350401 -10.3026155,-1.322386 -12.1250015,0.50000017 -0.571494,0.571496 0.67247,0.535844 3.03125,-0.09375 2.62809,-0.70147818 5.0958535,-0.76072718 7.3125015,-0.1250001 3.226841,0.9254451 3.728199,1.6906671 5.49999984,8.2187501 0.521402,1.921065 2.37500016,0.409853 2.37500016,-1.9375 0,-5.451574 5.801962,-8.20450115 12.7812485,-6.0625 2.333378,0.716138 3.180661,0.743161 2.5,0.0625 C 15.331283,-0.41332417 8.315706,-0.73360815 5.0267485,0.90713983 L 1.9329985,2.43839 v -3.21875012 c 0.0077,-3.05923288 0.35725,-4.31078378 -1.50000006,-4.31078378 -1.85724994,0 -1.51001594,2.2181209 -1.49999994,4.31078378 z"
       transform="translate(-1)"
       id="brown-bottom"
       style="color:#000000;display:inline;overflow:visible;visibility:visible;fill:#9b0000;fill-opacity:1;fill-rule:nonzero;stroke:#000000;stroke-width:0;stroke-linecap:butt;stroke-linejoin:miter;stroke-miterlimit:4;stroke-dasharray:none;stroke-dashoffset:0;stroke-opacity:1;marker:none;enable-background:accumulate" />
    <g
       transform="translate(-245.58095,-16)"
       id="cl">
      <path
         d="m 245.40625,4.9375 -2.09375,2.28125 c -1.45799,1.6011931 -2.2177,4.142135 -2.59375,8.5625 -0.49591,5.829222 -0.35818,6.411761 1.875,7.875 3.88986,1.054159 1.93898,1.205334 5.8125,0 2.23096,-1.461778 2.35995,-2.051596 1.875,-7.875 -0.38442,-4.616201 -1.08314,-6.8903691 -2.6875,-8.5625 z"
         id="rect9015-7"
         style="color:#000000;display:inline;overflow:visible;visibility:visible;fill:#fe0000;fill-opacity:1;fill-rule:nonzero;stroke:#000000;stroke-width:0;stroke-linecap:butt;stroke-linejoin:miter;stroke-miterlimit:4;stroke-dasharray:none;stroke-dashoffset:0;stroke-opacity:1;marker:none;enable-background:accumulate" />
      <path
         d="m 245.4375,5.5 -2.09375,2 c -1.53797,1.4674124 -2.23963,3.668521 -2.625,8.28125 -0.48659,5.824276 -0.35629,6.413003 1.875,7.875 1.04401,0.684063 2.1704,1.430477 2.53345,2.45603 l 0.95079,0.04397 c 0.37165,-1.029682 1.17595,-1.90071 2.27544,-2.621126 C 252.41321,20.875053 251.71836,19 246.5,19 H 242 v -4.65625 c 0,-2.934528 0.6427,-5.4441161 1.71875,-6.75 z"
         id="path17388"
         style="fill:#9b0000" />
      <path
         d="m 245.4375,5.5 -2.09375,2 c -1.53797,1.4674124 -2.23963,3.668521 -2.625,8.28125 -0.48659,5.824276 -0.35629,6.413003 1.875,7.875 0.91454,0.599232 2.087,1.509988 2.53539,2.5 l 0.84626,0.04397 c 0.54844,-1.031796 1.72297,-2.071519 2.5871,-2.63772 C 252.56746,20.938348 251.69165,19 246.5,19 H 242 v -4.65625 c 0,-2.934528 0.6427,-5.4441161 1.71875,-6.75 z"
         id="path17386"
         style="fill:#009800" />
      <path
         d="m 1.84375,-8.5625 c -0.0653,-0.025539 -1.01584,0.9921681 -2.0625,1.875 -1.62382,1.3696494 -2.26003,3.28047 -2.625,8 -0.26373,3.4103 -0.0419,6.75 0.5,7.4375 0.54193,0.6875 1.24484,1.25 1.5625,1.25 0.31765,0 0.10304,-0.490714 -0.5,-1.09375 C -2.05559,7.600236 -2,4.5625 -2,4.5625 l 4.25,-1.25 c 0,0 -4.22895,0.2640283 -4.21875,0.0625 C -1.95855,3.173472 2.25,2.09375 2.25,2.09375 c 0,0 -4.1426,0.2703143 -4.125,0.0625 0.0177,-0.207813 4.125,-1.3125 4.125,-1.3125 0,0 -4.0246,0.272028 -4,0.0625 0.0246,-0.209527 4,-1.3125 4,-1.3125 0,0 -3.87485,0.269171 -3.84375,0.0625 0.0311,-0.20667 3.84375,-1.3125 3.84375,-1.3125 0,0 -3.66215,0.2929923 -3.625,0.09375 0.0372,-0.199242 3.625,-1.28125 3.625,-1.28125 0,0 -3.44898,0.312242 -3.40625,0.125 0.0427,-0.187242 3.36089,-1.070472 3.40625,-1.25 0.0454,-0.1795271 -3.17283,0.326921 -3.125,0.15625 C -0.8271,-3.983171 2.19974,-4.8393284 2.25,-5 2.3002,-5.1606716 -0.61501,-4.6317209 -0.5625,-4.78125 -0.51,-4.930779 2.19534,-5.7377563 2.25,-5.875 2.3047,-6.0122438 -0.3067,-5.4699344 -0.25,-5.59375 -0.1933,-5.7175656 2.19138,-6.5157553 2.25,-6.625 2.3086,-6.7342447 0.06456,-6.1564691 0.125,-6.25 0.18549,-6.343531 2.18787,-7.1108257 2.25,-7.1875 0.21311126,-6.7753842 0.95835089,-7.3269482 1.84375,-8.5625 Z M -1.34375,5.125 c -0.1317534,0 -0.21875,0.1182466 -0.21875,0.25 0,0.1317534 0.086997,0.21875 0.21875,0.21875 0.1317534,0 0.25,-0.086997 0.25,-0.21875 0,-0.1317534 -0.1182466,-0.25 -0.25,-0.25 z M 0.3125,5.28125 c -0.13175338,0 -0.25,0.1182466 -0.25,0.25 0,0.1317534 0.11824662,0.25 0.25,0.25 0.13175338,0 0.25,-0.1182466 0.25,-0.25 0,-0.1317534 -0.11824662,-0.25 -0.25,-0.25 z m 2,0.3125 c -0.1317534,0 -0.25,0.1182466 -0.25,0.25 0,0.1317534 0.1182466,0.25 0.25,0.25 0.1317534,0 0.21875,-0.1182466 0.21875,-0.25 0,-0.1317534 -0.086997,-0.25 -0.21875,-0.25 z M 3.875,5.75 c -0.1317534,0 -0.25,0.086997 -0.25,0.21875 0,0.1317534 0.1182466,0.25 0.25,0.25 0.1317534,0 0.25,-0.1182466 0.25,-0.25 C 4.125,5.8369966 4.0067534,5.75 3.875,5.75 Z m 1.25,0 c -0.1317534,0 -0.25,0.086997 -0.25,0.21875 0,0.1317534 0.1182466,0.25 0.25,0.25 0.1317534,0 0.21875,-0.1182466 0.21875,-0.25 C 5.34375,5.8369966 5.2567534,5.75 5.125,5.75 Z m -6.09375,0.4375 c -0.1317534,0 -0.21875,0.1182466 -0.21875,0.25 0,0.1317534 0.086997,0.21875 0.21875,0.21875 0.13175338,0 0.25,-0.086997 0.25,-0.21875 0,-0.1317534 -0.11824662,-0.25 -0.25,-0.25 z M 0.71875,6.25 c -0.13175338,0 -0.25,0.1182466 -0.25,0.25 0,0.1317534 0.11824662,0.21875 0.25,0.21875 0.13175338,0 0.25,-0.086997 0.25,-0.21875 0,-0.1317534 -0.11824662,-0.25 -0.25,-0.25 z m 5.1875,0.1875 c -0.1317534,0 -0.25,0.086997 -0.25,0.21875 0,0.1317534 0.1182466,0.25 0.25,0.25 0.1317534,0 0.25,-0.1182466 0.25,-0.25 0,-0.1317534 -0.1182466,-0.21875 -0.25,-0.21875 z M 4.625,6.46875 c -0.1317534,0 -0.21875,0.086997 -0.21875,0.21875 0,0.1317534 0.086997,0.25 0.21875,0.25 0.1317534,0 0.25,-0.1182466 0.25,-0.25 0,-0.1317534 -0.1182466,-0.21875 -0.25,-0.21875 z M 2.75,6.625 c -0.1317534,0 -0.25,0.1182466 -0.25,0.25 0,0.1317534 0.1182466,0.25 0.25,0.25 C 2.8817534,7.125 3,7.0067534 3,6.875 3,6.7432466 2.8817534,6.625 2.75,6.625 Z M 1.625,7.03125 c -0.1317534,0 -0.25,0.1182466 -0.25,0.25 0,0.1317534 0.1182466,0.25 0.25,0.25 0.1317534,0 0.21875,-0.1182466 0.21875,-0.25 0,-0.1317534 -0.086997,-0.25 -0.21875,-0.25 z m -1.125,0.25 c -0.13175338,0 -0.21875,0.1182466 -0.21875,0.25 0,0.1317534 0.0869966,0.21875 0.21875,0.21875 0.13175338,0 0.25,-0.086997 0.25,-0.21875 0,-0.1317534 -0.11824662,-0.25 -0.25,-0.25 z m -1.09375,0.1875 c -0.13175338,0 -0.21875,0.086997 -0.21875,0.21875 0,0.1317534 0.0869966,0.25 0.21875,0.25 0.13175338,0 0.25,-0.1182466 0.25,-0.25 0,-0.1317534 -0.11824662,-0.21875 -0.25,-0.21875 z m 3.78125,0.0625 c -0.1317534,0 -0.21875,0.086997 -0.21875,0.21875 0,0.1317534 0.086997,0.25 0.21875,0.25 0.1317534,0 0.25,-0.1182466 0.25,-0.25 0,-0.1317534 -0.1182466,-0.21875 -0.25,-0.21875 z m 2.34375,0 c -0.1317534,0 -0.25,0.086997 -0.25,0.21875 0,0.1317534 0.1182466,0.25 0.25,0.25 C 5.6630034,8 5.75,7.8817534 5.75,7.75 5.75,7.6182466 5.6630034,7.53125 5.53125,7.53125 Z M 2.21875,7.8125 C 2.0869966,7.8125 2,7.8994966 2,8.03125 c 0,0.1317534 0.086997,0.25 0.21875,0.25 0.1317534,0 0.25,-0.1182466 0.25,-0.25 0,-0.1317534 -0.1182466,-0.21875 -0.25,-0.21875 z m 1.8125,0 c -0.1317534,0 -0.25,0.086997 -0.25,0.21875 0,0.1317534 0.1182466,0.25 0.25,0.25 0.1317534,0 0.21875,-0.1182466 0.21875,-0.25 C 4.25,7.8994966 4.1630034,7.8125 4.03125,7.8125 Z M 0.46875,8.15625 C 0.33699662,8.15625 0.25,8.2432466 0.25,8.375 c 0,0.1317534 0.0869966,0.25 0.21875,0.25 0.13175338,0 0.25,-0.1182466 0.25,-0.25 0,-0.1317534 -0.11824662,-0.21875 -0.25,-0.21875 z m 3.25,0.53125 c -0.1317534,0 -0.25,0.1182466 -0.25,0.25 0,0.1317534 0.1182466,0.21875 0.25,0.21875 0.1317534,0 0.21875,-0.086997 0.21875,-0.21875 0,-0.1317534 -0.086997,-0.25 -0.21875,-0.25 z M 2.25,9.0625 c -0.1317534,0 -0.21875,0.1182466 -0.21875,0.25 0,0.1317534 0.086997,0.25 0.21875,0.25 0.1317534,0 0.25,-0.1182466 0.25,-0.25 0,-0.1317534 -0.1182466,-0.25 -0.25,-0.25 z M 0.75,9.25 c -0.13175338,0 -0.21875,0.086997 -0.21875,0.21875 0,0.1317534 0.0869966,0.25 0.21875,0.25 0.13175338,0 0.25,-0.1182466 0.25,-0.25 C 1,9.3369966 0.88175338,9.25 0.75,9.25 Z m 2.625,0.21875 c -0.1317534,0 -0.25,0.1182466 -0.25,0.25 0,0.1317534 0.1182466,0.25 0.25,0.25 0.1317534,0 0.21875,-0.1182466 0.21875,-0.25 0,-0.1317534 -0.086997,-0.25 -0.21875,-0.25 z M 2.0625,10.125 c -0.1317534,0 -0.25,0.118247 -0.25,0.25 0,0.131753 0.1182466,0.25 0.25,0.25 0.1317534,0 0.25,-0.118247 0.25,-0.25 0,-0.131753 -0.1182466,-0.25 -0.25,-0.25 z"
         transform="translate(243.58095,14)"
         id="path17384"
         style="fill:#000000" />
    </g>
    <g
       transform="translate(94,-27.401867)"
       id="odd-top-support">
      <path
         d="m -95,20.625 v 5.125 5.5625 l -2.0625,-1.875 c -1.47893,-1.338409 -4.04717,-1.975437 -8.90625,-2.25 l -6.46875,-0.375 V 28 h 5.09375 c 6.77279,0 10.14931,1.359095 10.90625,4.375 0.667823,3.512391 -0.728497,4.532299 1.8125,4.6875 1.970497,0.120356 1.612131,-0.136862 1.625,-1.4375 0,-5.54677 1.88434,-6.998308 9.65625,-7.4375 l 6.65625,-0.375 v -1 l -6.34375,0.375 c -4.85908,0.274563 -7.42732,0.911591 -8.90625,2.25 L -94,31.3125 V 25.75 20.625 Z"
         id="path17556-1-2"
         style="fill:#9b0000" />
      <path
         d="m -95,20.625 v 1.78125 c 0.08163,0.721514 0.140793,1.637743 0.1875,2.9375 L -94.625,30.5 -94.28125,25.34375 C -94.192786,24.09245 -94.106529,23.2108 -94,22.5 V 20.625 Z M -112.4375,27 v 0.8125 l 6.78125,0.375 c 5.36007,0.302871 7.20221,0.816245 8.375,2.34375 0.90639,1.180526 1.3296,1.371683 1.0625,0.46875 -0.72301,-2.444142 -4.91205,-3.98427 -10.9375,-4 z m 30.59375,0 c -6.02545,0.01573 -10.21449,1.555858 -10.9375,4 -0.2671,0.902933 0.15612,0.711776 1.0625,-0.46875 1.17279,-1.527505 3.01493,-2.040879 8.375,-2.34375 l 6.65625,-0.375 V 27 Z"
         id="path17554-7-8"
         style="fill:#009800" />
    </g>
    <g
       id="odd-top-club">
      <use
         id="odd-top-club-support"
         x="0"
         y="0"
         width="1027"
         height="615"
         xlink:href="#odd-top-support" />
      <use
         transform="matrix(0,-1,-1,0,20,0)"
         id="odd-top-club-right"
         x="0"
         y="0"
         width="1027"
         height="615"
         xlink:href="#cl" />
      <use
         transform="rotate(-90,-10,10)"
         id="odd-top-club-left"
         x="0"
         y="0"
         width="1027"
         height="615"
         xlink:href="#cl" />
      <use
         transform="matrix(-1,0,0,1,-0.4,-8)"
         id="odd-top-club-top"
         x="0"
         y="0"
         width="1027"
         height="615"
         xlink:href="#cl" />
    </g>
    <g
       transform="translate(154,-27.401869)"
       id="even-top-support">
      <path
         d="m -155,31.3125 -2.0625,-1.875 c -1.47893,-1.338409 -4.04717,-1.975437 -8.90625,-2.25 l -6.46875,-0.375 V 28 h 5.09375 c 6.77279,0 10.14931,1.359095 10.90625,4.375 0.68447,3.962369 -0.48931,4.708845 1.81255,4.6875 1.88479,0 1.61211,-0.136865 1.625,-1.4375 0,-5.54677 1.88434,-6.998308 9.65625,-7.4375 l 6.65625,-0.375 v -1 l -6.34375,0.375 c -4.85908,0.274563 -7.42732,0.911591 -8.90625,2.25 l -2.0625,1.875 c -0.28388,0.258075 -0.5756,0.385865 -1.00005,0 z"
         id="path17556-1-2-8"
         style="fill:#9b0000" />
      <path
         d="m -172.4375,27 v 0.8125 l 6.78125,0.375 c 5.36007,0.302871 7.20221,0.816245 8.375,2.34375 0.90639,1.180526 1.3296,1.371683 1.0625,0.46875 -0.72301,-2.444142 -4.91205,-3.98427 -10.9375,-4 z m 30.59375,0 c -6.02545,0.01573 -10.21449,1.555858 -10.9375,4 -0.2671,0.902933 0.15612,0.711776 1.0625,-0.46875 1.17279,-1.527505 3.01493,-2.040879 8.375,-2.34375 l 6.65625,-0.375 V 27 Z"
         id="path17554-7-8-6"
         style="fill:#009800" />
    </g>
    <g
       id="even-top-club">
      <use
         id="even-top-club-support"
         x="0"
         y="0"
         width="1027"
         height="615"
         xlink:href="#even-top-support" />
      <use
         transform="matrix(0,-1,-1,0,20,0)"
         id="even-top-club-right"
         x="0"
         y="0"
         width="1027"
         height="615"
         xlink:href="#cl" />
      <use
         transform="rotate(-90,-10,10)"
         id="even-top-club-left"
         x="0"
         y="0"
         width="1027"
         height="615"
         xlink:href="#cl" />
    </g>
    <g
       transform="translate(54,-36.439098)"
       id="green-middle">
      <path
         d="M -56.15625,36.6875 C -56.451819,38.369963 -56.780215,38.447605 -59,37.3125 -60.375,36.609383 -63.99375,36.0081 -67.03125,36 h -5.5 v 1 h 5.1875 c 6.772784,0 10.149306,1.359095 10.90625,4.375 0.868261,2.869294 -0.573956,4.555172 1.828125,4.5625 1.406199,0 1.578292,-0.100605 1.609375,-1.3125 0,-5.54677 1.884336,-6.998308 9.65625,-7.4375 l 6.875,-0.375 V 36 h -5.5 c -3.0375,0.0034 -6.76875,0.648505 -8.28125,1.4375 -2.73013,1.424168 -2.75,1.413583 -2.75,-1.8125 0.101995,-2.082984 0.143142,-4.376005 -1.567603,-4.376005 -2.395924,0 -1.288859,3.592791 -1.588647,5.438505 z"
         id="rect6106-4"
         style="color:#000000;display:inline;overflow:visible;visibility:visible;fill:#9b0000;fill-opacity:1;fill-rule:nonzero;stroke:#000000;stroke-width:0;stroke-linecap:butt;stroke-linejoin:miter;stroke-miterlimit:4;stroke-dasharray:none;stroke-dashoffset:0;stroke-opacity:1;marker:none;enable-background:accumulate" />
      <path
         d="m -72.53125,36 v 0.8125 l 6.875,0.375 c 5.360065,0.302871 7.202212,0.816245 8.375,2.34375 0.906385,1.180526 1.329601,1.371683 1.0625,0.46875 -0.718603,-2.42924 -4.899902,-3.98421 -10.8125,-4 z m 30.5625,0 c -5.912598,0.01578 -10.093897,1.57076 -10.8125,4 -0.267101,0.902933 0.156115,0.711776 1.0625,-0.46875 1.172788,-1.527505 3.014935,-2.040879 8.375,-2.34375 l 6.875,-0.375 V 36 Z"
         id="rect6106"
         style="color:#000000;display:inline;overflow:visible;visibility:visible;fill:#009800;fill-opacity:1;fill-rule:nonzero;stroke:#000000;stroke-width:0;stroke-linecap:butt;stroke-linejoin:miter;stroke-miterlimit:4;stroke-dasharray:none;stroke-dashoffset:0;stroke-opacity:1;marker:none;enable-background:accumulate" />
    </g>
    <g
       id="green-middle-club">
      <use
         id="green-middle-club-support"
         x="0"
         y="0"
         width="1027"
         height="615"
         xlink:href="#green-middle" />
      <use
         transform="matrix(0,-1,-1,0,20,0)"
         id="green-middle-club-right"
         x="0"
         y="0"
         width="1027"
         height="615"
         xlink:href="#cl" />
      <use
         transform="rotate(-90,-10,10)"
         id="green-middle-club-left"
         x="0"
         y="0"
         width="1027"
         height="615"
         xlink:href="#cl" />
    </g>
    <g
       id="cf">
      <path
         d="m 78.25,117.25 c 0,2.762 -2.238,5 -5,5 H 5.75 c -2.761,0 -5,-2.238 -5,-5 V 5.75 c 0,-2.762 2.239,-5 5,-5 h 67.5 c 2.762,0 5,2.238 5,5 z"
         id="path8383"
         style="fill:#ffffff;stroke:#000000;stroke-width:1" />
      <path
         d="m 72.226712,114.23425 c 0,2.61259 -1.890126,4.72953 -4.222801,4.72953 H 10.996089 c -2.3318303,0 -4.2228009,-2.11694 -4.2228009,-4.72953 V 8.7657498 c 0,-2.6125922 1.8909706,-4.7295293 4.2228009,-4.7295293 h 57.007822 c 2.332675,0 4.222801,2.1169371 4.222801,4.7295293 z"
         id="path10068"
         style="fill:#ffffff;stroke:#000000;stroke-width:0.75" />
    </g>
    <g
       id="def_1">
      <path
         d="m 30,96.45034 c 0,-7.137984 0.456217,-11.422928 1.410724,-13.25 1.812337,-3.469091 6.182685,-7.514233 10.441968,-9.664963 3.985938,-2.012704 7.410258,-0.999424 12.894099,3.815452 C 60.150771,82.095586 61,84.689433 61,96.45034 V 107 H 45.5 30 Z M 41.5,66.341153 C 37.498575,64.235375 33.143803,60.117039 31.410724,56.79966 30.456217,54.972588 30,50.687644 30,43.54966 V 33 H 45.5 61 V 43.54966 C 61,54.998265 60.200662,57.622778 55.339276,62.135838 52.533714,64.740379 46.849994,68.037585 45.29966,67.959962 44.859847,67.937942 43.15,67.209478 41.5,66.341153 Z"
         id="path4730"
         style="fill:#ccc9cc" />
      <path
         d="m 31,95.95034 c 0,-11.044955 0.96977,-14.064227 5.831227,-18.154873 5.142061,-4.32676 8.464385,-5.205426 12.316081,-3.257278 C 57.992155,79.011823 60,82.973261 60,95.95034 V 106 H 45.5 31 Z M 57.996262,94.75 c -0.0044,-10.973309 -1.602756,-14.488276 -8.093908,-17.799815 -4.038568,-2.060324 -4.301524,-2.073933 -7.984341,-0.413214 -7.34495,3.312111 -8.375403,5.3169 -8.759038,17.041056 L 32.81795,104 H 45.408975 58 L 57.9963,94.75 Z M 41.5,65.338367 C 32.953859,60.83296 31,56.871519 31,44.04966 V 34 H 45.5 60 V 44.04966 C 60,56.964803 57.976516,60.999041 49.29966,65.383027 45.439545,67.333352 45.282509,67.332452 41.5,65.338367 Z m 8.289838,-2.231957 c 6.9066,-3.524987 7.670802,-5.110943 8.051187,-16.708711 L 58.18205,36 H 45.591025 33 l 0.0037,9.25 c 0.0044,10.802397 1.587882,14.432445 7.703782,17.660121 4.71763,2.489736 4.593943,2.487063 9.082318,0.196289 z"
         id="path4728"
         style="fill:#9b989b" />
    </g>
    <g
       id="letter-a">
      <path
         d="m 11.353991,31.254174 c 0.250559,-0.464306 -1.136266,-0.658828 -0.794309,-1.466557 0.148167,-0.349985 0.120064,-0.898159 0.130546,-1.97199 0.01691,-1.731786 -0.422375,-3.057995 -2.636873,-2.8998 -0.9874527,0.07054 -2.7573339,0.415073 -2.7628337,1.498239 -0.00153,0.300471 0.1813712,0.423239 0.6129303,0.471365 0.7153111,0.07977 3.0141764,-0.738637 3.0141764,-0.158511 0,0.279836 -0.1861506,0.602264 -1.0979282,0.534011 -0.9910959,-0.07419 -1.3859052,-0.278504 -2.1404034,0.313743 -1.2458117,0.977886 -1.1834626,2.48785 0.044545,3.45177 0.5889565,0.462299 1.3370637,0.44862 1.9867094,0.319521 2.0255418,-0.402519 3.4098902,0.340997 3.6434402,-0.09179 z M 7.3472602,28.837586 C 8.6039014,28.697757 9.5558394,29.00025 8.7004816,29.671656 8.4987628,29.830001 7.8137572,29.92902 7.4068669,29.891699 6.6008663,29.356744 6.9060377,29.149165 7.3472602,28.837586 Z"
         id="path6289"
         style="fill:#000000" />
      <path
         d="m 8.8471675,30.113367 c 0.2656044,-0.159241 0.5680646,-0.56713 0.6721402,-0.906422 0.4453296,-0.822936 -1.8701094,-1.413035 -2.989328,-0.636206 -1.5403452,1.069125 1.1428417,2.148128 2.3171878,1.542628 z M 6.2092418,30.362523 C 4.771744,29.302497 5.6692811,27.683912 7.5878825,27.683912 c 0.4692412,0 1.1100439,0.107897 1.4239534,0.239772 0.4927001,0.206977 0.6456003,-0.36223 0.6456003,-0.856105 0,-0.971331 -0.9935386,-1.401341 -2.0788213,-0.971245 -2.5439579,1.008168 -1.760076,-0.354687 -0.4693186,-0.662768 1.9320111,-0.461138 3.3925087,0.05337 3.0898247,2.788051 -0.08356,0.754923 -0.181682,1.205538 -0.2429423,1.528774 -0.1689426,0.891417 0.7650813,0.921879 0.6844203,1.203655 -0.04854,0.169577 -1.0618398,-0.572119 -2.8673165,-0.104125 -0.5326397,0.138064 -1.1406848,-0.175198 -1.5640407,-0.487398 z"
         id="path6594"
         style="fill:#ffffff" />
    </g>
    <g
       transform="matrix(0.34594092,0,0,0.34594092,-163.18455,-84.57127)"
       id="letter-7">
      <path
         d="m 499.31654,338.37114 c -0.38987,-0.38987 -0.70885,-5.75375 -0.70885,-11.91974 0,-13.00084 -0.3494,-13.83767 -8.38565,-14.44081 -4.29569,-0.3224 -4.95367,0.76881 -5.11435,-2.51497 -0.11208,-2.29066 0.76686,-2.04431 5.20183,-2.30059 6.28356,-0.3631 10.63469,1.61689 12.81387,5.83095 1.18911,2.29948 1.48381,5.61026 1.26693,14.23307 -0.26263,10.44133 -0.42709,11.25725 -2.32378,11.52875 -1.12263,0.1607 -2.36013,-0.0268 -2.75,-0.41666 z"
         id="path6146"
         style="fill:#000000" />
      <path
         d="m 502.60769,325.9187 c 0,-10.90958 0.20543,-12.1546 -2.24861,-14.47706 -2.45404,-2.32246 -4.2311,-2.66172 -8.87512,-3.03645 -6.60876,-0.53327 -5.65546,2.04177 -3.61004,2.15279 5.37318,0.29163 8.67528,0.0376 10.75921,2.46308 1.59139,1.85223 1.97456,3.35513 1.97456,12.97456 0,6.66667 0.39394,11 1,11 0.60648,0 1,-4.35897 1,-11.07692 z"
         id="path6148"
         style="fill:#ffffff" />
    </g>
    <g
       transform="matrix(0.34594092,0,0,0.34594092,-164.70913,-104.56216)"
       id="letter-8">
      <path
         d="m 493.3766,392.88508 c -3.84262,-3.23335 -4.7799,-7.34379 -2.68246,-11.76383 1.23586,-2.60439 1.36669,-4.01432 0.56753,-6.11627 -3.27617,-8.61698 7.76569,-15.51914 14.32833,-8.95651 2.71884,2.71884 3.49824,7.45313 1.69593,10.3015 -0.59293,0.93706 -0.41344,2.14653 0.51531,3.47251 2.49504,3.56216 1.80949,9.35911 -1.49796,12.66655 -3.80474,3.80474 -8.69752,3.95465 -12.92668,0.39605 z m 11.73898,-1.85505 c 2.73206,-2.90814 3.01235,-7.59301 0.66832,-11.17045 -1.2615,-1.92529 -1.44144,-2.96357 -0.65064,-3.75437 1.64143,-1.64143 1.31505,-6.79037 -0.56189,-8.86436 -2.53232,-2.79819 -7.75997,-2.38795 -10.27243,0.80612 -2.41983,3.07631 -2.61016,5.2477 -0.69013,7.8735 1.20471,1.64753 1.12412,2.24003 -0.62683,4.60831 -1.53983,2.08273 -1.8535,3.54807 -1.34253,6.27177 1.21856,6.49544 9.04096,8.9505 13.47613,4.22948 z m -9.88922,-1.61792 c -2.54626,-2.54626 -2.54626,-5.45374 0,-8 2.49581,-2.49581 6.17303,-2.57127 8.34501,-0.17126 5.26223,5.8147 -2.80364,13.71263 -8.34501,8.17126 z m 7.5,-4 c 0,-2.89322 -0.39962,-3.55665 -2.30504,-3.82676 -4.25853,-0.60369 -6.85067,3.77105 -3.95198,6.66974 0.68363,0.68363 2.37113,1.11113 3.75,0.95 2.14269,-0.2504 2.50702,-0.80161 2.50702,-3.79298 z m -7.00846,-11.37256 c -1.25023,-1.90811 -1.38254,-2.9626 -0.56367,-4.49266 2.2087,-4.12699 7.63232,-3.73532 8.72802,0.6303 1.38683,5.5256 -5.07238,8.5813 -8.16435,3.86236 z m 6.3286,-2.38191 c 0.40701,-2.8663 -2.41029,-4.08396 -4.53443,-1.95982 -2.12414,2.12414 -0.90648,4.94144 1.95982,4.53443 1.45196,-0.20618 2.36843,-1.12265 2.57461,-2.57461 z"
         id="path6237"
         style="fill:#000000" />
      <path
         d="m 495.7179,374.03955 c -1.25023,-1.90811 -1.38254,-2.9626 -0.56367,-4.49266 2.2087,-4.12699 7.63232,-3.73532 8.72802,0.6303 1.38683,5.5256 -5.07238,8.5813 -8.16435,3.86236 z m -0.49154,15.37256 c -2.54626,-2.54626 -2.54626,-5.45374 0,-8 2.49581,-2.49581 6.17303,-2.57127 8.34501,-0.17126 5.26223,5.8147 -2.80364,13.71263 -8.34501,8.17126 z m 9.88922,1.61792 c 2.73206,-2.90814 3.01235,-7.59301 0.66832,-11.17045 -1.2615,-1.92529 -1.44144,-2.96357 -0.65064,-3.75437 1.64143,-1.64143 1.31505,-6.79037 -0.56189,-8.86436 -2.53232,-2.79819 -7.75997,-2.38795 -10.27243,0.80612 -2.41983,3.07631 -2.61016,5.2477 -0.69013,7.8735 1.20471,1.64753 1.12412,2.24003 -0.62683,4.60831 -1.53983,2.08273 -1.8535,3.54807 -1.34253,6.27177 1.21856,6.49544 9.04096,8.9505 13.47613,4.22948 z"
         id="path6552"
         style="fill:#ffffff" />
    </g>
    <g
       transform="matrix(0.34594092,0,0,0.34594092,-190.51862,-98.41045)"
       id="letter-9">
      <path
         d="m 577.77581,355.77274 c 0,-3.56828 -2.68479,-5.61214 -5.25,-3.99669 -3.92319,2.47064 -1.97467,7.72752 2.6644,7.18826 2.11525,-0.24589 2.5856,-0.82647 2.5856,-3.19157 z m -7.5,3.39101 c -2.73375,-2.73375 -2.5087,-5.45469 0.65713,-7.94494 2.88446,-2.26892 5.94934,-1.98979 8.09287,0.73704 4.4806,5.69989 -3.60084,12.35706 -8.75,7.2079 z m 7.4552,16.37882 c 3.05147,-1.17096 4.5448,-5.94019 4.5448,-14.51471 0,-7.07898 -0.30528,-8.56016 -2.17431,-10.54966 -4.48503,-4.77409 -13.82569,-1.27072 -13.82569,5.18555 0,5.51474 9.10426,9.99574 12.8,6.3 0.93333,-0.93333 1.2,-0.29664 1.2,2.86514 0,4.2808 -2.98514,9.33486 -5.51356,9.33486 -0.75262,0 -1.64652,0.45 -1.98644,1 -0.68535,1.10892 2.43162,1.34721 4.9552,0.37882 z m -5.78853,1.95451 c -1.57756,-1.57756 -0.54029,-4.32695 1.85971,-4.92931 2.72105,-0.68294 4.47362,-3.11167 4.47362,-6.19961 0,-1.51792 -0.53245,-1.82528 -2.50784,-1.44766 -3.8984,0.74522 -8.17054,-1.55921 -9.98698,-5.38708 -4.62522,-9.74693 7.95608,-18.06226 15.66494,-10.35339 3.01268,3.01268 3.01587,3.02827 2.67308,13.08363 -0.3385,9.92961 -0.38789,10.10727 -3.60898,12.98373 -3.05457,2.72776 -7.04236,3.77488 -8.56755,2.24969 z"
         id="path6249"
         style="fill:#000000" />
      <path
         d="m 570.27581,359.16375 c -2.73375,-2.73375 -2.5087,-5.45469 0.65713,-7.94494 2.88446,-2.26892 5.94934,-1.98979 8.09287,0.73704 4.4806,5.69989 -3.60084,12.35706 -8.75,7.2079 z m 7.4552,16.37882 c 3.05147,-1.17096 4.5448,-5.94019 4.5448,-14.51471 0,-7.07898 -0.30528,-8.56016 -2.17431,-10.54966 -4.48503,-4.77409 -13.82569,-1.27072 -13.82569,5.18555 0,5.51474 9.10426,9.99574 12.8,6.3 0.93333,-0.93333 1.2,-0.29664 1.2,2.86514 0,4.2808 -2.98514,9.33486 -5.51356,9.33486 -0.75262,0 -1.64652,0.45 -1.98644,1 -0.68535,1.10892 2.43162,1.34721 4.9552,0.37882 z"
         id="path6425"
         style="fill:#ffffff" />
    </g>
    <g
       transform="matrix(0.34594092,0,0,0.34594092,-185.65022,-104.46734)"
       id="letter-10">
      <path
         d="m 551.3495,394.97529 c -0.78398,-0.78398 -1.22919,-4.3821 -1.22919,-9.93403 v -8.70485 c 0,-3.14229 -0.45504,-7.56314 0.16329,-9.22887 0.85361,-2.29958 1.59396,-2.99524 3.20345,-2.76569 2.07275,0.29562 2.13326,0.74353 2.13326,15.79055 0,13.06475 -0.23781,15.53211 -1.52081,15.77919 -0.83645,0.16109 -2.07395,-0.26025 -2.75,-0.9363 z"
         id="path6265"
         style="fill:#000000" />
      <path
         d="m 558.26396,390.50393 c -3.12324,-7.04142 -3.39374,-18.83549 0.95469,-24.44186 3.95898,-5.10425 10.38346,-2.42768 12.10902,4.99529 4.65563,20.02749 -7.08212,32.93224 -13.06371,19.44657 z m 8.79015,1.81127 c 4.22384,-5.82341 4.05045,-21.3955 0.64672,-24.35911 -7.36838,-6.41559 -10.20856,3.82631 -9.58242,13.89657 0.47537,7.64533 5.35707,15.39638 8.9357,10.46254 z m -2.95082,-1.03006 c -3.24901,-0.23462 -5.52162,-10.89309 -4.79797,-14.80732 0.81078,-4.3856 1.88658,-8.72653 4.76725,-8.5334 2.44993,0.16427 5.07549,2.88006 5.07549,11.13278 0,9.67863 -2.78144,12.37139 -5.04477,12.20794 z m 1.27769,-3.14676 c 2.61258,-2.90447 2.73762,-17.01113 -0.96192,-18.11955 -3.15048,-0.94392 -3.56828,9.14967 -1.78701,16.1632 0.48357,1.90401 1.76303,3.05242 2.74893,1.95635 z"
         id="path6257-9"
         style="fill:#000000" />
      <path
         d="m 564.10329,391.28514 c -3.24901,-0.23462 -5.52162,-10.89309 -4.79797,-14.80732 0.81078,-4.3856 1.88658,-8.72653 4.76725,-8.5334 2.44993,0.16427 5.07549,2.88006 5.07549,11.13278 0,9.67863 -2.78144,12.37139 -5.04477,12.20794 z m 2.95082,1.03006 c 4.22384,-5.82341 4.05045,-21.3955 0.64672,-24.35911 -7.36838,-6.41559 -10.20856,3.82631 -9.58242,13.89657 0.47537,7.64533 5.35707,15.39638 8.9357,10.46254 z m -12.9338,-12.1691 c 0,-12.8887 -0.92171,-17.43238 -2.36762,-11.67144 0.12254,5.95036 0.31608,10.4154 0.36762,15.06445 0.071,6.40427 0.39618,10.60699 1,10.60699 0.61905,0 1,-5.33333 1,-14 z"
         id="path6520"
         style="fill:#ffffff" />
    </g>
    <g
       id="indicator-background">
      <path
         d="M 4.9840521,32.578091 C 1.870653,29.325097 2.1087365,23.444548 5.4655326,20.6857 c 2.2986147,-1.889165 5.5112604,-0.81715 6.9669734,2.324782 3.118592,6.731 -2.8390681,14.383666 -7.4484539,9.567609 z"
         id="path6341-2"
         style="stroke:#000000" />
    </g>
    <g
       transform="translate(-0.975,-6)"
       id="it1">
      <use
         id="use8634"
         x="0"
         y="0"
         width="1027"
         height="615"
         xlink:href="#indicator-background" />
      <use
         id="use8636"
         x="0"
         y="0"
         width="1027"
         height="615"
         xlink:href="#letter-a" />
    </g>
    <g
       transform="translate(-0.975,-6)"
       id="it7">
      <use
         id="use8664"
         x="0"
         y="0"
         width="1027"
         height="615"
         xlink:href="#indicator-background" />
      <use
         id="use8666"
         x="0"
         y="0"
         width="1027"
         height="615"
         xlink:href="#letter-7" />
    </g>
    <g
       transform="translate(-0.975,-6)"
       id="it8">
      <use
         id="use8669"
         x="0"
         y="0"
         width="1027"
         height="615"
         xlink:href="#indicator-background" />
      <use
         id="use8671"
         x="0"
         y="0"
         width="1027"
         height="615"
         xlink:href="#letter-8" />
    </g>
    <g
       transform="translate(-0.975,-6)"
       id="it9">
      <use
         id="use8674"
         x="0"
         y="0"
         width="1027"
         height="615"
         xlink:href="#indicator-background" />
      <use
         id="use8676"
         x="0"
         y="0"
         width="1027"
         height="615"
         xlink:href="#letter-9" />
    </g>
    <g
       transform="translate(-0.975,-6)"
       id="it10">
      <use
         id="use8679"
         x="0"
         y="0"
         width="1027"
         height="615"
         xlink:href="#indicator-background" />
      <use
         id="use8681"
         x="0"
         y="0"
         width="1027"
         height="615"
         xlink:href="#letter-10" />
    </g>
    <g
       id="ib1">
      <use
         transform="rotate(180,39.5,61.5)"
         id="use8699"
         x="0"
         y="0"
         width="1027"
         height="615"
         xlink:href="#it1" />
    </g>
    <g
       id="ib7">
      <use
         transform="rotate(180,39.5,61.5)"
         id="use8717"
         x="0"
         y="0"
         width="1027"
         height="615"
         xlink:href="#it7" />
    </g>
    <g
       id="ib8">
      <use
         transform="rotate(180,39.5,61.5)"
         id="use8720"
         x="0"
         y="0"
         width="1027"
         height="615"
         xlink:href="#it8" />
    </g>
    <g
       id="ib9">
      <use
         transform="rotate(180,39.5,61.5)"
         id="use8723"
         x="0"
         y="0"
         width="1027"
         height="615"
         xlink:href="#it9" />
    </g>
    <g
       id="ib10">
      <use
         transform="rotate(180,39.5,61.5)"
         id="use8726"
         x="0"
         y="0"
         width="1027"
         height="615"
         xlink:href="#it10" />
    </g>
  </defs>
  <g
     id="1_club"
     transform="matrix(2,0,0,2,-1,-1)"
     style="stroke-width:0.5;stroke-dasharray:none">
    <g
       id="use14510"
       style="stroke-width:0.5;stroke-dasharray:none">
      <path
         d="m 78.25,117.25 c 0,2.762 -2.238,5 -5,5 H 5.75 c -2.761,0 -5,-2.238 -5,-5 V 5.75 c 0,-2.762 2.239,-5 5,-5 h 67.5 c 2.762,0 5,2.238 5,5 z"
         id="path376"
         style="fill:#ffffff;stroke:#000000;stroke-width:0.5;stroke-dasharray:none" />
      <path
         d="m 72.226712,114.23425 c 0,2.61259 -1.890126,4.72953 -4.222801,4.72953 H 10.996089 c -2.3318303,0 -4.2228009,-2.11694 -4.2228009,-4.72953 V 8.7657498 c 0,-2.6125922 1.8909706,-4.7295293 4.2228009,-4.7295293 h 57.007822 c 2.332675,0 4.222801,2.1169371 4.222801,4.7295293 z"
         id="path378"
         style="fill:#ffffff;stroke:#000000;stroke-width:0.5;stroke-dasharray:none" />
    </g>
    <g
       id="use6446"
       transform="scale(0.87777778,0.87857143)"
       style="stroke-width:0.569363;stroke-dasharray:none">
      <path
         d="m 30,96.45034 c 0,-7.137984 0.456217,-11.422928 1.410724,-13.25 1.812337,-3.469091 6.182685,-7.514233 10.441968,-9.664963 3.985938,-2.012704 7.410258,-0.999424 12.894099,3.815452 C 60.150771,82.095586 61,84.689433 61,96.45034 V 107 H 45.5 30 Z M 41.5,66.341153 C 37.498575,64.235375 33.143803,60.117039 31.410724,56.79966 30.456217,54.972588 30,50.687644 30,43.54966 V 33 H 45.5 61 V 43.54966 C 61,54.998265 60.200662,57.622778 55.339276,62.135838 52.533714,64.740379 46.849994,68.037585 45.29966,67.959962 44.859847,67.937942 43.15,67.209478 41.5,66.341153 Z"
         id="path382"
         style="fill:#ccc9cc;stroke-width:0.569363;stroke-dasharray:none" />
      <path
         d="m 31,95.95034 c 0,-11.044955 0.96977,-14.064227 5.831227,-18.154873 5.142061,-4.32676 8.464385,-5.205426 12.316081,-3.257278 C 57.992155,79.011823 60,82.973261 60,95.95034 V 106 H 45.5 31 Z M 57.996262,94.75 c -0.0044,-10.973309 -1.602756,-14.488276 -8.093908,-17.799815 -4.038568,-2.060324 -4.301524,-2.073933 -7.984341,-0.413214 -7.34495,3.312111 -8.375403,5.3169 -8.759038,17.041056 L 32.81795,104 H 45.408975 58 L 57.9963,94.75 Z M 41.5,65.338367 C 32.953859,60.83296 31,56.871519 31,44.04966 V 34 H 45.5 60 V 44.04966 C 60,56.964803 57.976516,60.999041 49.29966,65.383027 45.439545,67.333352 45.282509,67.332452 41.5,65.338367 Z m 8.289838,-2.231957 c 6.9066,-3.524987 7.670802,-5.110943 8.051187,-16.708711 L 58.18205,36 H 45.591025 33 l 0.0037,9.25 c 0.0044,10.802397 1.587882,14.432445 7.703782,17.660121 4.71763,2.489736 4.593943,2.487063 9.082318,0.196289 z"
         id="path384"
         style="fill:#9b989b;stroke-width:0.569363;stroke-dasharray:none" />
    </g>
    <g
       transform="matrix(0.99073307,-0.572,0.572,0.99073307,-234.45717,142.62057)"
       id="use2842"
       style="stroke-width:0.437063;stroke-dasharray:none">
      <path
         d="m 245.40625,4.9375 -2.09375,2.28125 c -1.45799,1.6011931 -2.2177,4.142135 -2.59375,8.5625 -0.49591,5.829222 -0.35818,6.411761 1.875,7.875 3.88986,1.054159 1.93898,1.205334 5.8125,0 2.23096,-1.461778 2.35995,-2.051596 1.875,-7.875 -0.38442,-4.616201 -1.08314,-6.8903691 -2.6875,-8.5625 z"
         id="path388"
         style="color:#000000;display:inline;overflow:visible;visibility:visible;fill:#fe0000;fill-opacity:1;fill-rule:nonzero;stroke:#000000;stroke-width:0.437063;stroke-linecap:butt;stroke-linejoin:miter;stroke-miterlimit:4;stroke-dasharray:none;stroke-dashoffset:0;stroke-opacity:1;marker:none;enable-background:accumulate" />
      <path
         d="m 245.4375,5.5 -2.09375,2 c -1.53797,1.4674124 -2.23963,3.668521 -2.625,8.28125 -0.48659,5.824276 -0.35629,6.413003 1.875,7.875 1.04401,0.684063 2.1704,1.430477 2.53345,2.45603 l 0.95079,0.04397 c 0.37165,-1.029682 1.17595,-1.90071 2.27544,-2.621126 C 252.41321,20.875053 251.71836,19 246.5,19 H 242 v -4.65625 c 0,-2.934528 0.6427,-5.4441161 1.71875,-6.75 z"
         id="path390"
         style="fill:#9b0000;stroke-width:0.437063;stroke-dasharray:none" />
      <path
         d="m 245.4375,5.5 -2.09375,2 c -1.53797,1.4674124 -2.23963,3.668521 -2.625,8.28125 -0.48659,5.824276 -0.35629,6.413003 1.875,7.875 0.91454,0.599232 2.087,1.509988 2.53539,2.5 l 0.84626,0.04397 c 0.54844,-1.031796 1.72297,-2.071519 2.5871,-2.63772 C 252.56746,20.938348 251.69165,19 246.5,19 H 242 v -4.65625 c 0,-2.934528 0.6427,-5.4441161 1.71875,-6.75 z"
         id="path392"
         style="fill:#009800;stroke-width:0.437063;stroke-dasharray:none" />
      <path
         d="m 1.84375,-8.5625 c -0.0653,-0.025539 -1.01584,0.9921681 -2.0625,1.875 -1.62382,1.3696494 -2.26003,3.28047 -2.625,8 -0.26373,3.4103 -0.0419,6.75 0.5,7.4375 0.54193,0.6875 1.24484,1.25 1.5625,1.25 0.31765,0 0.10304,-0.490714 -0.5,-1.09375 C -2.05559,7.600236 -2,4.5625 -2,4.5625 l 4.25,-1.25 c 0,0 -4.22895,0.2640283 -4.21875,0.0625 C -1.95855,3.173472 2.25,2.09375 2.25,2.09375 c 0,0 -4.1426,0.2703143 -4.125,0.0625 0.0177,-0.207813 4.125,-1.3125 4.125,-1.3125 0,0 -4.0246,0.272028 -4,0.0625 0.0246,-0.209527 4,-1.3125 4,-1.3125 0,0 -3.87485,0.269171 -3.84375,0.0625 0.0311,-0.20667 3.84375,-1.3125 3.84375,-1.3125 0,0 -3.66215,0.2929923 -3.625,0.09375 0.0372,-0.199242 3.625,-1.28125 3.625,-1.28125 0,0 -3.44898,0.312242 -3.40625,0.125 0.0427,-0.187242 3.36089,-1.070472 3.40625,-1.25 0.0454,-0.1795271 -3.17283,0.326921 -3.125,0.15625 C -0.8271,-3.983171 2.19974,-4.8393284 2.25,-5 2.3002,-5.1606716 -0.61501,-4.6317209 -0.5625,-4.78125 -0.51,-4.930779 2.19534,-5.7377563 2.25,-5.875 2.3047,-6.0122438 -0.3067,-5.4699344 -0.25,-5.59375 -0.1933,-5.7175656 2.19138,-6.5157553 2.25,-6.625 2.3086,-6.7342447 0.06456,-6.1564691 0.125,-6.25 0.18549,-6.343531 2.18787,-7.1108257 2.25,-7.1875 0.21311126,-6.7753842 0.95835089,-7.3269482 1.84375,-8.5625 Z M -1.34375,5.125 c -0.1317534,0 -0.21875,0.1182466 -0.21875,0.25 0,0.1317534 0.086997,0.21875 0.21875,0.21875 0.1317534,0 0.25,-0.086997 0.25,-0.21875 0,-0.1317534 -0.1182466,-0.25 -0.25,-0.25 z M 0.3125,5.28125 c -0.13175338,0 -0.25,0.1182466 -0.25,0.25 0,0.1317534 0.11824662,0.25 0.25,0.25 0.13175338,0 0.25,-0.1182466 0.25,-0.25 0,-0.1317534 -0.11824662,-0.25 -0.25,-0.25 z m 2,0.3125 c -0.1317534,0 -0.25,0.1182466 -0.25,0.25 0,0.1317534 0.1182466,0.25 0.25,0.25 0.1317534,0 0.21875,-0.1182466 0.21875,-0.25 0,-0.1317534 -0.086997,-0.25 -0.21875,-0.25 z M 3.875,5.75 c -0.1317534,0 -0.25,0.086997 -0.25,0.21875 0,0.1317534 0.1182466,0.25 0.25,0.25 0.1317534,0 0.25,-0.1182466 0.25,-0.25 C 4.125,5.8369966 4.0067534,5.75 3.875,5.75 Z m 1.25,0 c -0.1317534,0 -0.25,0.086997 -0.25,0.21875 0,0.1317534 0.1182466,0.25 0.25,0.25 0.1317534,0 0.21875,-0.1182466 0.21875,-0.25 C 5.34375,5.8369966 5.2567534,5.75 5.125,5.75 Z m -6.09375,0.4375 c -0.1317534,0 -0.21875,0.1182466 -0.21875,0.25 0,0.1317534 0.086997,0.21875 0.21875,0.21875 0.13175338,0 0.25,-0.086997 0.25,-0.21875 0,-0.1317534 -0.11824662,-0.25 -0.25,-0.25 z M 0.71875,6.25 c -0.13175338,0 -0.25,0.1182466 -0.25,0.25 0,0.1317534 0.11824662,0.21875 0.25,0.21875 0.13175338,0 0.25,-0.086997 0.25,-0.21875 0,-0.1317534 -0.11824662,-0.25 -0.25,-0.25 z m 5.1875,0.1875 c -0.1317534,0 -0.25,0.086997 -0.25,0.21875 0,0.1317534 0.1182466,0.25 0.25,0.25 0.1317534,0 0.25,-0.1182466 0.25,-0.25 0,-0.1317534 -0.1182466,-0.21875 -0.25,-0.21875 z M 4.625,6.46875 c -0.1317534,0 -0.21875,0.086997 -0.21875,0.21875 0,0.1317534 0.086997,0.25 0.21875,0.25 0.1317534,0 0.25,-0.1182466 0.25,-0.25 0,-0.1317534 -0.1182466,-0.21875 -0.25,-0.21875 z M 2.75,6.625 c -0.1317534,0 -0.25,0.1182466 -0.25,0.25 0,0.1317534 0.1182466,0.25 0.25,0.25 C 2.8817534,7.125 3,7.0067534 3,6.875 3,6.7432466 2.8817534,6.625 2.75,6.625 Z M 1.625,7.03125 c -0.1317534,0 -0.25,0.1182466 -0.25,0.25 0,0.1317534 0.1182466,0.25 0.25,0.25 0.1317534,0 0.21875,-0.1182466 0.21875,-0.25 0,-0.1317534 -0.086997,-0.25 -0.21875,-0.25 z m -1.125,0.25 c -0.13175338,0 -0.21875,0.1182466 -0.21875,0.25 0,0.1317534 0.0869966,0.21875 0.21875,0.21875 0.13175338,0 0.25,-0.086997 0.25,-0.21875 0,-0.1317534 -0.11824662,-0.25 -0.25,-0.25 z m -1.09375,0.1875 c -0.13175338,0 -0.21875,0.086997 -0.21875,0.21875 0,0.1317534 0.0869966,0.25 0.21875,0.25 0.13175338,0 0.25,-0.1182466 0.25,-0.25 0,-0.1317534 -0.11824662,-0.21875 -0.25,-0.21875 z m 3.78125,0.0625 c -0.1317534,0 -0.21875,0.086997 -0.21875,0.21875 0,0.1317534 0.086997,0.25 0.21875,0.25 0.1317534,0 0.25,-0.1182466 0.25,-0.25 0,-0.1317534 -0.1182466,-0.21875 -0.25,-0.21875 z m 2.34375,0 c -0.1317534,0 -0.25,0.086997 -0.25,0.21875 0,0.1317534 0.1182466,0.25 0.25,0.25 C 5.6630034,8 5.75,7.8817534 5.75,7.75 5.75,7.6182466 5.6630034,7.53125 5.53125,7.53125 Z M 2.21875,7.8125 C 2.0869966,7.8125 2,7.8994966 2,8.03125 c 0,0.1317534 0.086997,0.25 0.21875,0.25 0.1317534,0 0.25,-0.1182466 0.25,-0.25 0,-0.1317534 -0.1182466,-0.21875 -0.25,-0.21875 z m 1.8125,0 c -0.1317534,0 -0.25,0.086997 -0.25,0.21875 0,0.1317534 0.1182466,0.25 0.25,0.25 0.1317534,0 0.21875,-0.1182466 0.21875,-0.25 C 4.25,7.8994966 4.1630034,7.8125 4.03125,7.8125 Z M 0.46875,8.15625 C 0.33699662,8.15625 0.25,8.2432466 0.25,8.375 c 0,0.1317534 0.0869966,0.25 0.21875,0.25 0.13175338,0 0.25,-0.1182466 0.25,-0.25 0,-0.1317534 -0.11824662,-0.21875 -0.25,-0.21875 z m 3.25,0.53125 c -0.1317534,0 -0.25,0.1182466 -0.25,0.25 0,0.1317534 0.1182466,0.21875 0.25,0.21875 0.1317534,0 0.21875,-0.086997 0.21875,-0.21875 0,-0.1317534 -0.086997,-0.25 -0.21875,-0.25 z M 2.25,9.0625 c -0.1317534,0 -0.21875,0.1182466 -0.21875,0.25 0,0.1317534 0.086997,0.25 0.21875,0.25 0.1317534,0 0.25,-0.1182466 0.25,-0.25 0,-0.1317534 -0.1182466,-0.25 -0.25,-0.25 z M 0.75,9.25 c -0.13175338,0 -0.21875,0.086997 -0.21875,0.21875 0,0.1317534 0.0869966,0.25 0.21875,0.25 0.13175338,0 0.25,-0.1182466 0.25,-0.25 C 1,9.3369966 0.88175338,9.25 0.75,9.25 Z m 2.625,0.21875 c -0.1317534,0 -0.25,0.1182466 -0.25,0.25 0,0.1317534 0.1182466,0.25 0.25,0.25 0.1317534,0 0.21875,-0.1182466 0.21875,-0.25 0,-0.1317534 -0.086997,-0.25 -0.21875,-0.25 z M 2.0625,10.125 c -0.1317534,0 -0.25,0.118247 -0.25,0.25 0,0.131753 0.1182466,0.25 0.25,0.25 0.1317534,0 0.25,-0.118247 0.25,-0.25 0,-0.131753 -0.1182466,-0.25 -0.25,-0.25 z"
         transform="translate(243.58095,14)"
         id="path394"
         style="fill:#000000;stroke-width:0.437063;stroke-dasharray:none" />
    </g>
    <g
       transform="matrix(0.99073307,0.572,-0.572,0.99073307,-173.15317,-138.32403)"
       id="use2844"
       style="stroke-width:0.437063;stroke-dasharray:none">
      <path
         d="m 245.40625,4.9375 -2.09375,2.28125 c -1.45799,1.6011931 -2.2177,4.142135 -2.59375,8.5625 -0.49591,5.829222 -0.35818,6.411761 1.875,7.875 3.88986,1.054159 1.93898,1.205334 5.8125,0 2.23096,-1.461778 2.35995,-2.051596 1.875,-7.875 -0.38442,-4.616201 -1.08314,-6.8903691 -2.6875,-8.5625 z"
         id="path398"
         style="color:#000000;display:inline;overflow:visible;visibility:visible;fill:#fe0000;fill-opacity:1;fill-rule:nonzero;stroke:#000000;stroke-width:0.437063;stroke-linecap:butt;stroke-linejoin:miter;stroke-miterlimit:4;stroke-dasharray:none;stroke-dashoffset:0;stroke-opacity:1;marker:none;enable-background:accumulate" />
      <path
         d="m 245.4375,5.5 -2.09375,2 c -1.53797,1.4674124 -2.23963,3.668521 -2.625,8.28125 -0.48659,5.824276 -0.35629,6.413003 1.875,7.875 1.04401,0.684063 2.1704,1.430477 2.53345,2.45603 l 0.95079,0.04397 c 0.37165,-1.029682 1.17595,-1.90071 2.27544,-2.621126 C 252.41321,20.875053 251.71836,19 246.5,19 H 242 v -4.65625 c 0,-2.934528 0.6427,-5.4441161 1.71875,-6.75 z"
         id="path400"
         style="fill:#9b0000;stroke-width:0.437063;stroke-dasharray:none" />
      <path
         d="m 245.4375,5.5 -2.09375,2 c -1.53797,1.4674124 -2.23963,3.668521 -2.625,8.28125 -0.48659,5.824276 -0.35629,6.413003 1.875,7.875 0.91454,0.599232 2.087,1.509988 2.53539,2.5 l 0.84626,0.04397 c 0.54844,-1.031796 1.72297,-2.071519 2.5871,-2.63772 C 252.56746,20.938348 251.69165,19 246.5,19 H 242 v -4.65625 c 0,-2.934528 0.6427,-5.4441161 1.71875,-6.75 z"
         id="path402"
         style="fill:#009800;stroke-width:0.437063;stroke-dasharray:none" />
      <path
         d="m 1.84375,-8.5625 c -0.0653,-0.025539 -1.01584,0.9921681 -2.0625,1.875 -1.62382,1.3696494 -2.26003,3.28047 -2.625,8 -0.26373,3.4103 -0.0419,6.75 0.5,7.4375 0.54193,0.6875 1.24484,1.25 1.5625,1.25 0.31765,0 0.10304,-0.490714 -0.5,-1.09375 C -2.05559,7.600236 -2,4.5625 -2,4.5625 l 4.25,-1.25 c 0,0 -4.22895,0.2640283 -4.21875,0.0625 C -1.95855,3.173472 2.25,2.09375 2.25,2.09375 c 0,0 -4.1426,0.2703143 -4.125,0.0625 0.0177,-0.207813 4.125,-1.3125 4.125,-1.3125 0,0 -4.0246,0.272028 -4,0.0625 0.0246,-0.209527 4,-1.3125 4,-1.3125 0,0 -3.87485,0.269171 -3.84375,0.0625 0.0311,-0.20667 3.84375,-1.3125 3.84375,-1.3125 0,0 -3.66215,0.2929923 -3.625,0.09375 0.0372,-0.199242 3.625,-1.28125 3.625,-1.28125 0,0 -3.44898,0.312242 -3.40625,0.125 0.0427,-0.187242 3.36089,-1.070472 3.40625,-1.25 0.0454,-0.1795271 -3.17283,0.326921 -3.125,0.15625 C -0.8271,-3.983171 2.19974,-4.8393284 2.25,-5 2.3002,-5.1606716 -0.61501,-4.6317209 -0.5625,-4.78125 -0.51,-4.930779 2.19534,-5.7377563 2.25,-5.875 2.3047,-6.0122438 -0.3067,-5.4699344 -0.25,-5.59375 -0.1933,-5.7175656 2.19138,-6.5157553 2.25,-6.625 2.3086,-6.7342447 0.06456,-6.1564691 0.125,-6.25 0.18549,-6.343531 2.18787,-7.1108257 2.25,-7.1875 0.21311126,-6.7753842 0.95835089,-7.3269482 1.84375,-8.5625 Z M -1.34375,5.125 c -0.1317534,0 -0.21875,0.1182466 -0.21875,0.25 0,0.1317534 0.086997,0.21875 0.21875,0.21875 0.1317534,0 0.25,-0.086997 0.25,-0.21875 0,-0.1317534 -0.1182466,-0.25 -0.25,-0.25 z M 0.3125,5.28125 c -0.13175338,0 -0.25,0.1182466 -0.25,0.25 0,0.1317534 0.11824662,0.25 0.25,0.25 0.13175338,0 0.25,-0.1182466 0.25,-0.25 0,-0.1317534 -0.11824662,-0.25 -0.25,-0.25 z m 2,0.3125 c -0.1317534,0 -0.25,0.1182466 -0.25,0.25 0,0.1317534 0.1182466,0.25 0.25,0.25 0.1317534,0 0.21875,-0.1182466 0.21875,-0.25 0,-0.1317534 -0.086997,-0.25 -0.21875,-0.25 z M 3.875,5.75 c -0.1317534,0 -0.25,0.086997 -0.25,0.21875 0,0.1317534 0.1182466,0.25 0.25,0.25 0.1317534,0 0.25,-0.1182466 0.25,-0.25 C 4.125,5.8369966 4.0067534,5.75 3.875,5.75 Z m 1.25,0 c -0.1317534,0 -0.25,0.086997 -0.25,0.21875 0,0.1317534 0.1182466,0.25 0.25,0.25 0.1317534,0 0.21875,-0.1182466 0.21875,-0.25 C 5.34375,5.8369966 5.2567534,5.75 5.125,5.75 Z m -6.09375,0.4375 c -0.1317534,0 -0.21875,0.1182466 -0.21875,0.25 0,0.1317534 0.086997,0.21875 0.21875,0.21875 0.13175338,0 0.25,-0.086997 0.25,-0.21875 0,-0.1317534 -0.11824662,-0.25 -0.25,-0.25 z M 0.71875,6.25 c -0.13175338,0 -0.25,0.1182466 -0.25,0.25 0,0.1317534 0.11824662,0.21875 0.25,0.21875 0.13175338,0 0.25,-0.086997 0.25,-0.21875 0,-0.1317534 -0.11824662,-0.25 -0.25,-0.25 z m 5.1875,0.1875 c -0.1317534,0 -0.25,0.086997 -0.25,0.21875 0,0.1317534 0.1182466,0.25 0.25,0.25 0.1317534,0 0.25,-0.1182466 0.25,-0.25 0,-0.1317534 -0.1182466,-0.21875 -0.25,-0.21875 z M 4.625,6.46875 c -0.1317534,0 -0.21875,0.086997 -0.21875,0.21875 0,0.1317534 0.086997,0.25 0.21875,0.25 0.1317534,0 0.25,-0.1182466 0.25,-0.25 0,-0.1317534 -0.1182466,-0.21875 -0.25,-0.21875 z M 2.75,6.625 c -0.1317534,0 -0.25,0.1182466 -0.25,0.25 0,0.1317534 0.1182466,0.25 0.25,0.25 C 2.8817534,7.125 3,7.0067534 3,6.875 3,6.7432466 2.8817534,6.625 2.75,6.625 Z M 1.625,7.03125 c -0.1317534,0 -0.25,0.1182466 -0.25,0.25 0,0.1317534 0.1182466,0.25 0.25,0.25 0.1317534,0 0.21875,-0.1182466 0.21875,-0.25 0,-0.1317534 -0.086997,-0.25 -0.21875,-0.25 z m -1.125,0.25 c -0.13175338,0 -0.21875,0.1182466 -0.21875,0.25 0,0.1317534 0.0869966,0.21875 0.21875,0.21875 0.13175338,0 0.25,-0.086997 0.25,-0.21875 0,-0.1317534 -0.11824662,-0.25 -0.25,-0.25 z m -1.09375,0.1875 c -0.13175338,0 -0.21875,0.086997 -0.21875,0.21875 0,0.1317534 0.0869966,0.25 0.21875,0.25 0.13175338,0 0.25,-0.1182466 0.25,-0.25 0,-0.1317534 -0.11824662,-0.21875 -0.25,-0.21875 z m 3.78125,0.0625 c -0.1317534,0 -0.21875,0.086997 -0.21875,0.21875 0,0.1317534 0.086997,0.25 0.21875,0.25 0.1317534,0 0.25,-0.1182466 0.25,-0.25 0,-0.1317534 -0.1182466,-0.21875 -0.25,-0.21875 z m 2.34375,0 c -0.1317534,0 -0.25,0.086997 -0.25,0.21875 0,0.1317534 0.1182466,0.25 0.25,0.25 C 5.6630034,8 5.75,7.8817534 5.75,7.75 5.75,7.6182466 5.6630034,7.53125 5.53125,7.53125 Z M 2.21875,7.8125 C 2.0869966,7.8125 2,7.8994966 2,8.03125 c 0,0.1317534 0.086997,0.25 0.21875,0.25 0.1317534,0 0.25,-0.1182466 0.25,-0.25 0,-0.1317534 -0.1182466,-0.21875 -0.25,-0.21875 z m 1.8125,0 c -0.1317534,0 -0.25,0.086997 -0.25,0.21875 0,0.1317534 0.1182466,0.25 0.25,0.25 0.1317534,0 0.21875,-0.1182466 0.21875,-0.25 C 4.25,7.8994966 4.1630034,7.8125 4.03125,7.8125 Z M 0.46875,8.15625 C 0.33699662,8.15625 0.25,8.2432466 0.25,8.375 c 0,0.1317534 0.0869966,0.25 0.21875,0.25 0.13175338,0 0.25,-0.1182466 0.25,-0.25 0,-0.1317534 -0.11824662,-0.21875 -0.25,-0.21875 z m 3.25,0.53125 c -0.1317534,0 -0.25,0.1182466 -0.25,0.25 0,0.1317534 0.1182466,0.21875 0.25,0.21875 0.1317534,0 0.21875,-0.086997 0.21875,-0.21875 0,-0.1317534 -0.086997,-0.25 -0.21875,-0.25 z M 2.25,9.0625 c -0.1317534,0 -0.21875,0.1182466 -0.21875,0.25 0,0.1317534 0.086997,0.25 0.21875,0.25 0.1317534,0 0.25,-0.1182466 0.25,-0.25 0,-0.1317534 -0.1182466,-0.25 -0.25,-0.25 z M 0.75,9.25 c -0.13175338,0 -0.21875,0.086997 -0.21875,0.21875 0,0.1317534 0.0869966,0.25 0.21875,0.25 0.13175338,0 0.25,-0.1182466 0.25,-0.25 C 1,9.3369966 0.88175338,9.25 0.75,9.25 Z m 2.625,0.21875 c -0.1317534,0 -0.25,0.1182466 -0.25,0.25 0,0.1317534 0.1182466,0.25 0.25,0.25 0.1317534,0 0.21875,-0.1182466 0.21875,-0.25 0,-0.1317534 -0.086997,-0.25 -0.21875,-0.25 z M 2.0625,10.125 c -0.1317534,0 -0.25,0.118247 -0.25,0.25 0,0.131753 0.1182466,0.25 0.25,0.25 0.1317534,0 0.25,-0.118247 0.25,-0.25 0,-0.131753 -0.1182466,-0.25 -0.25,-0.25 z"
         transform="translate(243.58095,14)"
         id="path404"
         style="fill:#000000;stroke-width:0.437063;stroke-dasharray:none" />
    </g>
    <g
       transform="matrix(0.88,0,0,0.88,-176.61124,29.92)"
       id="use8969"
       style="stroke-width:0.568182;stroke-dasharray:none">
      <path
         d="m 245.40625,4.9375 -2.09375,2.28125 c -1.45799,1.6011931 -2.2177,4.142135 -2.59375,8.5625 -0.49591,5.829222 -0.35818,6.411761 1.875,7.875 3.88986,1.054159 1.93898,1.205334 5.8125,0 2.23096,-1.461778 2.35995,-2.051596 1.875,-7.875 -0.38442,-4.616201 -1.08314,-6.8903691 -2.6875,-8.5625 z"
         id="path408"
         style="color:#000000;display:inline;overflow:visible;visibility:visible;fill:#fe0000;fill-opacity:1;fill-rule:nonzero;stroke:#000000;stroke-width:0.568182;stroke-linecap:butt;stroke-linejoin:miter;stroke-miterlimit:4;stroke-dasharray:none;stroke-dashoffset:0;stroke-opacity:1;marker:none;enable-background:accumulate" />
      <path
         d="m 245.4375,5.5 -2.09375,2 c -1.53797,1.4674124 -2.23963,3.668521 -2.625,8.28125 -0.48659,5.824276 -0.35629,6.413003 1.875,7.875 1.04401,0.684063 2.1704,1.430477 2.53345,2.45603 l 0.95079,0.04397 c 0.37165,-1.029682 1.17595,-1.90071 2.27544,-2.621126 C 252.41321,20.875053 251.71836,19 246.5,19 H 242 v -4.65625 c 0,-2.934528 0.6427,-5.4441161 1.71875,-6.75 z"
         id="path410"
         style="fill:#9b0000;stroke-width:0.568182;stroke-dasharray:none" />
      <path
         d="m 245.4375,5.5 -2.09375,2 c -1.53797,1.4674124 -2.23963,3.668521 -2.625,8.28125 -0.48659,5.824276 -0.35629,6.413003 1.875,7.875 0.91454,0.599232 2.087,1.509988 2.53539,2.5 l 0.84626,0.04397 c 0.54844,-1.031796 1.72297,-2.071519 2.5871,-2.63772 C 252.56746,20.938348 251.69165,19 246.5,19 H 242 v -4.65625 c 0,-2.934528 0.6427,-5.4441161 1.71875,-6.75 z"
         id="path412"
         style="fill:#009800;stroke-width:0.568182;stroke-dasharray:none" />
      <path
         d="m 1.84375,-8.5625 c -0.0653,-0.025539 -1.01584,0.9921681 -2.0625,1.875 -1.62382,1.3696494 -2.26003,3.28047 -2.625,8 -0.26373,3.4103 -0.0419,6.75 0.5,7.4375 0.54193,0.6875 1.24484,1.25 1.5625,1.25 0.31765,0 0.10304,-0.490714 -0.5,-1.09375 C -2.05559,7.600236 -2,4.5625 -2,4.5625 l 4.25,-1.25 c 0,0 -4.22895,0.2640283 -4.21875,0.0625 C -1.95855,3.173472 2.25,2.09375 2.25,2.09375 c 0,0 -4.1426,0.2703143 -4.125,0.0625 0.0177,-0.207813 4.125,-1.3125 4.125,-1.3125 0,0 -4.0246,0.272028 -4,0.0625 0.0246,-0.209527 4,-1.3125 4,-1.3125 0,0 -3.87485,0.269171 -3.84375,0.0625 0.0311,-0.20667 3.84375,-1.3125 3.84375,-1.3125 0,0 -3.66215,0.2929923 -3.625,0.09375 0.0372,-0.199242 3.625,-1.28125 3.625,-1.28125 0,0 -3.44898,0.312242 -3.40625,0.125 0.0427,-0.187242 3.36089,-1.070472 3.40625,-1.25 0.0454,-0.1795271 -3.17283,0.326921 -3.125,0.15625 C -0.8271,-3.983171 2.19974,-4.8393284 2.25,-5 2.3002,-5.1606716 -0.61501,-4.6317209 -0.5625,-4.78125 -0.51,-4.930779 2.19534,-5.7377563 2.25,-5.875 2.3047,-6.0122438 -0.3067,-5.4699344 -0.25,-5.59375 -0.1933,-5.7175656 2.19138,-6.5157553 2.25,-6.625 2.3086,-6.7342447 0.06456,-6.1564691 0.125,-6.25 0.18549,-6.343531 2.18787,-7.1108257 2.25,-7.1875 0.21311126,-6.7753842 0.95835089,-7.3269482 1.84375,-8.5625 Z M -1.34375,5.125 c -0.1317534,0 -0.21875,0.1182466 -0.21875,0.25 0,0.1317534 0.086997,0.21875 0.21875,0.21875 0.1317534,0 0.25,-0.086997 0.25,-0.21875 0,-0.1317534 -0.1182466,-0.25 -0.25,-0.25 z M 0.3125,5.28125 c -0.13175338,0 -0.25,0.1182466 -0.25,0.25 0,0.1317534 0.11824662,0.25 0.25,0.25 0.13175338,0 0.25,-0.1182466 0.25,-0.25 0,-0.1317534 -0.11824662,-0.25 -0.25,-0.25 z m 2,0.3125 c -0.1317534,0 -0.25,0.1182466 -0.25,0.25 0,0.1317534 0.1182466,0.25 0.25,0.25 0.1317534,0 0.21875,-0.1182466 0.21875,-0.25 0,-0.1317534 -0.086997,-0.25 -0.21875,-0.25 z M 3.875,5.75 c -0.1317534,0 -0.25,0.086997 -0.25,0.21875 0,0.1317534 0.1182466,0.25 0.25,0.25 0.1317534,0 0.25,-0.1182466 0.25,-0.25 C 4.125,5.8369966 4.0067534,5.75 3.875,5.75 Z m 1.25,0 c -0.1317534,0 -0.25,0.086997 -0.25,0.21875 0,0.1317534 0.1182466,0.25 0.25,0.25 0.1317534,0 0.21875,-0.1182466 0.21875,-0.25 C 5.34375,5.8369966 5.2567534,5.75 5.125,5.75 Z m -6.09375,0.4375 c -0.1317534,0 -0.21875,0.1182466 -0.21875,0.25 0,0.1317534 0.086997,0.21875 0.21875,0.21875 0.13175338,0 0.25,-0.086997 0.25,-0.21875 0,-0.1317534 -0.11824662,-0.25 -0.25,-0.25 z M 0.71875,6.25 c -0.13175338,0 -0.25,0.1182466 -0.25,0.25 0,0.1317534 0.11824662,0.21875 0.25,0.21875 0.13175338,0 0.25,-0.086997 0.25,-0.21875 0,-0.1317534 -0.11824662,-0.25 -0.25,-0.25 z m 5.1875,0.1875 c -0.1317534,0 -0.25,0.086997 -0.25,0.21875 0,0.1317534 0.1182466,0.25 0.25,0.25 0.1317534,0 0.25,-0.1182466 0.25,-0.25 0,-0.1317534 -0.1182466,-0.21875 -0.25,-0.21875 z M 4.625,6.46875 c -0.1317534,0 -0.21875,0.086997 -0.21875,0.21875 0,0.1317534 0.086997,0.25 0.21875,0.25 0.1317534,0 0.25,-0.1182466 0.25,-0.25 0,-0.1317534 -0.1182466,-0.21875 -0.25,-0.21875 z M 2.75,6.625 c -0.1317534,0 -0.25,0.1182466 -0.25,0.25 0,0.1317534 0.1182466,0.25 0.25,0.25 C 2.8817534,7.125 3,7.0067534 3,6.875 3,6.7432466 2.8817534,6.625 2.75,6.625 Z M 1.625,7.03125 c -0.1317534,0 -0.25,0.1182466 -0.25,0.25 0,0.1317534 0.1182466,0.25 0.25,0.25 0.1317534,0 0.21875,-0.1182466 0.21875,-0.25 0,-0.1317534 -0.086997,-0.25 -0.21875,-0.25 z m -1.125,0.25 c -0.13175338,0 -0.21875,0.1182466 -0.21875,0.25 0,0.1317534 0.0869966,0.21875 0.21875,0.21875 0.13175338,0 0.25,-0.086997 0.25,-0.21875 0,-0.1317534 -0.11824662,-0.25 -0.25,-0.25 z m -1.09375,0.1875 c -0.13175338,0 -0.21875,0.086997 -0.21875,0.21875 0,0.1317534 0.0869966,0.25 0.21875,0.25 0.13175338,0 0.25,-0.1182466 0.25,-0.25 0,-0.1317534 -0.11824662,-0.21875 -0.25,-0.21875 z m 3.78125,0.0625 c -0.1317534,0 -0.21875,0.086997 -0.21875,0.21875 0,0.1317534 0.086997,0.25 0.21875,0.25 0.1317534,0 0.25,-0.1182466 0.25,-0.25 0,-0.1317534 -0.1182466,-0.21875 -0.25,-0.21875 z m 2.34375,0 c -0.1317534,0 -0.25,0.086997 -0.25,0.21875 0,0.1317534 0.1182466,0.25 0.25,0.25 C 5.6630034,8 5.75,7.8817534 5.75,7.75 5.75,7.6182466 5.6630034,7.53125 5.53125,7.53125 Z M 2.21875,7.8125 C 2.0869966,7.8125 2,7.8994966 2,8.03125 c 0,0.1317534 0.086997,0.25 0.21875,0.25 0.1317534,0 0.25,-0.1182466 0.25,-0.25 0,-0.1317534 -0.1182466,-0.21875 -0.25,-0.21875 z m 1.8125,0 c -0.1317534,0 -0.25,0.086997 -0.25,0.21875 0,0.1317534 0.1182466,0.25 0.25,0.25 0.1317534,0 0.21875,-0.1182466 0.21875,-0.25 C 4.25,7.8994966 4.1630034,7.8125 4.03125,7.8125 Z M 0.46875,8.15625 C 0.33699662,8.15625 0.25,8.2432466 0.25,8.375 c 0,0.1317534 0.0869966,0.25 0.21875,0.25 0.13175338,0 0.25,-0.1182466 0.25,-0.25 0,-0.1317534 -0.11824662,-0.21875 -0.25,-0.21875 z m 3.25,0.53125 c -0.1317534,0 -0.25,0.1182466 -0.25,0.25 0,0.1317534 0.1182466,0.21875 0.25,0.21875 0.1317534,0 0.21875,-0.086997 0.21875,-0.21875 0,-0.1317534 -0.086997,-0.25 -0.21875,-0.25 z M 2.25,9.0625 c -0.1317534,0 -0.21875,0.1182466 -0.21875,0.25 0,0.1317534 0.086997,0.25 0.21875,0.25 0.1317534,0 0.25,-0.1182466 0.25,-0.25 0,-0.1317534 -0.1182466,-0.25 -0.25,-0.25 z M 0.75,9.25 c -0.13175338,0 -0.21875,0.086997 -0.21875,0.21875 0,0.1317534 0.0869966,0.25 0.21875,0.25 0.13175338,0 0.25,-0.1182466 0.25,-0.25 C 1,9.3369966 0.88175338,9.25 0.75,9.25 Z m 2.625,0.21875 c -0.1317534,0 -0.25,0.1182466 -0.25,0.25 0,0.1317534 0.1182466,0.25 0.25,0.25 0.1317534,0 0.21875,-0.1182466 0.21875,-0.25 0,-0.1317534 -0.086997,-0.25 -0.21875,-0.25 z M 2.0625,10.125 c -0.1317534,0 -0.25,0.118247 -0.25,0.25 0,0.131753 0.1182466,0.25 0.25,0.25 0.1317534,0 0.25,-0.118247 0.25,-0.25 0,-0.131753 -0.1182466,-0.25 -0.25,-0.25 z"
         transform="translate(243.58095,14)"
         id="path414"
         style="fill:#000000;stroke-width:0.568182;stroke-dasharray:none" />
    </g>
    <g
       transform="matrix(0.88,0,0,-0.88,-176.61124,93.08)"
       id="use2846"
       style="stroke-width:0.568182;stroke-dasharray:none">
      <path
         d="m 245.40625,4.9375 -2.09375,2.28125 c -1.45799,1.6011931 -2.2177,4.142135 -2.59375,8.5625 -0.49591,5.829222 -0.35818,6.411761 1.875,7.875 3.88986,1.054159 1.93898,1.205334 5.8125,0 2.23096,-1.461778 2.35995,-2.051596 1.875,-7.875 -0.38442,-4.616201 -1.08314,-6.8903691 -2.6875,-8.5625 z"
         id="path418"
         style="color:#000000;display:inline;overflow:visible;visibility:visible;fill:#fe0000;fill-opacity:1;fill-rule:nonzero;stroke:#000000;stroke-width:0.568182;stroke-linecap:butt;stroke-linejoin:miter;stroke-miterlimit:4;stroke-dasharray:none;stroke-dashoffset:0;stroke-opacity:1;marker:none;enable-background:accumulate" />
      <path
         d="m 245.4375,5.5 -2.09375,2 c -1.53797,1.4674124 -2.23963,3.668521 -2.625,8.28125 -0.48659,5.824276 -0.35629,6.413003 1.875,7.875 1.04401,0.684063 2.1704,1.430477 2.53345,2.45603 l 0.95079,0.04397 c 0.37165,-1.029682 1.17595,-1.90071 2.27544,-2.621126 C 252.41321,20.875053 251.71836,19 246.5,19 H 242 v -4.65625 c 0,-2.934528 0.6427,-5.4441161 1.71875,-6.75 z"
         id="path420"
         style="fill:#9b0000;stroke-width:0.568182;stroke-dasharray:none" />
      <path
         d="m 245.4375,5.5 -2.09375,2 c -1.53797,1.4674124 -2.23963,3.668521 -2.625,8.28125 -0.48659,5.824276 -0.35629,6.413003 1.875,7.875 0.91454,0.599232 2.087,1.509988 2.53539,2.5 l 0.84626,0.04397 c 0.54844,-1.031796 1.72297,-2.071519 2.5871,-2.63772 C 252.56746,20.938348 251.69165,19 246.5,19 H 242 v -4.65625 c 0,-2.934528 0.6427,-5.4441161 1.71875,-6.75 z"
         id="path422"
         style="fill:#009800;stroke-width:0.568182;stroke-dasharray:none" />
      <path
         d="m 1.84375,-8.5625 c -0.0653,-0.025539 -1.01584,0.9921681 -2.0625,1.875 -1.62382,1.3696494 -2.26003,3.28047 -2.625,8 -0.26373,3.4103 -0.0419,6.75 0.5,7.4375 0.54193,0.6875 1.24484,1.25 1.5625,1.25 0.31765,0 0.10304,-0.490714 -0.5,-1.09375 C -2.05559,7.600236 -2,4.5625 -2,4.5625 l 4.25,-1.25 c 0,0 -4.22895,0.2640283 -4.21875,0.0625 C -1.95855,3.173472 2.25,2.09375 2.25,2.09375 c 0,0 -4.1426,0.2703143 -4.125,0.0625 0.0177,-0.207813 4.125,-1.3125 4.125,-1.3125 0,0 -4.0246,0.272028 -4,0.0625 0.0246,-0.209527 4,-1.3125 4,-1.3125 0,0 -3.87485,0.269171 -3.84375,0.0625 0.0311,-0.20667 3.84375,-1.3125 3.84375,-1.3125 0,0 -3.66215,0.2929923 -3.625,0.09375 0.0372,-0.199242 3.625,-1.28125 3.625,-1.28125 0,0 -3.44898,0.312242 -3.40625,0.125 0.0427,-0.187242 3.36089,-1.070472 3.40625,-1.25 0.0454,-0.1795271 -3.17283,0.326921 -3.125,0.15625 C -0.8271,-3.983171 2.19974,-4.8393284 2.25,-5 2.3002,-5.1606716 -0.61501,-4.6317209 -0.5625,-4.78125 -0.51,-4.930779 2.19534,-5.7377563 2.25,-5.875 2.3047,-6.0122438 -0.3067,-5.4699344 -0.25,-5.59375 -0.1933,-5.7175656 2.19138,-6.5157553 2.25,-6.625 2.3086,-6.7342447 0.06456,-6.1564691 0.125,-6.25 0.18549,-6.343531 2.18787,-7.1108257 2.25,-7.1875 0.21311126,-6.7753842 0.95835089,-7.3269482 1.84375,-8.5625 Z M -1.34375,5.125 c -0.1317534,0 -0.21875,0.1182466 -0.21875,0.25 0,0.1317534 0.086997,0.21875 0.21875,0.21875 0.1317534,0 0.25,-0.086997 0.25,-0.21875 0,-0.1317534 -0.1182466,-0.25 -0.25,-0.25 z M 0.3125,5.28125 c -0.13175338,0 -0.25,0.1182466 -0.25,0.25 0,0.1317534 0.11824662,0.25 0.25,0.25 0.13175338,0 0.25,-0.1182466 0.25,-0.25 0,-0.1317534 -0.11824662,-0.25 -0.25,-0.25 z m 2,0.3125 c -0.1317534,0 -0.25,0.1182466 -0.25,0.25 0,0.1317534 0.1182466,0.25 0.25,0.25 0.1317534,0 0.21875,-0.1182466 0.21875,-0.25 0,-0.1317534 -0.086997,-0.25 -0.21875,-0.25 z M 3.875,5.75 c -0.1317534,0 -0.25,0.086997 -0.25,0.21875 0,0.1317534 0.1182466,0.25 0.25,0.25 0.1317534,0 0.25,-0.1182466 0.25,-0.25 C 4.125,5.8369966 4.0067534,5.75 3.875,5.75 Z m 1.25,0 c -0.1317534,0 -0.25,0.086997 -0.25,0.21875 0,0.1317534 0.1182466,0.25 0.25,0.25 0.1317534,0 0.21875,-0.1182466 0.21875,-0.25 C 5.34375,5.8369966 5.2567534,5.75 5.125,5.75 Z m -6.09375,0.4375 c -0.1317534,0 -0.21875,0.1182466 -0.21875,0.25 0,0.1317534 0.086997,0.21875 0.21875,0.21875 0.13175338,0 0.25,-0.086997 0.25,-0.21875 0,-0.1317534 -0.11824662,-0.25 -0.25,-0.25 z M 0.71875,6.25 c -0.13175338,0 -0.25,0.1182466 -0.25,0.25 0,0.1317534 0.11824662,0.21875 0.25,0.21875 0.13175338,0 0.25,-0.086997 0.25,-0.21875 0,-0.1317534 -0.11824662,-0.25 -0.25,-0.25 z m 5.1875,0.1875 c -0.1317534,0 -0.25,0.086997 -0.25,0.21875 0,0.1317534 0.1182466,0.25 0.25,0.25 0.1317534,0 0.25,-0.1182466 0.25,-0.25 0,-0.1317534 -0.1182466,-0.21875 -0.25,-0.21875 z M 4.625,6.46875 c -0.1317534,0 -0.21875,0.086997 -0.21875,0.21875 0,0.1317534 0.086997,0.25 0.21875,0.25 0.1317534,0 0.25,-0.1182466 0.25,-0.25 0,-0.1317534 -0.1182466,-0.21875 -0.25,-0.21875 z M 2.75,6.625 c -0.1317534,0 -0.25,0.1182466 -0.25,0.25 0,0.1317534 0.1182466,0.25 0.25,0.25 C 2.8817534,7.125 3,7.0067534 3,6.875 3,6.7432466 2.8817534,6.625 2.75,6.625 Z M 1.625,7.03125 c -0.1317534,0 -0.25,0.1182466 -0.25,0.25 0,0.1317534 0.1182466,0.25 0.25,0.25 0.1317534,0 0.21875,-0.1182466 0.21875,-0.25 0,-0.1317534 -0.086997,-0.25 -0.21875,-0.25 z m -1.125,0.25 c -0.13175338,0 -0.21875,0.1182466 -0.21875,0.25 0,0.1317534 0.0869966,0.21875 0.21875,0.21875 0.13175338,0 0.25,-0.086997 0.25,-0.21875 0,-0.1317534 -0.11824662,-0.25 -0.25,-0.25 z m -1.09375,0.1875 c -0.13175338,0 -0.21875,0.086997 -0.21875,0.21875 0,0.1317534 0.0869966,0.25 0.21875,0.25 0.13175338,0 0.25,-0.1182466 0.25,-0.25 0,-0.1317534 -0.11824662,-0.21875 -0.25,-0.21875 z m 3.78125,0.0625 c -0.1317534,0 -0.21875,0.086997 -0.21875,0.21875 0,0.1317534 0.086997,0.25 0.21875,0.25 0.1317534,0 0.25,-0.1182466 0.25,-0.25 0,-0.1317534 -0.1182466,-0.21875 -0.25,-0.21875 z m 2.34375,0 c -0.1317534,0 -0.25,0.086997 -0.25,0.21875 0,0.1317534 0.1182466,0.25 0.25,0.25 C 5.6630034,8 5.75,7.8817534 5.75,7.75 5.75,7.6182466 5.6630034,7.53125 5.53125,7.53125 Z M 2.21875,7.8125 C 2.0869966,7.8125 2,7.8994966 2,8.03125 c 0,0.1317534 0.086997,0.25 0.21875,0.25 0.1317534,0 0.25,-0.1182466 0.25,-0.25 0,-0.1317534 -0.1182466,-0.21875 -0.25,-0.21875 z m 1.8125,0 c -0.1317534,0 -0.25,0.086997 -0.25,0.21875 0,0.1317534 0.1182466,0.25 0.25,0.25 0.1317534,0 0.21875,-0.1182466 0.21875,-0.25 C 4.25,7.8994966 4.1630034,7.8125 4.03125,7.8125 Z M 0.46875,8.15625 C 0.33699662,8.15625 0.25,8.2432466 0.25,8.375 c 0,0.1317534 0.0869966,0.25 0.21875,0.25 0.13175338,0 0.25,-0.1182466 0.25,-0.25 0,-0.1317534 -0.11824662,-0.21875 -0.25,-0.21875 z m 3.25,0.53125 c -0.1317534,0 -0.25,0.1182466 -0.25,0.25 0,0.1317534 0.1182466,0.21875 0.25,0.21875 0.1317534,0 0.21875,-0.086997 0.21875,-0.21875 0,-0.1317534 -0.086997,-0.25 -0.21875,-0.25 z M 2.25,9.0625 c -0.1317534,0 -0.21875,0.1182466 -0.21875,0.25 0,0.1317534 0.086997,0.25 0.21875,0.25 0.1317534,0 0.25,-0.1182466 0.25,-0.25 0,-0.1317534 -0.1182466,-0.25 -0.25,-0.25 z M 0.75,9.25 c -0.13175338,0 -0.21875,0.086997 -0.21875,0.21875 0,0.1317534 0.0869966,0.25 0.21875,0.25 0.13175338,0 0.25,-0.1182466 0.25,-0.25 C 1,9.3369966 0.88175338,9.25 0.75,9.25 Z m 2.625,0.21875 c -0.1317534,0 -0.25,0.1182466 -0.25,0.25 0,0.1317534 0.1182466,0.25 0.25,0.25 0.1317534,0 0.21875,-0.1182466 0.21875,-0.25 0,-0.1317534 -0.086997,-0.25 -0.21875,-0.25 z M 2.0625,10.125 c -0.1317534,0 -0.25,0.118247 -0.25,0.25 0,0.131753 0.1182466,0.25 0.25,0.25 0.1317534,0 0.25,-0.118247 0.25,-0.25 0,-0.131753 -0.1182466,-0.25 -0.25,-0.25 z"
         transform="translate(243.58095,14)"
         id="path424"
         style="fill:#000000;stroke-width:0.568182;stroke-dasharray:none" />
    </g>
    <g
       transform="matrix(0.99073307,0.572,0.572,-0.99073307,-234.45717,-19.620574)"
       id="use8972"
       style="stroke-width:0.437063;stroke-dasharray:none">
      <path
         d="m 245.40625,4.9375 -2.09375,2.28125 c -1.45799,1.6011931 -2.2177,4.142135 -2.59375,8.5625 -0.49591,5.829222 -0.35818,6.411761 1.875,7.875 3.88986,1.054159 1.93898,1.205334 5.8125,0 2.23096,-1.461778 2.35995,-2.051596 1.875,-7.875 -0.38442,-4.616201 -1.08314,-6.8903691 -2.6875,-8.5625 z"
         id="path428"
         style="color:#000000;display:inline;overflow:visible;visibility:visible;fill:#fe0000;fill-opacity:1;fill-rule:nonzero;stroke:#000000;stroke-width:0.437063;stroke-linecap:butt;stroke-linejoin:miter;stroke-miterlimit:4;stroke-dasharray:none;stroke-dashoffset:0;stroke-opacity:1;marker:none;enable-background:accumulate" />
      <path
         d="m 245.4375,5.5 -2.09375,2 c -1.53797,1.4674124 -2.23963,3.668521 -2.625,8.28125 -0.48659,5.824276 -0.35629,6.413003 1.875,7.875 1.04401,0.684063 2.1704,1.430477 2.53345,2.45603 l 0.95079,0.04397 c 0.37165,-1.029682 1.17595,-1.90071 2.27544,-2.621126 C 252.41321,20.875053 251.71836,19 246.5,19 H 242 v -4.65625 c 0,-2.934528 0.6427,-5.4441161 1.71875,-6.75 z"
         id="path430"
         style="fill:#9b0000;stroke-width:0.437063;stroke-dasharray:none" />
      <path
         d="m 245.4375,5.5 -2.09375,2 c -1.53797,1.4674124 -2.23963,3.668521 -2.625,8.28125 -0.48659,5.824276 -0.35629,6.413003 1.875,7.875 0.91454,0.599232 2.087,1.509988 2.53539,2.5 l 0.84626,0.04397 c 0.54844,-1.031796 1.72297,-2.071519 2.5871,-2.63772 C 252.56746,20.938348 251.69165,19 246.5,19 H 242 v -4.65625 c 0,-2.934528 0.6427,-5.4441161 1.71875,-6.75 z"
         id="path432"
         style="fill:#009800;stroke-width:0.437063;stroke-dasharray:none" />
      <path
         d="m 1.84375,-8.5625 c -0.0653,-0.025539 -1.01584,0.9921681 -2.0625,1.875 -1.62382,1.3696494 -2.26003,3.28047 -2.625,8 -0.26373,3.4103 -0.0419,6.75 0.5,7.4375 0.54193,0.6875 1.24484,1.25 1.5625,1.25 0.31765,0 0.10304,-0.490714 -0.5,-1.09375 C -2.05559,7.600236 -2,4.5625 -2,4.5625 l 4.25,-1.25 c 0,0 -4.22895,0.2640283 -4.21875,0.0625 C -1.95855,3.173472 2.25,2.09375 2.25,2.09375 c 0,0 -4.1426,0.2703143 -4.125,0.0625 0.0177,-0.207813 4.125,-1.3125 4.125,-1.3125 0,0 -4.0246,0.272028 -4,0.0625 0.0246,-0.209527 4,-1.3125 4,-1.3125 0,0 -3.87485,0.269171 -3.84375,0.0625 0.0311,-0.20667 3.84375,-1.3125 3.84375,-1.3125 0,0 -3.66215,0.2929923 -3.625,0.09375 0.0372,-0.199242 3.625,-1.28125 3.625,-1.28125 0,0 -3.44898,0.312242 -3.40625,0.125 0.0427,-0.187242 3.36089,-1.070472 3.40625,-1.25 0.0454,-0.1795271 -3.17283,0.326921 -3.125,0.15625 C -0.8271,-3.983171 2.19974,-4.8393284 2.25,-5 2.3002,-5.1606716 -0.61501,-4.6317209 -0.5625,-4.78125 -0.51,-4.930779 2.19534,-5.7377563 2.25,-5.875 2.3047,-6.0122438 -0.3067,-5.4699344 -0.25,-5.59375 -0.1933,-5.7175656 2.19138,-6.5157553 2.25,-6.625 2.3086,-6.7342447 0.06456,-6.1564691 0.125,-6.25 0.18549,-6.343531 2.18787,-7.1108257 2.25,-7.1875 0.21311126,-6.7753842 0.95835089,-7.3269482 1.84375,-8.5625 Z M -1.34375,5.125 c -0.1317534,0 -0.21875,0.1182466 -0.21875,0.25 0,0.1317534 0.086997,0.21875 0.21875,0.21875 0.1317534,0 0.25,-0.086997 0.25,-0.21875 0,-0.1317534 -0.1182466,-0.25 -0.25,-0.25 z M 0.3125,5.28125 c -0.13175338,0 -0.25,0.1182466 -0.25,0.25 0,0.1317534 0.11824662,0.25 0.25,0.25 0.13175338,0 0.25,-0.1182466 0.25,-0.25 0,-0.1317534 -0.11824662,-0.25 -0.25,-0.25 z m 2,0.3125 c -0.1317534,0 -0.25,0.1182466 -0.25,0.25 0,0.1317534 0.1182466,0.25 0.25,0.25 0.1317534,0 0.21875,-0.1182466 0.21875,-0.25 0,-0.1317534 -0.086997,-0.25 -0.21875,-0.25 z M 3.875,5.75 c -0.1317534,0 -0.25,0.086997 -0.25,0.21875 0,0.1317534 0.1182466,0.25 0.25,0.25 0.1317534,0 0.25,-0.1182466 0.25,-0.25 C 4.125,5.8369966 4.0067534,5.75 3.875,5.75 Z m 1.25,0 c -0.1317534,0 -0.25,0.086997 -0.25,0.21875 0,0.1317534 0.1182466,0.25 0.25,0.25 0.1317534,0 0.21875,-0.1182466 0.21875,-0.25 C 5.34375,5.8369966 5.2567534,5.75 5.125,5.75 Z m -6.09375,0.4375 c -0.1317534,0 -0.21875,0.1182466 -0.21875,0.25 0,0.1317534 0.086997,0.21875 0.21875,0.21875 0.13175338,0 0.25,-0.086997 0.25,-0.21875 0,-0.1317534 -0.11824662,-0.25 -0.25,-0.25 z M 0.71875,6.25 c -0.13175338,0 -0.25,0.1182466 -0.25,0.25 0,0.1317534 0.11824662,0.21875 0.25,0.21875 0.13175338,0 0.25,-0.086997 0.25,-0.21875 0,-0.1317534 -0.11824662,-0.25 -0.25,-0.25 z m 5.1875,0.1875 c -0.1317534,0 -0.25,0.086997 -0.25,0.21875 0,0.1317534 0.1182466,0.25 0.25,0.25 0.1317534,0 0.25,-0.1182466 0.25,-0.25 0,-0.1317534 -0.1182466,-0.21875 -0.25,-0.21875 z M 4.625,6.46875 c -0.1317534,0 -0.21875,0.086997 -0.21875,0.21875 0,0.1317534 0.086997,0.25 0.21875,0.25 0.1317534,0 0.25,-0.1182466 0.25,-0.25 0,-0.1317534 -0.1182466,-0.21875 -0.25,-0.21875 z M 2.75,6.625 c -0.1317534,0 -0.25,0.1182466 -0.25,0.25 0,0.1317534 0.1182466,0.25 0.25,0.25 C 2.8817534,7.125 3,7.0067534 3,6.875 3,6.7432466 2.8817534,6.625 2.75,6.625 Z M 1.625,7.03125 c -0.1317534,0 -0.25,0.1182466 -0.25,0.25 0,0.1317534 0.1182466,0.25 0.25,0.25 0.1317534,0 0.21875,-0.1182466 0.21875,-0.25 0,-0.1317534 -0.086997,-0.25 -0.21875,-0.25 z m -1.125,0.25 c -0.13175338,0 -0.21875,0.1182466 -0.21875,0.25 0,0.1317534 0.0869966,0.21875 0.21875,0.21875 0.13175338,0 0.25,-0.086997 0.25,-0.21875 0,-0.1317534 -0.11824662,-0.25 -0.25,-0.25 z m -1.09375,0.1875 c -0.13175338,0 -0.21875,0.086997 -0.21875,0.21875 0,0.1317534 0.0869966,0.25 0.21875,0.25 0.13175338,0 0.25,-0.1182466 0.25,-0.25 0,-0.1317534 -0.11824662,-0.21875 -0.25,-0.21875 z m 3.78125,0.0625 c -0.1317534,0 -0.21875,0.086997 -0.21875,0.21875 0,0.1317534 0.086997,0.25 0.21875,0.25 0.1317534,0 0.25,-0.1182466 0.25,-0.25 0,-0.1317534 -0.1182466,-0.21875 -0.25,-0.21875 z m 2.34375,0 c -0.1317534,0 -0.25,0.086997 -0.25,0.21875 0,0.1317534 0.1182466,0.25 0.25,0.25 C 5.6630034,8 5.75,7.8817534 5.75,7.75 5.75,7.6182466 5.6630034,7.53125 5.53125,7.53125 Z M 2.21875,7.8125 C 2.0869966,7.8125 2,7.8994966 2,8.03125 c 0,0.1317534 0.086997,0.25 0.21875,0.25 0.1317534,0 0.25,-0.1182466 0.25,-0.25 0,-0.1317534 -0.1182466,-0.21875 -0.25,-0.21875 z m 1.8125,0 c -0.1317534,0 -0.25,0.086997 -0.25,0.21875 0,0.1317534 0.1182466,0.25 0.25,0.25 0.1317534,0 0.21875,-0.1182466 0.21875,-0.25 C 4.25,7.8994966 4.1630034,7.8125 4.03125,7.8125 Z M 0.46875,8.15625 C 0.33699662,8.15625 0.25,8.2432466 0.25,8.375 c 0,0.1317534 0.0869966,0.25 0.21875,0.25 0.13175338,0 0.25,-0.1182466 0.25,-0.25 0,-0.1317534 -0.11824662,-0.21875 -0.25,-0.21875 z m 3.25,0.53125 c -0.1317534,0 -0.25,0.1182466 -0.25,0.25 0,0.1317534 0.1182466,0.21875 0.25,0.21875 0.1317534,0 0.21875,-0.086997 0.21875,-0.21875 0,-0.1317534 -0.086997,-0.25 -0.21875,-0.25 z M 2.25,9.0625 c -0.1317534,0 -0.21875,0.1182466 -0.21875,0.25 0,0.1317534 0.086997,0.25 0.21875,0.25 0.1317534,0 0.25,-0.1182466 0.25,-0.25 0,-0.1317534 -0.1182466,-0.25 -0.25,-0.25 z M 0.75,9.25 c -0.13175338,0 -0.21875,0.086997 -0.21875,0.21875 0,0.1317534 0.0869966,0.25 0.21875,0.25 0.13175338,0 0.25,-0.1182466 0.25,-0.25 C 1,9.3369966 0.88175338,9.25 0.75,9.25 Z m 2.625,0.21875 c -0.1317534,0 -0.25,0.1182466 -0.25,0.25 0,0.1317534 0.1182466,0.25 0.25,0.25 0.1317534,0 0.21875,-0.1182466 0.21875,-0.25 0,-0.1317534 -0.086997,-0.25 -0.21875,-0.25 z M 2.0625,10.125 c -0.1317534,0 -0.25,0.118247 -0.25,0.25 0,0.131753 0.1182466,0.25 0.25,0.25 0.1317534,0 0.25,-0.118247 0.25,-0.25 0,-0.131753 -0.1182466,-0.25 -0.25,-0.25 z"
         transform="translate(243.58095,14)"
         id="path434"
         style="fill:#000000;stroke-width:0.437063;stroke-dasharray:none" />
    </g>
    <g
       transform="matrix(0.99073307,-0.572,-0.572,-0.99073307,-173.15317,261.32403)"
       id="use2848"
       style="stroke-width:0.437063;stroke-dasharray:none">
      <path
         d="m 245.40625,4.9375 -2.09375,2.28125 c -1.45799,1.6011931 -2.2177,4.142135 -2.59375,8.5625 -0.49591,5.829222 -0.35818,6.411761 1.875,7.875 3.88986,1.054159 1.93898,1.205334 5.8125,0 2.23096,-1.461778 2.35995,-2.051596 1.875,-7.875 -0.38442,-4.616201 -1.08314,-6.8903691 -2.6875,-8.5625 z"
         id="path438"
         style="color:#000000;display:inline;overflow:visible;visibility:visible;fill:#fe0000;fill-opacity:1;fill-rule:nonzero;stroke:#000000;stroke-width:0.437063;stroke-linecap:butt;stroke-linejoin:miter;stroke-miterlimit:4;stroke-dasharray:none;stroke-dashoffset:0;stroke-opacity:1;marker:none;enable-background:accumulate" />
      <path
         d="m 245.4375,5.5 -2.09375,2 c -1.53797,1.4674124 -2.23963,3.668521 -2.625,8.28125 -0.48659,5.824276 -0.35629,6.413003 1.875,7.875 1.04401,0.684063 2.1704,1.430477 2.53345,2.45603 l 0.95079,0.04397 c 0.37165,-1.029682 1.17595,-1.90071 2.27544,-2.621126 C 252.41321,20.875053 251.71836,19 246.5,19 H 242 v -4.65625 c 0,-2.934528 0.6427,-5.4441161 1.71875,-6.75 z"
         id="path440"
         style="fill:#9b0000;stroke-width:0.437063;stroke-dasharray:none" />
      <path
         d="m 245.4375,5.5 -2.09375,2 c -1.53797,1.4674124 -2.23963,3.668521 -2.625,8.28125 -0.48659,5.824276 -0.35629,6.413003 1.875,7.875 0.91454,0.599232 2.087,1.509988 2.53539,2.5 l 0.84626,0.04397 c 0.54844,-1.031796 1.72297,-2.071519 2.5871,-2.63772 C 252.56746,20.938348 251.69165,19 246.5,19 H 242 v -4.65625 c 0,-2.934528 0.6427,-5.4441161 1.71875,-6.75 z"
         id="path442"
         style="fill:#009800;stroke-width:0.437063;stroke-dasharray:none" />
      <path
         d="m 1.84375,-8.5625 c -0.0653,-0.025539 -1.01584,0.9921681 -2.0625,1.875 -1.62382,1.3696494 -2.26003,3.28047 -2.625,8 -0.26373,3.4103 -0.0419,6.75 0.5,7.4375 0.54193,0.6875 1.24484,1.25 1.5625,1.25 0.31765,0 0.10304,-0.490714 -0.5,-1.09375 C -2.05559,7.600236 -2,4.5625 -2,4.5625 l 4.25,-1.25 c 0,0 -4.22895,0.2640283 -4.21875,0.0625 C -1.95855,3.173472 2.25,2.09375 2.25,2.09375 c 0,0 -4.1426,0.2703143 -4.125,0.0625 0.0177,-0.207813 4.125,-1.3125 4.125,-1.3125 0,0 -4.0246,0.272028 -4,0.0625 0.0246,-0.209527 4,-1.3125 4,-1.3125 0,0 -3.87485,0.269171 -3.84375,0.0625 0.0311,-0.20667 3.84375,-1.3125 3.84375,-1.3125 0,0 -3.66215,0.2929923 -3.625,0.09375 0.0372,-0.199242 3.625,-1.28125 3.625,-1.28125 0,0 -3.44898,0.312242 -3.40625,0.125 0.0427,-0.187242 3.36089,-1.070472 3.40625,-1.25 0.0454,-0.1795271 -3.17283,0.326921 -3.125,0.15625 C -0.8271,-3.983171 2.19974,-4.8393284 2.25,-5 2.3002,-5.1606716 -0.61501,-4.6317209 -0.5625,-4.78125 -0.51,-4.930779 2.19534,-5.7377563 2.25,-5.875 2.3047,-6.0122438 -0.3067,-5.4699344 -0.25,-5.59375 -0.1933,-5.7175656 2.19138,-6.5157553 2.25,-6.625 2.3086,-6.7342447 0.06456,-6.1564691 0.125,-6.25 0.18549,-6.343531 2.18787,-7.1108257 2.25,-7.1875 0.21311126,-6.7753842 0.95835089,-7.3269482 1.84375,-8.5625 Z M -1.34375,5.125 c -0.1317534,0 -0.21875,0.1182466 -0.21875,0.25 0,0.1317534 0.086997,0.21875 0.21875,0.21875 0.1317534,0 0.25,-0.086997 0.25,-0.21875 0,-0.1317534 -0.1182466,-0.25 -0.25,-0.25 z M 0.3125,5.28125 c -0.13175338,0 -0.25,0.1182466 -0.25,0.25 0,0.1317534 0.11824662,0.25 0.25,0.25 0.13175338,0 0.25,-0.1182466 0.25,-0.25 0,-0.1317534 -0.11824662,-0.25 -0.25,-0.25 z m 2,0.3125 c -0.1317534,0 -0.25,0.1182466 -0.25,0.25 0,0.1317534 0.1182466,0.25 0.25,0.25 0.1317534,0 0.21875,-0.1182466 0.21875,-0.25 0,-0.1317534 -0.086997,-0.25 -0.21875,-0.25 z M 3.875,5.75 c -0.1317534,0 -0.25,0.086997 -0.25,0.21875 0,0.1317534 0.1182466,0.25 0.25,0.25 0.1317534,0 0.25,-0.1182466 0.25,-0.25 C 4.125,5.8369966 4.0067534,5.75 3.875,5.75 Z m 1.25,0 c -0.1317534,0 -0.25,0.086997 -0.25,0.21875 0,0.1317534 0.1182466,0.25 0.25,0.25 0.1317534,0 0.21875,-0.1182466 0.21875,-0.25 C 5.34375,5.8369966 5.2567534,5.75 5.125,5.75 Z m -6.09375,0.4375 c -0.1317534,0 -0.21875,0.1182466 -0.21875,0.25 0,0.1317534 0.086997,0.21875 0.21875,0.21875 0.13175338,0 0.25,-0.086997 0.25,-0.21875 0,-0.1317534 -0.11824662,-0.25 -0.25,-0.25 z M 0.71875,6.25 c -0.13175338,0 -0.25,0.1182466 -0.25,0.25 0,0.1317534 0.11824662,0.21875 0.25,0.21875 0.13175338,0 0.25,-0.086997 0.25,-0.21875 0,-0.1317534 -0.11824662,-0.25 -0.25,-0.25 z m 5.1875,0.1875 c -0.1317534,0 -0.25,0.086997 -0.25,0.21875 0,0.1317534 0.1182466,0.25 0.25,0.25 0.1317534,0 0.25,-0.1182466 0.25,-0.25 0,-0.1317534 -0.1182466,-0.21875 -0.25,-0.21875 z M 4.625,6.46875 c -0.1317534,0 -0.21875,0.086997 -0.21875,0.21875 0,0.1317534 0.086997,0.25 0.21875,0.25 0.1317534,0 0.25,-0.1182466 0.25,-0.25 0,-0.1317534 -0.1182466,-0.21875 -0.25,-0.21875 z M 2.75,6.625 c -0.1317534,0 -0.25,0.1182466 -0.25,0.25 0,0.1317534 0.1182466,0.25 0.25,0.25 C 2.8817534,7.125 3,7.0067534 3,6.875 3,6.7432466 2.8817534,6.625 2.75,6.625 Z M 1.625,7.03125 c -0.1317534,0 -0.25,0.1182466 -0.25,0.25 0,0.1317534 0.1182466,0.25 0.25,0.25 0.1317534,0 0.21875,-0.1182466 0.21875,-0.25 0,-0.1317534 -0.086997,-0.25 -0.21875,-0.25 z m -1.125,0.25 c -0.13175338,0 -0.21875,0.1182466 -0.21875,0.25 0,0.1317534 0.0869966,0.21875 0.21875,0.21875 0.13175338,0 0.25,-0.086997 0.25,-0.21875 0,-0.1317534 -0.11824662,-0.25 -0.25,-0.25 z m -1.09375,0.1875 c -0.13175338,0 -0.21875,0.086997 -0.21875,0.21875 0,0.1317534 0.0869966,0.25 0.21875,0.25 0.13175338,0 0.25,-0.1182466 0.25,-0.25 0,-0.1317534 -0.11824662,-0.21875 -0.25,-0.21875 z m 3.78125,0.0625 c -0.1317534,0 -0.21875,0.086997 -0.21875,0.21875 0,0.1317534 0.086997,0.25 0.21875,0.25 0.1317534,0 0.25,-0.1182466 0.25,-0.25 0,-0.1317534 -0.1182466,-0.21875 -0.25,-0.21875 z m 2.34375,0 c -0.1317534,0 -0.25,0.086997 -0.25,0.21875 0,0.1317534 0.1182466,0.25 0.25,0.25 C 5.6630034,8 5.75,7.8817534 5.75,7.75 5.75,7.6182466 5.6630034,7.53125 5.53125,7.53125 Z M 2.21875,7.8125 C 2.0869966,7.8125 2,7.8994966 2,8.03125 c 0,0.1317534 0.086997,0.25 0.21875,0.25 0.1317534,0 0.25,-0.1182466 0.25,-0.25 0,-0.1317534 -0.1182466,-0.21875 -0.25,-0.21875 z m 1.8125,0 c -0.1317534,0 -0.25,0.086997 -0.25,0.21875 0,0.1317534 0.1182466,0.25 0.25,0.25 0.1317534,0 0.21875,-0.1182466 0.21875,-0.25 C 4.25,7.8994966 4.1630034,7.8125 4.03125,7.8125 Z M 0.46875,8.15625 C 0.33699662,8.15625 0.25,8.2432466 0.25,8.375 c 0,0.1317534 0.0869966,0.25 0.21875,0.25 0.13175338,0 0.25,-0.1182466 0.25,-0.25 0,-0.1317534 -0.11824662,-0.21875 -0.25,-0.21875 z m 3.25,0.53125 c -0.1317534,0 -0.25,0.1182466 -0.25,0.25 0,0.1317534 0.1182466,0.21875 0.25,0.21875 0.1317534,0 0.21875,-0.086997 0.21875,-0.21875 0,-0.1317534 -0.086997,-0.25 -0.21875,-0.25 z M 2.25,9.0625 c -0.1317534,0 -0.21875,0.1182466 -0.21875,0.25 0,0.1317534 0.086997,0.25 0.21875,0.25 0.1317534,0 0.25,-0.1182466 0.25,-0.25 0,-0.1317534 -0.1182466,-0.25 -0.25,-0.25 z M 0.75,9.25 c -0.13175338,0 -0.21875,0.086997 -0.21875,0.21875 0,0.1317534 0.0869966,0.25 0.21875,0.25 0.13175338,0 0.25,-0.1182466 0.25,-0.25 C 1,9.3369966 0.88175338,9.25 0.75,9.25 Z m 2.625,0.21875 c -0.1317534,0 -0.25,0.1182466 -0.25,0.25 0,0.1317534 0.1182466,0.25 0.25,0.25 0.1317534,0 0.21875,-0.1182466 0.21875,-0.25 0,-0.1317534 -0.086997,-0.25 -0.21875,-0.25 z M 2.0625,10.125 c -0.1317534,0 -0.25,0.118247 -0.25,0.25 0,0.131753 0.1182466,0.25 0.25,0.25 0.1317534,0 0.25,-0.118247 0.25,-0.25 0,-0.131753 -0.1182466,-0.25 -0.25,-0.25 z"
         transform="translate(243.58095,14)"
         id="path444"
         style="fill:#000000;stroke-width:0.437063;stroke-dasharray:none" />
    </g>
    <g
       transform="translate(-0.975,-6)"
       id="use11282"
       style="fill:#0000a0;stroke-width:0.5;stroke-dasharray:none">
      <g
         id="use448"
         style="stroke-width:0.5;stroke-dasharray:none">
        <path
           d="M 4.9840521,32.578091 C 1.870653,29.325097 2.1087365,23.444548 5.4655326,20.6857 c 2.2986147,-1.889165 5.5112604,-0.81715 6.9669734,2.324782 3.118592,6.731 -2.8390681,14.383666 -7.4484539,9.567609 z"
           id="path454"
           style="stroke:#000000;stroke-width:0.5;stroke-dasharray:none" />
      </g>
      <g
         id="use450"
         style="stroke-width:0.5;stroke-dasharray:none">
        <path
           d="m 11.353991,31.254174 c 0.250559,-0.464306 -1.136266,-0.658828 -0.794309,-1.466557 0.148167,-0.349985 0.120064,-0.898159 0.130546,-1.97199 0.01691,-1.731786 -0.422375,-3.057995 -2.636873,-2.8998 -0.9874527,0.07054 -2.7573339,0.415073 -2.7628337,1.498239 -0.00153,0.300471 0.1813712,0.423239 0.6129303,0.471365 0.7153111,0.07977 3.0141764,-0.738637 3.0141764,-0.158511 0,0.279836 -0.1861506,0.602264 -1.0979282,0.534011 -0.9910959,-0.07419 -1.3859052,-0.278504 -2.1404034,0.313743 -1.2458117,0.977886 -1.1834626,2.48785 0.044545,3.45177 0.5889565,0.462299 1.3370637,0.44862 1.9867094,0.319521 2.0255418,-0.402519 3.4098902,0.340997 3.6434402,-0.09179 z M 7.3472602,28.837586 C 8.6039014,28.697757 9.5558394,29.00025 8.7004816,29.671656 8.4987628,29.830001 7.8137572,29.92902 7.4068669,29.891699 6.6008663,29.356744 6.9060377,29.149165 7.3472602,28.837586 Z"
           id="path458"
           style="fill:#000000;stroke-width:0.5;stroke-dasharray:none" />
        <path
           d="m 8.8471675,30.113367 c 0.2656044,-0.159241 0.5680646,-0.56713 0.6721402,-0.906422 0.4453296,-0.822936 -1.8701094,-1.413035 -2.989328,-0.636206 -1.5403452,1.069125 1.1428417,2.148128 2.3171878,1.542628 z M 6.2092418,30.362523 C 4.771744,29.302497 5.6692811,27.683912 7.5878825,27.683912 c 0.4692412,0 1.1100439,0.107897 1.4239534,0.239772 0.4927001,0.206977 0.6456003,-0.36223 0.6456003,-0.856105 0,-0.971331 -0.9935386,-1.401341 -2.0788213,-0.971245 -2.5439579,1.008168 -1.760076,-0.354687 -0.4693186,-0.662768 1.9320111,-0.461138 3.3925087,0.05337 3.0898247,2.788051 -0.08356,0.754923 -0.181682,1.205538 -0.2429423,1.528774 -0.1689426,0.891417 0.7650813,0.921879 0.6844203,1.203655 -0.04854,0.169577 -1.0618398,-0.572119 -2.8673165,-0.104125 -0.5326397,0.138064 -1.1406848,-0.175198 -1.5640407,-0.487398 z"
           id="path460"
           style="fill:#ffffff;stroke-width:0.5;stroke-dasharray:none" />
      </g>
    </g>
    <g
       id="use11284"
       style="fill:#0000a0;stroke-width:0.5;stroke-dasharray:none">
      <g
         transform="rotate(180,39.9875,64.5)"
         id="use464"
         style="stroke-width:0.5;stroke-dasharray:none">
        <g
           id="use468"
           style="stroke-width:0.5;stroke-dasharray:none">
          <path
             d="M 4.9840521,32.578091 C 1.870653,29.325097 2.1087365,23.444548 5.4655326,20.6857 c 2.2986147,-1.889165 5.5112604,-0.81715 6.9669734,2.324782 3.118592,6.731 -2.8390681,14.383666 -7.4484539,9.567609 z"
             id="path474"
             style="stroke:#000000;stroke-width:0.5;stroke-dasharray:none" />
        </g>
        <g
           id="use470"
           style="stroke-width:0.5;stroke-dasharray:none">
          <path
             d="m 11.353991,31.254174 c 0.250559,-0.464306 -1.136266,-0.658828 -0.794309,-1.466557 0.148167,-0.349985 0.120064,-0.898159 0.130546,-1.97199 0.01691,-1.731786 -0.422375,-3.057995 -2.636873,-2.8998 -0.9874527,0.07054 -2.7573339,0.415073 -2.7628337,1.498239 -0.00153,0.300471 0.1813712,0.423239 0.6129303,0.471365 0.7153111,0.07977 3.0141764,-0.738637 3.0141764,-0.158511 0,0.279836 -0.1861506,0.602264 -1.0979282,0.534011 -0.9910959,-0.07419 -1.3859052,-0.278504 -2.1404034,0.313743 -1.2458117,0.977886 -1.1834626,2.48785 0.044545,3.45177 0.5889565,0.462299 1.3370637,0.44862 1.9867094,0.319521 2.0255418,-0.402519 3.4098902,0.340997 3.6434402,-0.09179 z M 7.3472602,28.837586 C 8.6039014,28.697757 9.5558394,29.00025 8.7004816,29.671656 8.4987628,29.830001 7.8137572,29.92902 7.4068669,29.891699 6.6008663,29.356744 6.9060377,29.149165 7.3472602,28.837586 Z"
             id="path478"
             style="fill:#000000;stroke-width:0.5;stroke-dasharray:none" />
          <path
             d="m 8.8471675,30.113367 c 0.2656044,-0.159241 0.5680646,-0.56713 0.6721402,-0.906422 0.4453296,-0.822936 -1.8701094,-1.413035 -2.989328,-0.636206 -1.5403452,1.069125 1.1428417,2.148128 2.3171878,1.542628 z M 6.2092418,30.362523 C 4.771744,29.302497 5.6692811,27.683912 7.5878825,27.683912 c 0.4692412,0 1.1100439,0.107897 1.4239534,0.239772 0.4927001,0.206977 0.6456003,-0.36223 0.6456003,-0.856105 0,-0.971331 -0.9935386,-1.401341 -2.0788213,-0.971245 -2.5439579,1.008168 -1.760076,-0.354687 -0.4693186,-0.662768 1.9320111,-0.461138 3.3925087,0.05337 3.0898247,2.788051 -0.08356,0.754923 -0.181682,1.205538 -0.2429423,1.528774 -0.1689426,0.891417 0.7650813,0.921879 0.6844203,1.203655 -0.04854,0.169577 -1.0618398,-0.572119 -2.8673165,-0.104125 -0.5326397,0.138064 -1.1406848,-0.175198 -1.5640407,-0.487398 z"
             id="path480"
             style="fill:#ffffff;stroke-width:0.5;stroke-dasharray:none" />
        </g>
      </g>
    </g>
  </g>
</svg>
