<?xml version="1.0" encoding="UTF-8" standalone="no"?>
<svg
   version="1.0"
   width="206"
   height="250"
   preserveAspectRatio="xMidYMid"
   id="svg2333"
   sodipodi:docname="herz.svg"
   inkscape:version="1.2.2 (b0a8486541, 2022-12-01)"
   xmlns:inkscape="http://www.inkscape.org/namespaces/inkscape"
   xmlns:sodipodi="http://sodipodi.sourceforge.net/DTD/sodipodi-0.dtd"
   xmlns="http://www.w3.org/2000/svg"
   xmlns:svg="http://www.w3.org/2000/svg">
  <defs
     id="defs2337" />
  <sodipodi:namedview
     id="namedview2335"
     pagecolor="#ffffff"
     bordercolor="#666666"
     borderopacity="1.0"
     inkscape:showpageshadow="2"
     inkscape:pageopacity="0.0"
     inkscape:pagecheckerboard="0"
     inkscape:deskcolor="#d1d1d1"
     showgrid="false"
     inkscape:zoom="4.3531262"
     inkscape:cx="75.577869"
     inkscape:cy="119.6841"
     inkscape:window-width="1854"
     inkscape:window-height="1011"
     inkscape:window-x="0"
     inkscape:window-y="0"
     inkscape:window-maximized="1"
     inkscape:current-layer="svg2333"
     showguides="false" />
  <path
     style="fill:#df0000;stroke:#000000;stroke-width:2.5;stroke-dasharray:none;stroke-linecap:round"
     d="M 102.64353,222.23275 Q 76.165338,181.40208 40.861088,152.23732 8.4988576,124.53079 8.4988576,85.158354 q 0,-46.663625 50.0143554,-46.663625 23.536167,0 44.130317,20.415336 20.59414,-20.415336 44.13031,-20.415336 50.01436,0 50.01436,46.663625 0,39.372436 -32.36223,67.078966 -35.30426,29.16476 -61.78244,69.99543"
     id="path2329" />
  <path
     style="stroke:#000000;stroke-width:2;stroke-linecap:butt;stroke-dasharray:none"
     d="M 102.644,58.815336 V 222.13802 M 108.52804,53.565678 V 213.38859 M 114.41208,49.190963 V 204.63916 M 120.29612,46.274486 V 197.93127 M 126.18016,43.649657 V 190.93172 M 132.06421,41.316476 V 184.22383 M 137.94825,39.858238 V 177.22428 M 143.83229,38.4 V 170.80804 M 149.71633,38.4 V 164.68344 M 155.60037,38.4 V 159.14213 M 161.48441,39.274943 V 153.60082 M 167.36846,40.441533 V 148.64281 M 173.2525,42.774715 V 143.39316 m 5.88404,-97.118674 v 90.410774 m 5.88404,-86.036059 v 79.036519 m 5.88404,-70.870384 v 58.329534"
     id="path2331" />
</svg>
