<?xml version="1.0" encoding="UTF-8" standalone="no"?>
<!-- Created with Inkscape (http://www.inkscape.org/) -->
<svg xmlns:dc="http://purl.org/dc/elements/1.1/" xmlns:cc="http://creativecommons.org/ns#" xmlns:rdf="http://www.w3.org/1999/02/22-rdf-syntax-ns#" xmlns:svg="http://www.w3.org/2000/svg" xmlns="http://www.w3.org/2000/svg" xmlns:sodipodi="http://sodipodi.sourceforge.net/DTD/sodipodi-0.dtd" xmlns:inkscape="http://www.inkscape.org/namespaces/inkscape" width="205.54066" height="249.841" id="svg2" version="1.1" inkscape:version="0.46" sodipodi:docname="Bay_laub.svg" sodipodi:version="0.32" inkscape:output_extension="org.inkscape.output.svg.inkscape">
  <defs id="defs4">
    <inkscape:perspective sodipodi:type="inkscape:persp3d" inkscape:vp_x="0 : 526.18109 : 1" inkscape:vp_y="0 : 1000 : 0" inkscape:vp_z="744.09448 : 526.18109 : 1" inkscape:persp3d-origin="372.04724 : 350.78739 : 1" id="perspective10"/>
    <inkscape:perspective id="perspective2824" inkscape:persp3d-origin="0.5 : 0.33333333 : 1" inkscape:vp_z="1 : 0.5 : 1" inkscape:vp_y="0 : 1000 : 0" inkscape:vp_x="0 : 0.5 : 1" sodipodi:type="inkscape:persp3d"/>
    <inkscape:perspective sodipodi:type="inkscape:persp3d" inkscape:vp_x="0 : 0.5 : 1" inkscape:vp_y="0 : 1000 : 0" inkscape:vp_z="1 : 0.5 : 1" inkscape:persp3d-origin="0.5 : 0.33333333 : 1" id="perspective2866"/>
    <inkscape:perspective sodipodi:type="inkscape:persp3d" inkscape:vp_x="0 : 0.5 : 1" inkscape:vp_y="0 : 1000 : 0" inkscape:vp_z="1 : 0.5 : 1" inkscape:persp3d-origin="0.5 : 0.33333333 : 1" id="perspective2824-0"/>
    <inkscape:perspective id="perspective10-4" inkscape:persp3d-origin="372.04724 : 350.78739 : 1" inkscape:vp_z="744.09448 : 526.18109 : 1" inkscape:vp_y="0 : 1000 : 0" inkscape:vp_x="0 : 526.18109 : 1" sodipodi:type="inkscape:persp3d"/>
  </defs>
  <sodipodi:namedview id="base" pagecolor="#ffffff" bordercolor="#666666" borderopacity="1.0" inkscape:pageopacity="0.0" inkscape:pageshadow="2" inkscape:zoom="3.959798" inkscape:cx="107.75223" inkscape:cy="198.38375" inkscape:document-units="px" inkscape:current-layer="layer1" showgrid="false" inkscape:window-width="1264" inkscape:window-height="764" inkscape:window-x="0" inkscape:window-y="0" inkscape:window-maximized="1"/>
  <metadata id="metadata7">
    <rdf:RDF>
      <cc:Work rdf:about="">
        <dc:format>image/svg+xml</dc:format>
        <dc:type rdf:resource="http://purl.org/dc/dcmitype/StillImage"/>
        <dc:title/>
      </cc:Work>
    </rdf:RDF>
  </metadata>
  <g inkscape:label="Livello 1" inkscape:groupmode="layer" id="layer1" transform="translate(-206.89036,-458.96875)">
    <g id="g2830" transform="translate(96.469568,64.144687)">
      <g transform="matrix(-1,0,0,1,709.57266,-282.64807)" id="layer1-8" inkscape:label="Livello 1">
        <path style="opacity:0.98999999;fill:#955135;fill-opacity:1;stroke:none" d="M 494.625,874.9375 C 492.9265,885.2217 485.69595,893.91232 480.73872,902.84004 C 475.85953,909.02105 472.32602,919.07076 478.78125,925.46875 C 483.65576,929.64766 490.40932,925.44401 492.43919,920.33061 C 499.78456,910.12683 504.9231,898.69749 509.84375,887.3125 C 512.60018,884.06818 513.72903,877.57838 508.10208,876.59109 C 504.09106,874.39497 499.56224,872.76522 494.875,873.1875 L 494.73358,874.17745 L 494.625,874.9375 z" id="path3199"/>
        <path id="path3187" d="M 498.28125,678.46875 C 494.33964,680.9408 496.86203,687.16974 496.29013,691.27998 C 496.91946,709.62014 496.53497,727.99662 497.8125,746.3125 C 500.12167,749.3364 504.30736,748.25616 507.5,748.375 C 503.54662,747.87871 497.47005,748.4697 498,753.84375 C 497.46994,767.84581 497.69894,781.93707 498.625,795.9375 C 497.72038,795.9315 497.16182,805.00915 497.6875,809.53125 C 497.7708,822.17682 497.87521,835.35151 499.12337,847.61695 C 498.50165,855.70682 497.60229,864.72934 499.21877,872.28125 C 507.63453,878.35256 516.40733,884.26894 525.40627,889.40625 C 536.77926,893.38506 549.45343,891.70729 561.06252,889.53125 C 571.34316,886.52965 581.77928,881.53113 588.56252,873.1875 C 594.38097,862.30812 598.14812,849.86664 598.37502,837.4375 C 597.48221,824.25666 592.40241,811.78238 590.53127,798.78125 C 587.11944,785.76823 577.57698,775.27832 574.83955,762.10594 C 569.70847,750.55591 563.34843,739.22187 562.7687,726.22826 C 561.97488,719.82311 560.96494,713.45667 559.18752,707.25 C 555.60577,710.39526 549.77303,715.53986 545.40627,710.625 C 539.76282,706.56189 539.14129,697.28353 532.09377,695.15625 C 527.58378,694.57389 522.96599,701.44172 519.08183,696.97735 C 512.20439,691.11846 506.54142,683.70329 499.25002,678.21875 L 498.28174,678.46863 L 498.28127,678.46875 L 498.28125,678.46875 z M 544.96875,747.3125 C 543.63412,748.33973 544.97775,746.24899 544.96875,747.3125 z M 521.5625,794.125 C 522.10449,796.22541 521.69437,796.50196 519.65625,795.6875 C 520.18025,795.30899 521.26806,794.19045 521.5625,794.125 z" style="opacity:0.98999999;fill:#f9fd0a;fill-opacity:1;stroke:none" sodipodi:nodetypes="ccccccccccccccccccccccccccccc"/>
        <path id="path3189" d="M 494.1875,680.40625 C 484.88888,687.04648 477.39392,697.0548 467.09375,701.84375 C 464.04354,696.14526 455.6965,697.66902 452.8125,702.75 C 448.36563,706.77659 446.52003,713.29229 441.84375,716.71875 C 436.29108,717.91087 431.33302,709.7022 426.15625,713.5625 C 423.22366,718.44133 426.31538,724.72539 425.65625,730.125 C 426.46091,738.80575 423.46635,747.18353 418,753.84375 C 413.36626,764.82058 411.04986,776.84663 405.5,787.5 C 399.76767,798.4512 394.81878,809.97586 394.33961,822.46395 C 392.43271,835.4978 392.66793,849.0819 398.39961,861.17968 C 402.77813,871.13013 413.13731,876.49849 420.3125,884.34375 C 435.98602,894.76863 457.88657,896.30655 474.09375,886.125 C 481.87598,881.18634 490.84942,877.33296 497.21875,870.5625 C 501.78853,863.60481 500.67069,854.51149 499.46875,846.78125 C 497.21317,845.03575 501.23596,843.5783 499.8125,840.78125 C 499.7629,826.26759 499.25197,811.51985 497.21875,797.21875 C 494.79361,795.64948 496.80123,795.25443 497.46875,793.28125 C 499.38568,779.62766 498.95738,765.59607 498.1875,751.90625 C 498.95949,748.30785 490.67051,749.72523 494.21875,749 C 498.02868,748.64902 499.56688,746.22036 498.15625,742.5 C 497.24935,721.24 497.54074,699.93503 497.15625,678.65625 C 496.16667,679.23958 495.17708,679.82292 494.1875,680.40625 z M 483.84375,747.375 C 485.09902,748.53936 490.05181,749.37174 485.71875,749 C 482.171,748.9757 483.19801,749.47852 483.84375,747.375 z M 459.1875,747.75 C 461.81242,748.90256 464.06391,749.29189 459.53125,749.0625 C 459.7476,748.93334 457.72697,746.71991 459.1875,747.75 z" style="opacity:0.98999999;fill:#25821c;fill-opacity:1;stroke:none" sodipodi:nodetypes="cccccccccccccccccccccccccccc"/>
        <path id="path2854" d="m 321.42857,521.6479 8.21429,-101.07143" style="opacity:0.98999999;fill:#0e080e;fill-opacity:1;stroke:none"/>
        <path id="path2856" d="m 330.71429,471.6479 -22.85715,-77.5" style="opacity:0.98999999;fill:#0e080e;fill-opacity:1;stroke:none"/>
        <g transform="translate(192.43406,-3.5355339)" id="g2922">
          <path style="fill:#1b2313;fill-opacity:1" d="M 102.21875,0 C 95.210214,2.41088 89.80332,11.76068 83.59375,17.15625 C 79.493214,22.267824 75.99944,21.31998 72.46875,19.75 C 72.522244,19.716094 72.54025,19.64577 72.53125,19.53125 C 71.825644,18.715504 70.89366,18.13013 70.0625,17.4375 C 69.215854,16.855204 68.4252,16.07074 67.40625,15.8125 C 66.874214,15.7951 66.53251,16.33349 66.1875,16.65625 C 65.647644,17.225364 65.86406,17.466 65.0625,17.375 C 55.577874,33.019594 50.62254,41.20623 42.0625,29.9375 C 41.26348,29.502794 40.3974,29.03894 39.46875,28.9375 C 38.42102,29.572494 38.52491,29.71382 38.1875,31.46875 C 37.12014,38.239914 36.64787,47.65708 34.8125,55.875 C 33.57177,69.426164 24.09993,78.2263 21.46875,90.75 C 20.99924,91.773248 20.01204,95.57819 19.1875,99.0625 C 19.0603,99.231688 18.90456,99.39148 18.78125,99.5625 C 18.4894,100.06622 18.21354,100.56478 17.96875,101.09375 C 14.82225,109.25547 7.20135,116.03564 7.65625,127.34375 C 5.4253993,136.6996 1.69432,149.07818 0.4375,155.375 C -1.32219,169.34156 2.55392,183.14466 9.5625,195.15625 C 12.45572,201.39419 18.37256,202.25287 23.4375,207.1875 C 34.55085,211.50905 41.64386,213.3258 52.5625,214.4375 C 62.11716,214.5167 71.51823,216.74071 78.8125,209.5 C 78.936684,209.31072 79.06191,209.14489 79.1875,208.96875 C 79.442534,208.82209 79.70046,208.67707 79.9375,208.5 C 80.357574,208.20118 80.80136,207.94232 81.25,207.6875 C 81.711574,207.40904 82.15789,207.0821 82.625,206.8125 C 83.179644,206.446 83.72717,206.0549 84.28125,205.6875 C 84.717994,205.4628 85.14814,205.21942 85.625,205.09375 C 86.553014,205.17235 87.55459,205.76607 88.46875,206.5 C 88.716254,206.89151 88.96299,207.27121 89.21875,207.65625 C 89.910164,209.38527 90.19585,211.26712 91.1875,212.875 C 91.647274,213.65227 92.19578,214.3855 92.40625,215.28125 C 92.680164,216.31222 93.12561,217.28409 93.6875,218.1875 C 94.217204,219.33524 94.54838,220.61795 95.4375,221.5625 C 95.904664,222.22569 96.33371,222.94594 96.59375,223.71875 C 98.434764,228.28743 102.48111,236.66864 105.1875,238.71875 C 105.39272,238.9646 105.55372,239.21988 105.65625,239.40625 C 106.93753,240.58714 107.21718,242.22885 107.5625,243.84375 C 108.01268,244.44712 108.53068,245.0159 109.0625,245.5625 C 109.30668,245.85077 109.41357,246.35415 109.875,246.34375 C 110.31892,246.77957 110.75732,247.21618 111.1875,247.65625 C 111.3547,247.88156 111.6183,248.10413 111.90625,248.28125 C 111.91825,248.28825 111.9253,248.3056 111.9375,248.3125 C 112.4491,249.58208 117.61166,251.24558 119.625,247.75 C 119.86333,247.8274 120.11487,247.742 120.28125,247.3125 C 121.01668,245.91413 121.92711,244.65494 122.96875,243.46875 C 123.5128,242.7912 123.73575,241.7508 123.5,240.90625 C 123.5393,239.00921 123.25866,236.13032 122.40625,233.6875 C 122.08199,229.21488 120.92594,228.09631 121.78125,229.125 C 125.16565,227.25837 124.27436,225.84913 128.71875,225.5625 C 130.48984,223.52969 132.58076,222.71032 134.46875,224.25 C 137.50125,226.42959 138.24367,230.31179 139.9375,233.40625 C 141.51043,235.92119 143.86106,232.95146 145,231.53125 C 148.11148,227.69748 150.97976,222.9492 156.03125,221.5 C 161.67861,219.95748 167.5996,226.37749 165.46875,231.875 C 164.27406,235.04152 160.09928,235.85458 157.28125,234.53125 C 154.97689,232.97087 156.38081,229.88437 157.125,227.84375 C 157.61441,226.88412 158.74653,223.24054 156.59375,225.125 C 154.33955,226.93523 151.87688,229.50241 152.5,232.65625 C 153.31024,236.77935 158.09888,238.81031 161.9375,238.0625 C 165.24843,237.67242 168.56074,235.29378 168.90625,231.78125 C 169.46673,226.45848 165.59649,221.74283 161.28125,219.125 C 158.96439,217.60996 155.83701,216.37101 153.28125,218.09375 C 149.16304,220.67565 147.11402,225.47157 143.125,228.1875 C 141.05614,229.39243 139.4581,226.90702 138.46875,225.4375 C 137.06159,223.26018 135.20763,220.38753 132.21875,220.75 C 128.11305,221.25883 125.05243,225.50761 120.6875,224.6875 C 117.37108,223.8071 115.76817,220.54609 113.4375,218.3125 C 111.3288,214.45441 109.41413,210.47801 106.875,206.875 C 106.87,206.868 106.88,206.85065 106.875,206.84375 C 106.875,206.84375 106.23123,205.17272 105.4375,203.28125 C 105.01288,202.04206 104.36834,199.83914 103.9375,199.96875 C 103.93789,199.95705 103.93762,199.9505 103.9375,199.9375 C 104.08121,199.70071 104.33755,199.53925 104.75,199.53125 C 107.78414,199.47546 117.57852,205.18294 126,209.625 C 138.46561,218.23725 153.93409,214.7187 168,214.375 C 185.06388,205.13141 201.15152,190.53548 205.1875,170.78125 C 205.2739,170.14335 205.34925,169.65917 205.40625,169.15625 L 205.46875,169.21875 C 205.46939,168.94471 205.46675,169.08074 205.46875,168.8125 L 205.46875,168.5625 C 205.77335,164.32326 205.15844,159.98625 205.46875,155.71875 C 205.46796,155.20473 205.114,154.70143 205.125,154.1875 L 204.875,153.75 C 204.9074,150.97871 204.50526,141.46149 203.09375,136.78125 C 202.42217,126.75133 193.93335,111.18161 188.4375,98.90625 C 188.3434,98.594145 188.24195,98.2828 188.15625,97.96875 C 188.15325,97.945365 188.15925,97.92995 188.15625,97.90625 C 187.66317,94.401515 185.65092,87.57747 183.75,85.90625 C 182.98873,83.886225 183.44673,81.51612 182.1875,79.5625 C 182.1124,79.215625 181.96668,78.76618 181.6875,78.0625 C 171.97288,67.602135 173.3907,53.95643 173.3125,40.8125 C 174.64579,31.753925 170.55877,33.94483 164.75,37.78125 C 151.33493,44.173495 149.68725,23.07978 140.15625,19.4375 C 138.29799,19.340495 139.64282,18.63807 137.71875,19.8125 C 135.9308,20.835465 133.8593,22.00489 132.875,24.09375 C 132.46639,24.051845 132.00198,24.1236 131.625,24.0625 C 131.06737,23.955065 130.80865,24.24195 130.78125,24.65625 C 130.43958,24.525085 130.10978,24.37392 129.8125,24.21875 C 128.68409,23.526105 127.93061,22.38639 126.90625,21.5625 C 126.71846,21.676505 125.90801,20.91209 124.59375,19.9375 C 118.72632,14.749085 109.28827,5.31031 102.21875,0 z M 101.125,2.03125 C 97.913689,15.693087 104.66384,60.522772 98.8125,70.28125 C 96.378184,70.142763 92.49248,70.26285 91.5,70.34375 C 90.277748,70.643418 89.62259,68.70463 88.78125,67.90625 C 86.568938,66.652628 85.722392,64.22224 83.4375,63.21875 C 81.838221,61.522804 79.678735,59.512294 77.78125,58.0625 C 77.115444,57.083294 76.30333,56.22481 75.625,55.25 C 75.139314,54.375114 74.49719,55.91966 73.9375,56.21875 C 74.970624,57.582584 76.15426,58.85387 76.90625,60.40625 C 78.248654,62.745094 80.39082,64.52479 82.75,65.78125 C 84.262742,67.040048 85.899173,68.131772 87.46875,69.3125 C 87.932579,69.862487 88.244079,70.296325 88.34375,70.53125 C 87.947721,70.530737 87.554749,70.529633 87.15625,70.53125 C 87.062344,70.532158 86.9689,70.53067 86.875,70.53125 C 83.836416,69.753776 80.606529,69.629055 77.3125,69.71875 C 77.363723,69.14515 77.418028,68.571786 77.46875,68 C 74.550146,64.80643 72.15369,61.2047 69.90625,57.53125 C 69.534646,57.27004 69.42704,56.82779 69.25,56.4375 C 69.104166,57.72917 68.95833,59.02083 68.8125,60.3125 C 70.913086,63.53594 72.84056,66.90961 75.4375,69.78125 C 75.426536,69.791015 75.417189,69.802717 75.40625,69.8125 C 72.857425,69.936134 70.287971,70.115028 67.78125,70.21875 C 66.842806,66.068743 63.549079,62.609832 60.4375,59.8125 C 59.682311,59.27497 59.21659,58.44637 58.59375,57.78125 C 58.621302,59.61199 57.46461,61.85912 59.5625,63 C 61.473789,64.676397 65.756662,68.613589 65.40625,70.28125 C 62.293974,70.27033 60.94657,69.468593 57.8125,69.46875 C 57.760355,69.468796 57.708312,69.468867 57.65625,69.46875 C 57.004839,69.294802 56.371457,69.090949 55.75,68.84375 C 55.672631,67.069301 51.851909,64.501712 50.375,63.34375 C 47.432229,64.073331 49.667972,66.013033 51.625,67.6875 L 51.71875,67.96875 C 52.255251,68.507304 52.833148,68.981077 53.4375,69.40625 C 53.452993,69.427537 53.454155,69.447606 53.46875,69.46875 C 50.241471,70.018521 44.350366,66.860306 43.125,69.90625 C 41.598051,73.548481 51.36224,70.63559 51.3125,72.34375 C 48.880169,73.210525 47.99247,76.48762 48.0625,78.4375 C 51.204721,76.193741 53.61444,71.10003 58,72.59375 C 60.307029,72.713095 64.39964,73.95656 60.3125,75.71875 C 58.276101,77.312904 55.39793,78.62218 56.46875,81.625 C 57.17983,83.770695 61.56205,76.55079 63.65625,76.125 C 66.431083,72.86374 69.610191,72.293257 73.1875,72.15625 C 72.083999,73.526392 71.155698,75.044289 70.46875,76.6875 C 69.647564,78.159822 68.27131,79.45926 68.875,81.25 C 69.013725,82.323139 68.92365,84.39254 69.84375,82.15625 C 71.646343,79.789507 72.28433,76.64653 74.71875,74.75 C 75.365142,73.746929 76.576756,73.0656 77.03125,72.15625 C 79.822294,72.426427 85.343943,72.50607 86.75,73.75 C 84.250719,77.429343 79.79608,80.86819 76.15625,83.25 C 76.478058,84.65443 75.59482,88.57464 77.875,85.96875 C 81.530098,83.8487 84.64153,80.0814 87.15625,76.6875 C 88.705088,72.598716 92.27113,74.18981 95.96875,74.4375 C 96.743412,74.379028 98.036632,73.786218 98.8125,73.75 C 101.07373,83.956452 98.497796,108.07939 99.15625,116.65625 C 95.391423,117.1306 90.957626,117.25381 89.8125,113.1875 C 88.286064,110.72166 84.5734,103.63072 82.8125,104.71875 C 81.394351,108.61957 87.23135,110.72867 88.40625,114.03125 C 92.5907,119.03634 80.957,116.64718 78.0625,117.03125 C 77.648502,113.71934 64.505112,100.29318 67.59375,104.3125 C 67.674424,105.86569 71.535419,111.27079 73.34375,111.46875 C 74.246616,112.17425 74.677465,115.71437 75.3125,116.5625 C 73.247385,117.2078 69.745507,117.35249 66.40625,117.125 C 66.718825,115.85577 65.92525,114.88141 65.125,113.90625 C 63.221121,111.59871 62.19689,108.77573 60.71875,106.21875 C 60.224521,105.13506 58.5813,103.83189 58.0625,102.75893 C 57.91667,104.0506 59.02083,105.52083 58.875,106.8125 C 60.07819,109.80109 61.57996,112.64369 63.125,115.46875 C 63.72995,115.93846 64.005594,116.41667 64.09375,116.90625 C 61.646475,116.6047 59.528276,116.09874 58.46875,115.46875 C 54.813327,112.60923 52.43154,105.24823 48,104.71875 C 46.825791,108.24253 50.73502,108.90947 53.125,110.65625 C 53.840426,112.74333 58.50817,117.18715 53.1875,115.8125 C 48.278001,115.63689 42.03732,116.64975 40.3125,110.84375 C 38.320799,109.17755 35.45018,103.33646 36.0625,108.8125 C 36.342731,111.41214 44.94693,117.27969 37.9375,115.875 C 34.334998,114.6956 32.582351,115.78657 29.65625,114.875 C 27.741775,115.38734 27.505438,115.13063 28.21875,117 C 28.23451,120.55551 41.40372,115.35847 39.0625,118.5625 C 37.200793,121.51574 33.256286,122.53006 32.6875,125.4375 C 33.394195,127.27822 39.35349,122.83715 40.625,120.8125 C 41.094522,119.38103 42.178007,118.06347 43.3125,117.6875 C 44.240952,117.74048 45.617762,118.68197 46.21875,118.6875 C 46.992831,118.58687 47.758507,118.50435 48.53125,118.4375 C 50.759441,118.69679 53.05856,119.13845 54.875,118.8125 C 56.718449,120.14549 50.11487,123.24812 48.8125,125.3125 C 49.068659,127.30791 46.23598,131.06134 48.6875,127.8125 C 52.5743,126.38664 56.75859,120.59771 59.125,118.375 C 60.342278,118.50733 61.938762,118.71913 63.59375,118.875 C 63.006987,119.89591 62.105695,120.92158 61.6875,121.9375 C 60.765331,123.84897 58.84821,125.43135 58.46875,127.5 C 58.589688,128.64424 58.72281,129.79326 58.84375,130.9375 C 60.78461,127.69184 62.9356,124.56175 64.78125,121.25 C 65.542442,121.03439 65.324857,119.733 65.25,119.03125 C 65.387278,119.03959 65.519865,119.02446 65.65625,119.03125 C 66.011681,119.82114 66.132333,119.55348 66.1875,119.03125 C 66.674608,119.04739 67.167264,119.07443 67.625,119.0625 C 68.975213,119.20151 70.339839,119.35403 71.5625,119.46875 C 72.004866,119.39605 72.438667,119.34097 72.875,119.28125 C 73.578361,119.40251 74.181584,119.55498 74.65625,119.8125 C 72.972808,122.79694 68.97783,124.9942 70.21875,128.8125 C 72.161481,128.78628 75.59256,121.19043 77.90625,118.84375 C 79.620393,119.5575 88.65376,118.14382 89.71875,120 C 89.249423,123.96929 83.172,125.84598 83.96875,129.8125 C 83.712889,133.86366 88.28149,126.56224 89,125.03125 C 90.01927,121.42746 92.525715,120.34385 95.34375,120.125 C 96.78129,120.29638 98.192647,120.45712 99.5,120.53125 C 99.943389,132.7808 99.98104,154.31971 98.5625,167.125 C 97.06437,167.35857 95.285245,167.41828 93.375,167.375 C 93.161376,165.21985 90.474906,162.00076 89.28125,159.6875 C 87.704606,157.04481 86.25249,154.27965 84.3125,151.875 C 84.064786,156.45125 88.07023,160.34245 89.4375,164.71875 C 90.456286,165.69013 92.027539,166.20494 92.21875,167.3125 C 89.030955,167.18823 85.549943,166.88669 82.21875,166.75 C 79.986326,163.92444 74.705298,162.17799 73.46875,158.375 C 72.306146,155.98555 71.03847,153.50923 70.6875,150.84375 C 69.876536,154.90058 72.45256,159.02789 74.65625,162.21875 C 75.772349,163.94518 78.121767,165.32568 79.65625,166.6875 C 76.169612,166.6645 72.815569,167.16942 69.3125,167.125 C 69.233693,166.11828 68.838636,165.07768 68.0625,164.0625 C 65.818785,158.87016 61.58006,154.91962 58.5625,150.1875 C 58.216444,154.80345 63.59116,157.85745 65.59375,161.75 C 66.887732,163.65286 68.007289,165.42376 68.1875,167.09375 C 67.269946,167.04345 58.616142,165.69981 54.59375,165.9375 C 51.225666,163.39134 52.416871,161.81885 47.09375,154.34375 C 40.813428,146.18317 41.64154,150.29153 45.25,154.78125 C 49.603986,160.33103 50.9104,164.4458 50.65625,166 C 41.78107,165.60067 45.940059,165.67638 38.46875,166 C 34.234796,164.50484 34.909403,154.04951 30.875,151.1875 L 30.53125,150.9375 C 30.35961,155.39001 33.11092,159.93363 34.5625,164.15625 C 35.337848,166.1005 30.226231,165.21648 28.375,164.96875 C 28.42348,161.45558 24.53809,154.32158 22.40625,151.59375 C 21.799881,155.35655 26.581883,160.48785 26.78125,163.96875 C 26.385454,163.8862 25.642679,163.41458 25.25,163.3125 C 22.807396,163.39422 20.695265,163.11959 21.46875,163.21875 C 14.643148,163.41878 11.445712,160.83717 14.1875,164.71875 C 15.735049,165.65907 23.779735,165.28687 25.34375,166.21875 C 23.532847,169.01115 18.365938,172.47968 19.96875,174.4375 C 21.552588,172.10861 25.368915,169.67106 26.71875,167.03125 C 27.58675,167.58445 31.647873,166.55556 32.4375,167.21875 C 35.054826,167.47012 35.10093,165.7901 35.71875,168.625 C 34.303514,170.15789 27.28941,178.96874 30.21875,178.03125 C 34.1806,175.0524 36.5294,167.48055 41.8125,168.1875 C 43.779925,168.92049 46.206523,167.75981 48.40625,168.53125 C 48.948163,168.92598 51.605308,167.96859 52.0625,168.5 C 52.05303,169.1687 50.676408,169.86746 49.03125,171.09375 C 47.098551,173.62585 42.13447,177.57606 43.46875,180.34375 C 46.463199,176.48464 51.116373,172.36747 53.875,168.4375 C 64.562559,168.16882 64.383752,169.25505 67.84375,169.25 C 67.466868,170.00577 66.783341,170.74034 65.75,171.46875 C 64.692234,175.88524 59.53683,178.57083 59.15625,182.875 C 61.059455,181.80156 64.79222,176.2313 66.3125,172.75 C 67.607674,171.72736 68.53922,170.50969 69,169.21875 C 72.436394,169.1012 75.769078,168.7154 79.1875,168.71875 C 79.657283,168.71575 80.12396,168.71575 80.59375,168.71875 C 80.744442,168.72048 80.907924,168.74682 81.0625,168.75 C 81.200906,169.65178 80.605889,170.59725 78.71875,171.6875 C 76.64216,175.56444 71.15746,178.61184 71.71875,183.375 C 75.020686,178.45587 78.37344,173.15083 83.21875,169.65625 C 83.232143,169.43883 83.238723,169.23571 83.21875,169.03125 C 83.228857,169.03323 83.239869,169.02927 83.25,169.03125 C 84.001683,169.21275 84.75715,169.27275 85.53125,169.21875 C 86.632163,169.21275 87.71157,169.23075 88.8125,169.21875 C 89.614473,169.22175 90.41681,169.255 91.21875,169.25 C 91.728019,169.2497 91.842579,169.25082 92.25,169.25 C 91.810089,172.98764 87.955212,176.07675 87.75,179.8125 C 86.706669,181.48666 83.09355,190.24419 87.1875,185.96875 C 90.190085,180.87516 91.923627,174.95485 93.8125,169.4375 C 95.636758,169.43254 96.088791,169.23494 98.15625,169.25 C 98.282703,176.20555 100.19688,186.82246 98.46875,193.875 C 89.600673,200.34615 89.22825,199.72879 80.875,205.125 C 73.719553,212.33261 65.61988,212.33949 55.78125,212.5625 C 45.633699,212.12054 33.30439,210.2841 24.28125,204.4375 C 19.401011,200.94018 13.29613,198.83971 10.6875,192.53125 C 6.6055094,183.00466 3.62321,173.49371 2.4375,163.0625 C 1.8606494,154.5723 4.75665,147.7686 6.5625,140 C 7.8813494,137.6638 9.58887,125.79816 10.6875,119.625 C 12.48154,114.46538 14.70333,109.72548 16.71875,107.9375 C 16.935631,107.36024 17.07448,106.77669 17.40625,106.25 C 17.812451,105.12085 17.85153,105.04731 18.03125,104.53125 C 18.098451,104.46955 18.39949,103.83719 19.15625,102.0625 C 23.413351,97.153917 24.42704,90.47706 25.84375,84.53125 C 29.397171,77.282887 34.61955,69.4998 36,61.71875 C 38.801649,51.916083 38.32139,41.89501 41.15625,32.6875 C 50.982019,43.983013 58.30122,32.09499 62.96875,23.40625 C 67.883629,12.959395 74.08652,26.95851 79.875,22.3125 C 87.523613,16.204265 93.23277,7.82303 101.125,2.03125 z M 103.46875,3.78125 C 111.63535,10.19293 118.4693,18.23248 127.125,24.03125 C 127.0911,23.936244 127.01365,23.8208 126.96875,23.71875 C 127.6431,24.375844 128.335,25.02368 129,25.6875 C 129.99371,26.396954 131.2877,27.04829 132.53125,26.78125 C 133.3867,26.599694 133.99797,25.77566 133.6875,24.90625 C 133.6855,24.868744 133.66025,24.8469 133.65625,24.8125 C 135.32356,23.087435 136.91936,22.3493 138.4375,22.3125 C 144.0918,22.175295 148.74916,31.82088 152.75,36.9375 C 157.66196,48.733145 168.09651,33.57767 172.21875,37.4375 C 172.60117,47.819445 169.04267,59.68328 174.375,69.03125 C 174.81197,70.418865 178.6582,76.40945 180.8125,79 C 180.79339,80.410035 180.7508,81.81874 181.34375,83.125 C 181.52915,83.307895 181.68224,83.53762 181.8125,83.75 C 182.0011,84.265415 182.2285,84.76548 182.46875,85.28125 C 182.48874,85.344265 182.51125,85.40585 182.53125,85.46875 C 182.54144,85.490365 182.5521,85.50965 182.5625,85.53125 C 182.6298,85.741965 182.70415,85.95122 182.78125,86.15625 C 182.77825,86.301535 182.77225,86.44561 182.78125,86.59375 C 182.82595,86.955855 182.89711,87.3289 183.125,87.625 C 183.3662,87.909765 183.55586,87.99745 183.6875,87.96875 C 183.91465,90.663565 184.94432,93.32606 185.71875,95.875 C 186.36773,97.441895 186.33275,98.50261 186.71875,99.15625 C 187.86897,102.45354 188.57208,101.37722 189.40625,105 C 189.52947,105.53519 190.13632,108.3984 190.78125,108.375 C 194.97435,118.23657 201.96415,127.89412 202.03125,138.65625 C 202.32963,140.99177 202.65135,141.61237 203.09375,145.0625 C 203.12995,145.34471 202.8428,146.13695 203.125,145.90625 C 203.1367,145.91426 203.14435,145.9295 203.15625,145.9375 C 203.11045,147.15223 203.44252,148.51338 203.3125,149.46875 C 203.3986,152.38488 203.63725,153.92171 203.90625,154.59375 C 203.90525,155.02509 203.90725,155.44366 203.90625,155.875 L 203.90625,167.6875 C 203.90825,167.95782 203.90525,167.81839 203.90625,168.09375 L 204.15625,168.25 C 202.81024,171.81214 200.85968,178.29633 199.90625,180.65625 C 197.42897,192.96621 184.73583,195.80396 178.3125,205.4375 C 167.32339,212.28846 153.28897,215.21228 140.375,213.0625 C 128.71394,210.07649 118.55179,202.676 108.03125,196.125 C 97.273503,191.07725 101.48091,176.64798 101.15625,169.5 C 103.90849,169.18006 107.91734,169.08555 111.15625,169.0625 C 112.2874,173.17535 118.4008,176.38762 120.25,180.34375 C 121.43798,183.71974 124.26715,184.31096 122.03125,180.75 C 119.49898,176.66427 116.2144,173.18646 113.3125,169.375 C 113.92211,169.35043 114.45968,169.32444 114.78125,169.25 C 114.81265,169.25037 114.8436,169.24955 114.875,169.25 C 115.27821,169.253 115.69054,169.252 116.09375,169.25 C 118.50929,169.04131 120.85104,169.78689 123.1875,170.1875 C 123.55615,170.25832 123.91812,170.3153 124.28125,170.375 C 125.86069,172.15662 129.1027,175.31726 131.71875,176.65625 C 134.01799,178.65419 139.61402,182.56528 136,177.65625 C 133.9596,175.35415 128.48096,173.30545 126.1875,170.625 C 126.83016,170.67338 127.45931,170.67881 128.03125,170.625 C 137.46293,171.26855 135.32297,171.00077 134.3125,170.875 C 134.58019,170.89199 137.32087,170.99798 138.53125,171.09375 C 139.87989,173.51529 144.20962,175.95354 146.15625,178.25 C 147.95548,180.99718 153.24499,182.59053 149.40625,178.75 C 147.40142,176.53534 142.87109,174.17273 141.15625,171.4375 C 143.15483,171.59895 142.85024,171.55746 147.375,171.9375 C 149.51374,171.7921 150.66247,171.58399 152.625,171.4375 C 153.5526,173.00774 155.9985,175.49738 157.5,177.46875 C 159.16205,179.20099 163.98313,184.21876 161.53125,179.34375 C 159.89685,177.27977 154.83588,173.50735 155.0625,171.46875 C 157.43045,171.16447 159.63594,170.53138 161.59375,168.96875 C 164.96666,168.34255 167.48125,169.71503 170.5,173.03125 C 173.31505,174.12459 177.88748,180.82514 175.4375,174.78125 C 173.55946,172.56407 163.67457,167.74286 171.28125,168.0625 C 175.7944,167.34671 179.61388,165.55362 181,171.28125 C 181.66712,173.83185 186.82975,176.86944 184.375,173.125 C 182.10847,170.88873 178.96133,165.78073 185.46875,165.71875 C 189.91048,163.78325 180.50128,164.21055 178.96875,164.75 C 180.00181,162.75702 185.43395,154.3062 183,155.53125 C 179.58232,159.45257 179.48093,166.81092 173,165.96875 C 168.76208,166.76348 163.93994,167.38291 168.1875,162.3125 C 168.83855,159.52367 171.26166,156.99829 170.65625,154.09375 C 169.06221,156.47366 166.7282,162.40751 165.4375,165.1875 C 164.19349,165.7676 162.20034,165.94295 159.6875,167.8125 C 155.73569,169.05733 151.89381,170.11148 154.75,164.34375 C 154.63435,161.42463 159.26463,156.09772 157.4375,155.15625 C 154.7326,159.39643 152.41996,164.32029 151.21875,169.0625 C 147.13847,168.90957 145.69659,168.89034 141.59375,168.71875 C 144.12432,164.69019 145.8679,159.6102 145.875,154.75 C 143.49157,159.27309 141.85681,164.53203 139.21875,168.6875 C 137.00795,168.62094 134.80921,168.60569 132.59375,168.75 C 131.74703,169.1523 131.00936,168.6357 130.375,168.71875 C 130.57739,168.33344 129.09231,168.47995 127.71875,168.625 C 126.31119,167.17213 127.83038,165.3154 127.9375,164.625 C 129.68192,161.32896 130.63691,157.93731 129.96875,154.15625 C 129.33239,159.05255 126.11418,163.53419 124.21875,167.8125 C 121.77563,167.5197 117.80589,166.36048 116.09375,167.3125 C 115.69054,167.3105 115.27822,167.3095 114.875,167.3125 C 114.854,167.3128 114.8335,167.31224 114.8125,167.3125 C 114.40475,167.16006 113.22878,167.09309 111.8125,167.0625 C 112.67269,165.94827 114.96919,160.94829 115.84375,160.03125 C 116.89734,157.18969 119.29221,154.23034 118.4375,150.96875 C 115.63503,155.88048 112.96343,160.99178 111.15625,166.28125 C 111.20429,166.68798 111.26525,166.90721 111.34375,167.0625 C 107.86357,167.01129 102.95898,167.17782 101.4375,167.1875 C 99.834057,154.76756 103.09491,132.32047 103.3125,120.03125 C 105.01506,119.94425 109.03385,119.70558 110.45982,119.63393 C 110.62801,121.43875 111.7584,121.93396 112.88839,123.27679 C 114.98886,125.8028 116.9694,127.87929 118.50446,130.78125 C 120.95394,131.79904 121.6308,134.5244 121.39732,132.16964 C 121.46826,131.28995 122.25942,131.31719 120.72321,129.54464 C 118.49942,127.4062 117.05612,125.07029 115.09375,122.72768 C 114.33604,121.59315 114.41397,120.6318 113.45536,119.65625 C 115.25374,119.59049 117.81554,119.53468 120.01339,119.53125 C 124.87177,122.79378 131.17246,125.39027 133.88839,130.84821 C 136.09005,128.22614 134.6208,126.35701 132.5625,125.78125 C 131.46214,123.18137 126.31502,120.70841 125.94643,119.52232 C 130.94894,118.83807 136.00894,119.22691 138.90625,123.75 C 140.95752,124.12207 144.92329,132.90786 144.96875,128.71875 C 145.92964,125.04474 138.39974,121.90825 137.875,119.875 C 142.68767,120.67176 148.61109,117.10288 151.6875,121.46875 C 153.1282,123.04914 157.05726,130.65086 157.9375,129.375 C 159.12177,126.27683 155.12571,123.42977 153.6875,121 C 151.47251,118.08643 160.77812,120.45872 162.59375,119.1875 C 164.66458,120.89984 165.80956,123.76086 167.875,125.5 C 170.94305,128.17044 168.84314,126.32818 171.9375,127.96875 C 171.16067,124.97544 166.90551,121.29856 164.6875,119.1875 C 167.86487,119.34238 172.18004,119.969 175.03125,117.75 C 171.55386,116.2526 166.90848,117.1536 164.15625,117.25 C 161.37496,116.16821 169.21273,111.11108 169.46875,108.375 C 169.73823,104.01408 168.168,106.1982 166.125,108.65625 C 163.89741,114.37882 163.68629,117.64426 158.75,116.90625 C 158.50578,116.89848 158.21693,116.9015 157.9375,116.90625 C 156.30886,116.6925 154.60264,116.65129 152.875,116.6875 C 153.05954,115.83002 152.32451,114.54406 152.90625,113.875 C 154.82985,110.97991 159.67495,108.55592 158.5625,104.71875 C 157.67605,103.19552 154.28969,111.11168 151.78125,112.5625 C 149.9818,113.47465 149.95233,115.35484 149.375,116.375 C 145.88853,115.52992 142.21362,115.86812 138.65625,115.90625 C 138.16649,115.91675 140.7175,117.52532 138.08482,115.91518 C 139.85838,112.04934 145.03739,104.43412 144.07589,103.66071 C 143.84019,102.40667 137.84759,109.62256 135.86607,115.75 C 132.55522,116.69362 127.94016,115.15211 124.70089,116.15625 C 123.2875,113.43671 125.64854,110.6483 127.83482,108.20089 C 129.86303,105.98479 133.76801,105.87333 132.50446,102.36607 C 127.07915,104.89834 124.70779,110.10227 121.67411,115.78571 C 120.88583,118.34493 115.77815,117.55961 112.64732,117.3125 C 113.6241,115.30759 114.38717,113.99271 115,111.83929 C 115.54785,109.65561 118.62219,107.08917 118.85714,104.89732 C 118.71398,103.78784 118.5628,103.02019 118.41964,101.91071 C 117.13127,105.09288 113.59679,107.76016 112.47321,111 C 111.569,113.03906 110.67692,114.82055 110.23661,117.00893 C 109.08021,116.95684 105.84946,117.17218 104.96875,117.4375 C 102.86948,119.38206 103.993,116.14675 103.65625,116.15625 C 101.12031,105.45171 101.80456,84.066765 102.46875,73.84375 C 103.53811,73.767632 104.40935,72.797044 105.46875,72.75 C 108.88346,72.756098 112.49634,73.710347 115.90625,73.625 C 115.85312,77.39451 120.0175,79.2217 122.03125,82.1875 C 124.03194,84.68105 125.344,85.20548 125.0625,81.8125 C 123.70783,78.780281 119.55026,76.645015 117.96875,73.3125 C 119.9212,73.254947 122.09966,73.177802 124.4375,73.0625 C 125.04106,73.085974 125.65056,73.139006 126.25,73.15625 C 126.6231,73.201165 127.00247,73.217528 127.375,73.25 C 127.98953,74.260033 129.59201,75.77156 130.15625,76.96875 C 131.72487,79.38381 133.53228,81.63525 135,84.125 C 135.51733,84.533247 135.27659,82.43596 135.46875,81.78125 C 135.99275,79.844851 133.94474,78.55485 133.21875,76.9375 C 132.44483,75.818854 131.53483,74.641557 130.71875,73.46875 C 130.82339,73.472533 130.9266,73.465076 131.03125,73.46875 C 131.53258,73.486359 132.03025,73.524497 132.53125,73.53125 C 133.63089,73.546081 134.7455,73.558919 135.84375,73.53125 C 137.53519,73.643437 139.06934,74.168675 140.21875,76.21875 C 142.62346,78.439245 146.50257,83.76354 148.375,84.59375 C 148.8561,82.387944 147.95342,80.76388 145.9375,79.40625 C 144.1592,77.570265 139.26109,73.60478 145,74.65625 C 148.96981,75.3093 154.13898,72.64665 155.375,77.65625 C 156.75833,79.95414 161.84681,84.9889 163.09375,83.21875 C 164.3437,79.979814 160.38806,78.81282 158.28125,77.25 C 156.34381,75.727309 154.72098,72.86761 158.625,73.78125 C 160.33658,72.528476 167.73224,76.4724 166.8125,72.53125 C 167.45535,68.871825 158.58344,71.89036 156.3125,71.28125 C 156.82636,69.252581 163.52575,67.37639 162.59375,64.125 C 163.09363,59.880446 159.95528,65.23294 158.34375,65.875 C 156.40865,67.989608 154.4772,70.567503 152,71.625 C 151.89587,71.626828 151.79161,71.624827 151.6875,71.625 C 149.16748,71.580192 146.64504,71.570602 144.125,71.625 C 143.9465,71.625324 143.77224,71.626 143.59375,71.625 C 143.58365,71.623014 143.5727,71.627 143.5625,71.625 C 142.05705,71.265744 141.35105,70.64546 142.21875,69.65625 C 144.53341,67.425104 156.99151,57.24914 150.8125,58.875 C 145.2697,66.085889 143.32277,67.482922 135.25,70.40625 C 134.26194,70.308608 131.45898,70.41824 129.25,70.46875 C 131.21671,68.458882 132.66737,66.031969 134.5,63.90625 C 135.58689,62.805408 136.25885,61.59893 135.8125,60.0625 C 135.75369,59.39959 135.68381,58.72541 135.625,58.0625 C 133.86816,60.47646 131.87985,62.7154 130.25,65.21875 C 129.39265,66.86518 126.62909,67.79577 126.9375,69.84375 C 126.95099,70.052869 126.95502,70.260663 126.96875,70.46875 C 126.9147,70.464677 126.79633,70.473843 126.75,70.46875 C 123.67966,70.354989 120.60315,70.496553 117.53125,70.71875 C 117.22922,70.429395 117.03995,70.085553 116.96875,69.6875 C 117.05765,69.558854 117.14495,69.42104 117.21875,69.28125 C 118.23074,64.148875 123.53473,61.307997 126,56.8125 L 124.21875,56.0625 C 124.15055,56.301874 123.91215,56.4768 123.84375,56.71875 C 123.68109,56.978454 123.47832,57.20254 123.28125,57.4375 C 117.71994,64.745321 113.07737,73.144776 102.75,70 C 104.51312,48.329729 103.20765,25.49441 103.46875,3.78125 z M 9.8125,120.09375 C 9.8276993,120.6503 9.61773,120.60341 9.8125,120.09375 z M 101.28125,197.53125 C 101.71684,197.52525 102.11856,197.58765 102.4375,197.71875 C 102.54573,197.76325 102.68103,197.87536 102.8125,198.03125 C 102.65246,198.24091 102.67617,198.63023 102.78125,199.03125 C 102.72785,199.01465 102.6761,198.98355 102.625,198.96875 C 103.11195,203.04768 105.48539,206.64277 107.25,210.25 C 108.50878,212.01531 109.52727,213.9066 110.53125,215.8125 C 111.2684,218.21912 112.89899,220.29482 113.90625,222.59375 C 115.27739,224.70886 116.12944,225.87419 116.59375,226.34375 C 116.60175,226.35545 116.6171,226.3632 116.625,226.375 C 117.48703,227.59474 118.47514,228.80493 119.375,229.90625 C 120.22605,232.46228 121.82074,234.70454 121.71875,237.59375 C 121.87893,238.81605 122.03461,239.72486 122.1875,240.5 C 122.31485,241.53877 122.18743,242.68366 121.28125,243.34375 C 120.51121,244.28256 119.83991,245.31235 119.25,246.375 C 119.248,246.38 119.22165,246.37 119.21875,246.375 C 118.25985,246.71492 117.38943,247.93404 116.40625,248.21875 C 115.18662,248.08515 114.25197,247.323 113.5625,247.375 C 111.96655,247.05869 111.15504,245.34196 109.875,244.46875 C 109.7929,244.39855 109.72815,244.3249 109.65625,244.25 C 109.4948,243.93846 109.26624,243.61079 109,243.28125 C 108.99,243.26085 108.97775,243.23925 108.96875,243.21875 C 108.34009,241.83683 108.34593,240.15791 107.125,239.03125 C 106.22208,237.87261 105.16833,236.84415 103.90625,235.65625 C 102.77441,233.29599 101.06781,230.20383 99.25,227.40625 C 99.379594,227.18155 99.37792,226.88866 99.125,226.53125 C 99.005584,225.59042 98.0435,224.97303 98.0625,223.96875 C 97.957634,222.72707 97.12251,221.69011 96.5,220.65625 C 95.535274,219.71421 95.42328,218.30857 94.6875,217.21875 C 94.196334,216.40229 93.87904,215.4837 93.65625,214.5625 C 93.356014,213.7465 92.87856,213.02535 92.4375,212.28125 C 92.337994,212.03987 92.24035,211.79973 92.15625,211.6875 C 92.131944,211.6551 92.11615,211.647 92.09375,211.625 C 91.801564,211.08251 91.53892,210.52392 91.40625,209.90625 C 91.338844,209.69853 91.28165,209.48953 91.21875,209.28125 C 91.286044,209.36605 91.4375,209.5625 91.4375,209.5625 C 91.437494,209.5625 91.2695,209.28137 91.1875,209.15625 C 91.027804,208.62299 90.86226,208.09186 90.6875,207.5625 C 90.318264,206.62207 89.64228,205.84992 89.125,205 C 89.102394,204.54521 88.91722,204.29142 88.6875,204.15625 C 88.684494,204.14585 88.6905,204.1354 88.6875,204.125 C 88.508124,203.40933 88.50252,202.80675 88.8125,202.46875 C 90.070334,201.09719 95.56006,199.24937 97.125,198.59375 C 98.298694,198.10205 99.97449,197.54995 101.28125,197.53125 z" transform="matrix(-1,0,0,1,406.71781,681.00767)" id="path2924" sodipodi:nodetypes="cccccccccccccccccccccccssccccccccccccccccsccccccccccccccccccccccccccsccsssccccccccccccssccccccccscccccccccccccccccsccccccccccccccsccccscccccccccccccccccccccccccccccscccccccccccccccccccccccccccccccccccccccccccccccccccccccccccccccccccccccccccccccccccccccccccsccccssccscccccccccccccccccccccccccccsscsccccccssscsscccsccssccccccccccccccccssccccccccccccccccccccccccccccccccccccccccccccsscccccccccccccccccccccccccccccccccccccccccccccccccccccccccccccccccccccssccccccccccccccsssscccccccccccccccccccccccsccccccssccccssccccsscccccccccsscsccccssssc"/>
        </g>
        <path d="m 394.97906,828.84875 c 0.0894,0.68679 0.12356,1.37927 0.14705,2.07096 0.0175,0.66315 0.0236,1.32654 0.0255,1.9899 0.002,1.15958 -5.2e-4,2.31917 -3.2e-4,3.47876 2e-5,0.0737 4e-5,0.14749 6e-5,0.22123 6e-5,0.20129 7e-5,0.20851 1.2e-4,0.40664 2e-5,0.0636 -5e-4,0.25459 5e-5,0.19095 0.0149,-1.74115 -0.0392,-2.21398 0.0401,-1.36512 0.0784,0.70975 0.10231,1.42393 0.12282,2.13724 0.0136,0.49299 0.0159,0.98615 0.0165,1.47929 0.0562,1.13212 0.0864,2.10636 -0.27982,3.13106 -0.16494,0.46277 -0.28697,0.9367 -0.44305,1.40223 -0.1203,0.35274 -0.15177,0.72278 -0.16752,1.0923 -0.0509,-0.0196 0.0285,0.23838 -0.0144,0.23544 -1.08961,-0.0744 -0.30439,-1.11315 -0.29488,-2.16595 0.002,-0.32952 0.002,-0.65906 0.003,-0.98859 6.6e-4,-0.43559 8.6e-4,-0.87118 7.6e-4,-1.30677 0.0628,-0.50881 0.26561,-1.00331 0.49879,-1.45774 0.23761,-0.38681 0.50129,-0.7547 0.64963,-1.1866 0.10146,-0.38808 0.10138,-0.79405 0.10649,-1.19268 -0.004,0.57284 -0.008,1.14568 -0.0121,1.71853 0,0 0.28372,-1.91468 0.28372,-1.91468 l 0,0 c 0.009,0.70267 0.0179,1.40534 0.0268,2.10801 -0.0131,0.40539 -0.0266,0.81939 -0.17359,1.20269 -0.18244,0.41512 -0.45036,0.77983 -0.66567,1.1778 -0.20816,0.45902 -0.40566,0.94097 -0.41195,1.45197 -1.3e-4,0.43784 1e-4,0.87568 1e-4,1.31352 -3.9e-4,0.33272 -0.001,0.66545 -0.002,0.99817 8.5e-4,0.57788 0.0921,-1.16324 -6.1e-4,-1.73363 -0.0159,-0.0975 -0.19623,0.0232 -0.29434,0.0348 -0.001,-0.003 -0.002,-0.007 -0.004,-0.01 10e-4,-0.0235 0.003,-0.047 0.004,-0.0705 0.003,-0.0435 0.005,-0.0869 0.008,-0.13039 0.0295,-0.37243 0.0878,-0.74077 0.2188,-1.09277 0.15603,-0.46488 0.27628,-0.94069 0.44205,-1.40257 0.23373,-0.77156 0.33898,-2.56539 0.21905,0.69379 2.4e-4,-0.49837 3e-4,-0.99678 -0.009,-1.49508 -0.0155,-0.71023 -0.033,-1.42181 -0.10951,-2.12858 -0.11749,-1.08176 -0.0503,-2.1737 -0.0606,-3.26023 3.9e-4,-0.25164 8.7e-4,-0.50329 0.001,-0.75494 8e-5,-0.0939 1.5e-4,-0.37561 1.5e-4,-0.28171 -5e-5,1.51629 -6.8e-4,2.19068 2e-5,1.36503 -3.6e-4,-0.66893 -10e-4,-1.33791 -0.0171,-2.00669 -0.0195,-0.67761 -0.0494,-1.35543 -0.12719,-2.02927 0,0 0.27254,-1.92604 0.27254,-1.92604 z" id="path2969" style="opacity:0.98999999;fill:#1b2313;fill-opacity:1;stroke:none"/>
        <path d="m 395.43703,843.74034 c -0.0268,0.50724 0.0153,1.01924 0.11985,1.51599 0.11897,0.38185 0.14796,0.78223 0.23196,1.17065 0.088,0.40302 0.13407,0.81257 0.16105,1.22364 0.0139,0.23471 0.0143,0.46985 0.0227,0.70475 0,0 -1.94388,0.002 -1.94388,0.002 l 0,0 c 0.003,-0.23165 -0.003,-0.46331 -0.0145,-0.69469 -0.0254,-0.4023 -0.069,-0.80353 -0.1624,-1.1965 -0.0776,-0.39005 -0.11488,-0.78819 -0.22228,-1.17287 -0.0938,-0.51243 -0.13733,-1.03245 -0.138,-1.55336 0,0 1.94549,0 1.94549,0 z" id="path2973" style="opacity:0.98999999;fill:#1b2313;fill-opacity:1;stroke:none"/>
        <path d="m 403.49384,865.51 c 0.10827,0.37678 0.16147,0.77394 0.45025,1.05762 0.31929,0.19618 0.60605,0.42928 0.96304,0.55287 0.32637,0.12061 0.55368,0.39986 0.7715,0.6598 0.16176,0.26834 0.30682,0.54672 0.38919,0.85038 0.0967,0.26447 0.21217,0.51667 0.3297,0.77247 0.15656,0.32141 0.43158,0.55752 0.61823,0.85837 0.2127,0.2572 0.42031,0.52005 0.60563,0.79802 0.13716,0.32722 0.34365,0.50024 0.68222,0.57837 0.33836,0.0688 0.67171,0.20539 0.99249,0.33766 0.18402,0.12125 0.36237,0.24232 0.53092,0.38417 0,0 -1.92623,0.17413 -1.92623,0.17413 l 0,0 c -0.1665,-0.12309 -0.3347,-0.2439 -0.52632,-0.32622 -0.32949,-0.11887 -0.65506,-0.24998 -0.99743,-0.32755 -0.33078,-0.14213 -0.53079,-0.38209 -0.68879,-0.70358 -0.19582,-0.27329 -0.41045,-0.53211 -0.61021,-0.80218 -0.20642,-0.29477 -0.46589,-0.55457 -0.61857,-0.88545 -0.12746,-0.26161 -0.23951,-0.52796 -0.33328,-0.80365 -0.0841,-0.2727 -0.21619,-0.53405 -0.38316,-0.7651 -0.22249,-0.24042 -0.43597,-0.47421 -0.76132,-0.57085 -0.35037,-0.165 -0.67323,-0.39384 -0.96755,-0.64371 -0.26015,-0.34442 -0.34882,-0.75357 -0.46527,-1.16345 0,0 1.94496,-0.0321 1.94496,-0.0321 z" id="path2975" style="opacity:0.98999999;fill:#1b2313;fill-opacity:1;stroke:none"/>
      </g>
    </g>
  </g>
</svg>