<?xml version="1.0" encoding="UTF-8" standalone="no"?>
<!-- Created with Inkscape (http://www.inkscape.org/) -->

<svg
   width="206"
   height="250"
   id="svg2"
   version="1.1"
   inkscape:version="1.2.2 (b0a8486541, 2022-12-01)"
   sodipodi:docname="laub.svg"
   sodipodi:version="0.32"
   inkscape:output_extension="org.inkscape.output.svg.inkscape"
   xmlns:inkscape="http://www.inkscape.org/namespaces/inkscape"
   xmlns:sodipodi="http://sodipodi.sourceforge.net/DTD/sodipodi-0.dtd"
   xmlns="http://www.w3.org/2000/svg"
   xmlns:svg="http://www.w3.org/2000/svg"
   xmlns:rdf="http://www.w3.org/1999/02/22-rdf-syntax-ns#"
   xmlns:cc="http://creativecommons.org/ns#"
   xmlns:dc="http://purl.org/dc/elements/1.1/">
  <defs
     id="defs4">
    <inkscape:perspective
       sodipodi:type="inkscape:persp3d"
       inkscape:vp_x="0 : 526.34009 : 1"
       inkscape:vp_y="0 : 1000 : 0"
       inkscape:vp_z="744.09448 : 526.34009 : 1"
       inkscape:persp3d-origin="372.04724 : 350.94639 : 1"
       id="perspective10" />
    <inkscape:perspective
       id="perspective2824"
       inkscape:persp3d-origin="0.5 : 0.49232991 : 1"
       inkscape:vp_z="1 : 0.65899658 : 1"
       inkscape:vp_y="0 : 1000 : 0"
       inkscape:vp_x="0 : 0.65899658 : 1"
       sodipodi:type="inkscape:persp3d" />
    <inkscape:perspective
       sodipodi:type="inkscape:persp3d"
       inkscape:vp_x="0 : 0.65899658 : 1"
       inkscape:vp_y="0 : 1000 : 0"
       inkscape:vp_z="1 : 0.65899658 : 1"
       inkscape:persp3d-origin="0.5 : 0.49232991 : 1"
       id="perspective2866" />
    <inkscape:perspective
       sodipodi:type="inkscape:persp3d"
       inkscape:vp_x="0 : 0.65899658 : 1"
       inkscape:vp_y="0 : 1000 : 0"
       inkscape:vp_z="1 : 0.65899658 : 1"
       inkscape:persp3d-origin="0.5 : 0.49232991 : 1"
       id="perspective2824-0" />
    <inkscape:perspective
       id="perspective10-4"
       inkscape:persp3d-origin="372.04724 : 350.94639 : 1"
       inkscape:vp_z="744.09448 : 526.34009 : 1"
       inkscape:vp_y="0 : 1000 : 0"
       inkscape:vp_x="0 : 526.34009 : 1"
       sodipodi:type="inkscape:persp3d" />
  </defs>
  <sodipodi:namedview
     id="base"
     pagecolor="#ffffff"
     bordercolor="#666666"
     borderopacity="1.0"
     inkscape:pageopacity="0.0"
     inkscape:pageshadow="2"
     inkscape:zoom="1.979899"
     inkscape:cx="181.32238"
     inkscape:cy="143.94674"
     inkscape:document-units="px"
     inkscape:current-layer="layer1"
     showgrid="false"
     inkscape:window-width="1516"
     inkscape:window-height="991"
     inkscape:window-x="26"
     inkscape:window-y="23"
     inkscape:window-maximized="0"
     inkscape:showpageshadow="2"
     inkscape:pagecheckerboard="0"
     inkscape:deskcolor="#d1d1d1" />
  <metadata
     id="metadata7">
    <rdf:RDF>
      <cc:Work
         rdf:about="">
        <dc:format>image/svg+xml</dc:format>
        <dc:type
           rdf:resource="http://purl.org/dc/dcmitype/StillImage" />
      </cc:Work>
    </rdf:RDF>
  </metadata>
  <g
     inkscape:label="Livello 1"
     inkscape:groupmode="layer"
     id="layer1"
     transform="translate(-206.89036,-458.96875)">
    <path
       id="path2854"
       d="M 484.61366,303.14452 476.39937,202.07309"
       style="opacity:0.99;fill:#0e080e;fill-opacity:1;stroke:none" />
    <path
       id="path2856"
       d="m 475.32794,253.14452 22.85715,-77.5"
       style="opacity:0.99;fill:#0e080e;fill-opacity:1;stroke:none" />
    <g
       id="g1977"
       transform="matrix(0.81059963,0,0,0.81059963,60.119666,110.40963)"
       style="stroke-width:1.23365">
      <path
         style="opacity:0.99;fill:#955135;fill-opacity:1;stroke:none;stroke-width:1.23365"
         d="m 311.41723,656.43412 c 1.6985,10.2842 8.92905,18.97482 13.88628,27.90254 4.87919,6.18101 8.4127,16.23072 1.95747,22.62871 -4.87451,4.17891 -11.62807,-0.0247 -13.65794,-5.13814 -7.34537,-10.20378 -12.48391,-21.63312 -17.40456,-33.01811 -2.75643,-3.24432 -3.88528,-9.73412 1.74167,-10.72141 4.01102,-2.19612 8.53984,-3.82587 13.22708,-3.40359 l 0.14142,0.98995 z"
         id="path3199" />
      <path
         id="path3187"
         d="m 307.76098,459.96537 c 3.94161,2.47205 1.41922,8.70099 1.99112,12.81123 -0.62933,18.34016 -0.24484,36.71664 -1.52237,55.03252 -2.30917,3.0239 -6.49486,1.94366 -9.6875,2.0625 3.95338,-0.49629 10.02995,0.0947 9.5,5.46875 0.53006,14.00206 0.30106,28.09332 -0.625,42.09375 0.90462,-0.006 1.46318,9.07165 0.9375,13.59375 -0.0833,12.64557 -0.18771,25.82026 -1.43587,38.0857 0.62172,8.08987 1.52108,17.11239 -0.0954,24.6643 -8.41576,6.07131 -17.18856,11.98769 -26.1875,17.125 -11.37299,3.97881 -24.04716,2.30104 -35.65625,0.125 -10.28064,-3.0016 -20.71676,-8.00012 -27.5,-16.34375 -5.81845,-10.87938 -9.5856,-23.32086 -9.8125,-35.75 0.89281,-13.18084 5.97261,-25.65512 7.84375,-38.65625 3.41183,-13.01302 12.95429,-23.50293 15.69172,-36.67531 5.13108,-11.55003 11.49112,-22.88407 12.07085,-35.87768 0.79382,-6.40515 1.80376,-12.77159 3.58118,-18.97826 3.58175,3.14526 9.41449,8.28986 13.78125,3.375 5.64345,-4.06311 6.26498,-13.34147 13.3125,-15.46875 4.50999,-0.58236 9.12778,6.28547 13.01194,1.8211 6.87744,-5.85889 12.54041,-13.27406 19.83181,-18.7586 l 0.96828,0.24988 4.7e-4,1.2e-4 z m -46.6875,68.84375 c 1.33463,1.02723 -0.009,-1.06351 0,0 z m 23.40625,46.8125 c -0.54199,2.10041 -0.13187,2.37696 1.90625,1.5625 -0.524,-0.37851 -1.61181,-1.49705 -1.90625,-1.5625 z"
         style="opacity:0.99;fill:#f9fd0a;fill-opacity:1;stroke:none;stroke-width:1.23365"
         sodipodi:nodetypes="ccccccccccccccccccccccccccccc" />
      <path
         id="path3189"
         d="m 311.85473,461.90287 c 9.29862,6.64023 16.79358,16.64855 27.09375,21.4375 3.05021,-5.69849 11.39725,-4.17473 14.28125,0.90625 4.44687,4.02659 6.29247,10.54229 10.96875,13.96875 5.55267,1.19212 10.51073,-7.01655 15.6875,-3.15625 2.93259,4.87883 -0.15913,11.16289 0.5,16.5625 -0.80466,8.68075 2.1899,17.05853 7.65625,23.71875 4.63374,10.97683 6.95014,23.00288 12.5,33.65625 5.73233,10.9512 10.68122,22.47586 11.16039,34.96395 1.9069,13.03385 1.67168,26.61795 -4.06,38.71573 -4.37852,9.95045 -14.7377,15.31881 -21.91289,23.16407 -15.67352,10.42488 -37.57407,11.9628 -53.78125,1.78125 -7.78223,-4.93866 -16.75567,-8.79204 -23.125,-15.5625 -4.56978,-6.95769 -3.45194,-16.05101 -2.25,-23.78125 2.25558,-1.7455 -1.76721,-3.20295 -0.34375,-6 0.0496,-14.51366 0.56053,-29.2614 2.59375,-43.5625 2.42514,-1.56927 0.41752,-1.96432 -0.25,-3.9375 -1.91693,-13.65359 -1.48863,-27.68518 -0.71875,-41.375 -0.77199,-3.5984 7.51699,-2.18102 3.96875,-2.90625 -3.80993,-0.35098 -5.34813,-2.77964 -3.9375,-6.5 0.9069,-21.26 0.61551,-42.56497 1,-63.84375 0.98958,0.58333 1.97917,1.16667 2.96875,1.75 z m 10.34375,66.96875 c -1.25527,1.16436 -6.20806,1.99674 -1.875,1.625 3.54775,-0.0243 2.52074,0.47852 1.875,-1.625 z m 24.65625,0.375 c -2.62492,1.15256 -4.87641,1.54189 -0.34375,1.3125 -0.21635,-0.12916 1.80428,-2.34259 0.34375,-1.3125 z"
         style="opacity:0.99;fill:#25821c;fill-opacity:1;stroke:none;stroke-width:1.23365"
         sodipodi:nodetypes="cccccccccccccccccccccccccccc" />
      <g
         transform="matrix(-1,0,0,1,613.60817,-222.03891)"
         id="g2922"
         style="stroke-width:1.23365">
        <path
           style="fill:#1b2313;fill-opacity:1;stroke-width:1.23365"
           d="m 102.21875,0 c -7.008536,2.41088 -12.41543,11.76068 -18.625,17.15625 -4.100536,5.111574 -7.59431,4.16373 -11.125,2.59375 0.05349,-0.03391 0.0715,-0.10423 0.0625,-0.21875 -0.705606,-0.815746 -1.63759,-1.40112 -2.46875,-2.09375 -0.846646,-0.582296 -1.6373,-1.36676 -2.65625,-1.625 -0.532036,-0.0174 -0.87374,0.52099 -1.21875,0.84375 -0.539856,0.569114 -0.32344,0.80975 -1.125,0.71875 -9.484626,15.644594 -14.43996,23.83123 -23,12.5625 -0.79902,-0.434706 -1.6651,-0.89856 -2.59375,-1 -1.04773,0.634994 -0.94384,0.77632 -1.28125,2.53125 -1.06736,6.771164 -1.53963,16.18833 -3.375,24.40625 -1.24073,13.551164 -10.71257,22.3513 -13.34375,34.875 -0.46951,1.023248 -1.45671,4.82819 -2.28125,8.3125 -0.1272,0.169188 -0.28294,0.32898 -0.40625,0.5 -0.29185,0.50372 -0.56771,1.00228 -0.8125,1.53125 -3.1465,8.16172 -10.7674,14.94189 -10.3125,26.25 -2.2308507,9.35585 -5.96193,21.73443 -7.21875,28.03125 -1.75969,13.96656 2.11642,27.76966 9.125,39.78125 2.89322,6.23794 8.81006,7.09662 13.875,12.03125 11.11335,4.32155 18.20636,6.1383 29.125,7.25 9.55466,0.0792 18.95573,2.30321 26.25,-4.9375 0.124184,-0.18928 0.24941,-0.35511 0.375,-0.53125 0.255034,-0.14666 0.51296,-0.29168 0.75,-0.46875 0.420074,-0.29882 0.86386,-0.55768 1.3125,-0.8125 0.461574,-0.27846 0.90789,-0.6054 1.375,-0.875 0.554644,-0.3665 1.10217,-0.7576 1.65625,-1.125 0.436744,-0.2247 0.86689,-0.46808 1.34375,-0.59375 0.928014,0.0786 1.92959,0.67232 2.84375,1.40625 0.247504,0.39151 0.49424,0.77121 0.75,1.15625 0.691414,1.72902 0.9771,3.61087 1.96875,5.21875 0.459774,0.77727 1.00828,1.5105 1.21875,2.40625 0.273914,1.03097 0.71936,2.00284 1.28125,2.90625 0.529704,1.14774 0.86088,2.43045 1.75,3.375 0.467164,0.66319 0.89621,1.38344 1.15625,2.15625 1.841014,4.56868 5.88736,12.94989 8.59375,15 0.20522,0.24585 0.36622,0.50113 0.46875,0.6875 1.28128,1.18089 1.56093,2.8226 1.90625,4.4375 0.45018,0.60337 0.96818,1.17215 1.5,1.71875 0.24418,0.28827 0.35107,0.79165 0.8125,0.78125 0.44392,0.43582 0.88232,0.87243 1.3125,1.3125 0.1672,0.22531 0.4308,0.44788 0.71875,0.625 0.012,0.007 0.019,0.0243 0.0312,0.0312 0.5116,1.26958 5.67416,2.93308 7.6875,-0.5625 0.23833,0.0774 0.48987,-0.008 0.65625,-0.4375 0.73543,-1.39837 1.64586,-2.65756 2.6875,-3.84375 0.54405,-0.67755 0.767,-1.71795 0.53125,-2.5625 0.0393,-1.89704 -0.24134,-4.77593 -1.09375,-7.21875 -0.32426,-4.47262 -1.48031,-5.59119 -0.625,-4.5625 3.3844,-1.86663 2.49311,-3.27587 6.9375,-3.5625 1.77109,-2.03281 3.86201,-2.85218 5.75,-1.3125 3.0325,2.17959 3.77492,6.06179 5.46875,9.15625 1.57293,2.51494 3.92356,-0.45479 5.0625,-1.875 3.11148,-3.83377 5.97976,-8.58205 11.03125,-10.03125 5.64736,-1.54252 11.56835,4.87749 9.4375,10.375 -1.19469,3.16652 -5.36947,3.97958 -8.1875,2.65625 -2.30436,-1.56038 -0.90044,-4.64688 -0.15625,-6.6875 0.48941,-0.95963 1.62153,-4.60321 -0.53125,-2.71875 -2.2542,1.81023 -4.71687,4.37741 -4.09375,7.53125 0.81024,4.1231 5.59888,6.15406 9.4375,5.40625 3.31093,-0.39008 6.62324,-2.76872 6.96875,-6.28125 0.56048,-5.32277 -3.30976,-10.03842 -7.625,-12.65625 -2.31686,-1.51504 -5.44424,-2.75399 -8,-1.03125 -4.11821,2.5819 -6.16723,7.37782 -10.15625,10.09375 -2.06886,1.20493 -3.6669,-1.28048 -4.65625,-2.75 -1.40716,-2.17732 -3.26112,-5.04997 -6.25,-4.6875 -4.1057,0.50883 -7.16632,4.75761 -11.53125,3.9375 -3.31642,-0.8804 -4.91933,-4.14141 -7.25,-6.375 -2.1087,-3.85809 -4.02337,-7.83449 -6.5625,-11.4375 -0.005,-0.007 0.005,-0.0243 0,-0.0312 0,0 -0.64377,-1.67103 -1.4375,-3.5625 -0.42462,-1.23919 -1.06916,-3.44211 -1.5,-3.3125 3.9e-4,-0.0117 1.2e-4,-0.0182 0,-0.0312 0.14371,-0.23679 0.40005,-0.39825 0.8125,-0.40625 3.03414,-0.0558 12.82852,5.65169 21.25,10.09375 12.46561,8.61225 27.93409,5.0937 42,4.75 17.06388,-9.24359 33.15152,-23.83952 37.1875,-43.59375 0.0864,-0.6379 0.16175,-1.12208 0.21875,-1.625 l 0.0625,0.0625 c 6.4e-4,-0.27404 -0.002,-0.13801 0,-0.40625 v -0.25 c 0.3046,-4.23924 -0.31031,-8.57625 0,-12.84375 -7.9e-4,-0.51402 -0.35475,-1.01732 -0.34375,-1.53125 l -0.25,-0.4375 c 0.0324,-2.77129 -0.36974,-12.28851 -1.78125,-16.96875 -0.67158,-10.02992 -9.1604,-25.59964 -14.65625,-37.875 -0.0941,-0.312105 -0.19555,-0.62345 -0.28125,-0.9375 -0.003,-0.02339 0.003,-0.0388 0,-0.0625 -0.49308,-3.504735 -2.50533,-10.32878 -4.40625,-12 -0.76127,-2.020025 -0.30327,-4.39013 -1.5625,-6.34375 -0.0751,-0.346875 -0.22082,-0.79632 -0.5,-1.5 -9.71462,-10.460365 -8.2968,-24.10607 -8.375,-37.25 1.33329,-9.058575 -2.75373,-6.86767 -8.5625,-3.03125 -13.41507,6.392245 -15.06275,-14.70147 -24.59375,-18.34375 -1.85826,-0.097 -0.51343,-0.79943 -2.4375,0.375 -1.78795,1.022965 -3.85945,2.19239 -4.84375,4.28125 -0.40861,-0.0419 -0.87302,0.02985 -1.25,-0.03125 -0.55763,-0.107435 -0.81635,0.17945 -0.84375,0.59375 -0.34167,-0.131165 -0.67147,-0.28233 -0.96875,-0.4375 -1.12841,-0.692645 -1.88189,-1.83236 -2.90625,-2.65625 -0.18779,0.114005 -0.99824,-0.65041 -2.3125,-1.625 C 118.72632,14.749085 109.28827,5.31031 102.21875,0 Z M 101.125,2.03125 c -3.211311,13.661837 3.53884,58.491522 -2.3125,68.25 -2.434316,-0.138487 -6.32002,-0.0184 -7.3125,0.0625 -1.222252,0.299668 -1.87741,-1.63912 -2.71875,-2.4375 C 86.568938,66.652628 85.722392,64.22224 83.4375,63.21875 81.838221,61.522804 79.678735,59.512294 77.78125,58.0625 77.115444,57.083294 76.30333,56.22481 75.625,55.25 c -0.485686,-0.874886 -1.12781,0.66966 -1.6875,0.96875 1.033124,1.363834 2.21676,2.63512 2.96875,4.1875 1.342404,2.338844 3.48457,4.11854 5.84375,5.375 1.512742,1.258798 3.149173,2.350522 4.71875,3.53125 0.463829,0.549987 0.775329,0.983825 0.875,1.21875 -0.396029,-5.13e-4 -0.789001,-0.0016 -1.1875,0 -0.09391,9.08e-4 -0.18735,-5.8e-4 -0.28125,0 -3.038584,-0.777474 -6.268471,-0.902195 -9.5625,-0.8125 C 77.363723,69.14515 77.418028,68.571786 77.46875,68 74.550146,64.80643 72.15369,61.2047 69.90625,57.53125 69.534646,57.27004 69.42704,56.82779 69.25,56.4375 c -0.145834,1.29167 -0.29167,2.58333 -0.4375,3.875 2.100586,3.22344 4.02806,6.59711 6.625,9.46875 -0.01096,0.0098 -0.02031,0.02147 -0.03125,0.03125 -2.548825,0.123634 -5.118279,0.302528 -7.625,0.40625 C 66.842806,66.068743 63.549079,62.609832 60.4375,59.8125 59.682311,59.27497 59.21659,58.44637 58.59375,57.78125 58.6213,59.61199 57.46461,61.85912 59.5625,63 c 1.911289,1.676397 6.194162,5.613589 5.84375,7.28125 -3.112276,-0.01092 -4.45968,-0.812657 -7.59375,-0.8125 -0.05215,4.6e-5 -0.104188,1.17e-4 -0.15625,0 -0.651411,-0.173948 -1.284793,-0.377801 -1.90625,-0.625 -0.07737,-1.774449 -3.898091,-4.342038 -5.375,-5.5 -2.942771,0.729581 -0.707028,2.669283 1.25,4.34375 l 0.09375,0.28125 c 0.536501,0.538554 1.114398,1.012327 1.71875,1.4375 0.01549,0.02129 0.01666,0.04136 0.03125,0.0625 -3.227279,0.549771 -9.118384,-2.608444 -10.34375,0.4375 -1.526949,3.642231 8.23724,0.72934 8.1875,2.4375 -2.432331,0.866775 -3.32003,4.14387 -3.25,6.09375 3.142221,-2.243759 5.55194,-7.33747 9.9375,-5.84375 2.307029,0.119345 6.39964,1.36281 2.3125,3.125 -2.036399,1.594154 -4.91457,2.90343 -3.84375,5.90625 0.71108,2.145695 5.0933,-5.07421 7.1875,-5.5 2.774833,-3.26126 5.953941,-3.831743 9.53125,-3.96875 -1.103501,1.370142 -2.031802,2.888039 -2.71875,4.53125 -0.821186,1.472322 -2.19744,2.77176 -1.59375,4.5625 0.138725,1.073139 0.04865,3.14254 0.96875,0.90625 1.802593,-2.366743 2.44058,-5.50972 4.875,-7.40625 0.646392,-1.003071 1.858006,-1.6844 2.3125,-2.59375 2.791044,0.270177 8.312693,0.34982 9.71875,1.59375 -2.499281,3.679343 -6.95392,7.11819 -10.59375,9.5 0.321808,1.40443 -0.56143,5.32464 1.71875,2.71875 3.655098,-2.12005 6.76653,-5.88735 9.28125,-9.28125 1.548838,-4.088784 5.11488,-2.49769 8.8125,-2.25 0.774662,-0.05847 2.067882,-0.651282 2.84375,-0.6875 2.26123,10.206452 -0.314704,34.32939 0.34375,42.90625 -3.764827,0.47435 -8.198624,0.59756 -9.34375,-3.46875 -1.526436,-2.46584 -5.2391,-9.55678 -7,-8.46875 -1.418149,3.90082 4.41885,6.00992 5.59375,9.3125 4.18445,5.00509 -7.44925,2.61593 -10.34375,3 -0.413998,-3.31191 -13.557388,-16.73807 -10.46875,-12.71875 0.08067,1.55319 3.941669,6.95829 5.75,7.15625 0.902866,0.7055 1.333715,4.24562 1.96875,5.09375 -2.065115,0.6453 -5.566993,0.78999 -8.90625,0.5625 0.312575,-1.26923 -0.481,-2.24359 -1.28125,-3.21875 -1.903879,-2.30754 -2.92811,-5.13052 -4.40625,-7.6875 -0.494229,-1.08369 -2.13745,-2.38686 -2.65625,-3.45982 -0.14583,1.29167 0.95833,2.7619 0.8125,4.05357 1.20319,2.98859 2.70496,5.83119 4.25,8.65625 0.60495,0.46971 0.880594,0.94792 0.96875,1.4375 -2.447275,-0.30155 -4.565474,-0.80751 -5.625,-1.4375 -3.655423,-2.85952 -6.03721,-10.22052 -10.46875,-10.75 -1.174209,3.52378 2.73502,4.19072 5.125,5.9375 0.715426,2.08708 5.38317,6.5309 0.0625,5.15625 -4.909499,-0.17561 -11.15018,0.83725 -12.875,-4.96875 -1.991701,-1.6662 -4.86232,-7.50729 -4.25,-2.03125 0.280231,2.59964 8.88443,8.46719 1.875,7.0625 -3.602502,-1.1794 -5.355149,-0.0884 -8.28125,-1 -1.914475,0.51234 -2.150812,0.25563 -1.4375,2.125 0.01576,3.55551 13.18497,-1.64153 10.84375,1.5625 -1.861707,2.95324 -5.806214,3.96756 -6.375,6.875 0.706695,1.84072 6.66599,-2.60035 7.9375,-4.625 0.469522,-1.43147 1.553007,-2.74903 2.6875,-3.125 0.928452,0.053 2.305262,0.99447 2.90625,1 0.774081,-0.10063 1.539757,-0.18315 2.3125,-0.25 2.228191,0.25929 4.52731,0.70095 6.34375,0.375 1.843449,1.33299 -4.76013,4.43562 -6.0625,6.5 0.256159,1.99541 -2.57652,5.74884 -0.125,2.5 3.8868,-1.42586 8.07109,-7.21479 10.4375,-9.4375 1.217278,0.13233 2.813762,0.34413 4.46875,0.5 -0.586763,1.02091 -1.488055,2.04658 -1.90625,3.0625 -0.922169,1.91147 -2.83929,3.49385 -3.21875,5.5625 0.120938,1.14424 0.25406,2.29326 0.375,3.4375 1.94086,-3.24566 4.09185,-6.37575 5.9375,-9.6875 0.761192,-0.21561 0.543607,-1.517 0.46875,-2.21875 0.137278,0.008 0.269865,-0.007 0.40625,0 0.355431,0.78989 0.476083,0.52223 0.53125,0 0.487108,0.0161 0.979764,0.0432 1.4375,0.0312 1.350213,0.13901 2.714839,0.29153 3.9375,0.40625 0.442366,-0.0727 0.876167,-0.12778 1.3125,-0.1875 0.703361,0.12126 1.306584,0.27373 1.78125,0.53125 -1.683442,2.98444 -5.67842,5.1817 -4.4375,9 1.942731,-0.0262 5.37381,-7.62207 7.6875,-9.96875 1.714143,0.71375 10.74751,-0.69993 11.8125,1.15625 -0.469327,3.96929 -6.54675,5.84598 -5.75,9.8125 -0.255861,4.05116 4.31274,-3.25026 5.03125,-4.78125 1.01927,-3.60379 3.525715,-4.6874 6.34375,-4.90625 1.43754,0.17138 2.848897,0.33212 4.15625,0.40625 0.443389,12.24955 0.48104,33.78846 -0.9375,46.59375 -1.49813,0.23357 -3.277255,0.29328 -5.1875,0.25 -0.213624,-2.15515 -2.900094,-5.37424 -4.09375,-7.6875 -1.576644,-2.64269 -3.02876,-5.40785 -4.96875,-7.8125 -0.247714,4.57625 3.75773,8.46745 5.125,12.84375 1.018786,0.97138 2.590039,1.48619 2.78125,2.59375 -3.187795,-0.12427 -6.668807,-0.42581 -10,-0.5625 -2.232424,-2.82556 -7.513452,-4.57201 -8.75,-8.375 -1.162604,-2.38945 -2.43028,-4.86577 -2.78125,-7.53125 -0.810964,4.05683 1.76506,8.18414 3.96875,11.375 1.116099,1.72643 3.465517,3.10693 5,4.46875 -3.486638,-0.023 -6.840681,0.48192 -10.34375,0.4375 -0.07881,-1.00672 -0.473864,-2.04732 -1.25,-3.0625 -2.243715,-5.19234 -6.48244,-9.14288 -9.5,-13.875 -0.346056,4.61595 5.02866,7.66995 7.03125,11.5625 1.293982,1.90286 2.413539,3.67376 2.59375,5.34375 -0.917554,-0.0503 -9.571358,-1.39394 -13.59375,-1.15625 -3.368084,-2.54616 -2.176879,-4.11865 -7.5,-11.59375 -6.280322,-8.16058 -5.45221,-4.05222 -1.84375,0.4375 4.353986,5.54978 5.6604,9.66455 5.40625,11.21875 -8.87518,-0.39933 -4.716191,-0.32362 -12.1875,0 -4.233954,-1.49516 -3.559347,-11.95049 -7.59375,-14.8125 l -0.34375,-0.25 c -0.17164,4.45251 2.57967,8.99613 4.03125,13.21875 0.775348,1.94425 -4.336269,1.06023 -6.1875,0.8125 0.04848,-3.51317 -3.83691,-10.64717 -5.96875,-13.375 -0.606369,3.7628 4.175633,8.8941 4.375,12.375 -0.395796,-0.0825 -1.138571,-0.55417 -1.53125,-0.65625 -2.442604,0.0817 -4.554735,-0.19291 -3.78125,-0.0937 -6.825602,0.20003 -10.023038,-2.38158 -7.28125,1.5 1.547549,0.94032 9.592235,0.56812 11.15625,1.5 -1.810903,2.7924 -6.977812,6.26093 -5.375,8.21875 1.583838,-2.32889 5.400165,-4.76644 6.75,-7.40625 0.868,0.5532 4.929123,-0.47569 5.71875,0.1875 2.617326,0.25137 2.66343,-1.42865 3.28125,1.40625 -1.415236,1.53289 -8.42934,10.34374 -5.5,9.40625 3.96185,-2.97885 6.31065,-10.5507 11.59375,-9.84375 1.967425,0.73299 4.394023,-0.42769 6.59375,0.34375 0.541913,0.39473 3.199058,-0.56266 3.65625,-0.0312 -0.0095,0.6687 -1.386092,1.36746 -3.03125,2.59375 -1.932699,2.5321 -6.89678,6.48231 -5.5625,9.25 2.994449,-3.85911 7.647623,-7.97628 10.40625,-11.90625 10.687559,-0.26868 10.508752,0.81755 13.96875,0.8125 -0.376882,0.75577 -1.060409,1.49034 -2.09375,2.21875 -1.057766,4.41649 -6.21317,7.10208 -6.59375,11.40625 1.903205,-1.07344 5.63597,-6.6437 7.15625,-10.125 1.295174,-1.02264 2.22672,-2.24031 2.6875,-3.53125 3.436394,-0.11755 6.769078,-0.50335 10.1875,-0.5 0.469783,-0.003 0.93646,-0.003 1.40625,0 0.150692,0.002 0.314174,0.0281 0.46875,0.0312 0.138406,0.90178 -0.456611,1.84725 -2.34375,2.9375 -2.07659,3.87694 -7.56129,6.92434 -7,11.6875 3.301936,-4.91913 6.65469,-10.22417 11.5,-13.71875 0.01339,-0.21742 0.01997,-0.42054 0,-0.625 0.01011,0.002 0.02112,-0.002 0.03125,0 0.751683,0.1815 1.50715,0.2415 2.28125,0.1875 1.100913,-0.006 2.18032,0.012 3.28125,0 0.801973,0.003 1.60431,0.0362 2.40625,0.0312 0.509269,-3e-4 0.623829,8.2e-4 1.03125,0 -0.439911,3.73764 -4.294788,6.82675 -4.5,10.5625 -1.043331,1.67416 -4.65645,10.43169 -0.5625,6.15625 3.002585,-5.09359 4.736127,-11.0139 6.625,-16.53125 1.824258,-0.005 2.276291,-0.20256 4.34375,-0.1875 0.126453,6.95555 2.04063,17.57246 0.3125,24.625 -8.868077,6.47115 -9.2405,5.85379 -17.59375,11.25 -7.155447,7.20761 -15.25512,7.21449 -25.09375,7.4375 -10.147551,-0.44196 -22.47686,-2.2784 -31.5,-8.125 C 19.401011,200.94018 13.29613,198.83971 10.6875,192.53125 6.6055094,183.00466 3.62321,173.49371 2.4375,163.0625 1.8606494,154.5723 4.75665,147.7686 6.5625,140 c 1.3188494,-2.3362 3.02637,-14.20184 4.125,-20.375 1.79404,-5.15962 4.01583,-9.89952 6.03125,-11.6875 0.216881,-0.57726 0.35573,-1.16081 0.6875,-1.6875 0.406201,-1.12915 0.44528,-1.20269 0.625,-1.71875 0.0672,-0.0617 0.36824,-0.69406 1.125,-2.46875 4.257101,-4.908583 5.27079,-11.58544 6.6875,-17.53125 C 29.397171,77.282887 34.61955,69.4998 36,61.71875 38.801649,51.916083 38.32139,41.89501 41.15625,32.6875 50.982019,43.983013 58.30122,32.09499 62.96875,23.40625 67.883629,12.959395 74.08652,26.95851 79.875,22.3125 87.523613,16.204265 93.23277,7.82303 101.125,2.03125 Z m 2.34375,1.75 c 8.1666,6.41168 15.00055,14.45123 23.65625,20.25 -0.0339,-0.09501 -0.11135,-0.21045 -0.15625,-0.3125 0.67435,0.657094 1.36625,1.30493 2.03125,1.96875 0.99371,0.709454 2.2877,1.36079 3.53125,1.09375 0.85545,-0.181556 1.46672,-1.00559 1.15625,-1.875 -0.002,-0.03751 -0.0273,-0.05935 -0.0312,-0.09375 1.66731,-1.725065 3.26311,-2.4632 4.78125,-2.5 5.6543,-0.137205 10.31166,9.50838 14.3125,14.625 4.91196,11.795645 15.34651,-3.35983 19.46875,0.5 0.38242,10.381945 -3.17608,22.24578 2.15625,31.59375 0.43697,1.387615 4.2832,7.3782 6.4375,9.96875 -0.0191,1.410035 -0.0617,2.81874 0.53125,4.125 0.1854,0.182895 0.33849,0.41262 0.46875,0.625 0.1886,0.515415 0.416,1.01548 0.65625,1.53125 0.02,0.06301 0.0425,0.1246 0.0625,0.1875 0.0102,0.02161 0.0208,0.0409 0.0312,0.0625 0.0673,0.210715 0.14165,0.41997 0.21875,0.625 -0.003,0.145285 -0.009,0.28936 0,0.4375 0.0447,0.362105 0.11586,0.73515 0.34375,1.03125 0.2412,0.284765 0.43086,0.37245 0.5625,0.34375 0.22715,2.694815 1.25682,5.35731 2.03125,7.90625 0.64898,1.566895 0.614,2.62761 1,3.28125 1.15022,3.29729 1.85333,2.22097 2.6875,5.84375 0.12322,0.53519 0.73007,3.3984 1.375,3.375 4.1931,9.86157 11.1829,19.51912 11.25,30.28125 0.29838,2.33552 0.6201,2.95612 1.0625,6.40625 0.0362,0.28221 -0.25095,1.07445 0.0312,0.84375 0.0117,0.008 0.0194,0.0232 0.0312,0.0312 -0.0458,1.21473 0.28627,2.57588 0.15625,3.53125 0.0861,2.91613 0.32475,4.45296 0.59375,5.125 -0.001,0.43134 0.001,0.84991 0,1.28125 v 11.8125 c 0.002,0.27032 -0.001,0.13089 0,0.40625 l 0.25,0.15625 c -1.34601,3.56214 -3.29657,10.04633 -4.25,12.40625 -2.47728,12.30996 -15.17042,15.14771 -21.59375,24.78125 -10.98911,6.85096 -25.02353,9.77478 -37.9375,7.625 -11.66106,-2.98601 -21.82321,-10.3865 -32.34375,-16.9375 -10.757747,-5.04775 -6.55034,-19.47702 -6.875,-26.625 2.75224,-0.31994 6.76109,-0.41445 10,-0.4375 1.13115,4.11285 7.24455,7.32512 9.09375,11.28125 1.18798,3.37599 4.01715,3.96721 1.78125,0.40625 -2.53227,-4.08573 -5.81685,-7.56354 -8.71875,-11.375 0.60961,-0.0246 1.14718,-0.0506 1.46875,-0.125 0.0314,3.7e-4 0.0623,-4.5e-4 0.0937,0 0.40321,0.003 0.81554,0.002 1.21875,0 2.41554,-0.20869 4.75729,0.53689 7.09375,0.9375 0.36865,0.0708 0.73062,0.1278 1.09375,0.1875 1.57944,1.78162 4.82145,4.94226 7.4375,6.28125 2.29924,1.99794 7.89527,5.90903 4.28125,1 -2.0404,-2.3021 -7.51904,-4.3508 -9.8125,-7.03125 0.64266,0.0484 1.27181,0.0538 1.84375,0 9.43168,0.64355 7.29172,0.37577 6.28125,0.25 0.26769,0.017 3.00837,0.12298 4.21875,0.21875 1.34864,2.42154 5.67837,4.85979 7.625,7.15625 1.79923,2.74718 7.08874,4.34053 3.25,0.5 -2.00483,-2.21466 -6.53516,-4.57727 -8.25,-7.3125 1.99858,0.16145 1.69399,0.11996 6.21875,0.5 2.13874,-0.1454 3.28747,-0.35351 5.25,-0.5 0.9276,1.57024 3.3735,4.05988 4.875,6.03125 1.66205,1.73224 6.48313,6.75001 4.03125,1.875 -1.6344,-2.06398 -6.69537,-5.8364 -6.46875,-7.875 2.36795,-0.30428 4.57344,-0.93737 6.53125,-2.5 3.37291,-0.6262 5.8875,0.74628 8.90625,4.0625 2.81505,1.09334 7.38748,7.79389 4.9375,1.75 -1.87804,-2.21718 -11.76293,-7.03839 -4.15625,-6.71875 4.51315,-0.71579 8.33263,-2.50888 9.71875,3.21875 0.66712,2.5506 5.82975,5.58819 3.375,1.84375 -2.26653,-2.23627 -5.41367,-7.34427 1.09375,-7.40625 4.44173,-1.9355 -4.96747,-1.5082 -6.5,-0.96875 1.03306,-1.99298 6.4652,-10.4438 4.03125,-9.21875 -3.41768,3.92132 -3.51907,11.27967 -10,10.4375 -4.23792,0.79473 -9.06006,1.41416 -4.8125,-3.65625 0.65105,-2.78883 3.07416,-5.31421 2.46875,-8.21875 -1.59404,2.37991 -3.92805,8.31376 -5.21875,11.09375 -1.24401,0.5801 -3.23716,0.75545 -5.75,2.625 -3.95181,1.24483 -7.79369,2.29898 -4.9375,-3.46875 -0.11565,-2.91912 4.51463,-8.24603 2.6875,-9.1875 -2.7049,4.24018 -5.01754,9.16404 -6.21875,13.90625 -4.08028,-0.15293 -5.52216,-0.17216 -9.625,-0.34375 2.53057,-4.02856 4.27415,-9.10855 4.28125,-13.96875 -2.38343,4.52309 -4.01819,9.78203 -6.65625,13.9375 -2.2108,-0.0666 -4.40954,-0.0818 -6.625,0.0625 -0.84672,0.4023 -1.58439,-0.1143 -2.21875,-0.0312 0.20239,-0.38531 -1.28269,-0.2388 -2.65625,-0.0937 -1.40756,-1.45287 0.11163,-3.3096 0.21875,-4 1.74442,-3.29604 2.69941,-6.68769 2.03125,-10.46875 -0.63636,4.8963 -3.85457,9.37794 -5.75,13.65625 -2.44312,-0.2928 -6.41286,-1.45202 -8.125,-0.5 -0.40321,-0.002 -0.81553,-0.003 -1.21875,0 -0.021,3e-4 -0.0415,-2.6e-4 -0.0625,0 -0.40775,-0.15244 -1.58372,-0.21941 -3,-0.25 0.86019,-1.11423 3.15669,-6.11421 4.03125,-7.03125 1.05359,-2.84156 3.44846,-5.80091 2.59375,-9.0625 -2.80247,4.91173 -5.47407,10.02303 -7.28125,15.3125 0.048,0.40673 0.109,0.62596 0.1875,0.78125 -3.48018,-0.0512 -8.38477,0.11532 -9.90625,0.125 -1.603443,-12.41994 1.65741,-34.86703 1.875,-47.15625 1.70256,-0.087 5.72135,-0.32567 7.14732,-0.39732 0.16819,1.80482 1.29858,2.30003 2.42857,3.64286 2.10047,2.52601 4.08101,4.6025 5.61607,7.50446 2.44948,1.01779 3.12634,3.74315 2.89286,1.38839 0.0709,-0.87969 0.8621,-0.85245 -0.67411,-2.625 -2.22379,-2.13844 -3.66709,-4.47435 -5.62946,-6.81696 -0.75771,-1.13453 -0.67978,-2.09588 -1.63839,-3.07143 1.79838,-0.0658 4.36018,-0.12157 6.55803,-0.125 4.85838,3.26253 11.15907,5.85902 13.875,11.31696 2.20166,-2.62207 0.73241,-4.4912 -1.32589,-5.06696 -1.10036,-2.59988 -6.24748,-5.07284 -6.61607,-6.25893 5.00251,-0.68425 10.06251,-0.29541 12.95982,4.22768 2.05127,0.37207 6.01704,9.15786 6.0625,4.96875 0.96089,-3.67401 -6.56901,-6.8105 -7.09375,-8.84375 4.81267,0.79676 10.73609,-2.77212 13.8125,1.59375 1.4407,1.58039 5.36976,9.18211 6.25,7.90625 1.18427,-3.09817 -2.81179,-5.94523 -4.25,-8.375 -2.21499,-2.91357 7.09062,-0.54128 8.90625,-1.8125 2.07083,1.71234 3.21581,4.57336 5.28125,6.3125 3.06805,2.67044 0.96814,0.82818 4.0625,2.46875 -0.77683,-2.99331 -5.03199,-6.67019 -7.25,-8.78125 3.17737,0.15488 7.49254,0.7815 10.34375,-1.4375 -3.47739,-1.4974 -8.12277,-0.5964 -10.875,-0.5 -2.78129,-1.08179 5.05648,-6.13892 5.3125,-8.875 0.26948,-4.36092 -1.30075,-2.1768 -3.34375,0.28125 -2.22759,5.72257 -2.43871,8.98801 -7.375,8.25 -0.24422,-0.008 -0.53307,-0.005 -0.8125,0 -1.62864,-0.21375 -3.33486,-0.25496 -5.0625,-0.21875 0.18454,-0.85748 -0.55049,-2.14344 0.0312,-2.8125 1.9236,-2.89509 6.7687,-5.31908 5.65625,-9.15625 -0.88645,-1.52323 -4.27281,6.39293 -6.78125,7.84375 -1.79945,0.91215 -1.82892,2.79234 -2.40625,3.8125 -3.48647,-0.84508 -7.16138,-0.50688 -10.71875,-0.46875 -0.48976,0.0105 2.06125,1.61907 -0.57143,0.009 1.77356,-3.86584 6.95257,-11.48106 5.99107,-12.25447 -0.2357,-1.25404 -6.2283,5.96185 -8.20982,12.08929 -3.31085,0.94362 -7.92591,-0.59789 -11.16518,0.40625 -1.41339,-2.71954 0.94765,-5.50795 3.13393,-7.95536 2.02821,-2.2161 5.93319,-2.32756 4.66964,-5.83482 -5.42531,2.53227 -7.79667,7.7362 -10.83035,13.41964 -0.78828,2.55922 -5.89596,1.7739 -9.02679,1.52679 0.97678,-2.00491 1.73985,-3.31979 2.35268,-5.47321 0.54785,-2.18368 3.62219,-4.75012 3.85714,-6.94197 -0.14316,-1.10948 -0.29434,-1.87713 -0.4375,-2.98661 -1.28837,3.18217 -4.82285,5.84945 -5.94643,9.08929 -0.90421,2.03906 -1.79629,3.82055 -2.2366,6.00893 -1.1564,-0.0521 -4.38715,0.16325 -5.26786,0.42857 -2.09927,1.94456 -0.97575,-1.29075 -1.3125,-1.28125 -2.53594,-10.70454 -1.85169,-32.089485 -1.1875,-42.3125 1.06936,-0.07612 1.9406,-1.046706 3,-1.09375 3.41471,0.0061 7.02759,0.960347 10.4375,0.875 -0.0531,3.76951 4.11125,5.5967 6.125,8.5625 2.00069,2.49355 3.31275,3.01798 3.03125,-0.375 -1.35467,-3.032219 -5.51224,-5.167485 -7.09375,-8.5 1.95245,-0.05755 4.13091,-0.134698 6.46875,-0.25 0.60356,0.02347 1.21306,0.07651 1.8125,0.09375 0.3731,0.04492 0.75247,0.06128 1.125,0.09375 0.61453,1.010033 2.21701,2.52156 2.78125,3.71875 1.56862,2.41506 3.37603,4.6665 4.84375,7.15625 0.51733,0.408247 0.27659,-1.68904 0.46875,-2.34375 0.524,-1.936399 -1.52401,-3.2264 -2.25,-4.84375 -0.77392,-1.118646 -1.68392,-2.295943 -2.5,-3.46875 0.10464,0.0038 0.20785,-0.0037 0.3125,0 0.50133,0.01761 0.999,0.05575 1.5,0.0625 1.09964,0.01483 2.21425,0.02767 3.3125,0 1.69144,0.112187 3.22559,0.637425 4.375,2.6875 2.40471,2.220495 6.28382,7.54479 8.15625,8.375 0.4811,-2.205806 -0.42158,-3.82987 -2.4375,-5.1875 -1.7783,-1.835985 -6.67641,-5.80147 -0.9375,-4.75 3.96981,0.65305 9.13898,-2.0096 10.375,3 1.38333,2.29789 6.47181,7.33265 7.71875,5.5625 1.24995,-3.238936 -2.70569,-4.40593 -4.8125,-5.96875 -1.93744,-1.522691 -3.56027,-4.38239 0.34375,-3.46875 1.71158,-1.252774 9.10724,2.69115 8.1875,-1.25 0.64285,-3.659425 -8.22906,-0.64089 -10.5,-1.25 0.51386,-2.028669 7.21325,-3.90486 6.28125,-7.15625 0.49988,-4.244554 -2.63847,1.10794 -4.25,1.75 -1.9351,2.114608 -3.86655,4.692503 -6.34375,5.75 -0.10413,0.0018 -0.20839,-1.73e-4 -0.3125,0 -2.52002,-0.04481 -5.04246,-0.0544 -7.5625,0 -0.1785,3.24e-4 -0.35276,0.001 -0.53125,0 -0.0101,-0.002 -0.0211,0.002 -0.0312,0 -1.50545,-0.359256 -2.21145,-0.97954 -1.34375,-1.96875 2.31466,-2.231146 14.77276,-12.40711 8.59375,-10.78125 -5.5428,7.210889 -7.48973,8.607922 -15.5625,11.53125 -0.98806,-0.09764 -3.79102,0.01199 -6,0.0625 1.96671,-2.009868 3.41737,-4.436781 5.25,-6.5625 1.08689,-1.100842 1.75885,-2.30732 1.3125,-3.84375 -0.0588,-0.66291 -0.12869,-1.33709 -0.1875,-2 -1.75684,2.41396 -3.74515,4.6529 -5.375,7.15625 -0.85735,1.64643 -3.62091,2.57702 -3.3125,4.625 0.0135,0.209119 0.0175,0.416913 0.0312,0.625 -0.0541,-0.0041 -0.17242,0.0051 -0.21875,0 -3.07034,-0.113761 -6.14685,0.0278 -9.21875,0.25 -0.30203,-0.289355 -0.4913,-0.633197 -0.5625,-1.03125 0.0889,-0.128646 0.1762,-0.26646 0.25,-0.40625 1.01199,-5.132375 6.31598,-7.973253 8.78125,-12.46875 l -1.78125,-0.75 c -0.0682,0.239374 -0.3066,0.4143 -0.375,0.65625 -0.16266,0.259704 -0.36543,0.48379 -0.5625,0.71875 C 117.71994,64.745321 113.07737,73.144776 102.75,70 104.51312,48.329729 103.20765,25.49441 103.46875,3.78125 Z M 9.8125,120.09375 c 0.015199,0.55655 -0.19477,0.50966 0,0 z m 91.46875,77.4375 c 0.43559,-0.006 0.83731,0.0564 1.15625,0.1875 0.10823,0.0445 0.24353,0.15661 0.375,0.3125 -0.16004,0.20966 -0.13633,0.59898 -0.0312,1 -0.0534,-0.0166 -0.10515,-0.0477 -0.15625,-0.0625 0.48695,4.07893 2.86039,7.67402 4.625,11.28125 1.25878,1.76531 2.27727,3.6566 3.28125,5.5625 0.73715,2.40662 2.36774,4.48232 3.375,6.78125 1.37114,2.11511 2.22319,3.28044 2.6875,3.75 0.008,0.0117 0.0233,0.0195 0.0312,0.0312 0.86203,1.21974 1.85014,2.42993 2.75,3.53125 0.85105,2.55603 2.44574,4.79829 2.34375,7.6875 0.16018,1.2223 0.31586,2.13111 0.46875,2.90625 0.12735,1.03877 -7e-5,2.18366 -0.90625,2.84375 -0.77004,0.93881 -1.44134,1.9686 -2.03125,3.03125 -0.002,0.005 -0.0284,-0.005 -0.0312,0 -0.9589,0.33992 -1.82932,1.55904 -2.8125,1.84375 -1.21963,-0.1336 -2.15428,-0.89575 -2.84375,-0.84375 -1.59595,-0.31631 -2.40746,-2.03304 -3.6875,-2.90625 -0.0821,-0.0702 -0.14685,-0.14385 -0.21875,-0.21875 -0.16145,-0.31154 -0.39001,-0.63921 -0.65625,-0.96875 -0.01,-0.0204 -0.0222,-0.042 -0.0312,-0.0625 -0.62866,-1.38192 -0.62282,-3.06084 -1.84375,-4.1875 -0.90292,-1.15864 -1.95667,-2.1871 -3.21875,-3.375 -1.13184,-2.36026 -2.83844,-5.45242 -4.65625,-8.25 0.129594,-0.2247 0.12792,-0.51759 -0.125,-0.875 -0.119416,-0.94083 -1.0815,-1.55822 -1.0625,-2.5625 -0.104866,-1.24168 -0.93999,-2.27864 -1.5625,-3.3125 -0.964726,-0.94204 -1.07672,-2.34768 -1.8125,-3.4375 -0.491166,-0.81646 -0.80846,-1.73505 -1.03125,-2.65625 -0.300236,-0.816 -0.77769,-1.53715 -1.21875,-2.28125 -0.09951,-0.24138 -0.19715,-0.48152 -0.28125,-0.59375 -0.02431,-0.0324 -0.0401,-0.0405 -0.0625,-0.0625 -0.292186,-0.54249 -0.55483,-1.10108 -0.6875,-1.71875 -0.06741,-0.20772 -0.1246,-0.41672 -0.1875,-0.625 0.06729,0.0848 0.21875,0.28125 0.21875,0.28125 -6e-6,0 -0.168,-0.28113 -0.25,-0.40625 -0.159696,-0.53326 -0.32524,-1.06439 -0.5,-1.59375 -0.369236,-0.94043 -1.04522,-1.71258 -1.5625,-2.5625 -0.02261,-0.45479 -0.20778,-0.70858 -0.4375,-0.84375 -0.003,-0.0104 0.003,-0.0208 0,-0.0312 -0.179376,-0.71567 -0.18498,-1.31825 0.125,-1.65625 1.257834,-1.37156 6.74756,-3.21938 8.3125,-3.875 1.173694,-0.4917 2.84949,-1.0438 4.15625,-1.0625 z"
           transform="matrix(-1,0,0,1,406.71781,681.00767)"
           id="path2924"
           sodipodi:nodetypes="cccccccccccccccccccccccssccccccccccccccccsccccccccccccccccccccccccccsccsssccccccccccccssccccccccscccccccccccccccccsccccccccccccccsccccscccccccccccccccccccccccccccccscccccccccccccccccccccccccccccccccccccccccccccccccccccccccccccccccccccccccccccccccccccccccccsccccssccscccccccccccccccccccccccccccsscsccccccssscsscccsccssccccccccccccccccssccccccccccccccccccccccccccccccccccccccccccccsscccccccccccccccccccccccccccccccccccccccccccccccccccccccccccccccccccccssccccccccccccccsssscccccccccccccccccccccccsccccccssccccssccccsscccccccccsscsccccssssc" />
      </g>
      <path
         d="m 411.06317,610.34537 c -0.0894,0.68679 -0.12356,1.37927 -0.14705,2.07096 -0.0175,0.66315 -0.0236,1.32654 -0.0255,1.9899 -0.002,1.15958 5.2e-4,2.31917 3.2e-4,3.47876 -2e-5,0.0737 -4e-5,0.14749 -6e-5,0.22123 -6e-5,0.20129 -7e-5,0.20851 -1.2e-4,0.40664 -2e-5,0.0636 5e-4,0.25459 -5e-5,0.19095 -0.0149,-1.74115 0.0392,-2.21398 -0.0401,-1.36512 -0.0784,0.70975 -0.10231,1.42393 -0.12282,2.13724 -0.0136,0.49299 -0.0159,0.98615 -0.0165,1.47929 -0.0562,1.13212 -0.0864,2.10636 0.27982,3.13106 0.16494,0.46277 0.28697,0.9367 0.44305,1.40223 0.1203,0.35274 0.15177,0.72278 0.16752,1.0923 0.0509,-0.0196 -0.0285,0.23838 0.0144,0.23544 1.08961,-0.0744 0.30439,-1.11315 0.29488,-2.16595 -0.002,-0.32952 -0.002,-0.65906 -0.003,-0.98859 -6.6e-4,-0.43559 -8.6e-4,-0.87118 -7.6e-4,-1.30677 -0.0628,-0.50881 -0.26561,-1.00331 -0.49879,-1.45774 -0.23761,-0.38681 -0.50129,-0.7547 -0.64963,-1.1866 -0.10146,-0.38808 -0.10138,-0.79405 -0.10649,-1.19268 0.004,0.57284 0.008,1.14568 0.0121,1.71853 0,0 -0.28372,-1.91468 -0.28372,-1.91468 v 0 c -0.009,0.70267 -0.0179,1.40534 -0.0268,2.10801 0.0131,0.40539 0.0266,0.81939 0.17359,1.20269 0.18244,0.41512 0.45036,0.77983 0.66567,1.1778 0.20816,0.45902 0.40566,0.94097 0.41195,1.45197 1.3e-4,0.43784 -10e-5,0.87568 -10e-5,1.31352 3.9e-4,0.33272 10e-4,0.66545 0.002,0.99817 -8.5e-4,0.57788 -0.0921,-1.16324 6.1e-4,-1.73363 0.0159,-0.0975 0.19623,0.0232 0.29434,0.0348 0.001,-0.003 0.002,-0.007 0.004,-0.01 -0.001,-0.0235 -0.003,-0.047 -0.004,-0.0705 -0.003,-0.0435 -0.005,-0.0869 -0.008,-0.13039 -0.0295,-0.37243 -0.0878,-0.74077 -0.2188,-1.09277 -0.15603,-0.46488 -0.27628,-0.94069 -0.44205,-1.40257 -0.23373,-0.77156 -0.33898,-2.56539 -0.21905,0.69379 -2.4e-4,-0.49837 -3e-4,-0.99678 0.009,-1.49508 0.0155,-0.71023 0.033,-1.42181 0.10951,-2.12858 0.11749,-1.08176 0.0503,-2.1737 0.0606,-3.26023 -3.9e-4,-0.25164 -8.7e-4,-0.50329 -0.001,-0.75494 -8e-5,-0.0939 -1.5e-4,-0.37561 -1.5e-4,-0.28171 5e-5,1.51629 6.8e-4,2.19068 -2e-5,1.36503 3.6e-4,-0.66893 10e-4,-1.33791 0.0171,-2.00669 0.0195,-0.67761 0.0494,-1.35543 0.12719,-2.02927 0,0 -0.27254,-1.92604 -0.27254,-1.92604 z"
         id="path2969"
         style="opacity:0.99;fill:#1b2313;fill-opacity:1;stroke:none;stroke-width:1.23365" />
      <path
         d="m 410.6052,625.23696 c 0.0268,0.50724 -0.0153,1.01924 -0.11985,1.51599 -0.11897,0.38185 -0.14796,0.78223 -0.23196,1.17065 -0.088,0.40302 -0.13407,0.81257 -0.16105,1.22364 -0.0139,0.23471 -0.0143,0.46985 -0.0227,0.70475 0,0 1.94388,0.002 1.94388,0.002 v 0 c -0.003,-0.23165 0.003,-0.46331 0.0145,-0.69469 0.0254,-0.4023 0.069,-0.80353 0.1624,-1.1965 0.0776,-0.39005 0.11488,-0.78819 0.22228,-1.17287 0.0938,-0.51243 0.13733,-1.03245 0.138,-1.55336 0,0 -1.94549,0 -1.94549,0 z"
         id="path2973"
         style="opacity:0.99;fill:#1b2313;fill-opacity:1;stroke:none;stroke-width:1.23365" />
      <path
         d="m 402.54839,647.00662 c -0.10827,0.37678 -0.16147,0.77394 -0.45025,1.05762 -0.31929,0.19618 -0.60605,0.42928 -0.96304,0.55287 -0.32637,0.12061 -0.55368,0.39986 -0.7715,0.6598 -0.16176,0.26834 -0.30682,0.54672 -0.38919,0.85038 -0.0967,0.26447 -0.21217,0.51667 -0.3297,0.77247 -0.15656,0.32141 -0.43158,0.55752 -0.61823,0.85837 -0.2127,0.2572 -0.42031,0.52005 -0.60563,0.79802 -0.13716,0.32722 -0.34365,0.50024 -0.68222,0.57837 -0.33836,0.0688 -0.67171,0.20539 -0.99249,0.33766 -0.18402,0.12125 -0.36237,0.24232 -0.53092,0.38417 0,0 1.92623,0.17413 1.92623,0.17413 v 0 c 0.1665,-0.12309 0.3347,-0.2439 0.52632,-0.32622 0.32949,-0.11887 0.65506,-0.24998 0.99743,-0.32755 0.33078,-0.14213 0.53079,-0.38209 0.68879,-0.70358 0.19582,-0.27329 0.41045,-0.53211 0.61021,-0.80218 0.20642,-0.29477 0.46589,-0.55457 0.61857,-0.88545 0.12746,-0.26161 0.23951,-0.52796 0.33328,-0.80365 0.0841,-0.2727 0.21619,-0.53405 0.38316,-0.7651 0.22249,-0.24042 0.43597,-0.47421 0.76132,-0.57085 0.35037,-0.165 0.67323,-0.39384 0.96755,-0.64371 0.26015,-0.34442 0.34882,-0.75357 0.46527,-1.16345 0,0 -1.94496,-0.0321 -1.94496,-0.0321 z"
         id="path2975"
         style="opacity:0.99;fill:#1b2313;fill-opacity:1;stroke:none;stroke-width:1.23365" />
    </g>
  </g>
</svg>
