<?xml version="1.0" encoding="UTF-8" standalone="no"?>
<svg
   version="1.0"
   viewBox="0 0 45.354331 90.708663"
   id="svg8"
   sodipodi:docname="0.svg"
   width="12mm"
   height="24mm"
   inkscape:version="1.2.2 (b0a8486541, 2022-12-01)"
   xmlns:inkscape="http://www.inkscape.org/namespaces/inkscape"
   xmlns:sodipodi="http://sodipodi.sourceforge.net/DTD/sodipodi-0.dtd"
   xmlns="http://www.w3.org/2000/svg"
   xmlns:svg="http://www.w3.org/2000/svg"
   xmlns:rdf="http://www.w3.org/1999/02/22-rdf-syntax-ns#"
   xmlns:cc="http://creativecommons.org/ns#"
   xmlns:dc="http://purl.org/dc/elements/1.1/">
  <defs
     id="defs12" />
  <sodipodi:namedview
     id="namedview10"
     pagecolor="#ffffff"
     bordercolor="#666666"
     borderopacity="1.0"
     inkscape:showpageshadow="2"
     inkscape:pageopacity="0.0"
     inkscape:pagecheckerboard="0"
     inkscape:deskcolor="#d1d1d1"
     showgrid="false"
     inkscape:zoom="4.1582102"
     inkscape:cx="11.423184"
     inkscape:cy="73.108377"
     inkscape:window-width="1920"
     inkscape:window-height="1131"
     inkscape:window-x="0"
     inkscape:window-y="0"
     inkscape:window-maximized="1"
     inkscape:current-layer="svg8"
     inkscape:document-units="mm" />
  <metadata
     id="metadata6">
    <rdf:RDF>
      <cc:Work>
        <dc:format>image/svg+xml</dc:format>
        <dc:type
           rdf:resource="http://purl.org/dc/dcmitype/StillImage" />
        <cc:license
           rdf:resource="http://creativecommons.org/publicdomain/zero/1.0/" />
        <dc:publisher>
          <cc:Agent
             rdf:about="http://openclipart.org/">
            <dc:title>Openclipart</dc:title>
          </cc:Agent>
        </dc:publisher>
      </cc:Work>
      <cc:License
         rdf:about="http://creativecommons.org/publicdomain/zero/1.0/">
        <cc:permits
           rdf:resource="http://creativecommons.org/ns#Reproduction" />
        <cc:permits
           rdf:resource="http://creativecommons.org/ns#Distribution" />
        <cc:permits
           rdf:resource="http://creativecommons.org/ns#DerivativeWorks" />
      </cc:License>
    </rdf:RDF>
  </metadata>
  <g
     id="g1486"
     transform="matrix(1.1051777,0,0,1.7751181,-4.4672695,-34.125475)">
    <g
       id="g1481">
      <path
         style="fill:#000080;fill-opacity:0.937255;stroke:#ffffff;stroke-width:0;stroke-miterlimit:0"
         id="path1476"
         d="M 9.3917907,45.602445 C 9.3133016,45.637793 9.0824146,45.664359 9.1563235,45.708489 C 9.3595502,45.829834 9.6149766,45.826469 9.8468235,45.874141 C 10.193346,45.945394 10.541405,46.009736 10.890812,46.065137 C 12.543964,46.327254 14.206141,46.440166 15.874103,46.560639 C 16.525435,46.565941 17.176771,46.570635 17.828097,46.576544 C 19.915026,46.595481 21.035138,46.641689 23.008778,46.558016 C 25.000713,46.473568 26.974131,46.231824 28.954118,46.012611 C 30.590472,45.802754 32.225552,45.589598 33.874718,45.513144 C 34.333294,45.491885 34.792744,45.495022 35.251432,45.47633 C 35.392503,45.470581 35.532758,45.452005 35.67342,45.439843 C 36.052159,45.427947 36.430898,45.416051 36.809637,45.404155 C 37.445319,45.386139 37.934765,45.391858 38.555808,45.307888 C 38.725409,45.284956 38.890712,45.237117 39.058649,45.204139 C 39.376739,45.141675 39.841318,45.296002 40.013851,45.021567 C 41.09968,43.294417 40.700745,43.290641 39.801698,42.692412 C 39.642788,42.623396 38.666755,44.870716 38.825665,44.939732 V 44.939732 C 38.395262,44.168424 38.329126,44.219191 39.129204,42.776068 C 39.231921,42.590795 39.606312,42.798154 39.750665,42.643109 C 39.842862,42.544083 39.494069,42.555493 39.36202,42.526008 C 38.831699,42.407594 38.251935,42.349005 37.718689,42.280427 C 37.337474,42.239688 36.957669,42.182344 36.575043,42.15821 C 33.611852,41.971302 30.639974,42.020239 27.686061,42.323881 C 25.729244,42.479465 25.894247,42.483742 23.918256,42.570181 C 19.356092,42.769751 24.504274,42.520613 19.867241,42.697836 C 19.521274,42.711059 19.176659,42.754633 18.830495,42.760837 C 18.187597,42.772359 17.54451,42.754272 16.901517,42.75099 C 15.205041,42.823393 13.508399,42.885645 11.814206,43.001983 C 8.5487232,43.226219 12.45059,42.962447 9.8954245,43.16806 C 9.5258372,43.197801 9.1554563,43.21668 8.7854721,43.24099 C 8.618492,43.283863 9.2248106,45.645318 9.3917907,45.602445 Z" />
    </g>
    <path
       style="fill:#000080;fill-opacity:0.937255;stroke:#ffffff;stroke-width:0;stroke-miterlimit:0"
       id="path1478"
       d="M 40.264916,42.774488 C 39.673469,42.425731 38.987515,42.290876 38.308141,42.269234 C 38.264503,42.271631 38.220885,42.278438 38.177227,42.276426 C 38.123313,42.27394 38.068964,42.242595 38.016632,42.255796 C 36.754682,42.574138 36.480133,43.015566 36.787118,42.561901 C 36.669209,42.674661 38.263871,44.342148 38.38178,44.229388 V 44.229388 C 38.424537,44.185722 38.570125,44.087171 38.51005,44.098389 C 38.091579,44.176533 37.691606,44.333785 37.278223,44.435461 C 37.250975,44.442163 37.199749,44.39412 37.195159,44.421802 C 37.19011,44.452255 37.246313,44.45637 37.27189,44.473654 C 37.851875,44.7354 38.487573,44.851499 39.120605,44.887384 C 39.27001,44.968299 40.41432,42.855403 40.264916,42.774488 Z" />
  </g>
</svg>
