<?xml version="1.0" encoding="UTF-8" standalone="no"?>
<svg
   version="1.0"
   viewBox="0 0 45.354331 90.708663"
   id="svg8"
   sodipodi:docname="0.svg"
   width="12mm"
   height="24mm"
   inkscape:version="1.2.2 (b0a8486541, 2022-12-01)"
   xmlns:inkscape="http://www.inkscape.org/namespaces/inkscape"
   xmlns:sodipodi="http://sodipodi.sourceforge.net/DTD/sodipodi-0.dtd"
   xmlns="http://www.w3.org/2000/svg"
   xmlns:svg="http://www.w3.org/2000/svg"
   xmlns:rdf="http://www.w3.org/1999/02/22-rdf-syntax-ns#"
   xmlns:cc="http://creativecommons.org/ns#"
   xmlns:dc="http://purl.org/dc/elements/1.1/">
  <defs
     id="defs12" />
  <sodipodi:namedview
     id="namedview10"
     pagecolor="#ffffff"
     bordercolor="#666666"
     borderopacity="1.0"
     inkscape:showpageshadow="2"
     inkscape:pageopacity="0.0"
     inkscape:pagecheckerboard="0"
     inkscape:deskcolor="#d1d1d1"
     showgrid="false"
     inkscape:zoom="4.1582102"
     inkscape:cx="4.8097617"
     inkscape:cy="66.615199"
     inkscape:window-width="1854"
     inkscape:window-height="1011"
     inkscape:window-x="0"
     inkscape:window-y="0"
     inkscape:window-maximized="1"
     inkscape:current-layer="svg8"
     inkscape:document-units="mm" />
  <metadata
     id="metadata6">
    <rdf:RDF>
      <cc:Work>
        <dc:format>image/svg+xml</dc:format>
        <dc:type
           rdf:resource="http://purl.org/dc/dcmitype/StillImage" />
        <cc:license
           rdf:resource="http://creativecommons.org/publicdomain/zero/1.0/" />
        <dc:publisher>
          <cc:Agent
             rdf:about="http://openclipart.org/">
            <dc:title>Openclipart</dc:title>
          </cc:Agent>
        </dc:publisher>
      </cc:Work>
      <cc:License
         rdf:about="http://creativecommons.org/publicdomain/zero/1.0/">
        <cc:permits
           rdf:resource="http://creativecommons.org/ns#Reproduction" />
        <cc:permits
           rdf:resource="http://creativecommons.org/ns#Distribution" />
        <cc:permits
           rdf:resource="http://creativecommons.org/ns#DerivativeWorks" />
      </cc:License>
    </rdf:RDF>
  </metadata>
  <g
     id="g4146"
     transform="matrix(0.26399636,0,0,0.16013082,-1.3132464,22.844815)"
     style="stroke-width:4.86365">
    <g
       id="g4136"
       style="stroke-width:4.86365">
      <g
         id="g4127"
         style="stroke-width:4.86365">
        <path
           style="opacity:0.525354;fill:#000000;fill-opacity:0.967275;stroke:#000000;stroke-width:14.5221;stroke-linecap:round;stroke-linejoin:round;stroke-miterlimit:1400;stroke-dasharray:58.0882, 14.5221"
           id="path1326"
           d="m 33.95257,172.65987 c 9.295589,-1.95364 18.824713,-2.65621 28.258192,-3.67848 9.848164,-1.08302 19.530089,-3.21164 29.301496,-4.79274 5.292967,-0.95955 10.629302,-1.64386 15.936422,-2.51438 4.09657,-0.62627 8.14581,-1.52817 12.28035,-1.89836 1.34078,-0.12005 2.6868,-0.1717 4.03021,-0.25755 6.95603,-0.52214 13.89913,-0.16046 20.82584,0.49479 13.30352,1.25562 15.07925,-17.5584 1.77572,-18.81403 v 0 c -7.93882,-0.7477 -15.90087,-1.12134 -23.87072,-0.53573 -1.68119,0.11775 -3.36559,0.1962 -5.04356,0.35323 -4.39719,0.41151 -8.71288,1.32625 -13.06889,2.01122 -5.288988,0.87524 -10.611187,1.54163 -15.886043,2.50615 -9.444431,1.53035 -18.803608,3.57636 -28.316771,4.65976 -10.253415,1.11112 -20.60778,1.88635 -30.695073,4.10544 -12.98296,3.16277 -8.510133,21.52345 4.472827,18.36068 z" />
        <g
           id="g4119"
           style="stroke-width:4.86365">
          <path
             style="opacity:0.525354;fill:#000000;fill-opacity:0.967275;stroke:#000000;stroke-width:14.5221;stroke-linecap:round;stroke-linejoin:round;stroke-miterlimit:1400;stroke-dasharray:58.0882, 14.5221"
             d="m 28.141767,170.92714 c -1.365209,-0.43977 -2.644485,-1.60551 -3.571066,-3.25414 -1.6608,-2.95499 -1.761609,-4.129 -0.624552,-7.27348 0.954507,-2.63964 4.492186,-4.61716 9.562214,-5.34517 1.781631,-0.25583 3.398413,-0.72254 3.59285,-1.03715 0.194436,-0.3146 0.771374,-0.41166 1.282085,-0.21568 0.51071,0.19598 3.332253,0.0113 6.270095,-0.41043 2.937841,-0.42171 7.331123,-0.92214 9.762849,-1.11205 2.431726,-0.18992 6.104822,-0.63791 8.162436,-0.99554 2.057614,-0.35763 4.812437,-0.75341 6.121827,-0.87951 6.432012,-0.61944 12.364656,-1.98369 12.726457,-2.92653 0.286824,-0.74745 0.517742,-0.79577 0.89394,-0.18707 0.506607,0.81971 4.219166,0.4254 12.907521,-1.37088 1.683503,-0.34805 5.662687,-0.98013 8.842637,-1.40461 3.17995,-0.42447 6.15094,-1.07726 6.60219,-1.45063 0.45125,-0.37337 1.08109,-0.51777 1.39964,-0.3209 0.31855,0.19688 3.4694,0.0584 7.00188,-0.30765 8.92254,-0.92469 22.06275,-0.69198 28.18918,0.49922 1.12234,0.21822 3.03541,1.14406 4.25127,2.05741 1.9204,1.44259 2.21066,2.06243 2.21066,4.72071 0,3.20527 -1.18097,6.19373 -3.06579,7.758 -0.8029,0.66633 -3.00455,0.88686 -7.86719,0.78802 -4.9043,-0.0997 -6.7523,0.088 -6.7523,0.68564 0,0.4526 -0.4105,0.2615 -0.91224,-0.42467 -0.80666,-1.10317 -1.53487,-1.19326 -6.29188,-0.77837 -2.9588,0.25806 -7.36922,0.60096 -9.80095,0.76199 -2.43173,0.16103 -5.95178,0.60971 -7.82234,0.99705 -1.87055,0.38735 -6.76802,1.16857 -10.88324,1.73605 -4.930469,0.67989 -7.748782,1.3852 -8.26379,2.06807 -0.555339,0.73635 -0.860757,0.79869 -1.055193,0.21538 -0.400333,-1.20101 -13.424833,1.20572 -13.951432,2.57802 -0.285917,0.74508 -0.517141,0.79333 -0.892363,0.18621 -0.394214,-0.63785 -1.84298,-0.62704 -6.53732,0.0488 -3.316978,0.47752 -6.374687,1.13198 -6.794909,1.45436 -0.420221,0.32237 -1.243214,0.40226 -1.828872,0.17752 -0.585659,-0.22474 -3.761892,-0.0531 -7.058296,0.3814 -3.296404,0.43451 -7.523919,0.92911 -9.394477,1.09911 -1.870558,0.17001 -5.807037,0.75833 -8.747729,1.30738 -2.940693,0.54905 -5.389424,0.96703 -5.441624,0.92883 -0.0522,-0.0382 -1.052181,-0.3778 -2.222178,-0.75468 z"
             id="path1397" />
          <path
             style="opacity:0.525354;fill:#000000;fill-opacity:0.967275;stroke:#000000;stroke-width:14.5221;stroke-linecap:round;stroke-linejoin:round;stroke-miterlimit:1400;stroke-dasharray:58.0882, 14.5221"
             d="m 28.840986,169.89356 c -2.582717,-1.24088 -4.518754,-4.34803 -4.258022,-6.83371 0.106876,-1.0189 -0.04203,-2.23498 -0.330912,-2.7024 -0.336156,-0.54391 -0.134869,-0.84984 0.559147,-0.84984 0.596409,0 1.85062,-0.50206 2.787136,-1.11569 2.496301,-1.63564 8.553394,-3.02508 16.27476,-3.73327 5.131322,-0.47064 7.017466,-0.9116 7.679142,-1.79531 0.743009,-0.99234 0.969344,-1.0222 1.480371,-0.19534 0.515169,0.83356 1.529346,0.85326 6.945224,0.13495 3.488079,-0.46263 6.433609,-1.10177 6.54562,-1.42033 0.112011,-0.31855 1.336376,-0.43032 2.720812,-0.24837 1.384435,0.18194 4.506749,-0.18258 6.938475,-0.81006 2.431726,-0.62748 5.645685,-1.2691 7.142131,-1.42584 6.059662,-0.63466 11.903553,-1.79297 11.903553,-2.35937 0,-0.33078 0.841752,-0.44585 1.870559,-0.2557 1.028807,0.19015 4.319288,-0.14659 7.312178,-0.7483 2.9929,-0.60172 8.60761,-1.36334 12.47715,-1.6925 3.86953,-0.32915 7.4661,-0.95582 7.99238,-1.39259 0.6893,-0.57207 0.95687,-0.58064 0.95687,-0.0306 0,1.0416 13.3456,1.05177 13.98904,0.0107 0.33757,-0.5462 0.59682,-0.53997 0.94455,0.0227 0.26361,0.42652 2.05002,1.0238 3.96982,1.32727 1.91979,0.30348 4.51356,1.25277 5.76392,2.10954 2.16328,1.4823 2.25324,1.70981 1.85722,4.69712 -0.49121,3.70536 -1.90806,6.20029 -3.52112,6.20029 -0.63616,0 -1.35501,0.32095 -1.59745,0.71323 -0.30663,0.49614 -0.70619,0.49298 -1.31272,-0.0104 -1.06926,-0.88741 -12.611,-0.6335 -12.61101,0.27743 -1e-5,0.35208 -0.38263,0.15104 -0.85027,-0.44677 -0.73057,-0.93391 -1.75726,-1.00804 -7.29336,-0.52659 -3.69323,0.32118 -6.55194,0.88685 -6.69812,1.3254 -0.18482,0.55444 -0.5012,0.56078 -1.14914,0.023 -0.65017,-0.5396 -2.49161,-0.46321 -6.74953,0.28 -3.22047,0.56212 -6.22335,1.24945 -6.67306,1.52738 -0.44972,0.27794 -1.89751,0.4345 -3.21733,0.34792 -2.756579,-0.18083 -10.45477,1.68923 -10.780657,2.61886 -0.122573,0.34966 -0.757615,0.28682 -1.445986,-0.14307 -1.308375,-0.8171 -6.54324,-0.0704 -10.579111,1.50898 -1.122335,0.43921 -4.183248,0.86905 -6.80203,0.95519 -5.239165,0.17235 -9.857151,1.41436 -9.87336,2.65545 -0.0065,0.49694 -0.237784,0.43839 -0.613714,-0.15537 -0.856037,-1.35205 -12.96945,-0.48162 -14.101584,1.01329 -0.575964,0.76052 -0.85562,0.80979 -1.063122,0.18728 -0.223527,-0.67058 -1.534698,-0.66089 -6.36058,0.047 -3.343455,0.49045 -6.538146,1.1234 -7.099314,1.40658 -0.568528,0.28689 -1.953809,0.0663 -3.128556,-0.49807 z"
             id="path1399" />
          <g
             id="g4113"
             style="stroke-width:4.86365">
            <path
               style="opacity:0.525354;fill:#000000;fill-opacity:0.967275;stroke:#000000;stroke-width:14.5221;stroke-linecap:round;stroke-linejoin:round;stroke-miterlimit:1400;stroke-dasharray:58.0882, 14.5221"
               d="m 28.14724,169.10935 c -1.166987,-0.72117 -2.42995,-2.1952 -2.806584,-3.27562 -0.861672,-2.47179 -0.160921,-6.57461 1.187262,-6.95129 0.844675,-0.236 5.50042,-1.72116 10.203045,-3.25471 0.561168,-0.183 3.367348,-0.44905 6.235957,-0.59122 2.868608,-0.14216 6.453007,-0.68479 7.96533,-1.20583 1.512321,-0.52103 2.838375,-0.7253 2.946783,-0.45393 0.324128,0.81137 10.930918,-0.61769 12.950914,-1.74489 1.18423,-0.66082 1.870558,-0.76881 1.870558,-0.29432 0,1.1872 10.798442,-0.84059 13.366085,-2.50996 1.07314,-0.6977 1.533466,-0.73807 1.728955,-0.1516 0.330143,0.99043 9.398765,-0.3761 12.283132,-1.85092 1.028807,-0.52605 1.870558,-0.68754 1.870558,-0.35888 0,0.87543 11.041515,-1.17583 12.259195,-2.27748 0.67446,-0.6102 1.38155,-0.72348 2.0268,-0.32469 1.51869,0.9386 11.75515,0.0197 12.68338,-1.13855 0.42985,-0.53638 0.88899,-0.67357 1.0203,-0.30486 0.13131,0.3687 3.29966,0.73531 7.04078,0.81468 12.68301,0.2691 19.39075,2.21221 19.38199,5.61461 -0.0146,5.68541 -2.79712,8.58635 -7.81854,8.15136 -5.92348,-0.51315 -24.56446,-0.45725 -25.42768,0.0762 -0.50445,0.31177 -2.48882,0.63241 -4.40972,0.71254 -4.09943,0.17101 -10.00438,1.03898 -10.97478,1.6132 -0.37411,0.22137 -1.36891,0.31351 -2.21066,0.20475 -0.84175,-0.10875 -1.530455,0.0878 -1.530455,0.43682 0,0.349 -0.736252,0.49381 -1.636113,0.32179 -0.899861,-0.17202 -3.32167,0.17724 -5.381801,0.77614 -2.060124,0.5989 -4.217083,0.90801 -4.79324,0.68691 -0.576157,-0.22109 -1.413976,-0.17552 -1.86182,0.10126 -0.447844,0.27678 -2.003707,0.61038 -3.457473,0.74133 -1.453767,0.13095 -3.637552,0.65355 -4.852856,1.16134 -1.215304,0.50778 -3.19415,0.77875 -4.397434,0.60214 -1.203285,-0.1766 -2.18779,-0.0227 -2.18779,0.34199 0,0.36469 -0.688706,0.53257 -1.530457,0.37307 -0.841751,-0.1595 -2.907868,0.0728 -4.591371,0.51615 -1.683502,0.44339 -3.979187,0.80709 -5.101522,0.80823 -1.122335,0.001 -2.293481,0.34698 -2.602546,0.76853 -0.389466,0.53121 -0.655194,0.54339 -0.865783,0.0397 -0.209101,-0.50016 -1.730684,-0.53629 -4.879687,-0.11587 -2.516714,0.33601 -5.417593,0.63756 -6.4464,0.67011 -1.028807,0.0325 -1.870558,0.2856 -1.870558,0.56234 0,0.27673 -0.566959,0.35489 -1.259908,0.17368 -1.135115,-0.29684 -5.846874,0.36085 -10.320329,1.44057 -1.073486,0.25909 -2.45273,-0.0689 -3.805517,-0.90484 z"
               id="path1401" />
          </g>
        </g>
      </g>
    </g>
  </g>
</svg>
