<?xml version="1.0" encoding="UTF-8" standalone="no"?>
<!-- Created with Inkscape (http://www.inkscape.org/) -->

<svg
   width="12mm"
   height="24mm"
   viewBox="0 0 12 24"
   version="1.1"
   id="svg1322"
   inkscape:version="1.2.2 (b0a8486541, 2022-12-01)"
   sodipodi:docname="1.svg"
   xmlns:inkscape="http://www.inkscape.org/namespaces/inkscape"
   xmlns:sodipodi="http://sodipodi.sourceforge.net/DTD/sodipodi-0.dtd"
   xmlns="http://www.w3.org/2000/svg"
   xmlns:svg="http://www.w3.org/2000/svg">
  <sodipodi:namedview
     id="namedview1324"
     pagecolor="#ffffff"
     bordercolor="#666666"
     borderopacity="1.0"
     inkscape:showpageshadow="2"
     inkscape:pageopacity="0.0"
     inkscape:pagecheckerboard="0"
     inkscape:deskcolor="#d1d1d1"
     inkscape:document-units="mm"
     showgrid="false"
     inkscape:zoom="3.9710672"
     inkscape:cx="17.627503"
     inkscape:cy="91.159374"
     inkscape:window-width="1854"
     inkscape:window-height="1011"
     inkscape:window-x="0"
     inkscape:window-y="0"
     inkscape:window-maximized="1"
     inkscape:current-layer="layer1" />
  <defs
     id="defs1319" />
  <g
     inkscape:label="Ebene 1"
     inkscape:groupmode="layer"
     id="layer1"
     transform="translate(-90.513249,-73.955381)">
    <path
       style="fill:#1d1d1d;stroke-width:0.264583"
       d="m 93.178423,83.637819 c -0.04996,-0.169506 0.006,-0.309739 0.06456,-0.443125 0.06312,-0.143538 0.14001,-0.279284 0.212174,-0.417629 0.509671,-0.975254 1.025098,-1.946257 1.527367,-2.926468 0.380557,-0.742713 0.747541,-1.494634 1.113913,-2.247026 0.128704,-0.264411 0.243014,-0.538738 0.353014,-0.814481 0.0868,-0.217668 0.22739,-0.341847 0.426807,-0.389064 0.21834,-0.05147 0.43669,-0.102224 0.654827,-0.154633 0.27467,-0.06586 0.548327,-0.139052 0.824237,-0.198308 0.275897,-0.05949 0.553047,-0.112848 0.831214,-0.156051 0.23273,-0.03612 0.27077,0.01889 0.21793,0.275507 -0.0113,0.05524 -0.0239,0.110723 -0.0415,0.163605 -0.1618,0.481607 -0.23088,0.988002 -0.30181,1.493689 -0.191817,1.366913 -0.379737,2.734298 -0.572377,4.100975 -0.171467,1.217001 -0.320727,2.437308 -0.435657,3.663044 -0.0989,1.055758 -0.200037,2.111279 -0.300987,3.167037 -0.12357,1.292547 -0.16859,2.589344 -0.15296,3.888973 0.005,0.350581 0.014,0.700927 0.0222,1.051508 0.002,0.07579 0.004,0.1518 0.0121,0.22711 0.0206,0.191227 0.0535,0.227111 0.23089,0.262996 0.0162,0.0033 0.0329,0.0035 0.049,0.0083 0.0522,0.01511 0.0855,0.06964 0.0711,0.128664 -0.0403,0.165021 -0.0907,0.325321 -0.187497,0.46036 -0.0577,0.08027 -0.12727,0.153925 -0.169,0.244344 -0.14598,0.316114 -0.371507,0.552432 -0.583897,0.803859 -0.11328,0.134093 -0.244447,0.226639 -0.401317,0.264883 -0.13692,0.03352 -0.27612,0.0661 -0.41551,0.0746 -0.362876,0.02242 -0.726368,0.03896 -1.089655,0.04367 -0.247125,0.003 -0.494868,-0.01417 -0.741787,-0.03069 -0.06312,-0.0043 -0.14145,-0.02007 -0.183185,-0.0661 -0.07854,-0.08641 -0.164888,-0.11143 -0.266658,-0.125594 -0.190998,-0.02668 -0.226771,-0.101752 -0.165092,-0.30431 0.04708,-0.154397 0.148439,-0.248122 0.270974,-0.313752 0.141861,-0.07602 0.287011,-0.144247 0.428255,-0.214599 0.05983,-0.07508 0.04215,-0.162896 0.03742,-0.246705 -0.04708,-0.86217 -0.04256,-1.725286 -0.03926,-2.588401 0.0029,-0.721464 0.04215,-1.441279 0.103003,-2.158494 0.09642,-1.132484 0.202922,-2.263787 0.312504,-3.394619 0.07381,-0.763016 0.158925,-1.524851 0.241986,-2.286687 0.03598,-0.329098 0.08059,-0.657015 0.118423,-0.985877 0.006,-0.05122 -0.0037,-0.104821 -0.0074,-0.18556 -0.04893,0.03258 -0.07669,0.04697 -0.100536,0.06752 -0.07916,0.06846 -0.154813,0.142121 -0.235407,0.207988 -0.157692,0.1289 -0.32998,0.213181 -0.527351,0.219556 -0.213203,0.0069 -0.426405,0.07154 -0.639402,-0.0099 -0.02878,-0.0111 -0.06538,0.0035 -0.09827,0.0073 -0.09231,0.01039 -0.181746,0.02078 -0.23808,-0.09656 -0.01152,-0.02384 -0.05571,-0.02975 -0.08594,-0.03824 -0.04647,-0.01345 -0.09437,-0.02172 -0.143299,-0.03258 z"
       id="path9" />
  </g>
</svg>
