<?xml version="1.0" encoding="UTF-8" standalone="no"?>
<!-- Created with Inkscape (http://www.inkscape.org/) -->

<svg
   width="12mm"
   height="24mm"
   viewBox="0 0 12 24"
   version="1.1"
   id="svg4016"
   inkscape:version="1.2.2 (b0a8486541, 2022-12-01)"
   sodipodi:docname="2.svg"
   xmlns:inkscape="http://www.inkscape.org/namespaces/inkscape"
   xmlns:sodipodi="http://sodipodi.sourceforge.net/DTD/sodipodi-0.dtd"
   xmlns="http://www.w3.org/2000/svg"
   xmlns:svg="http://www.w3.org/2000/svg">
  <sodipodi:namedview
     id="namedview4018"
     pagecolor="#ffffff"
     bordercolor="#666666"
     borderopacity="1.0"
     inkscape:showpageshadow="2"
     inkscape:pageopacity="0.0"
     inkscape:pagecheckerboard="0"
     inkscape:deskcolor="#d1d1d1"
     inkscape:document-units="mm"
     showgrid="false"
     inkscape:zoom="3.9710672"
     inkscape:cx="32.35906"
     inkscape:cy="52.88251"
     inkscape:window-width="1516"
     inkscape:window-height="481"
     inkscape:window-x="26"
     inkscape:window-y="23"
     inkscape:window-maximized="0"
     inkscape:current-layer="layer1" />
  <defs
     id="defs4013" />
  <g
     inkscape:label="Ebene 1"
     inkscape:groupmode="layer"
     id="layer1"
     transform="translate(-68.668939,-43.87811)">
    <path
       style="fill:#000080;stroke-width:0.264583"
       d="m 71.861681,64.762027 c 0.104337,0.0101 0.154726,0.02172 0.204523,0.01866 1.440358,-0.09059 2.881111,-0.174386 4.320679,-0.277701 1.007597,-0.07238 2.005711,-0.239973 3.002046,-0.420063 0.192074,-0.03466 0.384741,-0.06757 0.578199,-0.09037 0.147611,-0.01756 0.298583,-0.04606 0.449359,0.02435 0.04426,0.181625 -0.03063,0.331445 -0.116787,0.463057 -0.06838,0.104632 -0.132594,0.208166 -0.170534,0.329031 -0.04131,0.131831 -0.12469,0.215623 -0.236734,0.260591 -0.141091,0.05659 -0.283567,0.116916 -0.430387,0.147625 -0.495402,0.103755 -0.991001,0.210579 -1.489959,0.28867 -1.228326,0.191934 -2.46574,0.258398 -3.704144,0.317405 -1.389376,0.06624 -2.77875,0.0522 -4.168323,0.04716 -0.328225,-0.0012 -0.656056,-0.02304 -0.973017,-0.123058 -0.125678,-0.0397 -0.245823,-0.107921 -0.362016,-0.176579 -0.09189,-0.0544 -0.129038,-0.172631 -0.05987,-0.245457 0.135163,-0.142799 0.131409,-0.330785 0.185553,-0.501443 0.04011,-0.126565 0.111252,-0.245676 0.185554,-0.353816 0.343243,-0.499468 0.6936,-0.992576 1.039017,-1.490069 0.815722,-1.174639 1.567024,-2.398851 2.273864,-3.657063 0.688266,-1.225091 1.303417,-2.494271 1.881615,-3.787141 0.370711,-0.828716 0.692217,-1.676958 0.931124,-2.563365 0.134571,-0.499031 0.264596,-1.000472 0.319334,-1.518586 0.0579,-0.547725 0.066,-1.097426 -0.03379,-1.642738 -0.122713,-0.670345 -0.471292,-1.15029 -1.017083,-1.449489 -0.236536,-0.129638 -0.487892,-0.227908 -0.736086,-0.329032 -0.181601,-0.07391 -0.364981,-0.05726 -0.542629,0.03335 -0.274082,0.140168 -0.538084,0.300515 -0.772247,0.512849 -0.314987,0.28538 -0.628391,0.57383 -0.932114,0.873906 -0.118763,0.117353 -0.239302,0.187107 -0.398178,0.200927 -0.29641,0.02589 -0.581361,-0.0072 -0.850106,-0.154206 -0.08536,-0.04673 -0.170732,-0.09805 -0.245626,-0.162102 -0.08241,-0.07041 -0.108486,-0.174606 -0.09643,-0.290644 0.01878,-0.180089 0.08457,-0.339778 0.171523,-0.489816 0.193852,-0.334514 0.444021,-0.610901 0.726402,-0.851969 0.363005,-0.310168 0.770471,-0.523817 1.213506,-0.643584 0.472677,-0.127884 0.948712,-0.242166 1.425933,-0.347456 0.3468,-0.07655 0.697355,-0.133587 1.047317,-0.190838 0.460622,-0.07524 0.918083,-0.04431 1.371393,0.0702 0.528006,0.133367 1.044353,0.305997 1.519993,0.599492 0.177056,0.109239 0.35095,0.231638 0.507258,0.373778 0.465167,0.423135 0.730355,0.973931 0.811374,1.63616 0.07924,0.648189 0.06679,1.292433 -0.04979,1.934041 -0.244638,1.345076 -0.640248,2.635752 -1.144738,3.885849 -0.619894,1.535694 -1.351633,3.004705 -2.161229,4.426994 -0.965311,1.695822 -2.018557,3.321232 -3.152227,4.88281 -0.09367,0.128542 -0.190692,0.25489 -0.321507,0.429715 z"
       id="path23" />
  </g>
</svg>
