<?xml version="1.0" encoding="UTF-8" standalone="no"?>
<!-- Created with Inkscape (http://www.inkscape.org/) -->

<svg
   width="12mm"
   height="24mm"
   viewBox="0 0 12 24"
   version="1.1"
   id="svg8937"
   inkscape:version="1.2.2 (b0a8486541, 2022-12-01)"
   sodipodi:docname="3.svg"
   xmlns:inkscape="http://www.inkscape.org/namespaces/inkscape"
   xmlns:sodipodi="http://sodipodi.sourceforge.net/DTD/sodipodi-0.dtd"
   xmlns="http://www.w3.org/2000/svg"
   xmlns:svg="http://www.w3.org/2000/svg">
  <sodipodi:namedview
     id="namedview8939"
     pagecolor="#ffffff"
     bordercolor="#666666"
     borderopacity="1.0"
     inkscape:showpageshadow="2"
     inkscape:pageopacity="0.0"
     inkscape:pagecheckerboard="0"
     inkscape:deskcolor="#d1d1d1"
     inkscape:document-units="mm"
     showgrid="false"
     inkscape:zoom="3.9710672"
     inkscape:cx="34.12181"
     inkscape:cy="13.094717"
     inkscape:window-width="1516"
     inkscape:window-height="481"
     inkscape:window-x="26"
     inkscape:window-y="23"
     inkscape:window-maximized="0"
     inkscape:current-layer="layer1" />
  <defs
     id="defs8934" />
  <g
     inkscape:label="Ebene 1"
     inkscape:groupmode="layer"
     id="layer1"
     transform="translate(-73.439529,-66.707209)">
    <path
       style="fill:#000080;stroke-width:0.264583"
       d="m 81.105646,73.778044 c 0.109873,0 0.167517,0.0045 0.224637,-7.39e-4 1.153408,-0.10322 2.093008,0.446878 2.845701,1.546337 0.493644,0.72082 0.819071,1.563336 0.980999,2.494538 0.400889,2.305587 0.184112,4.510417 -0.706752,6.591825 -0.361587,0.844734 -0.839859,1.564814 -1.429576,2.162211 -0.377482,0.382582 -0.773305,0.730428 -1.20092,1.016194 -0.70029,0.467817 -1.446344,0.709733 -2.234497,0.732397 -0.387614,0.01109 -0.775752,0.0101 -1.16354,0.001 -0.677581,-0.01552 -1.316034,-0.252261 -1.923569,-0.619077 -0.693302,-0.418793 -1.350271,-0.920854 -1.970906,-1.499284 -0.241406,-0.224917 -0.445258,-0.50009 -0.608233,-0.812954 -0.256779,-0.492945 -0.28892,-1.027032 -0.0966,-1.573682 0.101313,-0.287982 0.248568,-0.539013 0.399841,-0.785363 0.07249,-0.118001 0.153019,-0.228119 0.24193,-0.359424 0.104808,0.07194 0.214682,0.141651 0.318791,0.230583 0.330667,0.282071 0.638103,0.600601 0.933485,0.940318 0.383247,0.440473 0.784311,0.851877 1.221533,1.203664 0.378355,0.304242 0.748326,0.625975 1.131048,0.920855 0.332241,0.255957 0.679329,0.479151 1.041963,0.659479 0.252761,0.125638 0.51181,0.216787 0.781515,0.257928 0.197737,0.0303 0.387788,-0.0045 0.565786,-0.11948 0.677057,-0.437517 1.28005,-0.998702 1.776838,-1.740214 0.318266,-0.475209 0.541331,-1.015454 0.686315,-1.609649 0.08542,-0.35031 0.16577,-0.703082 0.235643,-1.059058 0.130834,-0.666868 0.128913,-1.349011 0.122449,-2.030167 -0.0051,-0.519553 -0.03511,-1.036148 -0.120878,-1.545845 -0.1628,-0.965445 -0.455389,-1.853536 -0.962133,-2.608598 -0.340275,-0.506741 -0.742213,-0.90829 -1.24459,-1.124093 -0.129263,-0.05543 -0.260098,-0.08548 -0.397046,-0.08351 -0.09241,0.0012 -0.16053,0.04385 -0.217301,0.134999 -0.0945,0.151998 -0.192671,0.300301 -0.289094,0.450328 -0.0269,0.04163 -0.05188,0.08548 -0.08035,0.125145 -0.242978,0.33947 -0.19599,0.279607 -0.493818,0.309416 -0.151098,0.01503 -0.301322,0.0436 -0.45207,0.06504 -0.07528,0.0106 -0.150749,0.02217 -0.226385,0.0271 -0.08664,0.0057 -0.166295,-0.0061 -0.219746,-0.118248 -0.01921,-0.04016 -0.06847,-0.05641 -0.10673,-0.08573 -0.151621,0.07465 -0.298876,0.167271 -0.47897,0.09213 -0.02236,-0.07661 -0.04769,-0.163823 -0.06952,-0.238467 -0.106555,-0.06356 -0.171885,0.03696 -0.250491,0.0611 -0.06952,0.02118 -0.123498,-0.02587 -0.115813,-0.112828 0.01135,-0.129088 0.029,-0.256697 0.09398,-0.364105 0.06725,-0.110858 0.127865,-0.228613 0.200183,-0.333558 0.195291,-0.283302 0.391456,-0.566358 0.594259,-0.840791 0.748326,-1.012005 1.499448,-2.020315 2.24917,-3.030595 0.069,-0.09287 0.135203,-0.188949 0.197388,-0.276158 -0.03197,-0.10667 -0.08961,-0.07637 -0.134503,-0.07342 -0.420978,0.02735 -0.841604,0.07366 -1.262931,0.08376 -0.615221,0.01478 -1.230965,0.01552 -1.846011,4.92e-4 -0.429536,-0.0106 -0.858374,-0.06011 -1.287736,-0.08696 -0.249791,-0.01576 -0.478272,-0.115046 -0.694875,-0.268029 -0.07336,-0.05198 -0.09275,-0.112335 -0.07371,-0.214571 0.02515,-0.134999 0.08454,-0.237235 0.182889,-0.291924 0.0924,-0.05149 0.187606,-0.09879 0.284902,-0.131304 0.358617,-0.120465 0.717757,-0.238713 1.078645,-0.347354 0.09625,-0.02907 0.199484,-0.02587 0.299576,-0.02759 0.0924,-0.0015 0.184985,0.01872 0.277041,0.01576 0.834442,-0.02784 1.669061,-0.05149 2.502979,-0.09288 0.242979,-0.01207 0.486308,-0.0643 0.726317,-0.120958 0.671642,-0.158402 1.341013,-0.332079 2.01248,-0.49196 0.182016,-0.04336 0.3677,-0.06183 0.551987,-0.08795 0.04996,-0.0072 0.101314,-0.0042 0.151447,0.0018 0.06463,0.0074 0.107777,0.07194 0.09765,0.156925 -0.01135,0.09534 -0.02847,0.191167 -0.05328,0.282316 -0.103061,0.380364 -0.252587,0.733629 -0.434603,1.057826 -0.295383,0.525956 -0.605264,1.039103 -0.916368,1.550279 -0.352678,0.579414 -0.714088,1.14996 -1.070609,1.725433 -0.05118,0.08253 -0.09695,0.170474 -0.175203,0.309415 z"
       id="path13" />
  </g>
</svg>
