<?xml version="1.0" encoding="UTF-8" standalone="no"?>
<!-- Created with Inkscape (http://www.inkscape.org/) -->

<svg
   width="12mm"
   height="24mm"
   viewBox="0 0 12 24"
   version="1.1"
   id="svg14205"
   inkscape:version="1.2.2 (b0a8486541, 2022-12-01)"
   sodipodi:docname="4.svg"
   xmlns:inkscape="http://www.inkscape.org/namespaces/inkscape"
   xmlns:sodipodi="http://sodipodi.sourceforge.net/DTD/sodipodi-0.dtd"
   xmlns="http://www.w3.org/2000/svg"
   xmlns:svg="http://www.w3.org/2000/svg">
  <sodipodi:namedview
     id="namedview14207"
     pagecolor="#ffffff"
     bordercolor="#666666"
     borderopacity="1.0"
     inkscape:showpageshadow="2"
     inkscape:pageopacity="0.0"
     inkscape:pagecheckerboard="0"
     inkscape:deskcolor="#d1d1d1"
     inkscape:document-units="mm"
     showgrid="false"
     inkscape:zoom="3.9710672"
     inkscape:cx="56.659832"
     inkscape:cy="100.47677"
     inkscape:window-width="1854"
     inkscape:window-height="1011"
     inkscape:window-x="0"
     inkscape:window-y="0"
     inkscape:window-maximized="1"
     inkscape:current-layer="layer1" />
  <defs
     id="defs14202" />
  <g
     inkscape:label="Ebene 1"
     inkscape:groupmode="layer"
     id="layer1"
     transform="translate(-69.975292,-56.315741)">
    <path
       style="fill:#1d1d1d;stroke-width:0.264583"
       d="m 79.222655,70.616656 c 0.101804,0.04513 0.194321,0.025 0.285017,0.02014 0.630132,-0.03309 1.257897,-0.102067 1.883476,-0.206217 0.14096,-0.02361 0.282649,-0.05115 0.417782,0.0047 0.01275,0.02778 0.03005,0.04767 0.02805,0.06365 -0.04171,0.336059 -0.143328,0.629069 -0.361325,0.846628 -0.223642,0.223113 -0.46932,0.36985 -0.755065,0.403873 -0.460034,0.05486 -0.919702,0.114564 -1.379736,0.171268 -0.07467,0.0093 -0.14952,0.01389 -0.230927,0.02107 -0.01511,0.07036 -0.03515,0.12961 -0.03988,0.190711 -0.06101,0.775342 -0.127301,1.550454 -0.176473,2.327185 -0.02896,0.457105 -0.03916,0.916986 -0.04116,1.375713 -0.0022,0.498765 -0.104173,0.945455 -0.350216,1.339606 -0.09361,0.149977 -0.173559,0.314998 -0.250777,0.479786 -0.10217,0.217791 -0.231838,0.352956 -0.446375,0.34416 -0.132947,-0.0055 -0.266986,0.03333 -0.400662,0.05138 -0.116739,0.01574 -0.230381,0.03634 -0.340927,-0.05601 -0.04261,-0.03565 -0.114553,-0.0368 -0.168461,-0.02337 -0.144966,0.0361 -0.271721,0.0028 -0.413774,-0.05763 -0.144421,-0.06156 -0.24914,-0.205755 -0.396292,-0.247877 -0.02787,-0.0079 -0.05227,-0.05068 -0.07249,-0.08332 -0.10745,-0.171964 -0.174652,-0.366378 -0.173377,-0.588335 0.0031,-0.51242 -0.0097,-1.026924 0.02167,-1.536798 0.04317,-0.701974 0.117467,-1.40094 0.185216,-2.100368 0.03278,-0.338837 0.08195,-0.675359 0.122201,-1.01327 0.0073,-0.06064 0.0067,-0.122666 0.01074,-0.20668 -0.07085,0 -0.127665,-0.0061 -0.183758,9.34e-4 -0.761076,0.0942 -1.521606,0.197887 -2.283229,0.282595 -0.44346,0.0493 -0.889288,0.06411 -1.333659,0.104614 -0.200149,0.01828 -0.398476,0.06827 -0.598625,0.09166 -0.357683,0.04166 -0.714272,0.143265 -1.076143,0.03703 -0.05518,-0.0162 -0.116557,6.94e-4 -0.175017,0.0047 -0.171556,0.01204 -0.171556,0.01273 -0.297401,-0.173353 -0.05499,0 -0.113642,0.0047 -0.171738,-0.0014 -0.05354,-0.0056 -0.08596,-0.06526 -0.08396,-0.13609 0.0055,-0.187007 0.08942,-0.314997 0.19596,-0.428174 0.161176,-0.17127 0.323262,-0.341382 0.479884,-0.518901 0.521408,-0.591112 0.991822,-1.246334 1.467881,-1.894382 0.745597,-1.015351 1.470795,-2.053848 2.167037,-3.124283 0.584238,-0.898241 1.119122,-1.842307 1.61048,-2.826645 0.387185,-0.775574 0.785663,-1.541658 1.178311,-2.312603 0.338196,-0.66425 0.639604,-1.355114 0.922799,-2.059403 0.04207,-0.104613 0.08906,-0.206449 0.126026,-0.31384 0.09834,-0.285141 0.27664,-0.447615 0.501556,-0.541582 0.143693,-0.05994 0.288477,-0.115492 0.431623,-0.177056 0.116009,-0.04977 0.229288,-0.05579 0.358047,0.02685 0.07795,0.157615 -0.01038,0.335596 -0.004,0.511958 0.053,0.08957 0.125844,0.171501 0.156077,0.274031 0.03733,0.127064 0.04954,0.270097 0.05518,0.407344 0.06556,1.59142 0.04462,3.182377 -0.04152,4.771019 -0.0998,1.843001 -0.21399,3.684612 -0.322897,5.526688 -0.01201,0.202283 -0.03078,0.403872 -0.04425,0.606156 -0.0069,0.106234 -0.02568,0.212466 0.0091,0.342309 z M 77.33772,64.024855 c -0.04954,0.07637 -0.08924,0.125675 -0.118195,0.183767 -0.476241,0.956565 -0.992367,1.878181 -1.519602,2.789613 -0.801143,1.385434 -1.635431,2.736381 -2.580812,3.970681 -0.02331,0.03054 -0.04881,0.05994 -0.06666,0.09559 -0.01566,0.03148 -0.02203,0.07036 -0.03806,0.125445 0.158262,0.05462 0.299951,0.02592 0.438362,0.01064 0.903493,-0.09929 1.806441,-0.203903 2.709569,-0.30921 0.06429,-0.0075 0.126937,-0.03519 0.197599,-0.05554 0.301226,-2.244327 0.640696,-4.462964 0.986904,-6.679982 0.0047,-0.02939 -0.0039,-0.0618 -0.0091,-0.130997 z"
       id="path11" />
  </g>
</svg>
