<?xml version="1.0" encoding="UTF-8" standalone="no"?>
<!-- Created with Inkscape (http://www.inkscape.org/) -->

<svg
   width="12mm"
   height="24mm"
   viewBox="0 0 12 24"
   version="1.1"
   id="svg18753"
   inkscape:version="1.2.2 (b0a8486541, 2022-12-01)"
   sodipodi:docname="5.svg"
   xmlns:inkscape="http://www.inkscape.org/namespaces/inkscape"
   xmlns:sodipodi="http://sodipodi.sourceforge.net/DTD/sodipodi-0.dtd"
   xmlns="http://www.w3.org/2000/svg"
   xmlns:svg="http://www.w3.org/2000/svg">
  <sodipodi:namedview
     id="namedview18755"
     pagecolor="#ffffff"
     bordercolor="#666666"
     borderopacity="1.0"
     inkscape:showpageshadow="2"
     inkscape:pageopacity="0.0"
     inkscape:pagecheckerboard="0"
     inkscape:deskcolor="#d1d1d1"
     inkscape:document-units="mm"
     showgrid="false"
     inkscape:zoom="3.9710672"
     inkscape:cx="52.378867"
     inkscape:cy="74.287335"
     inkscape:window-width="1854"
     inkscape:window-height="1011"
     inkscape:window-x="0"
     inkscape:window-y="0"
     inkscape:window-maximized="1"
     inkscape:current-layer="layer1" />
  <defs
     id="defs18750" />
  <g
     inkscape:label="Ebene 1"
     inkscape:groupmode="layer"
     id="layer1"
     transform="translate(-66.4508,-65.412781)">
    <path
       style="fill:#1d1d1d;stroke-width:0.264583"
       d="m 68.088683,78.999303 c 0.03574,0.523689 0.218225,0.944564 0.378994,1.374562 0.08647,0.231272 0.191087,0.450709 0.285602,0.677049 0.213734,0.511116 0.41549,1.031353 0.642325,1.532113 0.209242,0.46205 0.429714,0.917936 0.671895,1.350399 0.431025,0.769755 0.995304,1.313662 1.688349,1.618409 0.267261,0.117607 0.538077,0.215737 0.816568,0.272446 0.100691,0.02047 0.203254,0.03107 0.305067,0.03674 0.148042,0.0084 0.285415,-0.03846 0.41418,-0.141031 0.93953,-0.748797 1.65335,-1.755 2.059856,-3.115509 0.118658,-0.397452 0.22459,-0.798849 0.283731,-1.221203 0.119407,-0.851119 0.09414,-1.695828 -0.03031,-2.543002 -0.211862,-1.442857 -0.785314,-2.610064 -1.580734,-3.600736 -0.432333,-0.538483 -0.947577,-0.90043 -1.532445,-1.079678 -0.177425,-0.05424 -0.354851,-0.06731 -0.532838,-0.02761 -0.53003,0.118842 -1.011025,0.394987 -1.447103,0.806493 -0.08946,0.08433 -0.178922,0.178508 -0.247234,0.290446 -0.186596,0.305731 -0.361963,0.623052 -0.541635,0.936181 -0.01029,0.01775 -0.01965,0.03698 -0.02733,0.0567 -0.09096,0.232505 -0.228332,0.3331 -0.433457,0.327429 -0.185847,-0.0052 -0.373192,0.0392 -0.559039,0.07125 -0.180421,0.03131 -0.360091,0.07619 -0.477065,-0.141771 -0.133068,0.02983 -0.241059,0.06066 -0.350172,0.07692 -0.109861,0.01627 -0.204376,-0.01553 -0.235631,-0.185164 -0.0052,-0.02786 -0.02995,-0.04956 -0.05072,-0.08235 -0.07412,0.02466 -0.146357,0.05349 -0.220285,0.0715 -0.0481,0.01184 -0.110236,-0.0498 -0.108552,-0.11317 0.0028,-0.110458 -0.0012,-0.231272 0.03089,-0.328909 0.16264,-0.497307 0.182479,-1.023956 0.19689,-1.55159 0.03182,-1.155865 0.06401,-2.311484 0.142427,-3.463896 0.035,-0.514074 0.0642,-1.028888 0.110049,-1.541236 0.04847,-0.542181 0.274746,-0.907088 0.673953,-1.072775 0.154406,-0.0641 0.309747,-0.126237 0.467333,-0.172837 0.457226,-0.135608 0.915014,-0.26998 1.374485,-0.391781 0.808708,-0.214505 1.623592,-0.24434 2.443342,-0.124019 0.746759,0.109719 1.483599,0.287241 2.211454,0.530347 0.239936,0.08013 0.47669,0.173577 0.696226,0.329402 0.156651,0.111198 0.167133,0.146455 0.104809,0.375015 -0.02003,0.07348 -0.03912,0.154098 -0.07655,0.210807 -0.06943,0.105034 -0.112481,0.224861 -0.143736,0.353072 -0.04268,0.17481 -0.14093,0.250502 -0.268759,0.261597 -0.246487,0.02096 -0.494283,0.05696 -0.739834,0.04118 -0.3483,-0.02244 -0.697349,-0.06806 -1.042094,-0.137085 -0.480058,-0.09591 -0.955252,-0.234478 -1.434936,-0.332608 -0.386855,-0.07914 -0.777453,-0.129936 -1.167115,-0.183439 -0.109113,-0.01504 -0.22122,0.001 -0.331456,0.01208 -0.06607,0.0066 -0.107802,0.0641 -0.117347,0.15262 -0.0071,0.06657 -0.01123,0.133881 -0.01347,0.200945 -0.03874,1.09891 -0.07767,2.19782 -0.114915,3.29673 -0.0041,0.121306 -0.02265,0.247544 0.03444,0.358248 0.07524,0.06632 0.14879,0.02072 0.222718,0.001 0.492786,-0.131415 0.984448,-0.270967 1.478918,-0.391534 0.588049,-0.143497 1.181339,-0.219437 1.780617,-0.194535 1.308045,0.054 2.415082,0.701705 3.315871,1.952741 0.669837,0.930018 1.145592,2.002547 1.37149,3.259007 0.242183,1.346455 0.209804,2.675156 -0.156275,3.975998 -0.49129,1.746372 -1.28278,3.210433 -2.409842,4.346328 -0.900976,0.907827 -1.922107,1.39182 -3.054599,1.436694 -0.62155,0.02466 -1.245533,0.03649 -1.866147,-0.0069 -1.011962,-0.07101 -1.960476,-0.446025 -2.807738,-1.199013 -0.609947,-0.542181 -1.071289,-1.264597 -1.40387,-2.125085 -0.139245,-0.360222 -0.22309,-0.752002 -0.285415,-1.148961 -0.07505,-0.478323 -0.0094,-0.937908 0.118659,-1.386397 0.213359,-0.746331 0.522544,-1.409327 0.974716,-1.949782 0.138871,-0.165935 0.268197,-0.345428 0.402764,-0.517526 0.02901,-0.03674 0.06195,-0.06854 0.110048,-0.121307 z"
       id="path15" />
  </g>
</svg>
