<?xml version="1.0" encoding="UTF-8" standalone="no"?>
<!-- Created with Inkscape (http://www.inkscape.org/) -->

<svg
   width="12mm"
   height="24mm"
   viewBox="0 0 11.999999 24"
   version="1.1"
   id="svg23658"
   inkscape:version="1.2.2 (b0a8486541, 2022-12-01)"
   sodipodi:docname="6.svg"
   xmlns:inkscape="http://www.inkscape.org/namespaces/inkscape"
   xmlns:sodipodi="http://sodipodi.sourceforge.net/DTD/sodipodi-0.dtd"
   xmlns="http://www.w3.org/2000/svg"
   xmlns:svg="http://www.w3.org/2000/svg">
  <sodipodi:namedview
     id="namedview23660"
     pagecolor="#ffffff"
     bordercolor="#666666"
     borderopacity="1.0"
     inkscape:showpageshadow="2"
     inkscape:pageopacity="0.0"
     inkscape:pagecheckerboard="0"
     inkscape:deskcolor="#d1d1d1"
     inkscape:document-units="mm"
     showgrid="false"
     inkscape:zoom="5.6159372"
     inkscape:cx="65.616831"
     inkscape:cy="70.869738"
     inkscape:window-width="1920"
     inkscape:window-height="1131"
     inkscape:window-x="0"
     inkscape:window-y="0"
     inkscape:window-maximized="1"
     inkscape:current-layer="layer1" />
  <defs
     id="defs23655" />
  <g
     inkscape:label="Ebene 1"
     inkscape:groupmode="layer"
     id="layer1"
     transform="translate(-67.440211,-72.199175)">
    <path
       style="fill:#000080;stroke-width:0.264583"
       d="m 75.942605,75.140218 c -0.130842,0.05661 -0.254732,0.0628 -0.377192,0.05708 -0.281516,-0.01284 -0.532159,0.08919 -0.773603,0.24618 -0.438525,0.285426 -0.850881,0.615095 -1.242998,0.979728 -0.728423,0.677411 -1.384267,1.43855 -1.948115,2.303631 -0.44016,0.675509 -0.77994,1.416428 -1.018931,2.216338 -0.30339,1.015167 -0.507216,2.057925 -0.577953,3.131368 -0.05029,0.766609 -9.79e-4,1.527508 0.143925,2.278893 0.0072,0.03735 0.01656,0.07398 0.02412,0.111079 0.05969,0.288995 0.115304,0.325623 0.324652,0.152465 0.588584,-0.486653 1.235842,-0.836062 1.931553,-1.054652 0.904854,-0.284473 1.819726,-0.519477 2.754224,-0.626986 0.631925,-0.07278 1.26426,-0.06066 1.889643,0.08753 0.514168,0.121782 0.987039,0.355357 1.408186,0.723556 0.224885,0.196707 0.417264,0.43028 0.583269,0.694776 0.296643,0.472381 0.359407,0.99495 0.248395,1.553197 -0.02576,0.129394 -0.06173,0.259263 -0.111215,0.378904 -0.336305,0.811087 -0.77667,1.530838 -1.401849,2.076716 -0.395796,0.345842 -0.828189,0.61795 -1.293291,0.820126 -0.699391,0.30398 -1.421883,0.466198 -2.167069,0.491172 -0.640717,0.02141 -1.281025,0.02569 -1.921536,-0.02759 -0.628042,-0.05233 -1.235026,-0.200987 -1.821566,-0.465721 -0.03824,-0.01712 -0.07524,-0.03853 -0.114077,-0.05304 -0.0875,-0.03282 -0.142905,-0.01 -0.18093,0.08824 -0.04723,0.121782 -0.08975,0.246418 -0.126753,0.372957 -0.158442,0.543262 -0.333443,1.078676 -0.527252,1.606714 -0.134931,0.367725 -0.246556,0.747105 -0.368811,1.121727 -0.177455,-0.02141 -0.415219,-0.137482 -0.568549,-0.289946 -0.231632,-0.230244 -0.442818,-0.484749 -0.614958,-0.778263 -0.147401,-0.251414 -0.218342,-0.542074 -0.225088,-0.838441 -0.0084,-0.371531 -0.0038,-0.748769 0.04436,-1.114829 0.04048,-0.307785 0.143107,-0.606532 0.233675,-0.9029 0.08525,-0.278529 0.183792,-0.552538 0.290306,-0.821078 0.05888,-0.14842 0.0507,-0.268776 -0.02698,-0.400549 -0.115714,-0.195991 -0.236743,-0.390795 -0.329968,-0.601297 -0.345913,-0.78088 -0.560984,-1.607905 -0.620068,-2.487494 -0.05418,-0.806568 0.0055,-1.604573 0.136567,-2.395443 0.200147,-1.209021 0.554238,-2.357862 1.044895,-3.447479 0.309931,-0.688116 0.703685,-1.312724 1.133418,-1.905698 0.83841,-1.156691 1.819112,-2.123574 2.916753,-2.932045 0.573865,-0.422669 1.186368,-0.740445 1.849777,-0.91836 0.304005,-0.08158 0.608621,-0.1596 0.913441,-0.235954 0.122051,-0.03045 0.245329,-0.02212 0.367175,0.0095 0.02413,0.0062 0.04865,0.01046 0.07196,0.01926 0.184201,0.06874 0.247782,0.21193 0.18093,0.421005 -0.03619,0.115598 -0.08362,0.226914 -0.132477,0.355594 z m -1.308624,15.333833 c 0.20117,0.01903 0.488613,-0.07255 0.759497,-0.254506 0.264342,-0.177678 0.511714,-0.380331 0.730671,-0.628653 0.147401,-0.167212 0.286829,-0.343462 0.388641,-0.552537 0.260048,-0.533986 0.268022,-1.070588 -0.0041,-1.603385 -0.179703,-0.351788 -0.429734,-0.625322 -0.73251,-0.825121 -0.469191,-0.309925 -0.967821,-0.467624 -1.512042,-0.333235 -0.844339,0.208837 -1.595454,0.636263 -2.243531,1.301307 -0.272519,0.279481 -0.506808,0.598683 -0.691622,0.964029 -0.09813,0.19409 -0.09016,0.269015 0.04416,0.429806 0.520098,0.622942 1.130761,1.069873 1.85857,1.287036 0.423395,0.126062 0.854152,0.189332 1.402257,0.215259 z"
       id="path7" />
  </g>
</svg>
