<?xml version="1.0" encoding="UTF-8" standalone="no"?>
<!-- Created with Inkscape (http://www.inkscape.org/) -->

<svg
   width="12mm"
   height="24mm"
   viewBox="0 0 12 24"
   version="1.1"
   id="svg28563"
   inkscape:version="1.2.2 (b0a8486541, 2022-12-01)"
   sodipodi:docname="7.svg"
   xmlns:inkscape="http://www.inkscape.org/namespaces/inkscape"
   xmlns:sodipodi="http://sodipodi.sourceforge.net/DTD/sodipodi-0.dtd"
   xmlns="http://www.w3.org/2000/svg"
   xmlns:svg="http://www.w3.org/2000/svg">
  <sodipodi:namedview
     id="namedview28565"
     pagecolor="#ffffff"
     bordercolor="#666666"
     borderopacity="1.0"
     inkscape:showpageshadow="2"
     inkscape:pageopacity="0.0"
     inkscape:pagecheckerboard="0"
     inkscape:deskcolor="#d1d1d1"
     inkscape:document-units="mm"
     showgrid="false"
     inkscape:zoom="5.6159371"
     inkscape:cx="3.9174228"
     inkscape:cy="65.883929"
     inkscape:window-width="1854"
     inkscape:window-height="1011"
     inkscape:window-x="0"
     inkscape:window-y="0"
     inkscape:window-maximized="1"
     inkscape:current-layer="layer1" />
  <defs
     id="defs28560" />
  <g
     inkscape:label="Ebene 1"
     inkscape:groupmode="layer"
     id="layer1"
     transform="translate(-86.469171,-69.207898)">
    <path
       style="fill:#1d1d1d;stroke-width:0.264583"
       d="m 87.913748,90.994122 c -0.221498,0.08141 -0.410779,0.168936 -0.618785,0.07383 -0.01994,-0.07946 -0.03947,-0.157201 -0.05558,-0.221255 -0.07773,-0.06112 -0.13471,-0.02127 -0.194113,0.0051 -0.07511,0.0335 -0.157063,0.09608 -0.231164,0.02151 -0.09141,-0.09192 -0.0081,-0.194362 0.01248,-0.288977 0.0127,-0.05893 0.04169,-0.116373 0.0731,-0.166491 0.24707,-0.393371 0.42145,-0.831726 0.592004,-1.27057 0.497365,-1.280593 1.054534,-2.526959 1.613715,-3.772591 0.571668,-1.273504 1.124809,-2.557764 1.688624,-3.835913 0.189281,-0.429064 0.387421,-0.85275 0.578111,-1.281081 0.03987,-0.08923 0.111757,-0.171627 0.0729,-0.301446 -0.05839,-0.0065 -0.120615,-0.01687 -0.182835,-0.02005 -0.668925,-0.03569 -1.326978,-0.147178 -1.964894,-0.385792 -0.137127,-0.05134 -0.264589,-0.137153 -0.395072,-0.210254 -0.06665,-0.0374 -0.08417,-0.104393 -0.07028,-0.185071 0.02476,-0.143755 0.09202,-0.250839 0.21143,-0.305847 0.09303,-0.04279 0.18787,-0.08239 0.284726,-0.111483 0.30909,-0.0929 0.617176,-0.191673 0.929488,-0.267218 0.458501,-0.110751 0.923244,-0.12053 1.389197,-0.06821 0.145383,0.01638 0.290565,0.03471 0.435949,0.0489 0.05357,0.0051 0.107929,7.33e-4 0.175185,7.33e-4 0.04571,-0.0775 0.09263,-0.15329 0.13592,-0.231523 0.736985,-1.333646 1.473165,-2.668026 2.210352,-4.001427 0.07813,-0.141066 0.162297,-0.277975 0.242037,-0.417818 0.04087,-0.07163 0.07309,-0.146689 0.02658,-0.237148 -0.103095,-0.05354 -0.213443,-0.03154 -0.320566,-0.01662 -0.707588,0.09828 -1.417189,0.166737 -2.129608,0.193629 -0.977009,0.03668 -1.95442,0.04718 -2.930423,-0.02714 -0.495754,-0.03766 -0.976405,-0.161113 -1.418798,-0.432976 -0.119408,-0.07334 -0.240829,-0.15378 -0.3399,-0.257928 -0.242237,-0.25475 -0.194918,-0.631741 0.09947,-0.801654 0.145788,-0.0841 0.302449,-0.14889 0.459712,-0.20072 0.342113,-0.112706 0.688658,-0.207565 1.031377,-0.317582 0.179413,-0.05769 0.354398,-0.127863 0.500988,0.07579 0.327818,0.126886 0.637714,0.318315 0.98305,0.380902 0.270027,0.0489 0.542068,0.09633 0.814711,0.111239 0.886397,0.04816 1.770981,0.0068 2.654155,-0.09339 0.581535,-0.06601 1.163866,-0.126397 1.746417,-0.17896 0.392053,-0.03544 0.785518,-0.03937 1.175953,0.02518 0.161496,0.02665 0.323184,0.07041 0.477032,0.131286 0.100479,0.03985 0.195111,0.11344 0.278474,0.191429 0.18748,0.175782 0.26399,0.400949 0.16734,0.669879 -0.06223,0.173338 -0.128485,0.347652 -0.214063,0.506077 -0.687638,1.27228 -1.380724,2.54065 -2.071403,3.810486 -0.115986,0.213188 -0.229952,0.427599 -0.34312,0.642742 -0.02737,0.05183 -0.04812,0.108061 -0.06945,0.156467 0.0634,0.08825 0.129067,0.04548 0.186056,0.0335 0.296212,-0.06283 0.591005,-0.134954 0.887401,-0.196807 0.323397,-0.06748 0.64739,-0.131042 0.972183,-0.188251 0.116583,-0.02054 0.236394,-0.02494 0.354781,-0.02347 0.126464,0.0015 0.170763,0.06919 0.136739,0.198274 -0.04246,0.161114 -0.08879,0.329562 -0.201766,0.439335 -0.124843,0.121262 -0.197126,0.275774 -0.255724,0.43811 -0.0505,0.139844 -0.13471,0.219055 -0.249692,0.269173 -0.05964,0.02616 -0.119809,0.05208 -0.181219,0.07114 -0.75813,0.234214 -1.51224,0.48823 -2.290299,0.62465 -0.143168,0.02518 -0.227941,0.09413 -0.28835,0.24277 -0.204382,0.502898 -0.425881,0.996505 -0.624625,1.502094 -0.57046,1.45124 -1.178775,2.880722 -1.828973,4.286979 -0.414806,0.897492 -0.789138,1.817719 -1.158838,2.740637 -0.152432,0.380168 -0.318153,0.753736 -0.487701,1.124369 -0.204985,0.448134 -0.501995,0.821457 -0.77605,1.212872 -0.06383,0.09144 -0.143368,0.159158 -0.252709,0.169181 -0.345738,0.03179 -0.691477,0.06577 -1.037215,0.0995 -0.159681,0.01515 -0.309293,-0.0018 -0.414405,-0.182139 z"
       id="path17" />
  </g>
</svg>
