<?xml version="1.0" encoding="UTF-8" standalone="no"?>
<!-- Created with Inkscape (http://www.inkscape.org/) -->

<svg
   width="12mm"
   height="24mm"
   viewBox="0 0 12 24.000001"
   version="1.1"
   id="svg32381"
   inkscape:version="1.2.2 (b0a8486541, 2022-12-01)"
   sodipodi:docname="8.svg"
   xmlns:inkscape="http://www.inkscape.org/namespaces/inkscape"
   xmlns:sodipodi="http://sodipodi.sourceforge.net/DTD/sodipodi-0.dtd"
   xmlns="http://www.w3.org/2000/svg"
   xmlns:svg="http://www.w3.org/2000/svg">
  <sodipodi:namedview
     id="namedview32383"
     pagecolor="#ffffff"
     bordercolor="#666666"
     borderopacity="1.0"
     inkscape:showpageshadow="2"
     inkscape:pageopacity="0.0"
     inkscape:pagecheckerboard="0"
     inkscape:deskcolor="#d1d1d1"
     inkscape:document-units="mm"
     showgrid="false"
     inkscape:zoom="5.6159372"
     inkscape:cx="79.060713"
     inkscape:cy="70.15748"
     inkscape:window-width="1854"
     inkscape:window-height="1011"
     inkscape:window-x="0"
     inkscape:window-y="0"
     inkscape:window-maximized="1"
     inkscape:current-layer="layer1" />
  <defs
     id="defs32378" />
  <g
     inkscape:label="Ebene 1"
     inkscape:groupmode="layer"
     id="layer1"
     transform="translate(-71.916279,-60.271533)">
    <path
       style="fill:#1d1d1d;stroke-width:0.264583"
       d="m 83.712611,75.362232 c -0.0015,-0.105972 -0.0121,-0.211706 -0.01817,-0.317679 -6.25e-4,-0.0092 0.0024,-0.01846 0.0025,-0.02791 0.001,-0.05842 0.0056,-0.117088 0.0015,-0.175279 -0.0044,-0.06103 -0.01753,-0.121819 -0.0263,-0.182612 -10e-4,-0.0075 0.0021,-0.0156 0.0016,-0.02318 -0.0032,-0.05937 -0.0025,-0.119218 -0.01106,-0.178118 -0.009,-0.06032 -0.02756,-0.119928 -0.04091,-0.180009 -0.0024,-0.01041 0.0021,-0.02176 0.001,-0.03264 -0.0015,-0.01655 -0.0038,-0.03312 -0.0074,-0.04967 -0.0052,-0.02578 -0.0119,-0.05132 -0.01774,-0.07687 -0.0038,-0.01633 -0.006,-0.03312 -0.01107,-0.04921 -0.01836,-0.06032 -0.04614,-0.119927 -0.05323,-0.180956 -0.004,-0.03336 -0.0071,-0.06222 -0.02921,-0.0906 -0.0096,-0.0123 -0.0096,-0.02957 -0.01377,-0.04472 -0.0067,-0.02319 -0.01231,-0.04659 -0.02024,-0.06955 -0.0046,-0.01324 -0.01523,-0.02531 -0.01878,-0.0388 -0.01565,-0.05842 -0.02421,-0.118509 -0.04593,-0.17528 -0.02212,-0.05842 -0.05844,-0.113067 -0.08432,-0.170547 -0.01002,-0.02201 -0.0013,-0.04991 -0.01231,-0.07143 -0.03026,-0.05795 -0.06825,-0.113305 -0.09936,-0.171259 -0.01189,-0.022 -0.0079,-0.04967 -0.02024,-0.07143 -0.03132,-0.05606 -0.06909,-0.109758 -0.101234,-0.165581 -0.01336,-0.02319 -0.01483,-0.05109 -0.02797,-0.07428 -0.03486,-0.06174 -0.07347,-0.122295 -0.109792,-0.183322 -0.004,-0.0066 -0.0026,-0.01537 -0.0056,-0.02271 -0.005,-0.01254 -0.0098,-0.02531 -0.01712,-0.0369 -0.01544,-0.0246 -0.03297,-0.04849 -0.04843,-0.0731 -0.03507,-0.05582 -0.06804,-0.112359 -0.104156,-0.167473 -0.03361,-0.05109 -0.07097,-0.100768 -0.105827,-0.151389 -0.0359,-0.05204 -0.06972,-0.105263 -0.107079,-0.156829 -0.02776,-0.03832 -0.05802,-0.07523 -0.08955,-0.111649 -0.04884,-0.0563 -0.100191,-0.110938 -0.149242,-0.166999 -0.04091,-0.04659 -0.0764,-0.09651 -0.120647,-0.14098 -0.07995,-0.07996 -0.163018,-0.158011 -0.247556,-0.235125 -0.08537,-0.07805 -0.173872,-0.153754 -0.261538,-0.230395 -0.0077,-0.0066 -0.0192,-0.01018 -0.02797,-0.01609 -0.05886,-0.03856 -0.117724,-0.07735 -0.176168,-0.11638 -0.04237,-0.02815 -0.0837,-0.05748 -0.126908,-0.08492 -0.06242,-0.03974 -0.12336,-0.08137 -0.189946,-0.116143 -0.06158,-0.03217 -0.129412,-0.0563 -0.194745,-0.08326 -0.04864,-0.0201 -0.0979,-0.03974 -0.147156,-0.0589 -0.06471,-0.02531 -0.128161,-0.05276 -0.194954,-0.07404 -0.0743,-0.02365 -0.151957,-0.04092 -0.227725,-0.06174 -0.07055,-0.0194 -0.139433,-0.04424 -0.211653,-0.05842 -0.08913,-0.01751 -0.179509,-0.03099 -0.269681,-0.04472 0.02546,-0.01964 0.05364,-0.03713 0.07827,-0.05748 0.156758,-0.129625 0.307462,-0.264218 0.460044,-0.397157 0.03235,-0.02814 0.06242,-0.05842 0.09184,-0.08871 0.06221,-0.06458 0.123777,-0.129626 0.184935,-0.194911 0.06325,-0.06742 0.128369,-0.133648 0.188276,-0.202955 0.08057,-0.0932 0.158845,-0.187817 0.234613,-0.283617 0.07827,-0.09888 0.155922,-0.198224 0.228143,-0.299938 0.07535,-0.105971 0.146528,-0.214309 0.214784,-0.323355 0.06012,-0.09604 0.117306,-0.19373 0.169281,-0.292842 0.05427,-0.103607 0.103322,-0.209105 0.149659,-0.315313 0.04884,-0.111886 0.09351,-0.224953 0.137345,-0.338023 0.03173,-0.08208 0.06074,-0.16487 0.08787,-0.247897 0.02525,-0.0771 0.0478,-0.155173 0.06909,-0.232997 0.0213,-0.07805 0.04112,-0.156355 0.05886,-0.234887 0.01774,-0.0783 0.03423,-0.157066 0.04696,-0.236071 0.01293,-0.08018 0.02129,-0.16085 0.03026,-0.241513 0.009,-0.08018 0.01712,-0.160613 0.02421,-0.241036 0.0032,-0.03572 0.0048,-0.07168 0.0044,-0.107392 -4.18e-4,-0.04802 -0.0055,-0.09604 -0.0046,-0.144055 0.001,-0.08018 0.0081,-0.160141 0.0071,-0.24033 -0.0013,-0.08233 -0.0094,-0.164634 -0.0142,-0.246951 -4.18e-4,-0.0071 0.0019,-0.01442 0.0019,-0.02152 8.62e-4,-0.04541 0.0044,-0.09107 0.001,-0.136249 -0.0033,-0.04754 -0.01356,-0.09462 -0.02046,-0.141927 -8.63e-4,-0.0059 0.0016,-0.01205 0.0013,-0.01797 -0.0025,-0.04612 -0.0019,-0.09249 -0.0087,-0.138379 -0.0069,-0.04708 -0.0215,-0.0932 -0.03173,-0.139796 -0.0019,-0.008 0.0016,-0.01703 8.64e-4,-0.02531 -10e-4,-0.01301 -0.0029,-0.02578 -0.0056,-0.03856 -0.0042,-0.0201 -0.0092,-0.03974 -0.01377,-0.05985 -0.0029,-0.01278 -0.0048,-0.02578 -0.0086,-0.03831 -0.0144,-0.04684 -0.0359,-0.0932 -0.04154,-0.140507 -0.0029,-0.02578 -0.0055,-0.04827 -0.02275,-0.0705 -0.0075,-0.0097 -0.0074,-0.02295 -0.01064,-0.03477 -0.0052,-0.01798 -0.0096,-0.03619 -0.01565,-0.05417 -0.0036,-0.01041 -0.01191,-0.01964 -0.01461,-0.03004 -0.0121,-0.04541 -0.01878,-0.09202 -0.03569,-0.13625 -0.01733,-0.04541 -0.0455,-0.08776 -0.06555,-0.132464 -0.0077,-0.01727 -8.62e-4,-0.0388 -0.0096,-0.05559 -0.02337,-0.04518 -0.05302,-0.088 -0.07724,-0.132937 -0.0092,-0.01703 -0.0062,-0.03856 -0.01565,-0.05559 -0.02442,-0.04353 -0.05385,-0.0854 -0.0787,-0.12868 -0.01044,-0.01821 -0.01148,-0.0395 -0.02171,-0.05772 -0.02714,-0.04802 -0.05698,-0.09485 -0.08537,-0.142635 -0.0032,-0.0052 -0.0021,-0.01183 -0.0044,-0.01751 -0.0038,-0.0097 -0.0077,-0.01964 -0.01336,-0.02862 -0.0119,-0.01915 -0.02568,-0.03761 -0.03757,-0.05677 -0.02714,-0.04329 -0.05281,-0.08728 -0.08098,-0.130099 -0.02608,-0.03974 -0.05511,-0.0783 -0.08224,-0.117563 -0.02797,-0.04044 -0.05427,-0.08185 -0.08307,-0.121819 -0.0215,-0.02981 -0.04509,-0.05842 -0.06972,-0.08681 -0.03799,-0.04376 -0.07786,-0.08634 -0.116054,-0.129863 -0.03173,-0.03619 -0.05928,-0.07498 -0.09372,-0.109519 -0.06199,-0.06221 -0.1267,-0.122767 -0.192242,-0.182613 -0.06638,-0.06055 -0.135049,-0.119455 -0.203304,-0.179064 -0.0058,-0.0052 -0.01483,-0.008 -0.02171,-0.01254 -0.04571,-0.03004 -0.09142,-0.06008 -0.136926,-0.09035 -0.03297,-0.02176 -0.06492,-0.04472 -0.09852,-0.066 -0.04843,-0.03075 -0.09602,-0.06315 -0.147574,-0.09012 -0.0478,-0.02483 -0.100608,-0.04376 -0.151329,-0.06482 -0.03778,-0.01561 -0.07598,-0.03099 -0.114385,-0.0459 -0.05029,-0.01964 -0.09977,-0.04092 -0.151539,-0.05748 -0.05781,-0.01846 -0.117933,-0.03194 -0.177004,-0.04802 -0.05489,-0.01514 -0.108331,-0.03454 -0.164479,-0.04541 -0.09852,-0.0194 -0.197669,-0.03785 -0.297859,-0.04921 -0.146529,-0.01655 -0.293894,-0.03146 -0.441466,-0.03808 -0.431029,-0.01963 -0.85517,0.02981 -1.276807,0.09415 -0.357765,0.0544 -0.714485,0.113305 -1.070998,0.172677 -0.213113,0.03549 -0.42289,0.08208 -0.620557,0.157303 -0.244216,0.09296 -0.473401,0.206738 -0.68422,0.343462 -0.120854,0.0783 -0.238996,0.15943 -0.35693,0.240564 -0.03611,0.02483 -0.06846,0.05346 -0.101025,0.08137 -0.04633,0.03999 -0.0908,0.08185 -0.137137,0.121821 -0.03945,0.03406 -0.08182,0.066 -0.120021,0.100766 -0.05261,0.04778 -0.102695,0.09746 -0.154042,0.146185 -0.0038,0.0038 -0.0077,0.0073 -0.01127,0.01112 -0.03611,0.03904 -0.07013,0.07924 -0.108539,0.116616 -0.03736,0.03667 -0.07911,0.0705 -0.118559,0.105736 -0.0038,0.0033 -0.0052,0.0087 -0.0086,0.01254 -0.0192,0.02106 -0.03883,0.04163 -0.05781,0.06269 -0.0086,0.0095 -0.01628,0.0194 -0.02401,0.02933 -0.01336,0.01679 -0.0263,0.03383 -0.03986,0.05062 -0.0071,0.0087 -0.01586,0.01703 -0.02233,0.02601 -0.03194,0.04472 -0.06325,0.08942 -0.09497,0.134121 -0.01503,0.02106 -0.02755,0.04399 -0.04593,0.06292 -0.03297,0.03359 -0.06094,0.0686 -0.07848,0.109283 -0.0029,0.0069 -0.01565,0.01087 -0.02295,0.01703 -0.006,0.0052 -0.01544,0.01111 -0.01565,0.01679 -8.62e-4,0.03501 -0.02401,0.05819 -0.05552,0.07878 -0.0069,0.0046 -0.0069,0.01537 -0.01127,0.02294 -0.02379,0.04117 -0.0478,0.08232 -0.07223,0.123477 -0.0019,0.0031 -0.0074,0.0045 -0.0096,0.0075 -0.03235,0.0414 -0.06428,0.08279 -0.09643,0.124186 -0.02505,0.04849 -0.04864,0.08989 -0.07263,0.131045 -0.0024,0.0041 -0.0096,0.0061 -0.01253,0.01041 -0.02902,0.04281 -0.05781,0.08586 -0.08642,0.12868 -0.02275,0.05039 -0.04488,0.09722 -0.06721,0.144056 -0.03841,0.02082 -0.04175,0.0492 -0.04217,0.07924 -2.08e-4,0.0095 -0.0015,0.02033 -0.0074,0.02791 -0.0407,0.0518 -0.03549,0.112831 -0.05072,0.169366 -0.01086,0.03998 -0.0021,0.0835 -0.0021,0.122529 0.07201,0.02909 0.128579,0.02483 0.184102,-0.01679 0.06345,-0.04754 0.134631,-0.02863 0.152998,0.0343 0.02714,0.09248 -8.63e-4,0.08681 0.136719,0.09178 0.01044,4.72e-4 0.0215,-7.09e-4 0.0311,0.0019 0.0092,0.0026 0.02359,0.0087 0.02379,0.01396 0.0016,0.03076 0.0058,0.06269 -0.0021,0.09225 -0.01211,0.0459 -0.03528,0.08989 -0.0503,0.135303 -0.01649,0.05039 -0.02881,0.101477 -0.043,0.152334 -6.25e-4,0.0024 -0.0032,0.0044 -0.004,0.0066 -0.01461,0.0459 -0.02985,0.09178 -0.04383,0.13767 -0.01544,0.05062 -0.03005,0.101478 -0.04466,0.152099 -0.0094,0.0324 -0.01712,0.06529 -0.02692,0.09769 -0.01399,0.04636 -0.03215,0.09178 -0.04341,0.138614 -0.0192,0.07996 -0.03339,0.160614 -0.05177,0.240566 -0.0167,0.07286 -0.03716,0.145238 -0.05385,0.218093 -0.0058,0.02602 -0.0033,0.05345 -0.0081,0.07971 -0.0213,0.116853 -0.05156,0.233233 -0.06428,0.350795 -0.0169,0.156829 -0.02547,0.314841 -0.02881,0.472379 -0.0033,0.159903 0.0038,0.320044 0.0069,0.480184 0.0019,0.0958 -0.0013,0.191837 0.0077,0.287401 0.02275,0.24033 0.0286,0.482077 0.08307,0.72004 0.02651,0.115198 0.05698,0.229922 0.08787,0.344645 0.0081,0.03075 0.02317,0.06032 0.0359,0.09036 0.0033,0.0075 0.0098,0.01418 0.01461,0.02152 0.0079,0.01206 0.01753,0.02365 0.02275,0.03643 0.01962,0.04636 0.02442,0.10195 0.06053,0.136486 0.117515,0.112358 0.196208,0.308217 0.299947,0.440917 0.174081,0.222352 0.376341,0.417264 0.604484,0.564631 0.166568,0.107391 0.368619,0.144765 0.526837,0.248136 0.04007,0.02626 0.09017,0.03051 0.129205,0.05039 0.03215,0.01633 0.06031,0.02862 0.09706,0.03146 0.0036,2.37e-4 0.0077,0.0017 0.0117,0.0026 -0.964963,0.443047 -1.637076,1.590285 -2.129263,2.57289 -0.142147,0.283616 -0.274481,0.573383 -0.397006,0.86859 -0.249851,0.601293 -0.420802,1.275208 -0.568166,1.917663 -0.0215,0.09391 -0.04779,0.186869 -0.0693,0.280776 -0.0077,0.03359 -0.0042,0.0686 -0.01044,0.102661 -0.02755,0.150443 -0.06638,0.300175 -0.08266,0.451325 -0.02192,0.202009 -0.03277,0.405201 -0.03716,0.607918 -0.0044,0.205795 0.0048,0.412062 0.0087,0.618091 0.0024,0.12324 -0.0016,0.246952 0.01002,0.369717 0.02943,0.3094 0.03674,0.620457 0.107079,0.926545 0.03402,0.148313 0.07347,0.295916 0.112923,0.44352 0.01064,0.03974 0.02985,0.07783 0.04633,0.11638 0.0042,0.0097 0.01273,0.01845 0.01879,0.02768 0.01002,0.01537 0.02233,0.03051 0.02943,0.04684 0.02525,0.0596 0.03132,0.131281 0.07786,0.175751 0.03736,0.03572 0.04633,0.06931 0.05949,0.107627 0.0029,0.0083 0.01023,0.01964 0.01858,0.02153 0.04154,0.01041 0.03715,0.03809 0.04404,0.06387 0.0051,0.01916 0.0169,0.04754 0.03402,0.05251 0.04153,0.01205 0.04091,0.03524 0.04571,0.06197 0.0032,0.01798 0.01127,0.04541 0.02608,0.05015 0.03736,0.01205 0.03736,0.03383 0.04447,0.05842 0.0058,0.0201 0.02046,0.05015 0.0384,0.05417 0.04487,0.0099 0.04884,0.03146 0.05302,0.0615 0.0025,0.01797 0.0167,0.04494 0.03297,0.0492 0.03778,0.0099 0.04654,0.02791 0.04676,0.05535 2.08e-4,0.02366 0,0.04991 0.03965,0.05322 0.043,0.0033 0.05322,0.02437 0.05239,0.0544 -6.26e-4,0.02436 0.0016,0.04921 0.04112,0.0518 0.04404,0.0029 0.05343,0.02578 0.05135,0.05512 -0.0021,0.03075 0.01399,0.04754 0.05197,0.04967 0.03862,0.0021 0.05511,0.0194 0.05135,0.04945 -0.0042,0.03383 0.01503,0.04921 0.05552,0.05039 0.03235,0.001 0.05156,0.01466 0.04822,0.0414 -0.005,0.04068 0.02401,0.04849 0.06492,0.05487 0.01879,0.0029 0.048,0.02247 0.0478,0.03407 -8.63e-4,0.04259 0.03048,0.0459 0.06888,0.05251 0.02171,0.0038 0.05697,0.02034 0.05697,0.03123 4.18e-4,0.04329 0.03549,0.04376 0.07139,0.05204 0.02171,0.005 0.05468,0.0194 0.05636,0.03194 0.0044,0.03122 0.02443,0.03595 0.05511,0.04259 0.02672,0.0057 0.06679,0.01773 0.07159,0.03288 0.0096,0.03076 0.0311,0.03312 0.06011,0.03926 0.02776,0.0059 0.07117,0.01466 0.0764,0.02957 0.0117,0.0324 0.03757,0.03406 0.067,0.04068 0.02485,0.0055 0.06428,0.01112 0.0693,0.02365 0.01315,0.0343 0.04299,0.03524 0.07514,0.04022 0.01858,0.0031 0.04822,0.0052 0.05281,0.01442 0.02213,0.04424 0.08098,0.03051 0.112506,0.05133 0.05156,0.03382 0.116263,0.03926 0.166566,0.06505 0.04133,0.02106 0.07765,0.0369 0.125031,0.04044 0.0142,0.0012 0.03507,0.0077 0.03966,0.01655 0.01899,0.03549 0.0574,0.02838 0.09184,0.03476 0.02735,0.0052 0.05156,0.02058 0.07682,0.03193 0.0098,0.0046 0.01899,0.01418 0.0286,0.01443 0.06304,0.001 0.114803,0.02768 0.171786,0.04329 0.126074,0.03477 0.254652,0.06553 0.384483,0.08989 0.118976,0.02223 0.240248,0.04235 0.36173,0.04827 0.317271,0.01514 0.634959,0.02744 0.952857,0.03075 0.331464,0.0036 0.663347,-0.0015 0.994811,-0.008 0.414748,-0.0083 0.826783,-0.03454 1.219407,-0.156829 0.05865,-0.01821 0.116888,-0.03737 0.174915,-0.05701 0.07535,-0.02556 0.151539,-0.04944 0.224595,-0.07878 0.06972,-0.02791 0.135466,-0.06268 0.20393,-0.09296 0.04988,-0.02201 0.101861,-0.04117 0.152165,-0.06245 0.07243,-0.03051 0.146111,-0.05914 0.215619,-0.09367 0.06638,-0.03288 0.127952,-0.07191 0.191615,-0.108101 0.109165,-0.06222 0.223343,-0.119218 0.326246,-0.18758 0.128996,-0.08563 0.254443,-0.175752 0.371124,-0.272262 0.201634,-0.167 0.395753,-0.339913 0.592169,-0.511172 0.04153,-0.03643 0.08037,-0.07498 0.117934,-0.11425 0.08016,-0.08303 0.159261,-0.167001 0.238161,-0.250738 0.0814,-0.08658 0.165315,-0.171967 0.242337,-0.261144 0.103739,-0.119927 0.204348,-0.241748 0.302033,-0.364988 0.100817,-0.127259 0.200591,-0.254993 0.293477,-0.38604 0.09685,-0.136485 0.188483,-0.275572 0.276358,-0.41608 0.07743,-0.123712 0.150913,-0.249318 0.217915,-0.377051 0.06972,-0.133411 0.132962,-0.269187 0.192659,-0.405674 0.06304,-0.143818 0.120437,-0.289529 0.176796,-0.43524 0.04091,-0.105499 0.07806,-0.211944 0.113132,-0.318863 0.03255,-0.09935 0.06137,-0.199642 0.08892,-0.299936 0.02735,-0.100296 0.05303,-0.201064 0.07576,-0.302066 0.02275,-0.101005 0.04404,-0.202246 0.06053,-0.303723 0.01669,-0.103371 0.02735,-0.207213 0.03882,-0.311057 0.0117,-0.103368 0.02192,-0.206738 0.03132,-0.310108 0.0041,-0.0459 0.006,-0.09225 0.0056,-0.138378 -6.26e-4,-0.06174 -0.0069,-0.123477 -0.006,-0.185214 0.0033,-0.102661 0.01253,-0.205794 0.01106,-0.30869 z m -8.208342,-8.350478 c 0.0013,-0.03454 0.0025,-0.06931 0.0032,-0.103843 8.63e-4,-0.04566 -4.18e-4,-0.09153 0.0021,-0.137195 0.0024,-0.0459 0.006,-0.09154 0.01252,-0.137196 0.01293,-0.09107 0.0263,-0.182376 0.0432,-0.272972 0.02129,-0.114724 0.0453,-0.229211 0.07014,-0.343462 0.01753,-0.0809 0.03674,-0.161796 0.05844,-0.241984 0.03048,-0.113542 0.06345,-0.226373 0.09643,-0.339441 0.02337,-0.07996 0.04655,-0.160141 0.07285,-0.23962 0.03715,-0.112122 0.07557,-0.224244 0.116055,-0.335657 0.02818,-0.07783 0.05844,-0.155171 0.09267,-0.231339 0.03674,-0.08185 0.07807,-0.162268 0.118977,-0.24293 0.03694,-0.07286 0.07243,-0.146421 0.115011,-0.217148 0.104992,-0.174096 0.211862,-0.347483 0.321863,-0.519451 0.04738,-0.07405 0.100817,-0.145711 0.157383,-0.215256 0.05573,-0.06836 0.115637,-0.135065 0.179926,-0.198223 0.09184,-0.0906 0.186188,-0.179774 0.285544,-0.264929 0.04299,-0.03713 0.09936,-0.06482 0.152583,-0.09296 0.01962,-0.01041 0.048,-0.01254 0.07264,-0.01348 0.06283,-0.0023 0.125865,-0.0016 0.188693,-0.0029 0.01628,-2.37e-4 0.03423,-2.37e-4 0.04822,-0.0057 0.06868,-0.02696 0.142354,-0.02389 0.215619,-0.02768 0.115011,-0.0059 0.229813,-0.01609 0.344823,-0.02176 0.04341,-0.0021 0.06596,-0.01609 0.07223,-0.05062 0.0029,-0.01633 0.01128,-0.03217 0.01503,-0.04257 0.02714,0.0031 0.04488,0.0071 0.06242,0.0069 0.02526,-4.74e-4 0.04655,-0.0036 0.05197,0.02578 0.0016,0.0089 0.02714,0.01821 0.04341,0.02128 0.02921,0.0057 0.05469,0.0089 0.05511,0.04139 4.18e-4,0.03926 0.125239,0.10337 0.156758,0.128443 0.06596,0.05251 0.128369,0.1081 0.18744,0.165818 0.115011,0.112595 0.217498,0.233232 0.311635,0.35789 0.0812,0.107392 0.15613,0.217621 0.228561,0.328797 0.06221,0.09533 0.163227,0.207212 0.177212,0.316733 0.0019,0.01466 0.01753,0.02814 0.02588,0.04258 0.0065,0.01136 0.01357,0.02319 0.0169,0.03524 0.0065,0.02318 0.0032,0.04896 0.04007,0.0596 0.0071,0.0021 0.01106,0.01609 0.01253,0.02508 0.0042,0.02531 0.0079,0.04708 0.02819,0.07191 0.02985,0.03643 0.03736,0.08491 0.05532,0.12797 0.02066,0.04896 0.04259,0.09769 0.06387,0.146657 0.0015,0.0033 0.0032,0.0069 0.0044,0.01041 0.01504,0.04731 0.02922,0.09462 0.04487,0.141692 0.02608,0.07853 0.05656,0.156354 0.07806,0.235596 0.01899,0.06955 0.02671,0.141217 0.04196,0.211471 0.06762,0.311055 0.05657,0.625423 0.06178,0.939317 0.0019,0.106681 0.0033,0.2136 -0.0015,0.32028 -0.0058,0.129626 -0.01293,0.25949 -0.02943,0.388406 -0.0144,0.111412 -0.04341,0.221641 -0.06512,0.332344 -0.0084,0.04281 -0.01148,0.08634 -0.02233,0.12868 -0.01253,0.04991 -0.0311,0.09888 -0.04654,0.148313 -0.0092,0.03004 -0.01711,0.06032 -0.02608,0.09012 -0.01399,0.0459 -0.02818,0.09153 -0.04341,0.137195 -0.0065,0.01916 -0.01565,0.03785 -0.02401,0.05653 -0.0025,0.0057 -0.0077,0.01065 -0.0092,0.01633 -0.01106,0.04447 -0.01774,0.08965 -0.03318,0.133175 -0.01606,0.04472 -0.04112,0.08752 -0.06094,0.131518 -0.005,0.01112 -0.0038,0.02389 -0.0086,0.03501 -0.0079,0.01846 -0.01817,0.03643 -0.02797,0.0544 -0.0024,0.0044 -0.0087,0.0073 -0.01022,0.01159 -0.01461,0.04304 -0.02881,0.08634 -0.043,0.129627 -4.17e-4,0.0012 0,0.0026 -4.17e-4,0.0036 -0.02401,0.04353 -0.048,0.08728 -0.07223,0.13081 -0.0048,0.0085 -0.01002,0.01703 -0.01461,0.02555 -0.0119,0.02223 -0.02379,0.04472 -0.03507,0.06718 -0.0048,0.0099 -0.0065,0.02082 -0.0119,0.03051 -0.0098,0.01773 -0.02108,0.03525 -0.03235,0.05251 -0.0026,0.0041 -0.0098,0.0066 -0.0119,0.01087 -0.01941,0.04044 -0.03799,0.08114 -0.05678,0.121583 -6.26e-4,0.0012 0,0.0026 -8.62e-4,0.0036 -0.02964,0.04116 -0.05949,0.08255 -0.08955,0.123477 -0.0029,0.0041 -0.0117,0.0059 -0.01273,0.0099 -0.01002,0.03691 -0.04029,0.06482 -0.06053,0.09675 -0.01544,0.02437 -0.02295,0.05062 -0.0524,0.06836 -0.0084,0.005 -0.01127,0.01633 -0.01523,0.02508 -0.0032,0.0069 -0.0015,0.0156 -0.0062,0.02106 -0.03298,0.0388 -0.067,0.07687 -0.100399,0.115435 -0.0075,0.0085 -0.01273,0.01846 -0.01983,0.02744 -0.01399,0.01773 -0.02881,0.03524 -0.043,0.05299 -0.01022,0.01278 -0.02046,0.02531 -0.03005,0.03831 -0.0029,0.0041 -0.0025,0.0099 -0.0058,0.01348 -0.03423,0.03691 -0.06909,0.07333 -0.103323,0.11023 -0.0096,0.01018 -0.01753,0.02153 -0.02546,0.0324 -0.0038,0.0052 -0.0044,0.01205 -0.009,0.01655 -0.03799,0.03761 -0.07786,0.07405 -0.114801,0.112123 -0.03256,0.03336 -0.06221,0.0686 -0.0931,0.102897 -0.0044,0.005 -0.0074,0.01087 -0.01231,0.01514 -0.04237,0.03643 -0.086,0.07215 -0.127534,0.109283 -0.03611,0.03264 -0.0693,0.06742 -0.104991,0.100296 -0.02818,0.02601 -0.05698,0.0518 -0.08745,0.07592 -0.04028,0.03194 -0.08203,0.06245 -0.124195,0.09272 -0.07117,0.05086 -0.140684,0.103843 -0.215619,0.150678 -0.0814,0.05086 -0.165107,0.100296 -0.253817,0.141691 -0.08579,0.03997 -0.18097,0.02437 -0.270933,0.0031 -0.06951,-0.01633 -0.137762,-0.03691 -0.204556,-0.05937 -0.05844,-0.01987 -0.114176,-0.04541 -0.171159,-0.06837 -0.05009,-0.02034 -0.100399,-0.03974 -0.149869,-0.06127 -0.02295,-0.0099 -0.04363,-0.02341 -0.06555,-0.03501 -0.0098,-0.0052 -0.02066,-0.0087 -0.03048,-0.01373 -0.02589,-0.013 -0.05156,-0.02673 -0.07744,-0.03974 -0.01253,-0.0063 -0.02588,-0.01136 -0.0382,-0.01798 -0.01817,-0.0099 -0.03569,-0.02058 -0.05364,-0.03099 -0.01649,-0.0095 -0.03298,-0.0194 -0.04989,-0.02862 -0.0121,-0.0066 -0.02589,-0.01183 -0.03736,-0.01916 -0.02359,-0.01491 -0.04676,-0.03051 -0.06951,-0.0466 -0.01086,-0.0077 -0.02004,-0.01703 -0.02964,-0.02602 -0.01064,-0.0097 -0.02066,-0.01988 -0.03152,-0.02956 -0.02046,-0.01821 -0.04112,-0.03596 -0.06178,-0.05394 -0.009,-0.0077 -0.01795,-0.0156 -0.02776,-0.02271 -0.0077,-0.0057 -0.01878,-0.0087 -0.02484,-0.01538 -0.03318,-0.03595 -0.06555,-0.07262 -0.0979,-0.109284 -0.03945,-0.04472 -0.08098,-0.08823 -0.117515,-0.134593 -0.03402,-0.04305 -0.06221,-0.08941 -0.09393,-0.133884 -0.02755,-0.03856 -0.05635,-0.07641 -0.08474,-0.114487 -0.0038,-0.0052 -0.01002,-0.0095 -0.01273,-0.01491 -0.02317,-0.04565 -0.04466,-0.09225 -0.06972,-0.137195 -0.0087,-0.01585 -0.0311,-0.02721 -0.03841,-0.04304 -0.0213,-0.04612 -0.03632,-0.09391 -0.0574,-0.140034 -0.0079,-0.01751 -0.03132,-0.03051 -0.03757,-0.04802 -0.01712,-0.04659 -0.02714,-0.09509 -0.04321,-0.141927 -0.01544,-0.04518 -0.03486,-0.08941 -0.0524,-0.133885 -8.63e-4,-0.0023 -0.0029,-0.0046 -0.0032,-0.0069 -0.0065,-0.04777 -0.01274,-0.09556 -0.01962,-0.143344 -0.0015,-0.0095 -0.0042,-0.01869 -0.0079,-0.02791 -0.0032,-0.008 -0.01107,-0.01537 -0.0119,-0.02341 -0.0055,-0.04825 -0.0092,-0.09651 -0.01377,-0.144765 -0.0013,-0.01205 -0.0038,-0.02389 -0.0051,-0.03572 -0.0021,-0.0201 -0.0032,-0.04022 -0.0055,-0.06008 -0.0016,-0.01538 -0.0055,-0.03076 -0.0069,-0.04612 -0.0016,-0.01633 -0.0024,-0.03288 -0.0025,-0.04944 0,-0.0059 0.0045,-0.01205 0.0035,-0.01773 -0.0079,-0.04731 -0.01962,-0.09414 -0.02401,-0.141692 -0.0044,-0.04945 -0.0015,-0.09911 -0.0025,-0.148786 -6.25e-4,-0.03217 -0.0035,-0.06434 -0.0046,-0.09651 -0.0016,-0.04447 -0.0032,-0.08871 -0.0035,-0.133175 -8.63e-4,-0.05487 -4.18e-4,-0.109755 -8.63e-4,-0.164397 -2.08e-4,-0.03454 -6.26e-4,-0.06907 -0.0016,-0.103607 -0.0016,-0.04684 -0.0056,-0.09343 -0.0055,-0.140033 2.1e-4,-0.05132 0.0038,-0.102661 0.0055,-0.153991 z m 5.273586,9.432904 c -0.0075,0.166763 -0.01649,0.334 -0.03799,0.499818 -0.01858,0.143345 -0.05595,0.285271 -0.08371,0.427908 -0.01086,0.05511 -0.01483,0.111175 -0.0286,0.16558 -0.01628,0.06434 -0.04007,0.127261 -0.0597,0.190891 -0.0119,0.03856 -0.02192,0.07735 -0.03381,0.116144 -0.01795,0.0589 -0.03611,0.117798 -0.05573,0.176462 -0.0084,0.0246 -0.02024,0.04872 -0.03089,0.07286 -0.0032,0.0071 -0.0098,0.01373 -0.0117,0.02106 -0.0142,0.05701 -0.02296,0.115433 -0.04279,0.171257 -0.02066,0.05772 -0.05281,0.112595 -0.07827,0.16913 -0.0065,0.0142 -0.005,0.03075 -0.01106,0.04517 -0.01022,0.02389 -0.02337,0.04684 -0.0361,0.07002 -0.0032,0.0055 -0.01148,0.0095 -0.01336,0.01514 -0.01899,0.05559 -0.03694,0.111175 -0.05532,0.167 -4.18e-4,0.0015 0,0.0033 -6.26e-4,0.0047 -0.03089,0.05606 -0.06178,0.11236 -0.09289,0.16842 -0.006,0.01111 -0.01293,0.02176 -0.01899,0.03288 -0.01523,0.02886 -0.03068,0.05748 -0.04509,0.08658 -0.0062,0.01278 -0.0086,0.02673 -0.01544,0.03926 -0.01273,0.02295 -0.02714,0.04518 -0.04175,0.06742 -0.0035,0.0052 -0.01253,0.0085 -0.01524,0.01372 -0.02484,0.05204 -0.04884,0.104317 -0.07306,0.156592 -6.26e-4,0.0015 0,0.0033 -0.001,0.0045 -0.0382,0.05299 -0.0764,0.106207 -0.115219,0.158957 -0.0038,0.0052 -0.01504,0.0077 -0.01628,0.01278 -0.01293,0.04731 -0.05177,0.0835 -0.07786,0.124657 -0.02003,0.03146 -0.02943,0.06529 -0.06741,0.088 -0.01064,0.0063 -0.0144,0.02082 -0.01962,0.03217 -0.004,0.0087 -0.0021,0.01987 -0.0081,0.02721 -0.04237,0.04991 -0.08642,0.09887 -0.129205,0.148549 -0.0096,0.01112 -0.01649,0.02389 -0.02547,0.03525 -0.01817,0.02295 -0.03694,0.04541 -0.05532,0.06813 -0.01315,0.01633 -0.0263,0.03264 -0.03883,0.04921 -0.0038,0.0052 -0.0033,0.01278 -0.0077,0.01751 -0.04404,0.04754 -0.08892,0.09438 -0.132961,0.141925 -0.01231,0.01324 -0.02254,0.02768 -0.03298,0.04187 -0.0048,0.0066 -0.0056,0.01537 -0.01148,0.02105 -0.04906,0.04827 -0.100188,0.09509 -0.14778,0.144293 -0.04175,0.04305 -0.08016,0.08823 -0.119812,0.132464 -0.0056,0.0063 -0.0092,0.01396 -0.01565,0.0194 -0.05448,0.04707 -0.110837,0.09272 -0.164063,0.140743 -0.04654,0.04187 -0.08913,0.08682 -0.135049,0.129153 -0.03632,0.03359 -0.07326,0.0667 -0.112714,0.09793 -0.05177,0.04092 -0.105618,0.08042 -0.159887,0.119218 -0.09163,0.06553 -0.180971,0.133648 -0.277614,0.193966 -0.104781,0.06529 -0.212487,0.129153 -0.326664,0.182376 -0.110417,0.05132 -0.232733,0.03146 -0.348579,0.0041 -0.08934,-0.02106 -0.177422,-0.04731 -0.263418,-0.07641 -0.07535,-0.02556 -0.146947,-0.05842 -0.220212,-0.08799 -0.06428,-0.02602 -0.129413,-0.05133 -0.192868,-0.07878 -0.02964,-0.01278 -0.05594,-0.03028 -0.08432,-0.04495 -0.01253,-0.0066 -0.02651,-0.01112 -0.03924,-0.01751 -0.03339,-0.01678 -0.06617,-0.0343 -0.09956,-0.05109 -0.01606,-0.008 -0.03339,-0.01466 -0.04927,-0.02319 -0.02337,-0.01254 -0.04592,-0.02649 -0.06888,-0.03974 -0.02129,-0.0123 -0.04258,-0.02483 -0.06408,-0.03667 -0.01565,-0.0085 -0.03318,-0.01514 -0.048,-0.0246 -0.03048,-0.0194 -0.06031,-0.03927 -0.08934,-0.06008 -0.01399,-0.0099 -0.02589,-0.022 -0.0382,-0.03358 -0.01377,-0.01254 -0.02651,-0.02578 -0.04049,-0.03808 -0.0263,-0.02341 -0.05281,-0.04636 -0.07953,-0.06955 -0.0117,-0.0099 -0.02317,-0.0201 -0.03569,-0.02933 -0.01002,-0.0071 -0.02421,-0.01136 -0.03194,-0.01964 -0.04279,-0.04636 -0.08432,-0.09367 -0.126073,-0.140744 -0.05093,-0.05748 -0.104365,-0.113541 -0.151329,-0.17315 -0.04383,-0.05559 -0.07995,-0.114961 -0.120856,-0.172205 -0.03549,-0.04967 -0.07243,-0.0984 -0.108958,-0.147367 -0.005,-0.0066 -0.01273,-0.0123 -0.01628,-0.01916 -0.03005,-0.0589 -0.0574,-0.118508 -0.08976,-0.176699 -0.01127,-0.02033 -0.04007,-0.03501 -0.04948,-0.05559 -0.02735,-0.05937 -0.04676,-0.120873 -0.07389,-0.180247 -0.01022,-0.02247 -0.04028,-0.03926 -0.04843,-0.06174 -0.02192,-0.06008 -0.03485,-0.122292 -0.05552,-0.182849 -0.01983,-0.05819 -0.04488,-0.114959 -0.06742,-0.17244 -0.0013,-0.0029 -0.0038,-0.0057 -0.0042,-0.0087 -0.0084,-0.0615 -0.01628,-0.123003 -0.02505,-0.184503 -0.0016,-0.01206 -0.0055,-0.02413 -0.01002,-0.03572 -0.0042,-0.01041 -0.0144,-0.01987 -0.01544,-0.03004 -0.0069,-0.06197 -0.0119,-0.124185 -0.01774,-0.186395 -0.0015,-0.01538 -0.0048,-0.03076 -0.0065,-0.04612 -0.0026,-0.02578 -0.004,-0.05157 -0.0069,-0.07735 -0.0024,-0.01986 -0.0069,-0.03949 -0.009,-0.05937 -0.0021,-0.02105 -0.0029,-0.04235 -0.0032,-0.06363 0,-0.0075 0.0058,-0.01537 0.0046,-0.02271 -0.01002,-0.06079 -0.02526,-0.121348 -0.03069,-0.182377 -0.0056,-0.06363 -0.0016,-0.127733 -0.0032,-0.191364 -10e-4,-0.04139 -0.0046,-0.08279 -0.006,-0.124185 -0.0021,-0.05701 -0.004,-0.11425 -0.0048,-0.171258 -0.001,-0.0705 -4.17e-4,-0.140979 -0.001,-0.211708 -4.18e-4,-0.04447 -8.63e-4,-0.08894 -0.0024,-0.13341 -0.0021,-0.06008 -0.0071,-0.120164 -0.0071,-0.180246 0,-0.06623 0.0045,-0.132228 0.0069,-0.198462 0.0016,-0.04447 0.0033,-0.08894 0.0042,-0.133646 0.001,-0.0589 -4.18e-4,-0.1178 0.0025,-0.176698 0.0029,-0.0589 0.0079,-0.118036 0.01628,-0.176462 0.01671,-0.117326 0.03402,-0.234653 0.05573,-0.351268 0.02756,-0.147603 0.05845,-0.294971 0.09038,-0.441864 0.02275,-0.104316 0.04738,-0.208159 0.07514,-0.31153 0.03924,-0.145947 0.08182,-0.291421 0.124195,-0.436896 0.03005,-0.102897 0.05991,-0.20603 0.09372,-0.308217 0.04779,-0.144529 0.09727,-0.288583 0.149451,-0.431929 0.03632,-0.100059 0.07535,-0.199643 0.119185,-0.297573 0.04717,-0.105262 0.1004,-0.208868 0.153001,-0.312474 0.04759,-0.09367 0.09309,-0.18829 0.147989,-0.279359 0.13505,-0.224008 0.272812,-0.447304 0.414332,-0.66871 0.06074,-0.09509 0.129621,-0.18758 0.202677,-0.276993 0.07181,-0.088 0.148825,-0.173624 0.231483,-0.255231 0.118141,-0.116616 0.239622,-0.231339 0.367367,-0.341097 0.05552,-0.04754 0.127742,-0.08326 0.196414,-0.119454 0.02526,-0.01324 0.06178,-0.01633 0.09351,-0.01751 0.08078,-0.0031 0.161977,-0.0019 0.242963,-0.0036 0.02088,-4.74e-4 0.04404,-2.37e-4 0.06221,-0.0073 0.0885,-0.03454 0.183266,-0.03076 0.277404,-0.03549 0.147989,-0.0073 0.295772,-0.02058 0.443762,-0.02791 0.05573,-0.0029 0.08474,-0.02082 0.09288,-0.06529 0.0038,-0.02105 0.0144,-0.04139 0.01941,-0.05488 0.03507,0.0041 0.05781,0.0092 0.08037,0.0087 0.03235,-7.1e-4 0.05992,-0.0047 0.06701,0.03312 0.0021,0.01136 0.03486,0.02341 0.05595,0.02744 0.03778,0.0073 0.07055,0.01159 0.07075,0.05322 4.18e-4,0.05062 0.16114,0.133174 0.201635,0.165344 0.08495,0.06764 0.165315,0.139087 0.241292,0.213362 0.148199,0.144766 0.279908,0.300176 0.401181,0.460552 0.104365,0.138141 0.201008,0.280068 0.29431,0.423177 0.07995,0.122767 0.209984,0.266821 0.228143,0.407565 0.0025,0.01892 0.02254,0.03619 0.03318,0.05488 0.0086,0.01466 0.01733,0.02981 0.02192,0.04541 0.0084,0.02957 0.004,0.06316 0.05156,0.07687 0.0092,0.0026 0.0144,0.02082 0.01628,0.03217 0.0055,0.03264 0.01023,0.06055 0.0361,0.09249 0.03841,0.04708 0.048,0.109284 0.07139,0.164635 0.02651,0.06316 0.05469,0.125841 0.08224,0.188526 0.0019,0.0045 0.0042,0.0087 0.0056,0.01324 0.0192,0.06079 0.03757,0.12182 0.05761,0.182376 0.03339,0.101004 0.07285,0.201063 0.100607,0.303249 0.02442,0.08965 0.03423,0.181666 0.05385,0.272262 0.08705,0.400232 0.07285,0.80496 0.07953,1.208741 0.0015,0.136959 0.0033,0.274391 -0.0026,0.411586 z"
       id="path25" />
  </g>
</svg>
