<?xml version="1.0" encoding="UTF-8" standalone="no"?>
<!-- Created with Inkscape (http://www.inkscape.org/) -->

<svg
   width="12mm"
   height="24mm"
   viewBox="0 0 12 23.999999"
   version="1.1"
   id="svg36213"
   inkscape:version="1.2.2 (b0a8486541, 2022-12-01)"
   sodipodi:docname="9.svg"
   xmlns:inkscape="http://www.inkscape.org/namespaces/inkscape"
   xmlns:sodipodi="http://sodipodi.sourceforge.net/DTD/sodipodi-0.dtd"
   xmlns="http://www.w3.org/2000/svg"
   xmlns:svg="http://www.w3.org/2000/svg">
  <sodipodi:namedview
     id="namedview36215"
     pagecolor="#ffffff"
     bordercolor="#666666"
     borderopacity="1.0"
     inkscape:showpageshadow="2"
     inkscape:pageopacity="0.0"
     inkscape:pagecheckerboard="0"
     inkscape:deskcolor="#d1d1d1"
     inkscape:document-units="mm"
     showgrid="false"
     inkscape:zoom="5.6159371"
     inkscape:cx="-16.203885"
     inkscape:cy="56.446501"
     inkscape:window-width="1854"
     inkscape:window-height="1011"
     inkscape:window-x="0"
     inkscape:window-y="0"
     inkscape:window-maximized="1"
     inkscape:current-layer="layer1" />
  <defs
     id="defs36210" />
  <g
     inkscape:label="Ebene 1"
     inkscape:groupmode="layer"
     id="layer1"
     transform="translate(-88.868175,-61.381428)">
    <path
       style="fill:#1d1d1d;stroke-width:0.264582"
       d="m 89.580699,79.764973 c 0.436665,0.163699 0.807017,0.42241 1.188621,0.652042 0.688456,0.414639 1.365055,0.863621 2.090687,1.175228 0.22607,0.09701 0.457162,0.178239 0.688054,0.256455 0.229887,0.07797 0.432445,0.0068 0.620535,-0.179744 0.612899,-0.607921 1.127532,-1.324389 1.541693,-2.151411 0.288563,-0.576334 0.540555,-1.176232 0.730057,-1.816239 0.159758,-0.539232 0.346841,-1.065929 0.460778,-1.625216 0.04099,-0.200552 0.08044,-0.401854 0.115947,-0.604159 0.0091,-0.05165 0.0017,-0.108047 0.0017,-0.187767 -0.06892,0.02081 -0.121972,0.02834 -0.169607,0.05265 -0.607474,0.309852 -1.244285,0.425169 -1.894557,0.435948 -0.535131,0.0089 -1.071467,0.02031 -1.605794,-0.0103 C 92.438107,75.71032 91.62707,75.312222 90.934195,74.567427 90.670548,74.283898 90.43845,73.9575 90.24393,73.59676 c -0.292786,-0.543243 -0.563866,-1.103031 -0.764215,-1.711453 -0.460176,-1.397338 -0.609481,-2.837545 -0.377987,-4.328392 0.133633,-0.860112 0.406523,-1.645019 0.828116,-2.347951 0.388036,-0.646777 0.884986,-1.103031 1.507731,-1.335921 0.167793,-0.06268 0.336993,-0.122836 0.508605,-0.165954 0.777879,-0.195539 1.550734,-0.424668 2.339664,-0.544999 0.69348,-0.106041 1.383942,-0.07946 2.062564,0.131863 1.132146,0.352718 2.010897,1.169964 2.68529,2.343187 0.690065,1.200549 1.098992,2.546245 1.298942,3.993974 0.14448,1.04462 0.22406,2.097012 0.21079,3.159179 -0.01,0.810477 -0.0981,1.604158 -0.28052,2.383549 -0.332367,1.420904 -0.763417,2.789165 -1.387363,4.052886 -0.485889,0.984454 -1.067642,1.873898 -1.73681,2.676603 -0.826303,0.991224 -1.823226,1.506639 -2.946736,1.656552 -0.901262,0.120079 -1.806945,0.110554 -2.709615,0.01379 -0.679814,-0.07295 -1.314816,-0.343443 -1.902396,-0.776132 -0.232098,-0.17097 -0.422197,-0.405113 -0.572909,-0.685382 -0.117958,-0.219605 -0.161766,-0.456757 -0.127001,-0.722487 0.05143,-0.393831 0.157144,-0.756076 0.355481,-1.072444 0.112934,-0.180247 0.225667,-0.360744 0.345434,-0.552267 z m 7.58346,-7.370751 c -0.01727,-0.231134 -0.02913,-0.403109 -0.04297,-0.574579 -0.07657,-0.951864 -0.205569,-1.889943 -0.462789,-2.795681 -0.231487,-0.814989 -0.525485,-1.59087 -0.93804,-2.287785 -0.35669,-0.602405 -0.786521,-1.110552 -1.313212,-1.482324 -0.192912,-0.136123 -0.39306,-0.249685 -0.605864,-0.326646 -0.258021,-0.0935 -0.489917,-0.0331 -0.702121,0.173978 -0.194521,0.189771 -0.327147,0.435446 -0.427221,0.710451 -0.153728,0.42191 -0.25159,0.865378 -0.293187,1.325392 -0.07175,0.792929 -0.05949,1.581597 0.06873,2.367503 0.204165,1.250187 0.614506,2.380542 1.249107,3.380038 0.34483,0.542993 0.777677,0.942591 1.306981,1.171468 0.277512,0.11983 0.535733,0.09801 0.79536,-0.09201 0.440279,-0.321884 0.84219,-0.701427 1.211138,-1.140633 0.116546,-0.140387 0.178447,-0.287792 0.154126,-0.42918 z"
       id="path5" />
  </g>
</svg>
