<?xml version="1.0" encoding="UTF-8" standalone="no"?>
<svg
   width="174.90431pt"
   height="173.87445pt"
   viewBox="0 0 174.90431 173.87445"
   version="1.2"
   id="svg4252"
   sodipodi:docname="border.svg"
   inkscape:version="1.2.2 (b0a8486541, 2022-12-01)"
   xmlns:inkscape="http://www.inkscape.org/namespaces/inkscape"
   xmlns:sodipodi="http://sodipodi.sourceforge.net/DTD/sodipodi-0.dtd"
   xmlns:xlink="http://www.w3.org/1999/xlink"
   xmlns="http://www.w3.org/2000/svg"
   xmlns:svg="http://www.w3.org/2000/svg"
   xmlns:rdf="http://www.w3.org/1999/02/22-rdf-syntax-ns#"
   xmlns:cc="http://creativecommons.org/ns#"
   xmlns:dc="http://purl.org/dc/elements/1.1/">
  <title
     id="title855">Raw border</title>
  <metadata
     id="metadata4256">
    <rdf:RDF>
      <cc:Work
         rdf:about="">
        <dc:format>image/svg+xml</dc:format>
        <dc:type
           rdf:resource="http://purl.org/dc/dcmitype/StillImage" />
        <dc:title>Raw border</dc:title>
        <cc:license
           rdf:resource="http://creativecommons.org/publicdomain/zero/1.0/" />
      </cc:Work>
      <cc:License
         rdf:about="http://creativecommons.org/publicdomain/zero/1.0/">
        <cc:permits
           rdf:resource="http://creativecommons.org/ns#Reproduction" />
        <cc:permits
           rdf:resource="http://creativecommons.org/ns#Distribution" />
        <cc:permits
           rdf:resource="http://creativecommons.org/ns#DerivativeWorks" />
      </cc:License>
    </rdf:RDF>
  </metadata>
  <sodipodi:namedview
     pagecolor="#ffffff"
     bordercolor="#666666"
     borderopacity="1"
     objecttolerance="10"
     gridtolerance="10"
     guidetolerance="10"
     inkscape:pageopacity="0"
     inkscape:pageshadow="2"
     inkscape:window-width="1854"
     inkscape:window-height="1011"
     id="namedview4254"
     showgrid="false"
     fit-margin-top="0"
     fit-margin-left="0"
     fit-margin-right="0"
     fit-margin-bottom="0"
     inkscape:zoom="3.9244426"
     inkscape:cx="118.23335"
     inkscape:cy="58.097423"
     inkscape:window-x="0"
     inkscape:window-y="0"
     inkscape:window-maximized="1"
     inkscape:current-layer="svg4252"
     inkscape:showpageshadow="2"
     inkscape:pagecheckerboard="0"
     inkscape:deskcolor="#d1d1d1"
     inkscape:document-units="pt" />
  <defs
     id="defs4207">
    <g
       id="g4205">
      <symbol
         overflow="visible"
         id="glyph0-0"
         style="overflow:visible">
        <path
           style="stroke:none"
           d="M 17.6875,-0.3125 H 2.3125 v -19.84375 h 15.375 z M 2,-20.484375 V 0 h 16 v -20.484375 z m 0,0"
           id="path4178"
           inkscape:connector-curvature="0" />
      </symbol>
      <symbol
         overflow="visible"
         id="glyph0-1"
         style="overflow:visible">
        <path
           style="stroke:none"
           d="m 9.203125,-16.484375 v -6.71875 h 1.4375 c 1.113281,0 1.914063,0.257813 2.40625,0.765625 0.5,0.5 0.75,1.355469 0.75,2.5625 0,1.011719 -0.257813,1.828125 -0.765625,2.453125 -0.5,0.625 -1.28125,0.9375 -2.34375,0.9375 z M 1.765625,-28.5625 V 0 h 7.4375 v -11.4375 h 1.953125 c 0.457031,0 0.835938,0.0625 1.140625,0.1875 0.3125,0.117188 0.566406,0.328125 0.765625,0.640625 0.195312,0.304687 0.332031,0.71875 0.40625,1.25 0.08203,0.53125 0.125,1.199219 0.125,2 V -5.4375 c 0,0.292969 0.0039,0.671875 0.01563,1.140625 0.01953,0.46875 0.05078,0.960937 0.09375,1.46875 0.03906,0.5 0.109375,1.007813 0.203125,1.515625 C 14,-0.8125 14.132812,-0.375 14.3125,0 h 7.921875 v -0.40625 c -0.242187,-0.125 -0.414063,-0.257812 -0.515625,-0.40625 -0.105469,-0.15625 -0.210938,-0.3125 -0.3125,-0.46875 -0.08594,-0.15625 -0.152344,-0.378906 -0.203125,-0.671875 -0.05469,-0.300781 -0.09375,-0.628906 -0.125,-0.984375 -0.02344,-0.363281 -0.03125,-0.742188 -0.03125,-1.140625 0,-0.40625 0,-0.789063 0,-1.15625 V -7.6875 c 0,-1.914062 -0.335937,-3.421875 -1,-4.515625 -0.667969,-1.09375 -1.898437,-1.71875 -3.6875,-1.875 v -0.07813 c 1.707031,-0.269531 2.945313,-0.988281 3.71875,-2.15625 0.769531,-1.175781 1.15625,-2.722656 1.15625,-4.640625 0,-1.09375 -0.140625,-2.109375 -0.421875,-3.046875 -0.273438,-0.9375 -0.726562,-1.742188 -1.359375,-2.421875 -0.625,-0.675781 -1.4375,-1.203125 -2.4375,-1.578125 -1,-0.375 -2.203125,-0.5625 -3.609375,-0.5625 z m 0,0"
           id="path4181"
           inkscape:connector-curvature="0" />
      </symbol>
      <symbol
         overflow="visible"
         id="glyph0-2"
         style="overflow:visible">
        <path
           style="stroke:none"
           d="m 11.078125,-22.71875 -2.03125,12.125 h 4.15625 l -2.046875,-12.125 z M 15.796875,-28.5625 22.765625,0 H 14.84375 L 14.078125,-5 H 8.15625 l -0.75,5 h -7.8125 L 6.4375,-28.5625 Z m 0,0"
           id="path4184"
           inkscape:connector-curvature="0" />
      </symbol>
      <symbol
         overflow="visible"
         id="glyph0-3"
         style="overflow:visible">
        <path
           style="stroke:none"
           d="m 12.203125,-28.5625 -2.6875,19.765625 H 9.4375 L 7.203125,-28.5625 H 0 L 4.875,0 h 8.171875 l 2.46875,-19.203125 h 0.07813 L 18.078125,0 h 8.15625 L 31.125,-28.5625 h -7.203125 l -2,19.765625 H 21.84375 L 18.921875,-28.5625 Z m 0,0"
           id="path4187"
           inkscape:connector-curvature="0" />
      </symbol>
      <symbol
         overflow="visible"
         id="glyph0-4"
         style="overflow:visible">
        <path
           style="stroke:none"
           d=""
           id="path4190"
           inkscape:connector-curvature="0" />
      </symbol>
      <symbol
         overflow="visible"
         id="glyph0-5"
         style="overflow:visible">
        <path
           style="stroke:none"
           d="M 1.765625,-28.5625 V 0 H 12.5625 c 2.15625,0 3.832031,-0.390625 5.03125,-1.171875 1.207031,-0.789063 2.109375,-1.84375 2.703125,-3.15625 0.601563,-1.320313 0.96875,-2.84375 1.09375,-4.5625 0.132813,-1.726563 0.203125,-3.523437 0.203125,-5.390625 0,-1.863281 -0.07031,-3.65625 -0.203125,-5.375 -0.125,-1.71875 -0.492187,-3.238281 -1.09375,-4.5625 -0.59375,-1.320312 -1.496094,-2.375 -2.703125,-3.15625 -1.199219,-0.789062 -2.875,-1.1875 -5.03125,-1.1875 z m 7.4375,23.203125 v -17.84375 H 10.6875 c 0.71875,0 1.289062,0.105469 1.71875,0.3125 0.425781,0.199219 0.75,0.617187 0.96875,1.25 0.226562,0.636719 0.375,1.542969 0.4375,2.71875 0.07031,1.179687 0.109375,2.726563 0.109375,4.640625 0,1.917969 -0.03906,3.464844 -0.109375,4.640625 -0.0625,1.179687 -0.210938,2.089844 -0.4375,2.734375 -0.21875,0.636719 -0.542969,1.054688 -0.96875,1.25 -0.429688,0.199219 -1,0.296875 -1.71875,0.296875 z m 0,0"
           id="path4193"
           inkscape:connector-curvature="0" />
      </symbol>
      <symbol
         overflow="visible"
         id="glyph0-6"
         style="overflow:visible">
        <path
           style="stroke:none"
           d="M 5.515625,-22.234375 V 0 h 7.4375 V -22.234375 H 18.5625 V -28.5625 H 0 v 6.328125 z m 0,0"
           id="path4196"
           inkscape:connector-curvature="0" />
      </symbol>
      <symbol
         overflow="visible"
         id="glyph0-7"
         style="overflow:visible">
        <path
           style="stroke:none"
           d="M 1.765625,-28.5625 V 0 H 8.71875 V -17.640625 H 8.796875 L 13.765625,0 h 8.15625 v -28.5625 h -6.96875 v 17.609375 H 14.875 L 10.078125,-28.5625 Z m 0,0"
           id="path4199"
           inkscape:connector-curvature="0" />
      </symbol>
      <symbol
         overflow="visible"
         id="glyph0-8"
         style="overflow:visible">
        <path
           style="stroke:none"
           d="m 8.59375,-14.28125 c 0,-1.914062 0.023438,-3.503906 0.078125,-4.765625 0.0625,-1.269531 0.175781,-2.28125 0.34375,-3.03125 0.175781,-0.75 0.429687,-1.269531 0.765625,-1.5625 0.332031,-0.289063 0.78125,-0.4375 1.34375,-0.4375 0.550781,0 0.992188,0.148437 1.328125,0.4375 0.332031,0.292969 0.585937,0.8125 0.765625,1.5625 0.175781,0.75 0.289062,1.761719 0.34375,3.03125 0.05078,1.261719 0.07813,2.851563 0.07813,4.765625 0,1.917969 -0.02734,3.511719 -0.07813,4.78125 -0.05469,1.273438 -0.167969,2.28125 -0.34375,3.03125 -0.179688,0.742188 -0.433594,1.257812 -0.765625,1.546875 -0.335937,0.292969 -0.777344,0.4375 -1.328125,0.4375 -0.5625,0 -1.011719,-0.144531 -1.34375,-0.4375 C 9.445312,-5.210938 9.191406,-5.726562 9.015625,-6.46875 8.847656,-7.21875 8.734375,-8.226562 8.671875,-9.5 8.617188,-10.769531 8.59375,-12.363281 8.59375,-14.28125 Z m -7.671875,0 c 0,2.667969 0.171875,4.945312 0.515625,6.828125 0.34375,1.875 0.914062,3.40625 1.71875,4.59375 0.800781,1.1875 1.851562,2.039063 3.15625,2.546875 1.3125,0.5 2.914062,0.75 4.8125,0.75 1.882812,0 3.476562,-0.25 4.78125,-0.75 1.3125,-0.507812 2.367188,-1.359375 3.171875,-2.546875 0.800781,-1.1875 1.375,-2.71875 1.71875,-4.59375 0.34375,-1.882813 0.515625,-4.160156 0.515625,-6.828125 0,-2.664062 -0.171875,-4.9375 -0.515625,-6.8125 -0.34375,-1.882812 -0.917969,-3.421875 -1.71875,-4.609375 -0.804687,-1.1875 -1.859375,-2.050781 -3.171875,-2.59375 C 14.601562,-28.847656 13.007812,-29.125 11.125,-29.125 c -1.898438,0 -3.5,0.277344 -4.8125,0.828125 -1.304688,0.542969 -2.355469,1.40625 -3.15625,2.59375 -0.804688,1.1875 -1.375,2.726563 -1.71875,4.609375 -0.34375,1.875 -0.515625,4.148438 -0.515625,6.8125 z m 0,0"
           id="path4202"
           inkscape:connector-curvature="0" />
      </symbol>
    </g>
  </defs>
  <use
     style="fill:#ae0000;fill-opacity:1"
     xlink:href="#glyph0-4"
     x="861.41998"
     y="421.45181"
     id="use4219"
     width="100%"
     height="100%"
     transform="translate(-725.40133,-350.80873)" />
  <use
     style="fill:#ae0000;fill-opacity:1"
     xlink:href="#glyph0-4"
     x="870.40002"
     y="464.8598"
     id="use4237"
     width="100%"
     height="100%"
     transform="translate(-725.40133,-350.80873)" />
  <path
     inkscape:connector-curvature="0"
     id="path4249"
     d="m 178.81908,140.90622 c -0.0925,0.45672 -0.16895,0.98557 -0.16091,1.89102 -0.12069,-0.46075 -0.24942,-0.86539 -0.45861,-0.9335 0.12873,-0.68509 0.20114,-1.66665 0.14885,-3.22916 0.15287,0.15225 0.12068,0.90144 0.15287,1.4343 0.008,0.64503 0.19712,0.633 0.3178,0.83734 z M 25.939042,174.09115 c 1.371787,-0.0521 -0.442505,0.44472 -0.969498,0.46475 0.0083,-0.10011 0.0083,-0.18831 -0.526994,-0.15626 -0.406305,0.38463 0.679855,0.48478 1.492476,0.61299 3.809631,-0.20834 1.617179,-0.95353 0.0041,-0.92148 z M -0.5392908,31.467613 c -0.040267,-2.744379 0.4787143,0.100193 0.61951502,0.504807 0.13677397,-1.302076 0.86490695,-0.392623 0.92525598,-2.035251 -0.2293058,-0.26843 -0.39021944,-0.84935 -0.61952524,-1.11778 -0.0200825,0.733166 0.0321309,1.758802 -0.14884385,1.907037 -0.0281144,-0.969544 0.0603489,-2.319692 -0.14884385,-2.471938 -0.12068779,2.151427 -0.46664442,0.436696 -0.77641219,0.116185 0.0683819,1.887006 -0.37009627,2.5681 0.14885413,3.09694 z M 115.80932,-2.5306303 c -0.80456,0.02 -1.48845,0.040102 -1.47639,0.3084909 0.8448,0.011999 1.44421,-0.068102 1.98328,-0.1482352 0.008,0.1802863 -0.39827,0.4286851 0.31377,0.4567363 1.10628,-0.3886238 1.06203,-0.9735545 0.80456,-1.2299635 -0.32182,0.396634 -3.02115,0.2163374 -1.62522,0.6129715 z M 175.71747,8.49096 c 0.2293,2.223548 -0.68791,0.725155 -0.4586,2.932673 0.41033,-0.408654 0.90915,-0.456726 0.92927,-2.095344 -0.22125,0.064098 -0.26148,-0.837329 -0.47067,-0.837329 z M 3.0168957,100.25335 c -0.3057308,0.1803 -0.197123,-1.562488 -0.6154985,-0.90143 0,0.84135 0,1.62258 0,2.46393 0.3499935,-0.024 0.5792891,-0.46073 0.6154985,-1.5625 z M 3.9461681,12.377157 C 3.4191849,9.6007282 4.1432912,6.5959326 3.7168726,7.5013739 3.1979222,6.4396871 2.3410584,9.5246057 2.8600087,9.3843811 3.3990617,9.6608207 3.9059423,14.580675 3.9461681,12.377157 Z M 17.865204,166.09038 c -3.18609,0.37661 -1.41604,-0.9415 -3.837788,-0.30848 0.619516,0.02 0.772386,0.16826 0.876977,0.30848 -0.490784,0.0281 -1.162606,0 -1.299379,0.14823 1.27524,0.0682 2.755645,0.2404 4.26019,-0.14823 z M 177.73291,95.962506 c 0.0281,-0.504798 0.12873,-0.745186 0.30977,-0.661054 -0.0926,-2.051271 0.28561,-1.951108 0,-3.253183 -0.61953,-0.108175 -0.41033,1.618576 -0.30977,3.217133 -0.0926,0.05211 -0.18102,0.54887 0,0.697104 z m -1.70569,-56.46608 c 0.39022,-0.140225 0.4908,0.997586 0.62757,-0.957534 -0.53906,-1.834924 -0.96548,0.26442 -1.24305,2.576111 -0.20114,0.104165 -0.41033,0.208338 -0.61952,0.316502 0.008,-0.86538 -0.0683,-1.3782 -0.14886,-1.826915 0.71608,-0.749186 -0.59939,-1.450311 -0.14884,-4.939875 -0.32182,1.710731 -0.88904,0.400635 -0.61951,2.24758 -0.43849,-0.296471 -0.39826,1.069708 -0.77642,1.041666 0.24942,-0.985574 0.19713,-3.072898 0.77642,-2.928673 0.008,-1.097749 -0.0402,-1.919058 -0.16091,-2.391815 -0.49883,-0.476756 -0.10862,2.067293 -0.61551,1.586526 0,-0.604962 -0.12067,-0.653033 -0.14883,-1.113769 0.18908,-0.236378 0.43848,-0.148234 0.46665,-0.893432 -0.18908,-1.870986 -0.57929,0.721157 -0.61951,-2.075302 0.28964,-0.368594 0.34194,0.440695 0.61951,0.200316 0.26953,-1.446311 -0.12069,-1.129799 0.14884,-2.57611 -0.26953,-0.0601 -0.39826,1.16986 -0.46666,0.3125 0.70803,-1.266025 -0.43043,-2.28765 0.15691,-4.451108 0.99766,0.496798 -0.18909,-0.164254 0.76835,-2.443896 -0.26952,-0.160256 -0.90513,1.462332 -0.92526,0.0921 1.2149,-0.428673 0.87699,-5.773203 1.85455,-2.015211 -0.0201,-2.383805 0.94535,-3.95831 1.08616,-2.135405 -0.26148,-4.022422 0.37814,-3.173063 0.45861,-4.867762 -0.0402,-1.594547 -0.26954,1.097748 -0.61953,0.512818 0.0201,1.726751 -0.25746,1.518413 0,2.54806 -0.20918,0.168266 -0.3379,0.580931 -0.46664,1.057688 0.32583,-1.999191 -0.36205,-3.477544 -0.91722,-1.786854 0.0884,0.785257 0.58735,-0.420665 0.60746,0.737177 -0.67986,0.116183 0.12873,1.12981 -0.30976,1.538453 -0.61952,-0.30448 -1.13846,2.53605 -1.23501,0.308492 0.25746,-0.204318 0.51894,-0.412655 0.76433,-0.612972 0,-0.608971 0,-1.221955 0,-1.830925 -0.46664,-0.164257 -0.7764,0.516829 -0.92525,0.0961 -0.008,-1.021626 0.12068,-1.674669 0.30977,-2.135405 0.10061,1.189903 0.51893,2.363774 0.61548,0.144235 -0.92525,1.566496 -0.21722,-2.800468 -0.76433,-0.625001 -0.30171,-2.035242 0.44654,-3.8541466 -0.16092,-3.5496664 0.0201,-1.2259532 0.51894,-0.8934213 0.47068,-2.303671 -0.43045,-1.9030374 0.23735,-2.1113646 -0.15287,-4.835711 0.76031,-1.1137795 -0.15689,-0.1482455 -0.15689,-1.11778964 0.25746,-0.25640908 0.51894,-0.5168181 0.77641,-0.77322718 -1.50053,0.41666459 -4.17169,0.62499189 -6.3038,0.16025551 -0.79652,0.13621487 -0.72411,0.56490009 -2.30107,0.4567262 -1.1827,-0.65705342 -4.03892,0.0761024 -5.55956,-0.61698171 -0.5109,0.35656228 -2.01544,0.35656228 -2.61485,0.16025551 -0.55916,0.21633748 0,0.79325798 -1.35168,0.76120686 -0.49882,-0.44470557 1.231,-0.56490009 -0.51894,-0.76120686 -0.24539,0.4767568 -1.45225,-0.39663399 -1.99532,0.14823539 0.46664,0.1482352 0.98961,0.30849081 1.44821,0.46473628 -0.84077,0 -0.84077,0.2684295 -1.5327,0.3084908 0.69193,-0.64502269 -1.29133,-0.10010198 -1.85855,0 0.29367,-0.2684294 0.29769,-0.47675669 -0.0603,-0.61698171 -1.09019,0.01199931 -1.89878,-0.02800006 -2.33727,-0.14823519 -1.56891,0.22034772 0.45458,0.37660329 -0.99364,0.4567261 0.36205,-1.1979125 -2.15624,0.14022491 -4.41307,-0.61297167 -0.9534,0.35656259 -2.32519,0.56490009 -4.228,0.61297167 0.10862,-0.35656259 1.93901,-0.16826589 2.23268,-0.4567261 -2.79588,0.11217383 0.73215,-0.30449086 -1.01375,-0.30449086 -4.05502,0.24439886 -6.57333,0.23637827 -10.94616,0.61298167 0.31781,-0.34855221 -2.65506,-0.6450329 -2.72346,-0.46473638 0.7925,0.0681025 -2.16832,0.58493079 -3.50792,0.61297167 0.17702,-0.76121696 -1.36776,-1.48637256 -1.24306,-1.84694526 -0.7402,0.368593 -0.64365,0.4086544 -1.35167,1.0857283 -2.45796,0.24439886 -3.17805,-0.47675682 -5.14521,0.30449086 0.37412,-0.38461367 -0.64366,-0.48477728 -1.46833,-0.61298187 0.0121,0.35657279 0.37412,0.63301247 0.66376,0.92147268 -1.17468,-0.0401024 -1.48846,0.16826599 -2.5545,0.14823529 -0.24943,-1.31008629 -3.08553,0.3285214 -3.14989,-0.92147268 -1.73787,-0.0200002 -1.73385,0.46474658 -3.35907,0.46474658 0.22125,-0.2684295 0.16493,-0.4767568 -0.23333,-0.61298187 1.00974,0.12820459 1.55684,0.51682851 2.47405,0 -2.33324,-0.14022494 5.35842,-1.30207599 1.73787,-1.84694519 -0.2615,0.2283682 -0.1046,0.5648998 -0.9856,0.6169817 -2.12405,-0.2083272 -0.50286,-0.6770738 0.37815,-0.6169817 -1.3919,-0.2283579 -3.08552,-0.048102 -1.52466,-0.6169818 -3.39931,-0.1562454 -1.42811,0.2403784 -2.77978,0.4567261 -6.022199,-0.3846136 -13.778236,-0.5448693 -22.548035,0 -0.02409,-0.624992 -4.80327,-0.060102 -6.42045,0.3084909 -2.188425,-0.4767568 -4.642356,-0.6169818 -5.611864,0 -0.217236,-0.5568897 -3.057359,0.3565726 -3.117699,-0.1482352 1.021795,0.040102 1.786137,-0.2083273 0.784456,-0.3084909 -3.580335,0.2684295 -8.818068,0.4166647 -10.704788,0 -1.403971,0.6169807 -3.61251,0.4567251 -5.05269,0.1482342 -0.3178,0.2684295 0.864918,0.396634 -0.128731,0.4687465 -0.225319,-0.3004806 -3.371173,-0.6450226 -4.252177,-0.3084908 0.993638,-0.068102 1.926937,0.5769203 0.454576,0.6169817 0.08043,-0.3084909 -1.653379,-0.200317 -1.126396,-0.6169817 -2.132104,0.2483988 -3.274586,-0.088102 -5.036593,0.1482352 1.387884,0.068102 2.19647,0.2684295 2.357383,0.6169919 -1.158579,-0.2483988 -2.031528,-0.4286851 -3.097585,0 0.394235,-0.7051249 -1.649362,-0.2684296 -3.592397,-0.6169919 -0.591358,0.2283681 -1.066056,0.4847772 -2.643009,0.4687465 -0.724107,-0.3886136 2.586687,-0.4887772 0.780428,-0.6169817 -0.04428,0.2363783 -1.794179,0.5048078 -1.283283,0 -2.176355,0.2483988 -3.274595,-0.1282046 -5.048661,0.3084908 2.220607,-0.1682658 0.47067,0.5168284 -0.08846,0.6129818 -0.482741,-0.028 -1.2149,-0.0082 -1.19076,-0.1562455 0.02409,-0.2003273 1.110298,-0.140225 1.259153,-0.3085011 -1.552825,0.2083376 -1.870625,-0.6049612 -2.478071,-0.1482352 0.671811,0 0.75629,0.2684295 -0.04026,0.3084909 -0.08444,-0.7572067 -4.602131,-0.200317 -3.117699,0.1562556 0.02008,-0.2083375 1.721771,-0.196317 1.882684,0 -0.514922,0.2403784 -3.033219,-0.040102 -2.542434,0.4567261 1.448223,0.068102 1.367771,-0.2764397 3.109665,-0.1482351 0.144817,0.3084908 1.162594,0.4086545 1.798206,0.61698175 -2.779785,-0.0199997 -3.318848,-0.55688975 -3.749294,0 -1.198806,-0.0601002 -0.414351,-0.59694905 -2.429793,-0.46874455 -2.860237,0.1602556 -0.543079,0.6169818 -1.283283,0.76521699 -2.51428,-0.26040902 -1.673501,-0.91345209 -0.543089,-1.37819869 -2.0074,0.028103 -2.594732,-0.2684193 -4.976254,-0.1602558 0.104591,0.2884603 0.394236,0.5168284 1.239041,0.612982 0.06837,-0.1161842 2.095893,-0.4647364 1.890727,-0.1482354 -0.233322,0.68509433 -1.886711,0.98557491 -4.429148,1.07370789 0.643656,-0.66505329 0.679865,-0.2684192 -1.854528,-0.30849077 0.450558,-0.67307392 -1.2149,0.12820446 -1.259153,-0.30849102 0.124714,-0.1762761 1.033874,-0.1682658 1.882695,-0.1482352 -0.0483,-0.2884601 -0.34194,-0.5168284 -1.19076,-0.6129817 -0.55515,0.2283681 -0.96951,-0.052102 -2.4981839,0.1482454 -0.1287308,0.3846136 0.9614559,0.4767567 1.1947779,0.76120676 -0.8447947,-0.028 -1.0217945,-0.24438856 -1.8706153,-0.30448066 -0.7321596,0.43669544 -0.6798639,1.0616874 -0.6315848,1.69469987 0.957429,0.14823529 2.4579571,0.14022501 1.2510999,0.456726 3.5883792,0.0721025 -0.1649401,-0.65303277 1.2189182,-0.76521691 1.476388,0.64903294 0.667793,-0.20832719 3.073455,-0.14823519 0.720089,0.03200051 0.953412,0.16826579 1.247083,0.30849091 -0.185053,0.0881027 -1.589024,0.59695111 -0.03625,0.61698171 0.378149,-0.32051123 1.230987,-0.52883862 2.498184,-0.61698171 -0.01607,0.2283682 -2.610818,0.48877722 -0.03213,0.45672609 1.259152,-0.0401024 0.168956,-0.67307377 1.906824,-0.60496128 -0.01206,0.14823519 0.462627,0.18028631 0.575272,0.3084908 -2.518296,-0.0721029 0.442515,0.38461367 -1.25111,0.61298191 2.132114,0.2403783 0.40229,-0.52483862 1.834416,-0.46474662 0.03625,0.29647029 2.425774,-0.2684295 2.429801,0.30849081 -0.876977,-0.24037832 -2.679209,-0.1682659 -2.482096,0.31651141 1.621205,-0.1081739 9.035303,0.2964705 6.207249,-0.4647465 1.037892,0.3044909 6.37218,0.9415032 6.010118,0.6129817 -1.61718,0.052103 -1.504535,-0.3165113 -1.697632,-0.6129817 2.960811,0.5528795 4.586034,0.13621457 7.81235,0.761217 -3.652734,0.100205 -1.062031,0.8733908 -3.262515,1.2339635 -0.941353,-0.02 -2.256818,0.056103 -2.457957,-0.1522352 0.49481,-0.4767672 1.939006,-0.2564091 2.486113,0 0.07642,-0.4166648 0.148844,-0.8213091 0.221252,-1.2299636 -4.07111,0.4767567 -6.142874,-0.019999 -8.013499,0.1482353 1.601093,0.072103 -3.113671,0.6450328 -1.291325,0.7772374 0.81261,-0.3205114 2.719435,-0.3485522 4.344668,-0.4687467 -0.02409,0.1482353 -0.0483,0.308491 -0.0724,0.4687467 0.712046,0.02 1.725808,-0.032001 1.75799,0.1482351 -2.176365,-0.1121739 -3.431492,0.3766034 -4.859592,0 -0.01607,0.100205 -0.02822,0.2083375 -0.04429,0.308491 -0.354009,0.0082 -0.712045,0.016 -0.607454,0.1482454 0.704003,0.028 1.713738,-0.02 1.810285,0.1562453 -1.609136,0.112174 -1.963146,0.5568899 -3.737222,0.6169819 0.345966,0.5568898 -2.067738,1.1899021 0.482741,1.3781987 0.47067,-0.504808 1.894754,-0.6650636 1.870624,-0.9214726 0.788473,-0.1882965 2.297034,-0.060103 3.029193,0.1602556 -0.81261,0.3245216 -2.349339,0.4447159 -2.530365,0.9214727 1.210873,0.080103 2.172339,0.2684295 2.997021,-0.1602557 -2.534394,-0.2363783 1.464309,-0.3966341 2.546451,-0.9214726 -0.32987,0.2283682 -0.945369,0.3966339 -1.331562,0.6129818 1.98327,0.032 2.988977,-0.3565728 2.984951,0.3084908 2.34934,0.220358 1.930964,-0.3245112 3.620562,-0.3084908 -1.235013,0.6370123 1.053977,0.28846 -0.185052,0.9254725 2.763688,0.1201944 0.933298,-0.5849305 1.93499,-0.6169817 0.864908,0.040102 0.933299,0.2604193 1.73384,0.3205114 1.359718,-0.3405422 3.93032,-0.3485523 4.429147,-0.9334829 1.102257,0.040102 1.331562,-0.1682761 2.437845,-0.1482455 0.245392,0.1762864 0.555149,0.3445522 1.045934,0.4647465 0.22126,-0.1682658 1.098236,-0.3766033 1.275236,-0.1602556 -3.290681,0.7171454 -2.425763,0.7572068 -5.744612,1.2339636 -0.181027,-0.2203478 -0.635611,-0.2604092 0.108619,-0.4567261 -2.184409,-0.1201944 -2.89243,0.1762863 -4.807298,0.148235 -0.313783,0.3766036 -0.860889,1.0496773 -2.506225,0.612982 0.30573,0.4767567 -0.189079,0.6370124 0.478714,0.765217 0.977552,-0.2684296 2.289001,-0.4447057 3.656761,-0.6169818 0.07642,0.1923067 -0.213209,0.4366953 0.474698,0.4687465 0.691924,-0.2483989 1.701658,-0.3565625 2.457958,-0.1482352 0.05633,-0.2203477 -0.201151,-0.3485523 -0.518951,-0.4687465 2.992994,-0.1482353 1.786147,0.4887772 4.131459,0.1482352 -0.430444,0.3205113 -1.874641,0.3084908 -0.740203,0.6169818 1.979233,0.1282048 2.526339,-0.168266 3.604466,-0.308491 0.140801,0.1201942 -0.02811,0.308491 0.547106,0.308491 1.540744,-0.3285217 -2.920584,-0.9334831 -0.193096,-1.5384545 0.03625,0.4847772 2.586688,0.3084908 3.029203,0 -0.704003,-0.3765932 -2.321183,0.1682761 -2.345321,-0.1482352 4.561903,-0.048102 0.325853,-0.7251556 5.076827,-0.9214727 -0.06437,0.1963171 -0.132757,0.4046545 -0.197123,0.6049717 -1.846486,-0.072103 -2.031528,0.3365317 -2.047625,0.773227 -1.64132,0.040102 -2.457958,0.6450329 -3.692971,0.3085011 0.261489,0.8934216 1.319492,0.048102 3.017133,0 -0.197112,0.4567262 -1.717754,0.5168182 -2.071763,0.9214626 3.934345,-0.3966342 4.529721,0.2684291 8.407744,-0.4567262 -1.053986,0.5448694 1.991303,0.088102 1.629251,0.4567262 -3.141839,-0.088103 -2.264861,1.2219539 -2.840135,1.3902189 -2.035554,-0.068102 -0.828697,-0.9334833 -1.939007,-1.229963 -0.736175,0.484776 -0.526993,0.7251547 -0.454574,1.3781979 1.886712,-0.1682652 1.568901,-0.068098 2.916559,0.1602551 1.339605,-0.3966329 2.679209,-1.2620138 1.114326,-1.5504738 0.313784,0.092199 2.634956,0.3565726 2.936671,0 -2.31313,0.032004 0.317801,-0.2283579 -0.985595,-0.4567261 1.906824,-0.3165011 4.859592,0.28045 7.172723,-0.1562454 -0.293662,0.2964704 0.494809,0.3445522 0.325853,0.6129715 -2.007398,-0.4567261 -2.824037,0.5849407 -4.960167,0.6169917 0.905143,0.040103 0.273559,0.3365321 -0.176999,0.4647366 2.160258,-0.2483984 3.145863,0.1602555 4.823382,-0.3084913 -0.06437,0.152245 -0.128731,0.3084913 -0.193096,0.4687468 2.675193,-0.3766028 2.26486,-0.2203474 4.055023,0.1482349 0.856864,-0.2684299 0.181027,-1.0817182 0.09259,-1.5464641 0.832725,0.208337 4.276277,0.1081733 2.091879,0.6129826 2.003372,0.01999 1.778093,-0.625003 3.793534,-0.6129826 -0.168957,0.4847772 -2.047624,0.4447054 -1.649362,1.0817274 1.842459,0.096102 1.058003,-0.5568886 2.417722,-0.152245 0.245391,-0.3966331 0.490793,-0.7932673 2.095903,-0.773237 -1.323519,0.3565726 0.08846,0.180297 0.406305,0.468756 -0.780428,0.068103 -1.460292,0.168267 -1.926937,0.304481 2.980925,-0.1161837 3.552171,-0.1081732 5.849205,0 -0.599402,-0.5128178 0.808595,-0.6730733 -0.679853,-0.9214721 1.327534,0.3365416 3.499872,-0.2884603 4.155586,0 -1.017777,0.1802872 -2.522312,0.1883059 -3.234358,0.4567356 4.634312,0.1482367 6.786529,0.7131359 11.215675,0 -0.679854,-0.019991 -1.685561,0.027999 -1.697631,-0.148245 0.478714,-0.032004 1.206848,0 1.295352,-0.1482347 -1.452249,0.020001 -2.836107,0.020001 -3.483778,-0.1602559 -1.395927,0.2283675 0.535037,0.3766032 -0.836751,0.4687462 -0.06437,-0.3004696 -2.691279,-0.020001 -1.448223,-0.6169815 2.007399,0.4366957 4.421105,-0.060103 5.813005,-0.765217 1.580976,0.8533601 -0.349994,0.8052783 1.375816,1.6866897 0.10459,-0.2684297 0.69192,-0.3846134 1.42408,-0.4567261 -1.09421,0.6770735 1.87061,0.3285206 2.17234,0.3084903 -0.85687,-0.2964695 -4.565931,-0.6450323 -2.2005,-1.229963 -1.62926,1.1899024 4.76707,-0.3084909 3.15391,0.6169818 2.47405,0.096103 1.9712,-0.5689102 3.00105,0 0.177,-0.1923069 0.16091,-0.4366955 0.87294,-0.4687466 0.67584,0.032001 0.81664,0.1682659 1.01778,0.3084909 -3.69296,0.2684296 -3.04125,0.8814111 -5.37049,0.9334934 0.39424,0.00825 0.73216,0.019991 0.53907,0.1482348 -0.0603,0.100197 -0.0603,0.1882963 0.47872,0.1482347 0.55112,-0.6049607 1.75797,0.120195 2.54645,-0.3084902 -0.67583,-0.020001 -1.35167,-0.040103 -0.9534,-0.3044912 2.85218,0.1282054 2.72747,-0.4767565 6.9595,-0.7652167 -1.412,0.2964705 0.12874,0.404644 1.47639,0.4567264 2.00338,-0.060104 1.77407,-0.8132992 4.11537,-0.7652173 -1.07814,1.201913 2.56656,-0.1081739 4.87165,0.6169818 0.177,-0.6370125 4.03491,-0.8373295 4.38891,-0.3084909 0.28965,-0.2283682 1.55685,-0.1482352 2.49016,-0.1602557 0.4425,-0.2684295 -0.56724,-0.3846136 0.35802,-0.4567261 0.74021,0.088104 -0.39826,0.5849306 0.67584,0.6169818 1.37983,-0.140225 1.56086,-0.6570431 3.44356,-0.6169818 -0.27758,0.4166648 -1.23502,0.3084909 -0.49482,0.6169818 1.82637,-0.1882966 3.31482,-0.1682659 1.53673,0.3084909 2.41773,0.076102 1.93498,-0.8052784 4.21995,-0.765217 -0.87697,0.2163477 -0.95341,0.3766033 0.1931,0.4567261 1.18675,-0.3766035 1.39593,-0.5568898 1.86258,-0.765217 0.34999,0.4086442 0.0603,0.4767567 2.11602,0.3084909 -0.18104,0.2083272 -0.36206,0.4166647 -0.53102,0.6129715 0.88905,-0.028 2.08384,0.060102 2.49818,-0.1482352 -1.70568,0.100204 -0.881,-0.3165011 -1.38787,-0.4647363 1.69361,-0.080103 5.24981,-0.5568898 2.3775,0 2.05567,0.2283579 1.53672,-0.4286852 3.23034,-0.3084909 -1.56488,0.5168181 -0.12069,0.068102 1.66545,0.1482352 -0.74422,0.624992 1.14651,0.080103 2.24073,0.1482353 -0.50286,0.3605726 -0.42643,0.5849305 0.58331,0.6169817 0.19309,-0.2684296 0.97353,-0.3565625 2.08383,-0.3084909 -0.21724,0.2283682 -2.9407,0.4887777 -0.44251,0.4687466 1.35973,-0.2203477 1.85452,-0.7371761 3.74526,-0.7772374 0.85686,-0.4647467 -1.408,-0.2884603 -0.48676,-0.761217 1.07409,0.4567261 1.88269,0.096102 4.1918,0 -1.72579,0.8733907 3.29471,1.1378203 0.27758,1.5384544 0.53503,-0.016 0.88502,0.2964702 1.39995,0.3285213 -0.0121,0.2443993 0.0281,0.4166655 0.17297,0.4407062 0.10863,-0.897432 0.51895,0.1081731 0.6155,-0.048101 -0.0884,1.1017592 0.18907,3.2011035 -0.14885,3.5736955 0.1207,-2.3036712 -0.32987,-1.870986 -0.61549,-2.2636102 -0.26953,3.4294722 -0.0724,6.0256132 0.46665,5.3164782 -0.1609,0.144236 -0.18908,0.616992 -0.31781,0.845351 0.0804,-1.185894 -0.70802,-1.193904 -0.76835,0.132213 0.48676,-0.717144 0.62756,0.104166 0.76835,0.985576 -0.4586,0.456725 0.21723,4.058473 -0.4586,3.842125 0.38619,-1.999191 -0.33791,-2.700305 -0.61952,-1.189901 0.41838,0.693114 0.67986,2.752396 1.07812,1.923067 -0.14884,0.737177 -0.30171,1.41426 -0.4586,2.095344 -0.43848,0.84936 -0.39826,-0.452715 -0.7764,0.07211 0.0281,0.80128 -0.0603,2.135406 0.15688,2.131396 0.0523,-2.299672 0.26954,0.949513 0.61952,-1.646628 -0.032,1.466342 0.23736,1.590536 0.30976,2.652233 -0.16092,0.120194 -0.18907,0.58493 -0.30976,0.789258 0.27758,-1.213933 0.0201,-2.015211 -0.47067,-1.362168 -0.0884,2.107355 0.47871,1.354157 0.47067,3.080909 -0.33791,0.741187 -0.97755,3.501584 -0.61952,4.411036 -0.0281,-2.235558 0.22931,0.012 0.45861,-1.470342 -0.30976,-1.830925 0.18907,-2.740377 0.61951,-3.830116 0.25747,0.705126 0.44655,2.307683 -0.14884,2.948705 -0.0523,-1.077717 0.2092,-1.262004 0.30575,-1.947098 -0.28564,0.260408 -0.51494,0.761205 -0.61551,1.606556 0.33792,0.709134 -0.032,3.072909 0.61551,1.241984 -0.28564,1.646628 0.20113,2.948704 -0.14885,4.679465 -0.0603,-1.634608 -0.23735,-2.744377 -0.6155,-2.992776 -0.20114,1.514414 0.33792,2.55608 0,2.824511 -0.41838,0.100091 -0.2816,-2.195509 -0.61951,-2.411846 -0.47873,2.067293 0.84881,3.934269 -0.16092,2.355753 0.0926,0.929483 0.0805,2.307683 0.30975,2.608163 0.0523,-1.241984 0.67986,-0.29647 0.77641,0.144224 -0.016,1.069709 -0.10861,1.95512 -0.30573,2.455928 0.18907,-1.718752 -0.45056,-2.556081 -0.47068,-1.442301 0.26954,0.116184 -0.0684,0.645022 -0.15688,1.193902 0.28562,-0.0561 0.0965,1.866975 0.3178,2.075314 -0.2293,0.016 -0.26953,-0.785258 -0.47067,-0.84135 -0.14885,1.1258 -0.82468,3.012806 -0.1569,3.42947 0.0282,-0.673073 -0.0201,-1.578514 0.1569,-1.73076 0.67985,2.572111 1.24708,3.233165 1.54478,6.610554 0.032,-0.460736 0.13274,-0.729166 0.30974,-0.697115 0.0523,2.227549 0.28965,3.589727 0.61952,3.177062 -0.0804,1.446313 -0.35803,2.283652 -0.61952,3.112971 -0.25745,-1.358169 0.18103,-2.035243 -0.14884,-2.804469 -0.10061,0.60095 -0.92525,-0.733177 -1.23501,-1.209933 0.46664,-2.640215 -0.32987,-2.439897 0,-5.072089 -0.49884,0.957522 -0.12069,-1.758812 -0.61952,-0.793269 0.72009,1.95912 0.16895,4.411036 0.47068,7.636179 0.38619,-0.60096 0.70801,-1.117778 0.92525,0.184298 0.22929,2.087324 -0.42642,1.278036 -0.30977,3.008796 0.39022,0.584931 0.47873,-0.508808 0.61952,0.336542 -0.20114,0.681085 -0.14884,2.339733 0.30977,2.752388 -0.0724,-2.335723 0.38619,0.328521 0.61548,-1.326118 -0.008,0.793268 0.0724,1.221952 0.14885,1.70672 -0.55514,-2.135405 -0.66778,2.512009 -1.0741,0.893432 -0.24941,3.253186 1.17467,-0.128205 1.0741,2.564091 -0.32585,-1.209934 -0.54711,0.540859 -0.45458,2.435886 0.48676,0.392623 0.56723,2.363774 0.76435,3.914238 -0.35804,-0.781236 -0.34597,-1.410249 -0.6155,0.116195 -0.20114,-0.753207 -0.20114,-2.103364 0,-2.880602 -0.20919,0.04411 -0.34194,-0.208328 -0.47068,-0.512818 -0.0884,1.927078 -0.3178,1.189902 -0.45859,1.834925 0.20917,0.516827 0.20114,1.915058 0.45859,2.207527 -0.14884,0.02399 -0.177,0.53285 -0.30974,0.612972 -0.0483,-2.395813 -0.6477,0.500808 -0.76435,-0.977554 0.0201,-1.053678 0.50688,-0.484777 0.4586,-1.810894 -0.5994,-1.145821 -0.60745,1.177881 -1.07811,1.927077 -0.37816,-1.021625 0.25746,-2.471946 -0.30977,-2.732356 -0.54711,1.534445 -0.177,3.749983 0,5.5809 -0.64767,-0.012 0.14885,3.100949 -0.62757,3.457523 0.18908,0.252398 0.35805,0.560888 0.47068,1.041656 -0.5109,0.58894 0.16896,1.133811 0.15689,1.68269 -0.27757,0.0761 -0.48676,-0.0761 -0.62757,-0.496798 0.2615,2.26361 0.24942,2.812489 0,5.532826 0.30173,0.436705 0.56723,0.929482 0.93734,1.149842 0.0684,-0.657056 0.16091,-1.262017 0.30975,-1.706721 0.0484,3.753983 -1.24709,1.318096 -0.47067,3.9543 -0.24942,-0.120184 -0.79652,-1.931079 -0.92526,-0.580921 0.58734,2.367774 0.0402,5.641 1.38386,5.673051 0.43044,2.151425 -0.44653,3.461523 0.16092,4.547251 -0.0281,0.661055 -0.18103,0.853359 -0.31781,1.105779 -0.28161,-0.709145 -0.51895,-1.570516 -0.76836,-2.371794 0.2293,-1.221952 -0.20919,-1.826914 0.46665,-0.532849 0.0603,-1.858965 -0.26552,-2.387815 -0.46665,-3.38941 -0.34999,2.51201 0.0884,4.915845 -0.61951,4.911834 0.2816,0.913462 0.61147,1.622588 0.92926,2.39584 -0.33792,0.20431 -0.49882,3.05285 0,3.38939 -0.14884,-1.99919 0.43849,-3.910231 0.77642,-2.07932 -0.35805,4.7636 0.51894,7.72834 0,11.88296 0.2293,0.19231 0.56721,-0.02 0.60743,0.77324 -0.26952,-0.0961 -0.46664,-0.004 -0.60743,0.38461 0.0484,1.34615 0.23734,2.1955 0.14884,3.99037 0.45055,0.076 0.78847,0.5008 0.92927,1.57049 -0.47068,0.34857 -1.40798,1.7468 -1.23903,2.8726 0.0201,-1.09375 0.61148,0.62899 0.61951,1.41424 -0.65973,-0.99357 0.51896,5.40463 -0.14884,3.36539 -0.0121,2.3237 0.23736,3.46952 0.46666,3.65782 -0.0884,0.78525 -0.2293,1.3141 -0.31782,2.09135 0.68791,0.92947 0.16897,4.67545 0.46667,5.43667 -0.23736,-1.5585 0.51893,-1.33814 0.47066,-0.2444 -0.35804,0.54087 -0.74825,3.95431 -0.61951,4.71953 0.18102,-0.0921 0.62755,-0.0442 0.76836,-1.74278 0.0884,3.10897 -0.63964,2.5641 -1.08618,3.22916 0.65976,0.38861 0.10862,1.36217 0,1.72275 0.31782,1.1979 0.20114,0.10001 0.61952,0.48476 0.0684,1.12181 0.33792,1.72676 0.31781,3.12099 -0.51894,-0.81731 -0.24942,0.96954 -0.16092,1.60656 -0.33792,-0.0601 -0.5471,0.54087 -0.61549,1.76281 0.81663,-1.02964 0.87698,8.08891 0.30575,5.41665 -0.42643,1.37819 0.55111,2.31569 0.47066,4.48715 -0.0884,0.0521 -0.13275,0.22837 -0.16494,0.40064 -0.0644,0.40865 -0.0564,0.79728 -0.30572,-0.30448 -1.90282,-0.10817 -0.1931,0.53685 -2.61084,0.32051 0.38619,-0.58494 -2.06774,0.13621 -2.28095,-0.62499 -0.13678,0.87339 -2.9769,-0.26043 -4.17571,0.46473 -0.13275,-0.14823 -0.66376,-0.18029 -0.88904,-0.30848 -0.47068,-0.21635 1.89878,-0.37661 0.2132,-0.45675 -1.65337,0.34857 -0.45859,0.49681 -0.50687,0.76523 -5.47106,-0.22836 -11.70244,0 -17.23385,0.14824 0.53503,-0.21634 0.37412,-0.3766 -0.85687,-0.45672 -1.04996,0.92546 -7.92902,0.46874 -9.11174,0.14823 -0.30573,0.60897 -3.98261,0.012 -4.46133,0.30849 0.6517,-0.0482 2.19245,0.44872 0.78446,0.46874 -1.18675,-0.60495 -2.18842,-0.20031 -3.72515,-0.61698 -0.41837,0.60497 -4.79523,-0.0401 -2.56255,0.92147 -0.79653,0 -1.22698,0.0721 -1.64936,0.16025 -0.26954,-0.57691 -1.0902,-0.49678 0.27757,-0.77323 -3.65275,0.39664 -4.71478,-0.088 -7.48249,0.30849 -0.58733,-0.28044 1.6011,-0.51682 -0.16895,-0.60495 0.0281,0.0961 0.0563,0.1963 0.0844,0.30447 -0.61951,0.012 -0.90916,-0.22835 -1.13042,0 0.18104,0.24841 1.1264,0.18831 1.34765,0.76522 -1.4804,-0.1963 -2.28095,0.45675 -2.90851,0 1.97522,-0.0682 0.39022,-0.93348 -0.68388,-0.46474 1.1465,0.26844 -4.59409,-0.02 -6.45666,-0.30849 -0.82067,0.55688 1.99533,0.10022 1.83442,0.46474 -3.423447,-0.10816 -3.109672,0.11219 -3.58436,-0.46474 -1.790164,0.14824 -2.437844,0.46474 -4.618227,0.16025 -1.235014,0.21636 0.768369,0.37662 -0.535037,0.45273 -0.808595,-0.14824 -1.162604,-0.41666 -2.353365,-0.45273 -3.113671,1.02163 -10.358811,-0.60896 -14.051782,0.92149 1.476389,-0.37662 -0.362054,-0.66507 -2.244738,-0.617 -0.144828,0.18029 0.04026,0.43671 -0.647681,0.46875 0.172983,-0.33654 -0.42642,-0.49678 -1.681545,-0.46875 -0.148844,0.18029 0.02811,0.43671 -0.663768,0.46875 -0.394246,-0.57691 -2.051651,-0.02 -2.896446,-0.32051 -0.526993,0.52884 2.107964,0.26042 2.204513,0.617 -3.121725,0.33652 -3.503892,-0.20835 -5.849214,0 1.19076,0.0481 -1.001681,0.47675 -1.387874,0.61697 0.679854,-0.5569 -1.098239,-0.74519 0.3178,-1.07372 -0.86089,0.02 -2.148199,-0.0601 -2.385549,0.14825 0.446543,0.032 1.194789,0.012 1.150536,0.16026 -1.058004,-0.10011 -2.618871,0.44469 -2.980924,0 0.768359,-0.0681 1.271223,-0.20034 1.359717,-0.46876 -0.221251,-0.1883 -0.50687,-0.34455 -1.029847,-0.46474 1.247083,1.18991 -3.423439,0.64504 -3.580325,0.3165 -0.752273,0.74519 -1.037892,0.74519 -0.997665,1.07373 -2.099921,0.0601 -1.589025,-0.46875 -2.723463,-0.61699 0.104591,0.54887 0.329871,0.96553 -1.701658,1.22994 0.687898,-0.62499 -1.665459,-0.52481 -0.643654,-1.22994 -4.759027,-0.18832 -6.162998,0.51681 -9.071513,0.46875 0.0483,-0.1803 0.997664,-0.24039 0.181026,-0.30849 -1.464309,0.14824 -2.783801,0.33653 -3.869971,0.60495 -0.514923,-0.37659 0.583316,-0.47676 -0.197123,-0.60495 -2.474043,0.45673 -2.305087,0.99358 -4.481442,1.37819 -2.120034,-0.37661 -1.444196,-0.0961 -2.534392,-0.61298 0.659751,-0.032 1.617189,-0.2484 0.796524,-0.30848 -1.753953,0.43669 -2.723461,0.97355 -3.153906,1.08172 1.041916,0.008 1.894764,-0.0401 2.506235,-0.16026 0.124704,0.32051 1.597067,0.30849 0.152861,0.61699 1.613162,-0.12822 3.359073,-0.20033 5.551526,-0.14824 -1.078127,0.49678 1.862571,0.11619 0.796525,0.61298 -2.405662,-0.1162 -3.218273,0.22836 -5.53543,0.14823 0.893064,-0.53284 -1.77005,-0.25641 -2.317156,-0.14823 0.217225,-0.30448 -1.508573,-0.19632 -0.792509,-0.61298 -1.737867,-0.11218 -1.95912,0.26843 -3.688944,0.14824 -0.261478,0.18829 -0.217226,0.43669 -0.949385,0.46474 -0.245392,-0.51683 -1.371788,0.16827 -1.947061,0.14823 0.820665,-0.51283 -2.043598,-0.24438 -1.918894,-0.61297 0.724117,-0.02 1.681545,0.028 1.943033,-0.14824 -2.97288,0.0481 -0.241364,-0.42868 0.623543,-0.77726 -0.285618,0.21236 0.249418,0.85739 0.788471,0.46877 -2.132102,-0.38863 4.038938,-0.79327 1.705685,-0.61699 -1.943024,0.11218 -1.524647,-0.26843 -3.471709,-0.14823 -2.912531,0.84534 -0.655723,1.30208 -3.471707,1.99518 -1.021805,-0.39663 -2.035566,-0.31651 -1.762006,-0.76522 -0.458603,0.18829 -0.961457,0.36058 -1.589026,0.46875 -0.333896,-0.28847 2.216583,-0.51683 0.547108,-0.61699 -1.037891,0.10818 -0.551134,0.7532 -2.377496,0.61699 -0.47067,-0.38862 2.787828,-0.48878 1.146509,-0.61699 -2.546462,0.72516 0.615488,-0.22838 -1.476389,-0.3085 -0.285618,0.1202 -0.691923,0.1803 -1.363735,0.15225 -0.32988,0.22837 -0.354009,0.5649 -1.166632,0.61298 0.349995,-0.80529 -1.138465,0.32852 -2.5705909,0.16026 -0.3097575,-0.58493 1.9349909,-0.30049 1.9229209,-0.77324 -2.3694524,0.5649 -2.7757684,-0.0922 -3.5682668,0 -0.1408008,0.65704 -0.2252792,0.61298 -0.2896446,0.28846 -0.1247041,-0.59294 -0.1930964,-2.13942 -0.4867573,-1.93108 0.5591763,-0.13622 0.3017144,-0.70512 0.7764019,-3.22515 -0.8850199,0.74119 -0.2655049,-2.20352 -0.9252458,-2.10736 0.2212524,-0.5048 0.3902091,-1.24999 0.619515,-1.76281 0.020083,0.6891 0.040268,1.3742 0.3057308,0.88141 0,-0.58493 0,-1.16987 0,-1.8149 -0.3781395,-0.64503 -1.355691,2.86458 -1.2350136,-1.26201 0.6275684,-0.10817 0.6999769,-1.87901 0.9292828,-3.20512 0.5350366,-0.37259 -0.012049,1.59456 0.3057308,1.47837 0.3620634,-1.67468 -0.068382,-2.69229 -0.3057308,-3.29728 0.2292955,-2.55205 -0.060348,-5.05606 0.1488438,-8.58168 -0.3781497,-0.44471 -0.3701065,3.13301 -0.6195149,1.10977 0.020082,-0.95752 0.3982624,-0.80529 0.3178005,-2.03124 -2.0395817,2.90464 -0.3982626,-8.73793 -1.2350134,-8.73393 0.4103323,-0.73317 0.1689567,-3.44549 0.768369,-3.60575 -0.4465418,2.29566 0.1810266,3.16104 0.4666444,3.87417 -0.2655049,2.03926 -0.4746977,-1.27003 -0.6154986,0.48878 0.3097679,-0.0681 0.028116,2.6322 0.4586118,2.05127 0.040267,-2.62018 0.4586012,0.98157 0.9373155,-1.33813 -0.1126345,-2.31169 0.4264289,-7.45989 -0.1609137,-5.90142 0.1609137,-0.12418 0.18908,0.90545 0,1.16986 -0.2292955,-2.52001 0.1488439,-4.38297 0.4706711,-5.73314 -0.3700962,-0.95352 0.2976981,-6.22192 0,-4.78362 -0.4223919,-0.11619 0.1086181,2.78043 -0.3097574,2.61618 -0.1810266,-4.84775 0.1971231,-5.22835 -0.1609137,-8.25719 0.5591763,0.67309 0.8287078,-3.99437 0.6195252,-3.44949 -0.4706813,0.30448 -0.8287078,-0.45674 -0.3097677,-2.77643 -0.490784,0.60095 -0.6396278,-0.36058 -0.7683588,-1.33415 0.4304453,-0.73716 0.3982626,0.62902 0.7683588,0.16427 0,-0.99358 0,-2.04726 0,-3.04084 -0.1890697,0.0601 -0.4384884,0.38461 -0.4706711,-0.30047 0.2896445,-1.28607 0.728133,-5.572911 0.4706711,-5.076114 -0.6195039,2.05927 -0.518929,-2.455923 -0.9292614,0.536852 -0.00824,-0.761218 -0.1971231,-0.709135 -0.1568868,-1.734771 0.2091825,-0.116185 0.4183754,-0.236379 0.6154882,-0.348554 0.060348,-2.259609 -0.7361762,-0.701124 -0.7643321,-2.5681 0.2172257,-0.29647 0.2574618,-1.141819 0.4666443,-1.490372 -0.00824,0.769227 -0.1971231,0.933483 -0.1609136,1.911047 0.7683589,-1.534454 0.4224023,1.762812 0.9292725,1.298066 0.080431,-2.147427 -0.3902092,-1.887006 -0.619515,-2.644213 0.3298705,-2.81249 0.1488439,-1.486373 0,-4.222739 0.2011395,-0.104165 0.2212628,0.649032 0.4706712,0.344551 -0.1608893,-3.313288 -1.1183178,-2.479958 -0.7683345,-5.007998 -0.048299,0.55289 -0.4183754,2.856562 -0.4666547,1.40625 0.217236,-1.69471 0.7040036,-2.403836 0.7643424,-4.54325 -0.1769998,-0.032 -0.4264186,0.260418 -0.4586013,-0.432687 0.1810265,-0.965543 0.5792891,-1.205932 0.7683588,-2.115374 -0.2373489,-0.0641 -0.1005132,-1.302087 0,-1.814904 -0.3902091,-0.58893 -0.4787143,0.508819 -0.619515,-0.368582 0.020083,-1.774833 1.0901861,-3.165054 0.9292725,-4.559273 -0.619515,0.3165 -0.4103221,-1.41025 -0.3097575,-2.916653 -0.599402,0.004 -0.4787143,-3.157042 -0.619515,-5.160233 C 6.5851725,63.142 6.4081726,61.098747 6.886887,61.395217 6.8748378,62.392802 6.9955049,62.87758 7.1966444,63.037836 7.2449437,60.686081 6.2593289,60.32952 7.0357308,58.302278 6.6978173,57.541071 6.4162158,56.519434 6.2673719,54.98098 c 0.2695317,-0.260408 0.4787144,2.660245 0.6195151,0.973555 -0.1890697,-0.05211 -0.1005133,-0.608972 0,-1.169861 -0.5189402,0.400634 -0.6597409,-0.84535 -0.9292725,-1.526445 0.3781497,-1.526434 -0.2896446,-4.274811 0.3097574,-3.088919 0.1006164,-2.25961 -0.736176,-0.55689 -0.7683587,-2.2556 0.6677839,0.697105 0.70802,-2.251599 1.0781162,-0.881411 0.1408008,-2.319702 -0.6879071,-1.935088 -0.925256,-0.929482 -0.1327473,-2.087324 0.2856282,-2.664245 0,-3.65383 0.4746979,0.885412 0.7442294,-2.407835 0.4666547,-0.701115 -0.5068805,0.653043 -0.2212524,-1.887017 -0.4666547,-2.303682 0.3580367,0.685094 0.3459669,-0.428674 0.6154985,1.037657 0.1287309,-1.614576 0.1890697,-3.974339 -0.3097574,-5.340519 0.3017144,-2.055272 0.3218273,-3.938279 -0.156887,-2.972745 0.1086077,-1.903028 0.1086077,-1.197902 0,-3.060878 0.156887,-0.02399 0.1890697,0.496787 0.3178006,0.596952 0.00824,-2.588133 -0.3097574,-2.011212 -0.3178006,-5.424654 -0.5994122,0.492789 -0.571246,-1.698709 -0.9292827,-2.30768 0.052316,1.41425 0.18908,2.520019 0.3097575,3.629788 -0.2574619,0.272439 -0.3902091,-0.837339 -0.4586013,0.0641 0.1689567,0.0921 0.2413756,0.616981 0.3097575,1.13782 C 4.5737571,24.676639 4.2157204,29.776769 4.722601,28.09409 4.6219849,28.11009 4.5335313,28.006 4.5616873,27.525179 c 0.4787142,0.344553 0.3017144,0.368593 0.7804287,-0.116183 -0.1488439,1.145829 0.4586115,1.935088 0,2.419853 -0.2091827,-0.02399 -0.1488439,-1.097744 -0.3097575,-1.189889 -0.2896446,2.82851 0.6074554,0.729167 0.4586012,2.936685 -0.5269831,0.564899 -0.647671,-0.53686 -0.9292724,-1.025637 -0.048299,2.027231 -0.016065,3.741973 0.3097575,4.21072 -0.1769999,1.874985 -0.3861928,-0.04411 -0.6154883,1.310086 0.2091827,0.60897 0.5752625,0.476767 0.6154883,1.710731 -0.2172359,1.410248 -0.3781497,-0.693105 -0.4586013,0.689103 0.3017143,1.418261 0.6597408,-1.14583 0.7683588,1.077718 -0.7281329,-0.372593 0.1006161,1.987171 -0.3097575,1.903038 0.080431,-1.318107 -0.6074451,-1.165862 -0.156887,-0.612982 0.6476711,2.800469 -1.0982395,5.320489 0,7.940671 -0.1528705,0.0401 -0.1810265,0.524839 -0.3097574,0.681083 C 4.0749197,47.348811 4.0467636,44.083595 3.3186307,43.666929 3.4755176,41.836016 3.9260758,41.97223 4.0950428,41.635688 3.5157537,39.680569 3.4071357,39.880896 2.6991158,41.299156 c -0.1086181,3.565687 0.281591,4.967926 0.470671,7.251567 -0.3620532,1.354158 -0.1810265,-0.07211 -0.470671,-0.472757 0.5269933,7.091321 -0.8971001,1.991181 -0.7683693,4.543251 0.2614887,-0.136215 0.3902196,0.368592 0.4586117,1.065697 -0.2091928,0.0641 -0.1367843,1.1258 -0.3057411,1.358168 -0.032131,-0.472756 -0.1327576,-0.681083 -0.3097574,-0.504808 -0.1609136,1.858966 0.3379135,0.977565 0.6154985,1.009616 -0.048299,-1.366177 0.032131,-2.291661 0.3097576,-2.55608 -0.229306,1.870987 0.2091825,3.112971 -0.3097576,4.419058 0.6798537,1.458321 1.3476479,-1.330128 1.8545285,-0.600963 0.3700963,-0.416664 -1.1746748,1.518424 -1.3959272,2.912644 0.040268,2.199506 -0.4666546,2.439895 -0.4666546,4.483158 0.4988374,0.356562 0.2172358,-2.119385 0.6275682,-2.083324 -0.00824,0.600952 0.1206879,0.673073 0.1488438,1.201913 -0.048299,1.454321 -0.4787141,1.494383 -0.6154984,2.684285 0.4666546,0.424674 0.197123,0.885411 0,1.802874 0.2172359,1.294065 0.3781497,-0.925473 0.4666546,0.476755 0.1086181,1.454323 -0.5269934,2.78845 -0.4666546,3.245186 0.18908,0.04011 0.4384883,-0.30048 0.4666546,0.404645 -0.3379238,1.883007 -0.3580366,2.311683 -0.6275682,0.260408 0.080431,1.891019 -0.128731,2.820502 -0.619515,2.728359 -0.060349,-2.872583 0.032131,-3.629791 -0.6074452,-4.703508 0.51894,-0.749196 0.1287309,-1.442301 0,-2.483958 0.8166381,0.352562 0.032131,-1.282045 0.4586014,-2.047273 0.080431,0.697114 0.1689567,1.38622 0.3178004,1.750802 C 1.8824472,64.387993 1.7939726,64.484146 2.5422185,61.687677 2.3330359,61.763776 2.2002782,61.50739 2.0836171,61.246983 1.8623647,62.108352 2.0112185,64.28382 1.6129461,64.488145 1.0457267,62.937672 1.9307465,62.02021 1.3031885,60.245377 1.6652416,59.279842 1.8824776,61.679668 1.9227035,60.037049 1.6049029,59.359965 1.3434144,58.418463 1.1543447,57.20854 1.2428078,55.850371 1.4721453,55.113195 1.6250158,53.979386 1.4359359,53.919278 1.2549093,53.85118 1.3031885,52.809514 c 0.1890697,0.004 0.3620531,0.977564 0.4706712,-0.140215 -0.5994021,-3.09294 -1.02582075,-5.156233 -0.7683589,-8.497561 0.1407905,1.11778 0.6597408,3.581716 0.619515,2.323701 -0.3097575,-1.370178 0.2856178,-3.509593 -0.1528705,-4.915833 -0.1689568,-0.444716 0.1729834,1.774823 -0.62755812,1.41826 0.0523159,-1.466342 -0.0200825,-2.359764 -0.14885411,-3.060888 0.30976773,-0.0681 0.20114974,-1.738771 0.61952523,-1.40223 0.048299,1.197904 -0.51895036,1.68669 -0.3097575,1.943099 C 2.3209661,39.16375 0.57505554,36.018729 0.53884608,33.715057 0.74803895,32.160572 1.0055008,34.780756 1.1543447,32.997912 1.3635273,31.872113 0.25724465,31.455449 0.08024483,33.19022 c 0.22929545,1.113778 -0.38217642,1.71473 0.14884376,1.858966 -0.0402675,0.496786 0,1.217943 -0.14884376,1.245983 -0.04026747,-0.841338 -0.3419403,-0.600961 -0.4706712,-1.125789 0.0804311,1.205923 -0.84480443,1.570506 -0.30975749,2.56409 0.0321312,-0.737176 0.17297317,-1.009615 0.30975749,-1.346147 -0.14884384,3.39341 0.26147823,4.342924 0.4706712,6.181859 -0.30975749,-0.961535 -0.20113948,0.108173 -0.61951504,0.144225 0.12067752,-1.490373 -0.18103686,-4.178659 -0.31781089,-2.435886 0.60745552,0.965544 -0.8970897,2.227559 -0.3097575,3.197102 0.040267,-0.86938 0.33792383,-0.813299 0.46665474,-1.334127 0.0523162,1.274035 0.41837547,1.1258 0.4706712,2.395824 -0.70802012,4.274822 0.55917621,7.03923 -0.4706712,13.882143 0.0120491,2.259608 0.20918259,-2.147427 0.61951496,-2.091335 0,0.669074 0.12068789,0.753207 0.14884385,1.229964 -0.5471064,0.240389 0.02008245,1.153839 -0.45860132,2.043261 0.49078413,-0.28446 0.040267,2.916654 0.45860132,4.23075 -0.17701017,0.128205 -0.43848841,0.03599 -0.45860132,0.777238 0.63962788,4.330913 -0.217236,12.980711 0.30975747,16.165794 -0.39021945,0.0561 -0.37814963,1.578516 -0.61951496,2.119386 0.10051314,2.155435 0.45860131,1.005595 0,4.403015 -0.0964968,1.642628 0.34194022,-0.472747 0.45860131,-0.833328 -0.21723598,4.871771 0.24136533757,8.77801 -0.30574106,12.071266 -0.17298346,1.622596 0.34596691,-0.196317 0.46665471,2.848536 -0.69595023,0.46073 0.32987041,4.73956 -0.46665471,5.89339 -0.10051314,1.95914 0.81663804,4.79566 0.15689724,3.68991 -0.0482998,2.59612 0.59940203,0.47675 0.60744518,1.50239 -0.0603489,1.80688 -1.16662139,0.19631 -1.22294371,2.01522 0.51492363,-0.52085 0.30574104,1.14581 0.76434235,2.00319 -0.0402675,-1.37819 0.0321309,-2.33974 0.3097575,-2.70432 -0.28964457,1.41026 0.08846436,1.09776 0,3.10897 -0.28964457,1.65463 -0.68790713,6.1458 0,6.88297 -0.21723602,0.21635 -0.33792382,-0.0642 -0.46665473,-0.28044 -0.0723983,1.27002 0.47872461,2.34373 -0.14884383,2.61217 -0.0200821,2.8285 0.51492369,3.64982 0,5.62496 -0.19309638,1.36618 0.48676763,-0.79325 0.46665471,2.81651 -0.44654179,0.40864 -0.39826255,6.72672 0,8.10893 -0.64768128,0.59294 -0.02811443,0.45272 0,1.22195 -0.18907997,0.27643 -0.43848838,0.30046 -0.46665471,1.05769 0.18907997,-0.0361 0.0964968,0.58893 0,1.22194 0.76434242,-1.06569 -0.20918259,2.5 0.30574106,2.24358 0.0523159,-0.58893 0.41837551,-0.90144 0.47067114,-0.39663 -0.54710639,0.64904 0.27757478,2.5561 -0.14884376,2.62418 -0.16895677,-0.40063 -0.05231594,-2.27161 -0.4706712,-1.42627 -0.19712308,2.61618 0.45055828,1.07772 0.4706712,2.70432 -0.18908005,0.0442 -0.36205322,-0.78526 -0.4706712,0.40865 0.10051314,1.6226 0.0804311,0.0521 0.4706712,0.80929 -0.11264475,1.01361 -0.45860139,2.96874 -0.4706712,3.58973 0,-0.1843 0.28964465,0.10416 0.30975747,0.33253 0.20113958,3.04886 -0.34999361,10.88136 0.30975749,13.4134 -0.20919288,0.44871 -0.28964457,1.19791 -0.60744515,1.27002 0.14481716,0.83734 0.16895683,1.25401 0.18906975,1.70273 0.46664438,-0.016 0.95341205,-0.028 2.01544211,-0.11619 -0.2051661,0.20832 -0.4103324,0.41666 -0.6034287,0.61297 2.3734788,0.2484 0.905143,-0.66504 2.5625485,-0.61297 -0.836751,1.06971 1.3235186,-0.32852 2.8803594,-0.30849 -0.00412,0.20832 0.6718106,0.29647 0.1247042,0.61297 2.4820967,-0.008 3.0050642,-0.73316 4.8998283,-0.45674 -0.555159,0.0601 -2.228662,1.53045 -2.3815222,1.99519 0.5752631,-0.21634 1.3597182,-0.37659 2.3895652,-0.45672 -0.740203,-0.47676 1.432127,-2.25159 4.038928,-1.6947 -1.625223,-0.0922 -2.381522,0.0601 -2.34934,0.46473 2.309114,0.0401 3.3993,-0.28846 5.434865,-0.3085 -0.06437,0.48878 -1.564883,0.53688 -1.484432,1.07373 0.486767,0.028 0.663767,0.1282 0.394236,0.30849 2.248775,-0.0922 2.586689,-0.44871 4.726844,-0.14824 0.21321,-0.28846 -0.269531,-0.32853 -1.230997,-0.15223 0.418377,-0.38462 0.695961,-0.75322 -0.683879,-0.77325 -0.406306,0.28046 0.04428,0.77325 -1.814304,0.61699 0.205167,-0.26041 0.406307,-0.51682 0.599402,-0.76523 1.480406,-0.028 5.145221,-0.37659 5.294065,-0.14823 -0.824682,0.17628 -2.039582,0.27645 -1.826373,0.76522 2.574618,-0.1322 3.664815,-0.6851 5.849214,-0.92548 3.439526,0.14024 9.74734,0.032 8.568649,0.76522 2.268888,-0.20031 1.520631,-0.22035 3.471719,-0.30849 -0.840778,0.4968 2.043597,0.20834 1.641319,0.61699 -2.280958,-0.14022 -1.645345,-0.02 -3.861928,-0.16026 -0.100621,0.28845 0.156886,0.51683 0.997665,0.61699 0.277574,-0.26843 1.27524,-0.34857 2.787828,-0.30849 -0.305742,0.10011 -1.979244,0.59694 -0.317812,0.61698 0.189081,-0.12019 0.607456,-0.18029 1.359728,-0.15224 0.132748,-0.25641 0.261479,-0.51282 0.39021,-0.77324 -0.812612,-0.14824 -1.842459,-0.24839 -2.365426,-0.45673 0.635601,0 0.828698,-0.12821 1.407987,-0.14824 0.241376,0.26844 3.045299,-0.02 3.077483,0.30849 -1.053988,-0.0521 -1.882695,0.20835 -0.784456,0.3085 0.229296,-0.0801 2.083824,-0.24037 2.610817,0 -2.409678,0.23638 -1.528674,0.26443 -2.98494,0.76122 2.578635,0.12019 2.47807,-0.49679 5.398646,-0.30449 0.225279,-0.3806 0.382175,-0.7452 -0.301714,-0.92548 2.280956,-0.91344 6.352067,-0.0481 7.848569,-0.15624 -1.037892,0.0681 -1.939007,-0.56891 -0.414359,-0.61699 -0.0724,0.20833 1.078126,0.14824 1.210884,0.3165 0.205155,0.88542 -1.291336,1.34214 -2.626924,1.84696 1.235013,-0.0401 1.420066,0.16827 2.586688,0.14822 0.490794,-0.3165 -0.486758,-1.0136 1.001691,-1.08172 0.07642,0.74519 2.711392,0.0801 3.065402,0.61699 -1.013751,-0.0401 -1.79419,0.20833 -0.732159,0.30849 -0.08846,-0.34857 1.975215,-0.17228 2.120043,-0.45673 -1.661432,-0.22035 -1.983259,-0.63702 -3.069429,-0.61699 1.347648,-0.0481 -0.88503,-0.41666 1.407997,-0.46473 0.92123,0.31649 1.299379,0.77323 3.725143,0.76121 0.917213,-0.088 0.217237,-0.59295 1.424094,-0.61297 -0.434472,0.47675 2.156242,0.57289 0.65974,0.15624 0.889048,0 1.412024,-0.0681 1.934992,-0.15624 -1.363745,0.43669 4.714765,1.06169 3.696987,1.39021 0.108617,-0.65706 0.51895,-1.22196 0.864918,-1.39021 1.122367,0.54487 2.578633,0.11618 5.873343,0.15624 -0.181029,0.59694 0.502853,0.0521 1.894753,0.14824 0.237349,0.26841 -0.985595,0.40065 -0.03213,0.46875 1.609137,-0.22836 1.673503,-0.24038 2.003383,-0.46875 1.142483,0.012 2.031529,-0.028 2.606802,-0.14824 0.06036,0.20834 -0.325855,0.34053 -0.647682,0.45673 4.38892,-0.53685 6.70205,0.0921 10.459386,0 -1.576954,0.24039 -1.951077,-0.51683 -0.675837,-0.45673 0.768359,0.072 1.476379,0.16025 1.93499,0.30849 -0.848819,0.44871 -0.490793,0.18029 1.355691,0.14824 1.68557,0.20032 -0.551122,0.7572 0.736188,0.77724 1.375792,-0.26843 0.514922,-0.47677 1.263172,-0.61698 0.63962,0 1.34363,0 1.97922,0 -1.17062,0.26841 0.20921,0.46474 1.39192,0.61698 -0.92928,-0.54887 -0.43848,-0.65706 1.89879,-0.46874 0.20114,-0.26844 -1.03791,-0.39663 -0.0965,-0.46475 0.49882,-0.0601 2.42979,0.60497 3.92227,0.15625 -0.51896,-0.0401 -0.7925,-0.1282 -0.70803,-0.30849 1.80224,0.34855 2.96082,-0.3165 4.43719,-0.46474 -1.412,0.38862 -0.48274,0.75319 -1.02984,1.0737 1.40799,-0.42867 3.42343,0.10819 4.45732,-0.45672 -2.18844,0.12821 -0.37013,-0.93348 1.02179,-0.92547 0.47871,0.47675 -1.90684,0.34854 -1.02179,0.92547 0.88903,0.3766 2.36944,-0.32052 3.29872,0.14823 -0.0241,0.28846 -1.04997,-0.088 -1.21893,0.15626 1.22295,0.032 -0.29769,0.24839 0.74825,0.30849 0.45459,-0.51682 1.40799,0.16827 2.04361,0.14823 0.78446,-0.12819 2.2367,-0.81329 3.08552,-0.45672 0.0804,0.20032 -1.09422,0.14022 -1.15456,0.30849 3.72113,0.30047 4.49352,-0.40464 7.95719,0.14823 0.27757,-0.21634 0.83674,-0.37659 1.75798,-0.45672 0.0724,0.26843 0.70801,0.38861 1.5166,0.45672 1.28731,-0.22836 2.55853,-0.47675 4.26824,-0.61298 -0.54308,-0.38861 -1.48444,-0.59695 0.90916,-0.61697 0.23332,0.18027 -0.74824,0.24038 0.18103,0.30848 -0.0443,-0.0801 0.47469,-0.16826 0.69998,0 0.0644,0.10818 0.12469,0.20834 0.18505,0.30849 -0.69997,0 -1.33961,0 -1.97522,0 0.22126,0.27644 0.15287,0.48479 -0.2816,0.625 3.00103,0.18831 2.24878,-0.74518 4.36076,-0.31651 -0.13275,-0.72516 0.38217,-0.91344 -1.48846,-1.38219 1.70971,0.10817 3.00909,0.36858 3.71309,0.76521 -2.00741,-0.06 -1.01375,0.50481 -1.42812,0.76523 1.25916,-0.0401 1.41605,0.20833 2.12407,0.30848 1.25513,-0.34053 -2.07579,-0.84533 0.73619,-0.92547 -1.79017,0.58494 2.11601,0.48878 3.46366,0.30848 -0.10458,0.21636 -0.58733,0.25642 0.32585,0.46475 4.13145,0.28847 2.61485,-1.3181 5.54749,-0.46475 -0.42641,-0.30848 0.65573,-0.30848 0.97755,-0.46472 -2.01141,-0.14023 -2.58669,-0.22838 -3.4717,-0.30849 0,-0.16827 0.51895,-0.2404 1.03387,-0.3085 0.21723,0.28847 0.7563,0.32853 1.44017,0.14824 0.7925,0.28846 1.1465,0.98156 3.00506,1.39021 -0.0241,-0.18829 -0.41435,-0.43669 0.32987,-0.46874 1.02583,0.40064 -1.21087,-0.79327 2.10395,-0.61298 -0.42238,0.17628 -0.54307,0.41667 0,0.76521 1.70167,0.19633 1.19882,-0.02 3.39931,0.15626 0.0763,-0.79327 -2.18441,-0.91347 -3.15793,-1.39022 1.50052,0.1322 3.07747,0.63701 4.18374,0.3085 -0.86491,0.24037 0.58332,0.65704 1.96316,0.77323 1.06203,-0.0961 -0.72413,-0.73318 0.63561,-0.77323 1.20282,0.14022 2.15624,0.54887 1.34765,0.77323 2.26486,-0.16829 2.20451,0.3806 4.19179,0.30849 -0.2132,-0.28846 -0.8287,-0.32452 -1.43213,-0.15626 -0.0443,-0.18028 -0.53502,-0.42868 0.20114,-0.45672 1.15858,0.27244 2.87232,0.3766 4.46134,0.51282 0.0684,-0.64903 0.1408,-1.24599 0.24942,-1.66666 -0.89709,-3.72195 0.19309,-6.09372 -0.14884,-9.3389 -0.49884,0.77324 -0.0884,-3.90224 -0.6155,-5.73314 0.14885,-0.76924 1.15455,-2.72035 0.76434,-1.99919 -0.68791,-0.79327 -0.43849,-2.31569 -0.61549,-3.78606 0.15688,0.12021 0.30974,0.23239 0.46665,0.35258 0.0804,-2.88059 -0.3862,-3.85015 -0.77642,-5.07611 0.33792,-3.31729 -0.37009,-7.62817 0.16092,-11.61452 -0.55114,-1.3782 -0.43044,-2.2596 -0.76836,-4.95591 0.47871,0.30851 0.4586,-1.72274 0.4586,-3.61777 0.42642,0.64503 0.30976,-1.18588 0.61549,-1.04567 0.0201,1.72675 0.57929,1.35415 0.76836,2.33973 -0.47871,-2.52803 0.47871,-3.25319 0,-5.26039 -0.23735,2.13941 -0.84479,2.5681 -1.54476,2.5681 0.12873,-2.59615 -0.0603,-4.06249 -0.45861,-4.72754 0.34999,-0.0481 0.58734,0.36458 0.76836,1.00559 0,-0.88541 0,-1.77081 0,-2.59212 -0.26952,-0.35659 -0.39826,0.79326 -0.46664,-0.18029 0.15689,-0.56891 0.3178,-1.20193 0.46664,-1.78285 -0.47871,-0.92547 -0.37815,0.8734 -0.61952,1.03366 -0.20919,-3.52563 0.76032,-1.67869 0.92929,-3.52162 -0.33792,-0.62099 -0.83676,-0.65706 -0.92929,-2.2556 0.32183,-0.53285 0.74021,-0.59696 0.76837,-2.36377 -0.0884,-1.16186 -0.72814,-0.14023 -0.76837,-1.47035 0.1931,-0.14023 0.10062,-0.72916 0,-1.3181 0.26954,0.1282 0.40229,-0.40464 0.47068,-1.14584 -0.24138,-0.2484 -0.10862,-1.47835 0,-1.95912 -0.24942,-0.18029 -0.81664,-2.30367 -0.47068,-2.67627 0.20115,0.0362 0.14081,1.15786 0.30977,1.31811 -0.0484,-1.45833 0.0321,-2.45593 0.16091,-3.189091 -1.07812,-0.612968 -0.22931,-2.872583 -0.77642,-5.8894 0.35805,-1.786843 0.79653,0.460736 1.08618,-1.854955 -0.32987,-1.414262 -0.43849,0.280449 -0.92928,-0.07211 -0.0483,-0.380613 -0.38619,-2.528039 0,-2.572102 0.20115,0.0083 0.1408,1.137812 0.30976,1.274025 0.41837,-1.682678 -0.12874,-1.642617 -0.30976,-2.592131 0.37814,0.140225 0.47871,-0.993585 0.76836,-1.237974 0.28964,-4.691486 -0.5471,-4.603343 -0.92526,-6.466319 0.19713,-0.012 0.13679,-1.13781 0.30574,-1.274035 -0.177,1.330127 0.24137,3.068898 0.30977,1.237973 -0.24942,0.328533 0.0201,-2.395814 0.14884,-2.596142 0.24941,0.296481 0.14081,2.011212 0.61952,1.282046 0.1609,-2.495978 -0.7563,-1.398229 -0.30976,-3.273216 -0.29769,-0.156256 -0.30976,0.917463 -0.4586,1.374189 -0.0281,-0.753196 0.0201,-1.830915 -0.15689,-1.939088 -0.13275,0.957524 -0.49884,0.997584 -0.76837,1.398229 0.39826,-1.294066 0.008,-3.493573 0.61549,-2.007201 -0.13677,-2.556083 0.173,-5.05607 0.61952,-3.365371 0.10061,-2.107365 -0.55917,-0.793268 -0.14884,-2.568102 -0.53906,0.352563 -0.8287,0.905443 -1.23502,-0.392623 0.28965,-0.304491 0.3862,-1.450311 0.76434,-1.402241 0.0121,-3.080917 -0.50687,-3.830104 -0.92525,-4.967924 0.72814,0.933492 0.1408,-0.412654 0.61951,-2.043263 -0.20113,-0.881401 -0.82065,0.172276 -0.61951,-2.371784 0.65975,2.483968 0.16091,-3.165043 0.92525,-2.243579 -0.35802,-3.068888 -0.34596,-3.008797 -0.46665,-6.278012 -0.33791,0.452726 -0.54711,1.346148 -0.61951,2.800469 0.43849,-1.165862 0.43045,2.644213 0.16091,2.487968 -0.10862,0.0401 -0.20918,0.0761 -0.30976,0.108173 0.0724,-2.439895 -0.0484,-4.00639 -0.31779,-4.947895 0.3379,-0.633012 0.52698,-1.830923 1.08615,-1.69871 -0.61951,-2.031241 0.22931,-4.859751 -0.30975,-5.65703 -0.0201,0.81731 -0.0483,1.578526 -0.30976,1.454322 0.14079,-0.997585 0.22931,-2.163447 0.61951,-2.231558 0.14081,1.806883 0.20115,2.155436 -0.14884,3.257193 0.37815,-0.993583 0.63562,1.586538 0.76837,-0.356561 -0.72814,0.400634 0.35802,-4.022422 -0.16092,-2.503999 -0.28965,2.211528 -0.39022,-2.123384 -0.72814,-2.131395 z M -0.22953328,43.923483 c 0.2292955522,-1.943099 0.68790716,0.26042 0.61548824,1.674669 -0.13677397,-0.388614 -0.34595658,-0.520828 -0.61548824,-0.452717 0.0884644,-0.57292 0.1890697,-1.145828 0,-1.221952 z M 6.565039,61.511544 C 6.0098896,62.296792 6.3558564,59.179823 6.2593082,57.98191 c 0.1367741,0.304491 0.2775748,0.665064 0.3057308,-0.104164 0.4183756,1.145831 -0.4063056,1.899028 0,3.633798 z M 4.8714242,129.492 c 0.1006161,-0.54889 0.2413756,-1.83493 0,-1.77483 0.020083,-0.72515 0.2816014,-0.74118 0.4586014,-0.99359 0.072399,-1.47033 -0.6959503,0.87741 -0.4586014,-1.49438 0.8971,-1.48236 1.0861697,2.96473 0,4.2628 z M 169.07978,65.489896 c -0.29768,-0.785258 -0.65572,1.298065 -1.08617,0.829319 0.34195,-3.317298 0.91721,-0.961534 0.76837,-5.436673 0.12873,0.2484 0.25747,0.552881 0.47067,0.432686 -0.22126,2.183488 -0.55112,2.443907 0.30573,1.69871 -0.008,0.981565 -1.0057,1.470353 -0.4586,2.475958 z m -2.01142,-40.841164 c 0.12068,0.240387 0.24941,0.424684 0.45861,0.264428 -0.22126,1.514414 -0.31781,1.306076 -0.14884,2.976745 -0.69997,0.28445 -0.62757,-1.494383 -0.30977,-3.241173 z M 72.59193,7.9340695 c -0.402279,0 -0.800542,0 -1.202821,0 0.406307,-0.288459 -0.426428,-0.925482 1.524648,-0.7652265 0.06035,0.1282034 -0.29366,0.148245 -0.639627,0.148245 0.277575,0.1602555 1.255127,0.1602555 0.953412,0.4647364 -0.502854,-0.027999 -0.599402,0.060094 -0.635612,0.1522451 z M 26.087886,3.6231874 c 2.280958,0.5088181 -3.580326,1.5905361 0,0 z m 5.716466,-5.3765701 c 0.08846,-0.1802965 0.623532,-0.092205 0.607446,0 2.091877,-0.1482454 0.116661,-0.3565726 1.319492,-0.6169919 1.58098,0.3685931 -0.985595,0.8132987 1.094212,1.073718 -0.474697,0.28445 -1.806259,-0.4487158 -3.02115,-0.4567261 z M 154.0223,173.94292 c -1.88672,-0.15225 -2.71543,-0.59696 -3.37518,-1.08172 1.17869,-0.0201 2.12809,-0.10012 2.34934,-0.30851 2.46198,0.26843 -1.25914,0.33655 -1.54477,0.46475 0.53906,0.39665 2.22866,0.45673 2.57061,0.92548 z m -5.96187,-0.16027 c -0.9172,-0.22835 -2.15221,-0.37659 -2.47001,-0.76521 1.17466,0.0601 1.1827,-0.12019 1.11833,-0.30848 1.18273,0.2604 0.11668,0.55689 1.35168,1.07369 z m 10.68467,-0.46473 c -0.85284,-0.0401 -0.80457,-0.38061 -1.11835,-0.61698 1.21893,0.028 1.23904,-0.1803 2.45393,-0.14825 0.1207,0.14825 0.24942,0.30851 0.38217,0.46475 -0.97755,0.0401 -1.19075,-0.14822 -2.07177,-0.14822 0.11668,0.14822 0.23737,0.29645 0.35402,0.4487 z m -16.90799,-0.15225 c -3.37115,0.0601 -5.33027,-0.74118 -7.86064,-1.3862 2.47002,0.0881 5.20555,1.04968 6.79458,0.76122 2.22865,0.16025 -0.50285,0.32051 -0.34597,0.47675 0.15287,0.14823 0.88905,0.12019 1.41203,0.14823 z m -29.78915,0 c -0.60342,0.34856 -2.06371,-0.43669 -3.9826,-0.30447 0.34998,-0.13222 0.6356,-0.2484 0.5833,-0.46875 2.71542,-0.14824 1.31548,0.76522 3.3993,0.77322 z M 95.86407,172.8612 c -1.701659,-0.0401 0.852846,-0.26844 -0.05232,-0.61699 1.874641,0 3.86997,-0.0201 3.86997,0.46475 -2.043598,-0.31651 -2.482087,-0.31651 -3.817675,0.15224 z m -11.638078,0 c -1.870624,-0.22837 0.840779,-0.59697 0.05231,-1.08173 0.74423,0.016 0.547107,0.28445 0.603429,0.46474 0.567219,-0.088 1.066046,-0.16026 1.939007,-0.16026 -0.631584,0.3085 -2.815983,0.24839 -2.594732,0.77725 z m 91.962148,-23.96624 c -0.14079,1.02163 -0.62756,0.34855 -0.47067,2.82449 -0.0484,-3.63378 -1.45224,-2.6963 -1.22295,-7.17544 0.17702,0.85737 0.3862,0.51282 0.14884,0.10011 0.32988,-1.55847 0.26955,1.84696 0.76838,0.53285 -0.0402,1.27003 -0.57125,0.16026 -0.61952,1.41426 0.47871,1.6987 0.71607,2.68028 1.39592,2.30368 z m -2.16429,-4.67548 c -0.1408,-1.37418 0.78849,-0.74517 0.30977,-1.68267 0,-0.60897 0.18907,-0.36057 0.30974,-0.40464 -0.0201,0.47676 0.0603,0.59294 0.15691,0.71715 -0.14885,1.0056 -0.28563,2.0112 -0.77642,1.37016 z m 0,11.87096 c 0.22931,-1.9471 -0.10862,-2.8245 0.30977,-3.52963 -0.69596,-1.27805 0.28964,-1.1859 -0.30977,-2.74039 0.1408,-1.96713 0.35,-0.28845 0.61951,0.46475 0.18909,-1.883 -0.49882,-0.86138 -0.30974,-2.73635 0.5471,0.028 0.37815,2.48394 0.92525,2.58812 0.0201,1.55849 -0.34596,1.27803 -0.46665,2.16746 0.0281,0.76121 0.28965,0.71715 0.46665,0.98156 -0.12873,1.68669 0.22125,1.84293 0.15287,3.27323 -0.40229,0.0401 -0.55918,-0.70513 -0.4586,-2.28365 -0.2092,1.55048 -0.55114,2.00719 -0.32182,4.15863 0.49077,-1.00158 0.63961,5.48476 -0.14886,4.27882 -0.10061,-1.79885 0.31781,-0.94149 0.47068,-1.48635 -0.4385,-2.58814 -0.34196,-3.85016 -0.92929,-5.1362 z m -15.82183,15.68903 c -0.48676,0.0881 -0.92123,0.16826 -1.80223,0.15624 0.2655,0.41667 1.30341,0.3085 0.4747,0.60498 -1.32352,0.0721 -1.76604,-0.0961 -2.67922,-0.14824 0.3178,-0.23638 2.81196,-0.71315 1.15858,-0.92148 0.27355,-0.20833 1.13445,-0.28846 2.29303,-0.30848 -0.84078,0.65303 1.94302,0.0401 3.20619,0 0.47872,0.71312 2.09187,-0.14825 3.4154,0.30848 -0.37815,0.41668 -3.34299,0 -4.45731,0 0.62354,0.0801 -2.33324,1.04165 -1.60914,0.3085 z m 16.1316,-32.35563 c 0.14079,-0.28044 0.2293,-1.63461 0.30974,-0.48076 0.17702,-0.4407 -0.10061,-1.77883 0.61551,-0.84936 0,-0.68108 0,-1.29807 0,-1.91505 -0.23736,0.10415 -0.12873,1.89903 -0.61551,0.92547 0.25747,-1.1378 -0.0201,-0.80928 0,-2.51601 -0.45055,0.65705 -0.47871,-0.33253 -1.08615,-0.016 0.24941,-0.34054 0.23735,-1.86697 0.61549,-1.53043 -0.0884,-2.42788 -0.6356,0.30849 -0.61549,-2.82852 -0.39022,-0.14422 -0.35804,2.09936 -0.14884,3.00079 -0.45861,0.16426 -0.17299,-3.95431 -0.30978,-6.31407 0.37816,2.24358 0.81664,0.82531 1.23503,-0.004 -0.14885,-0.80528 -0.34999,-0.16827 -0.61952,-1.57452 -0.0281,-1.04165 0.26148,-1.45832 0,-1.879 0.0523,-0.82932 0.39022,-0.31249 0.61952,-0.33252 -0.0483,-1.49038 -0.73619,-0.68909 -0.61952,-2.76039 0.6678,1.86295 0.80859,0.088 0.61952,-2.86058 0.19712,0.2564 0.23734,1.18991 0.4586,1.39823 0.33792,-0.29647 -0.28964,-2.19149 -0.4586,-2.68429 0.10061,-1.00159 0.34998,-0.24038 0.30974,0.72517 0.15691,-0.55287 0.30978,-1.11777 0.45862,-1.74278 0.0484,3.16505 -0.0603,8.11294 0.61549,14.24674 -0.38619,-1.31011 -0.47872,-0.0562 -0.30573,1.76281 0.26551,0.38861 0.29769,-0.34057 0.30573,-1.14185 0.57929,2.35978 -0.65572,1.57052 -0.30573,4.91585 0.13677,1.8149 0.34597,-1.72674 0.61548,0.35256 -0.14079,1.10176 -0.51893,1.6867 0,2.55609 -0.21722,1.91906 -0.80858,2.10335 -0.76835,5.28043 -0.24942,-1.95114 -1.33558,-3.44551 -1.08617,-5.11617 0.14884,0.0921 0.13275,0.87339 0.16092,1.3822 z m -27.83404,32.96861 c -1.10226,0.0401 -1.85856,-0.25642 -1.93901,0 -2.03153,-0.14824 -0.0845,-0.51684 0.22527,-0.61298 0.94135,0.10818 1.40398,0.33652 1.71374,0.61298 z M 0.85662609,124.49204 c -0.12873092,-2.27565 0.44654181,-2.19553 0.45861161,-4.07852 0.1488439,1.40624 0.5672194,1.47435 0.4666444,4.01841 -0.3861928,0.40063 -0.7482459,0.65705 -0.92525601,0.0601 z M 152.65452,172.08395 c 1.94707,0.51683 -2.29301,-0.58494 -1.97922,-0.14824 -2.0235,-0.3165 1.48441,-0.26842 -0.54711,-0.76522 1.75395,0.28846 2.36944,-0.1282 4.4935,0.15225 0.19712,0.33653 -1.3557,0.33653 -2.92461,0.30448 -0.008,0.24839 0.81664,0.26842 0.95744,0.45673 z M 2.0916397,147.68503 c -0.3700962,1.9471 -0.856864,-0.77724 -1.0861595,-1.55048 0.6396279,-0.60096 0.559166,-0.0481 1.0861595,1.55048 z m -0.4666445,-39.8596 c 0.5873323,-1.26603 0.028115,2.75641 0.6154883,1.48237 0.060349,1.04167 -0.1206776,1.27804 -0.3097574,1.45833 0.1609136,0.44069 0.052316,2.2596 0.4586115,1.5104 0.3821661,0.0562 -0.076415,-2.71232 0.4706711,-2.10335 0.048299,-1.04967 -0.1408007,-0.98959 -0.1488438,-1.76281 0.028115,1.78283 -0.4787245,1.26201 -0.6195252,-0.87739 0.4183754,-0.25643 0.3097575,0.83332 0.6195252,-0.38062 -0.2091929,0.008 -0.571246,-0.91347 -1.2390402,-0.44471 0.032131,-1.95111 0.8407776,-1.29406 0.7804286,-3.54164 0.3097575,-0.004 0.297698,1.44229 0.4586116,2.18748 0.5149237,-0.55689 -0.4103324,-2.15544 0.3057308,-2.04726 -0.3861927,-0.24438 -0.5873322,-1.45031 -1.0740999,-1.22196 -0.1890697,1.85897 -0.5189401,3.20511 -0.7764019,4.81569 -0.30171442,-1.14984 0.7965148,-3.74197 0.3178006,-5.75319 0.3700962,0.0241 0.3298704,-1.338133 0.7683588,-1.10975 -0.1126344,-1.738781 -0.70802,-0.556894 -0.7683588,-0.160264 -0.3097576,-0.308489 -0.088463,-3.938281 0.3097574,-3.91425 -0.3982626,-0.024 -0.2896445,-4.310873 0.3097576,-4.447087 -0.3902092,-1.061697 0.3580367,-3.369379 -0.3097576,-3.573705 0.1770102,-0.813299 0.1689568,-2.255603 0.1488439,-3.810077 0.5189504,-0.673074 0.2574619,2.159447 0.619515,2.163448 0.4183755,0.268429 -0.1126344,-2.828511 0.3057411,-2.612164 0.100616,-0.04811 0.2091825,-0.100193 0.3097574,-0.148234 -0.1488437,1.330115 -0.2976877,2.660244 -0.4586013,3.93828 0.060348,0.86939 0.1890696,-0.332532 0.4586013,-0.228369 -0.2775747,0.977566 -0.8850199,5.256386 0,4.903824 -0.2373489,2.760407 -0.088463,4.535241 -0.4586013,5.821286 0.032131,1.542462 0.2614783,-1.045667 0.619515,-0.348553 -0.6476812,4.983955 0.116661,10.140185 -0.619515,14.443045 0.040267,0.81329 0.3781497,0.29246 0.619515,0.25641 -0.3218273,5.47673 -0.9775517,1.41826 -0.7764122,5.42866 0.406316,-0.28046 0.3379238,-2.20753 0.7764122,-2.3838 0,1.43428 -0.2695317,1.97915 -0.1609137,3.81809 -0.2091825,0.14423 -0.4063056,0.28045 -0.6154985,0.42868 0.016066,1.54647 0.5752727,0.55288 0.7764122,1.25 -0.1609137,2.08732 -0.4505582,1.8149 0.1488438,2.34373 -0.2413654,2.02724 -0.3902091,3.93028 -0.1488438,5.66504 -0.3379135,1.5104 -1.0580033,-0.34855 -1.0861697,-2.31169 -0.1327474,0.21635 -0.1488438,0.77323 -0.3097575,0.88942 0.3982626,1.99118 1.2953523,1.67467 1.3838573,5.0761 -0.5189399,-2.23958 -0.2292954,1.55048 0.1609137,1.72675 -0.040268,1.46234 -0.6879071,0.89743 -0.6195149,-0.11618 -0.217236,0.35256 -0.020083,1.09374 0.1609137,1.07372 -0.7160633,0.74517 -1.0660569,-2.35176 -0.7764123,-6.12177 -0.8085847,2.23557 0.060348,-2.57211 -0.9292724,0.028 0.1609136,-3.02081 0.7281329,-0.96553 0.6195149,-4.13459 0.2293058,0.13221 0.3902194,0.62099 0.619515,0.7532 0.096497,-2.53204 -0.5913487,-1.3181 -0.4706711,-3.99437 0.4183754,-0.71314 0.3097575,1.04567 0.6195252,0.82532 -0.4384986,-2.51201 -0.6074554,-3.29726 -1.0781266,-4.84774 0.2896446,-0.5569 0.7562993,-0.39262 0.4586014,-3.38139 -0.1005132,0.0682 -0.2091826,0.14022 -0.3097576,0.20433 0.1006161,1.4423 -0.79652508,2.40383 -0.7643424,-1.37019 0.317811,-0.4487 0.2856282,0.71715 0.3057412,1.67467 0.3017143,-0.62098 0.4103323,-1.89902 0.4586012,-3.37739 -0.060348,-0.6891 -0.2695315,-1.39822 -0.3097574,-0.40866 -0.4264187,-0.33252 0.4103324,-1.40624 0.1528705,-3.23315 z M 114.93636,172.08395 c -0.52297,-0.0801 -1.04191,-0.15625 -1.97521,-0.14824 -0.55113,-0.41666 1.2149,-0.30849 1.12639,-0.61297 1.34766,-0.032 0.47067,0.54487 0.84882,0.76121 z m 17.73671,-0.30448 c 0.0764,0.39664 -1.1626,-0.21234 -2.55048,0 -0.63159,-0.42068 1.15455,-0.3085 1.00169,-0.61698 1.66948,-0.10818 -0.0724,0.73315 1.54879,0.61698 z m -7.6434,0 c -0.49883,0.4447 -0.7764,-0.22837 0.61952,-0.15225 -0.2454,-0.28444 -0.65171,-0.51281 -1.55684,-0.61298 0.70803,-0.5088 1.67751,0.31651 3.20621,0.14825 -0.43045,0.27643 -1.21087,0.47674 -2.26889,0.61698 z m -2.54645,0 c -1.05802,-0.32852 -1.51258,0.10818 -3.2223,-0.15225 0.25343,-0.32451 3.84986,-0.14824 4.46535,0 0.70802,0.36058 -3.08954,0.36058 -1.24305,0.15225 z M 3.9341086,170.54551 c -0.6114718,0 -0.3017144,-0.18831 -0.305741,-0.30449 -0.2695316,0.0681 -0.5350367,0.13219 -0.8005415,0.18829 -0.4948109,-1.3181 -0.4344721,-3.3173 -1.045944,-0.82931 0.4304454,-2.40786 -0.1769998,-3.68589 -0.3097574,-5.25239 -0.048299,-1.40224 0.4505582,-1.14984 0.4706711,-2.3157 -0.088463,-1.72275 -0.2413653,1.18991 -0.4706711,1.04567 -0.3660799,-0.016 0.4586014,-1.33813 0.1528705,-3.22114 0.836751,-0.17227 -0.060349,-1.81488 0.7643424,-1.91105 -0.2856281,-0.93749 -0.00824,-1.55448 0,-3.12498 0.3218273,-0.10817 0.3097575,1.40224 0.6275581,1.29005 0.4787142,0.34057 -0.4465315,1.25 -0.3057308,-0.3165 -0.4907943,1.28605 0.2091826,2.80449 -0.1609136,3.80607 0.4988272,0.3125 0.1206775,-2.09132 0.619515,-1.77081 -0.072399,0.60094 -0.1408007,1.20591 -0.3097576,1.48235 0.088464,0.81731 0.237349,1.27404 0.4666444,1.41826 0.020083,-0.55689 -0.068382,-0.53285 -0.1568868,-0.44871 0,-1.13781 0.7764018,0.40065 0.7764018,-1.97916 0.1488542,0.27643 0.1609137,1.27804 0.4586116,0.8213 0.3097576,0.42068 -1.2953626,1.21395 -0.7683691,3.16506 -0.4787141,2.07131 -0.4787141,-3.37337 -1.3959271,-1.1378 0.1408007,3.29324 0.8287078,0.72113 0.9292828,3.37738 -0.2212628,0.21234 -0.4384885,0.36057 -0.4586014,1.10175 -0.18908,0.0601 -0.1408007,-1.00559 -0.1609136,-1.70672 -0.181037,0.29247 -0.1287309,1.26602 -0.1609137,2.01522 -0.1166713,-0.004 -0.1367843,-0.52885 -0.2976979,-0.3726 0.18908,2.15944 1.1465084,0.98558 1.3838573,-1.33414 0.4304453,-0.35255 0.3701065,2.5641 0.1528706,3.55369 -0.3620533,-0.42468 -0.2896446,0.34454 -0.7683589,0.15624 0.00824,-0.60897 0.1890698,-0.66506 0.3097576,-0.96153 -0.1126448,-0.96955 -0.2816015,0.21233 -0.4586014,0.44871 0.076415,1.18189 0.4666444,0.73718 0.1488438,2.31169 0.1206776,-0.42067 0.2494084,-0.84534 0.4666444,-1.0657 0,0.40465 0,0.83735 0,1.25801 0.2091929,0 0.4103324,0 0.6074555,0 -0.3379238,0.27644 0.4063058,0.32451 0,0.61299 z M 1.4721247,140.78602 c -0.108618,-1.96715 0.3097574,-1.21794 0.3097574,-0.25241 0.1408008,-0.53684 0.2293059,-1.33012 0.3097576,-2.11938 0.168967,0.46474 0.048299,1.10577 0.1609136,2.94069 0.6154986,-2.18348 1.4643193,-1.14182 1.3838573,1.96314 -0.8970896,1.65465 -1.0258205,-0.8173 -1.5447709,0.63702 0.3097575,-2.48396 -0.028115,-3.40945 -0.619515,-3.16906 z m 143.2171653,30.8412 c -1.24305,0 -2.54242,0 -3.78549,0 -0.14483,-0.44471 3.60849,-0.74118 3.78549,0 z m 29.80523,-59.09828 c 0.0201,-0.54487 -0.0724,-0.63302 -0.1609,-0.72516 0.14079,-1.79086 0.39021,0.98158 0.76836,0.24038 0,0.6771 0,1.29406 0,1.91105 -0.20115,0.0562 -0.45862,-2.72835 -0.60746,-0.8133 -0.18103,-0.18428 -0.0925,-0.64102 0,-0.61297 z m -58.44383,58.94203 c -1.23098,-0.18027 -0.68791,-0.80528 -3.39126,-0.60495 0.87699,-0.36058 1.52466,-0.2404 3.14586,-0.16026 0.0804,0.2564 0.16495,0.51682 0.2454,0.76521 z M 12.683784,171.32274 c -2.035555,0.47275 -1.484432,-0.61698 -4.7791401,-0.3085 2.1160171,-0.62499 3.1498911,0.12821 4.7791401,0.3085 z M 2.7111649,78.843201 c 0.1488438,0.829319 0.2494085,-0.352564 0.4586014,1.049666 -0.1528706,0.905452 -0.4183756,1.390219 -0.4586014,2.668264 -0.4988374,-1.506403 0.00824,-4.863762 -0.7804388,-5.777224 0.092583,-1.546464 0.5913588,-1.638607 0.9373258,-2.26761 -0.028115,0.733166 0.032131,1.065697 0.1488438,1.13381 -0.6677943,1.189891 0.4384883,1.778832 -0.3057308,3.193094 z M 2.2404835,148.15779 c 0.2695316,0.90944 0.4505583,-1.16586 0.7764122,-1.86699 -0.056332,-0.78525 -0.3982626,-0.19631 -0.6275581,-0.12419 0.040268,-1.11378 0.2695214,-1.60657 0.6275581,-1.73077 0.1327576,1.92708 0.1528706,4.41905 0.7683588,2.39182 0.1408007,1.84695 -0.5068703,1.33412 -0.6154882,2.38781 0.3258436,0.78925 0.4465315,-0.33253 0.925256,-0.80929 -0.1006161,0.5649 -0.6476814,2.53603 0,1.84695 -0.6275685,3.47754 -1.4039805,2.85656 -2.1642962,1.30606 0.5109072,-2.43186 0.687907,-0.30447 0.3097574,-3.4014 z m 56.9915975,22.38772 c -0.241375,0.16826 -1.323519,0.11216 -1.395927,0.30847 -1.194787,-0.42467 -2.168312,-0.91345 -3.194133,-1.3782 0.410322,-0.42866 1.93498,-0.012 1.090186,0.30851 0.663768,-0.32052 1.939007,-0.49679 2.759671,-0.76523 1.291326,-0.0801 1.37983,0.90145 1.814304,0.14823 1.114324,0.27645 0.390208,0.27645 2.425773,0.14823 -3.306777,0.4888 1.005708,0.26843 1.041908,0.77325 -1.838432,0.032 -3.419412,0.0201 -3.013107,-0.46474 -1.399944,0.1883 -2.908516,0.33654 -3.371134,0.76522 0.05633,0.1883 1.114327,0.13621 1.842459,0.15626 z m -6.9394,-1.37822 c 0.450559,0.0801 0.89709,0.16025 1.745911,0.14823 -0.539064,0.14024 -0.808594,0.34857 -0.856863,0.617 -1.572938,-0.02 -1.814304,-0.30047 -2.558533,0.14824 -1.496492,0.0681 0.671821,-0.69711 -1.677518,-0.45673 0.261478,-0.16827 1.323509,-0.10817 1.416039,-0.31651 0.02811,0.33654 0.905133,0.41667 1.930964,-0.14023 z m -19.764222,0.92148 c -1.621206,-0.0401 1.02582,-0.26843 0.402289,-0.61299 0.378139,0.0681 3.552159,-0.072 3.37516,-0.46874 1.283282,-0.62499 3.660788,0.64503 3.813648,-0.14824 0.70802,0.02 0.321828,0.28046 0.341951,0.45672 -2.095904,-0.1282 -2.321183,0.24841 -0.788482,0.31653 -0.362054,0.20832 -1.645346,0.12018 -2.574619,0.15224 0.0483,-0.28046 0.925256,-0.32853 0.977552,-0.617 -2.023485,0.24841 -3.652745,0.625 -5.547499,0.92148 z M 173.55721,44.536465 c 0.0484,1.430279 -0.0201,2.371784 -0.14884,3.157031 -0.26953,-0.30448 -0.0201,-1.14182 0,-1.874986 -0.26953,-0.05611 -0.28965,0.616981 -0.30978,1.406239 -0.41837,-0.528838 -0.0121,-3.305266 0.45862,-2.688284 z m 0,12.411799 c 0.0484,1.378198 -0.0321,2.311692 -0.30976,2.576111 -0.28964,-0.452726 0.16896,-0.412655 0.14884,-1.314097 -0.1086,-0.508808 -0.27757,-0.813298 -0.45861,-1.053677 0,-0.600962 0.18909,-0.54487 0.30977,-0.769228 0.0201,-0.488787 -0.0603,-0.520838 -0.14886,-0.548879 0.43851,-1.846944 -0.0603,2.0072 0.45862,1.10977 z M 43.28956,169.78429 c 0.667795,-0.22837 1.222944,-0.48879 2.723463,-0.46877 -0.466645,0.32854 0.756299,0.29649 1.721781,0.30851 -1.64132,0.3766 -2.27693,0.1883 -4.445244,0.16026 z m 129.95789,-35.39247 c 0.41838,2.12339 -0.3701,1.47035 0,4.34292 -0.14886,-0.0922 -0.30977,-0.1923 -0.45861,-0.28846 0.37815,-1.3862 0.10062,-2.27964 0.45861,-4.05446 z M 52.264515,0.70653411 C 52.348956,1.0550966 50.482395,0.8748103 50.285282,1.1632705 50.128386,0.418074 48.833033,1.7001194 45.317073,1.4717614 45.21248,1.6480375 45.42569,1.7482011 45.892335,1.7882625 42.94762,1.916467 46.857818,1.2634238 47.316428,0.8547693 49.561165,0.96695353 50.019778,0.59836032 52.264515,0.70653411 Z M 4.0950223,96.539427 c -0.1287308,0.188307 -0.1408007,-0.160255 -0.1488542,-0.512818 0,-0.416665 0,-0.833329 0,-1.189893 0.6275684,-0.228368 0.8971001,1.634609 1.5447711,-0.264428 0.028115,0.516828 -0.060349,0.625002 -0.1488439,0.677084 -1.3758038,3.741969 0.8971001,4.723536 0,9.090498 -0.012049,0.59695 -0.1890697,0.58894 -0.3097575,0.78125 0.020083,-0.48478 -0.068382,-0.48879 -0.1609136,-0.49278 0.6476813,-0.8694 -0.080431,-3.92226 -0.3097574,-2.24359 -0.177,-0.012 -0.076415,-0.54487 0,-0.59293 0,-0.41668 0,-0.83334 0,-1.246 0.2011395,0.12019 0.2494186,0.91746 0.470671,0.96554 C 4.8432682,99.67243 4.6823545,97.392787 4.1070818,98.97131 4.143333,97.75737 4.4128228,97.18847 4.5616668,96.275007 4.5254155,95.52581 4.0950223,95.7662 4.0950223,96.539427 Z M 4.255936,80.642063 C 4.1352481,78.791118 4.6743114,79.259865 4.5616668,77.412919 4.9518861,78.422526 4.372597,80.169317 4.7145373,81.611619 4.5133978,81.467382 4.4731616,80.658094 4.255936,80.642063 Z m 0.6154882,34.879657 c 0.5591762,-0.73317 0.6074555,0.88541 0.619515,2.64822 -0.5672193,0.7492 -0.6074452,-0.82131 -0.619515,-2.64822 z m 0,-7.87658 c 0.1810266,-1.88701 0.1287309,2.16747 0.619515,0.84936 -0.020083,0.83733 -0.032131,1.73075 0.1488541,1.67468 -0.100616,0.71313 -0.3499936,0.87339 -0.3097677,2.03123 -0.2896446,0.1282 -0.1006161,-1.9431 -0.4586014,-1.53444 0.3017143,-1.55448 0.3017143,-1.79084 0,-3.02083 z m 0,-1.18189 c 0.1488439,-1.27803 0.9373259,-0.29245 0.9292828,1.18589 -0.3298807,-0.32051 -0.6879072,-0.44871 -0.9292828,-1.18589 z m 80.7706088,61.78259 c -0.832726,-0.0401 -0.160914,-0.46876 -1.170649,-0.46876 0.01206,-0.22836 3.616536,-0.21634 0.607445,-0.30849 1.134449,-0.55289 1.705685,0.26842 3.06943,0.14823 -0.418376,0.14022 -0.772386,0.28044 -0.0041,0.32051 0.418377,0.41667 -2.904499,-0.10817 -2.502208,0.30851 z m -3.636649,0 c -0.712047,-0.032 -0.341941,-0.16026 0.01206,-0.16026 -0.104591,-0.1803 -1.118353,-0.1282 -1.826372,-0.14825 -0.08043,0.21634 1.363745,-0.6971 1.335588,-1.07371 3.03322,0.34856 0.639628,0.87339 0.478715,1.38222 z m -3.001038,-0.30851 c -2.07579,0.41667 -4.863618,0.30851 -6.086562,-0.16025 1.532701,-0.65303 5.209576,-0.44471 6.086562,0.16025 z m 20.041787,-0.16025 c -3.564229,0.58494 -10.781213,-0.19632 -4.312486,-0.61297 -0.209182,0.33652 4.07112,0.55287 6.102663,0.30448 0.0925,0.22035 2.47002,0.60497 2.47807,0.30849 1.67752,0.38862 -5.048676,0.41666 -4.268247,0 z m -28.356999,-0.92147 c 0.949384,0.22837 -0.526995,1.04967 1.074099,0.76121 0.876976,0.0721 -0.273559,0.20032 -0.09259,0.46876 -1.898782,-0.02 -5.623925,-0.52484 -6.126789,0 -0.89709,-0.1803 -1.098229,-0.50482 -2.884375,-0.46876 0.01205,-0.22836 6.344024,0.4367 7.961203,-0.45271 -0.06837,-0.21234 -2.397608,-0.28847 0.06838,-0.3085 z m 99.778526,-34.07838 c 0.39826,0.0561 0.11666,2.40785 0.6155,2.18349 -0.55516,1.00562 -0.21724,2.50399 -0.6155,3.77002 0.13679,0.55688 0.82469,0.83333 0.92525,3.02482 -0.41837,-0.22836 -0.30975,-1.20993 -0.61549,-0.42066 -0.0724,1.883 0.47471,1.73878 0.30574,3.85414 -0.76434,-0.90544 -0.13679,4.59534 -0.92525,3.51361 0.0603,-1.11779 0.43849,-0.76922 0.30975,-2.79646 -0.0402,-0.66907 -0.30975,-0.57691 -0.30975,-1.39022 -0.4385,0.26041 0.22929,1.73877 -0.16092,2.26362 -0.30976,-0.40867 -0.2977,-1.84695 -0.60745,-2.24358 0.0603,-0.82132 0.18908,0.36859 0.4586,0.33253 0.10061,-2.24358 -1.06604,-0.60898 -0.92524,-3.02484 0.44652,0.83335 0.47871,0.85336 0.92524,0.65305 -0.20918,-1.12981 0.0884,-3.99437 -0.4586,-2.68428 -0.32987,-0.39262 0.16092,-1.91106 0.4586,-1.48638 0.0603,-0.9455 -0.12067,-1.17788 -0.30976,-1.35415 0.20115,-2.41986 0.5994,-2.52404 1.08617,-1.70272 0.45057,-0.25641 -0.35803,-1.09374 -0.15689,-2.49199 z m -52.03947,34.85161 c 1.55282,0.34856 -1.64132,-0.12821 -3.01713,0 1.68958,-0.0801 0.93733,-0.72515 2.73956,-0.76522 -0.58332,0.1803 -0.41838,0.30849 0.76031,0.30849 0.37413,0.21635 -2.22866,0.3686 -0.48274,0.45673 z m -59.441501,0 c -0.776412,0.34856 -3.809632,0.0601 -5.503246,0.14824 0.595374,-0.71314 4.207883,0.3165 5.024521,-0.45673 0.925257,0.0521 -0.627557,0.26843 0.478725,0.30849 z M 171.08316,156.0664 c -0.0281,0.62099 -0.14884,0.16426 -0.14884,-0.12821 -0.20919,-0.004 -0.12874,1.35016 -0.1569,2.26362 -0.32182,-1.62661 -0.43848,-0.10022 -0.92928,-0.82131 0.0201,0.71313 -0.0281,1.01361 -0.14885,1.02163 0.86492,0.84134 -0.49882,3.28522 -0.61951,-0.5569 0.47871,1.1258 0.43849,0.79727 0.61951,-0.59694 -0.37009,-1.99919 0.0603,-2.95673 -0.46664,-3.98235 0.0563,-1.04167 0.32584,-1.22196 0.30573,-2.68028 -0.37814,-0.64904 -0.57525,-2.1274 -1.235,-1.56651 0,-2.55608 1.11834,0.032 1.235,-2.01121 -0.28964,-2.23156 -0.53503,0.621 -0.92525,-0.13622 0,-0.51281 -0.18907,-0.54486 -0.30975,-0.80527 0.0402,-0.70914 0.4586,-0.39264 0.47067,0.35656 0.15689,-0.10817 0.53504,-1.89101 0,-1.71473 0.2293,-1.03367 1.4442,2.93268 0.92524,4.21472 -0.0683,0.92548 0.84883,1.65865 0.76837,0.60096 0.40631,0.67307 -0.63963,1.81489 0.30976,2.0593 0,0.8213 0,1.5825 0,2.39983 -0.12069,-0.21635 -0.15287,-0.70915 -0.30976,-0.84136 0,0.76122 0,1.57451 0,2.39181 0.2293,-0.50479 0.3862,-0.36858 0.6155,0.53286 z M 66.955936,167.46859 c -1.540755,0.0201 -1.822346,-0.23638 -2.976908,-0.30448 0.571247,-0.34857 3.797563,-0.15225 2.976908,0.30448 z M 169.07978,121.93594 c 0.16091,0.24438 0.10061,1.25 0.30976,1.35016 0.16895,-1.76683 0.39826,0.42067 1.23501,-0.64503 -0.4063,2.19951 -1.50454,2.46793 -1.8505,-0.84535 0.0763,-2.25159 0.2293,2.45191 0.30573,0.14022 z m 0.30976,7.27963 c -0.23735,1.30609 -0.44654,-2.41988 -0.62756,-3.31329 -0.14885,-0.0721 -0.30976,-0.15626 -0.4586,-0.23238 0.70801,-1.64663 0.93731,1.16587 1.85453,-0.22035 0.22929,2.44391 0.39021,3.52162 0.14885,5.43267 -0.18103,-0.21634 -0.0804,-0.629 0,-0.58494 -0.0603,-1.54647 -0.70802,-0.84935 -0.45862,0.90545 -0.2293,-0.58894 -0.2293,-2.03525 -0.30976,-3.11696 0.12069,0.35256 0.24942,0.76921 0.45861,0.8253 0.0925,-1.22995 -0.2977,-0.96954 -0.30976,-1.90304 -0.20918,-0.10416 -0.59538,1.98718 -0.29769,2.20754 z M 170.15791,12.1528 c -0.0804,1.294064 -0.68791,-0.653044 -1.38386,0.0961 -0.0724,-1.193902 0.0965,-1.634607 0.14885,-2.4839667 0.30975,0.1121831 0.34595,1.4583307 0.61548,1.7868527 0.60746,-0.785248 -0.10861,-1.7427832 0.30976,-2.6522343 0.69998,-1.4142508 -0.26952,3.2531943 0.30977,3.2531943 z m -16.68272,154.55457 c -0.6678,-0.032 -0.41838,-0.16025 -0.12873,-0.16025 -0.26552,-0.1883 -1.29134,-0.16026 -1.16663,0 -0.97353,-0.0481 0.31378,-0.26843 -0.82066,-0.30851 -0.47067,-0.30848 1.70971,0.032 1.86256,0.14825 1.36376,0.032 -0.14884,-0.54487 0.0241,-0.76121 1.15456,0 1.09019,0.41667 2.62289,0.30448 -0.76434,0.26843 -1.41201,0.54888 -2.39358,0.77724 z m 16.53387,-48.46933 c 0.19712,-0.15223 -0.74021,1.08174 -0.30977,2.82451 -0.0201,2.0713 -0.51893,-1.49438 -0.46664,0.36459 -0.0926,-1.58654 0.26551,-3.33733 0.30573,-5.74517 0.28965,-0.46876 0.10061,3.3894 0.30976,1.27403 0.18104,0.18831 0.0884,0.67307 0,0.63703 -0.0281,0.45271 0.0603,0.54885 0.16092,0.64501 z m -1.08616,1.90704 c -0.18104,-0.19229 -0.0926,-0.66905 0,-0.62899 -0.0321,-0.75721 -0.45862,-0.93752 -0.45862,-0.19631 -0.55112,-1.1939 0.4385,-0.72917 0.14885,-2.84455 0.39022,1.00963 0.65572,1.52243 0.30977,-0.45272 0.44652,-1.32211 0.30975,3.56569 0,4.12257 z m 0.92524,-88.72154 c -0.20918,-0.032 -0.12873,-1.358168 -0.14885,-2.27162 -0.39825,1.426271 -0.16091,6.053655 0.14885,6.442278 -0.10061,0.58092 -0.18907,1.15384 0,1.217943 -0.1408,0.02399 -0.37009,1.486373 -0.4586,0.84535 -0.16896,0.216337 -0.10862,1.213934 -0.3178,1.334128 0.10862,1.71874 0.32987,-0.705125 0.61549,-0.352562 -0.43849,2.379794 -0.0684,1.71473 0,4.162636 -0.44654,-0.168266 -0.29769,-3.012807 -0.92525,-2.431876 0.51894,-2.24358 0.18102,-4.166648 -0.30976,-5.064079 0.72008,1.39022 1.05801,-5.733153 0.92928,-8.870154 -0.30172,0.332532 -0.22126,-0.873391 -0.47068,-2.0072 -0.4586,-0.564901 0.56723,-1.061698 0.32183,0.909451 0.33791,-0.30849 0.0563,-2.516018 0.14885,-3.621778 0.26952,1.001596 0.47871,0.144226 0.60743,0.685095 0.0282,2.295661 -0.12067,0.320512 -0.45859,0.985564 0,0.576921 0,1.153841 0,1.786853 0.74824,-3.69389 0.10061,4.431067 0.15689,1.618589 -0.0484,2.459916 0.45861,2.167455 0.16091,4.631382 z m 0.16092,55.829078 c -0.0523,0.404645 -0.39022,2.299662 0,2.379795 -0.3701,2.407835 -0.77641,0.244388 -0.77641,2.944693 -0.17298,-0.184296 -0.10061,-1.213931 -0.30975,-1.229963 0.14884,-1.021626 0.28965,-2.043252 0.77639,-1.73076 -0.0683,-1.217944 0.10061,-1.558486 0.14885,-2.367774 -0.18907,0.284449 -0.3178,0.741187 -0.30976,1.782843 -0.39826,0.152245 -0.66778,-0.26042 -0.61548,-1.806884 0.39825,-0.677074 0.75629,-0.208328 1.08616,0.0281 z m -0.61952,5.91744 c 0.12069,0.300481 0.24942,0.661053 0.4586,0.624991 0.49884,0.925483 -0.60745,0.280451 -0.61549,1.141822 0.0281,0.693104 0.27758,0.492787 0.46664,0.633011 -0.10861,1.025637 -0.18102,1.822905 0,2.371785 -0.2494,1.574513 -0.43044,-1.911047 -0.61951,-2.451908 0,-1.145829 0.41838,-0.693113 0.30976,-2.319701 z m 0.4586,17.880532 c 0.45056,0.43268 -0.23734,0.84934 -0.14885,1.68668 -0.43847,-0.72516 -0.18906,-2.37179 -0.77639,-1.41025 -0.1408,-1.7588 -0.1408,-1.87098 0,-3.54967 -0.41838,-1.19789 0.4063,0.0601 0.15688,1.82693 0.20114,-0.17228 0.24137,-0.96555 0.4586,-1.01763 -0.92525,-1.40626 0.53907,-4.02643 -0.14884,-2.40382 0.10862,0.54886 0.2816,0.9415 0.47067,1.28203 -0.41032,0.28845 -0.20114,4.39101 -0.0121,3.58573 z m -4.62224,54.73131 c 2.24878,0.0922 2.44992,0.10021 4.18778,0.024 -0.008,-0.18029 -0.016,-0.3806 -0.0241,-0.60097 -0.18907,-0.24439 -0.27757,-0.16026 -0.3178,0.26043 -0.16896,-0.68511 -0.10061,-1.35817 0,-2.29567 0.177,0.23237 0.0884,0.66105 0,0.57291 0.33792,2.23557 0.34998,0.62901 0.7764,0.75721 0.0965,0.70112 0.11265,1.30207 0.0925,1.83093 -1.61316,-0.0561 -3.21424,-0.38863 -3.55619,0.0562 -0.99364,-0.12819 -0.0443,-0.22836 -1.15858,-0.60495 z M 53.59206,4.5486703 C 53.282293,4.4004351 52.288654,4.4004351 52.550142,4.0919339 53.407007,4.1720367 54.010436,4.320302 54.863273,4.4004351 53.125405,4.5366498 53.177701,5.1616418 51.017441,5.1616418 51.781774,4.9332839 51.737522,4.4805577 53.59206,4.5486703 Z M 169.69929,105.049 c -0.22124,-0.11218 -0.43847,-0.22034 -0.46664,0.46074 -0.36205,0.14023 -0.17298,-1.70673 -0.47067,-1.83092 0.0403,-0.621 0.30976,-0.33253 0.3178,-1.13381 0.24137,0.34054 0.13277,1.86697 0.61951,1.35016 0.0201,-0.51682 -0.0683,-0.59696 -0.16091,-0.67307 0.22931,-1.16186 0.32988,0.70911 0.16091,1.8269 z m 0,-98.380955 c -0.0603,0.86538 -0.27757,0.2684297 -0.30975,-0.3365317 -0.48676,2.1954971 -0.74824,-0.2964705 -1.23501,0.072103 0.39826,0.3445522 0.1609,2.9086426 0.30975,3.1650518 -0.11262,0.7852479 -0.51894,0.3766023 -0.61951,2.3357219 -0.38619,0.132214 -0.0201,-2.2395688 0.30976,-2.0432633 -0.56721,0.032004 0.10061,-2.5921308 -0.46665,-1.8669751 -0.0363,-0.6931046 -0.0281,-1.270024 0.008,-1.7588012 -1.09824,-0.096103 -1.17467,-0.396634 -0.98963,-0.7532068 0.98963,0.084103 1.48444,0 1.87063,-0.1241942 0.177,0.200317 0.42642,0.032001 0.34597,1.4302804 0.14885,-0.1442249 0.11666,-0.8052886 0.15689,-1.3020759 0.30975,-0.1322148 0.41033,0.7491965 0.61952,1.1818816 z m 0,61.61831 c -0.0201,1.334126 -0.39825,1.350147 -0.77639,1.362169 0.11665,-0.536851 0.16895,-1.35015 0.15688,-2.379795 0.24137,0.176285 0.13277,1.806884 0.61951,1.017626 z m -0.61951,-51.614346 c 0.16896,-0.028 0.0804,0.508808 0,0.57291 -0.0281,1.518423 0.22931,1.650639 0.4586,1.97916 -0.0484,0.849361 -0.38619,0.83333 -0.61548,1.077718 0.37814,-1.686689 -0.22932,-0.901432 -0.14885,-2.796459 0.177,-0.03609 0.2655,-0.340541 0.30573,-0.833329 z m 0.30976,39.2987 c -0.0281,0.701115 -0.15689,0.400633 -0.15689,0.0561 -0.53102,0.989585 -0.0724,3.241175 -0.30975,4.23476 -0.37815,0.232368 -0.30977,-2.756397 -0.47068,0.713136 -0.34596,-0.51682 -0.0603,-3.67787 -0.14884,-5.180264 -0.41839,0.492788 -0.39022,2.572101 -0.92525,2.644224 0.28964,-1.903037 0.53503,-3.970341 1.235,-4.52723 0.0484,2.608162 0.46665,1.538454 0.77641,2.059292 z m -0.30976,-2.8165 c 0.22931,0.140226 -0.0684,0.773238 0,1.722751 -0.56722,-1.209932 -0.34596,-2.155436 -0.46665,-5.07209 0.10051,-0.04411 0.20919,-0.09221 0.30977,-0.136224 0,-0.57291 0,-1.201912 0,-1.774823 0.51893,2.355754 0.15688,3.141012 0,5.897409 0.12873,0.0641 0.14884,-0.288461 0.15688,-0.637023 z m 0,78.821751 c -0.25746,-0.95351 -0.53503,-1.79486 -0.6155,-3.26521 0.42643,0.34856 0.65573,1.33413 0.6155,3.26521 z M 168.77405,14.592696 c 0.27758,-1.850957 0.008,1.534443 -0.47067,0.977554 -0.18908,-1.081729 -0.33792,-2.303672 -0.76837,-2.199508 0.61952,-2.884603 0.62757,2.039252 1.23904,1.221954 z m -1.08617,11.32606 c 0.0563,0.633013 0.74422,0.124204 0.30573,-0.232368 0,-1.638609 0.41837,1.109769 0.30977,-1.366179 0.20114,0.929483 0.43848,3.209124 0.14884,4.555271 -0.38619,0.216337 -0.21723,-2.119384 -0.61549,-1.883005 -0.13276,-0.016 -0.14081,0.32852 -0.14885,0.673072 -0.2293,-0.0561 0.0563,-0.777237 0,-1.746791 z m 0.7764,8.185058 c -0.26147,-0.797267 -0.47871,-1.786841 -0.47067,-3.774011 0.30977,1.093737 0.76032,1.534443 0.47067,3.774011 z M 84.668507,6.0871247 c 1.440169,0.02 -0.08444,0.5248386 -0.301714,0.6129714 -1.476389,0.072102 -1.194788,-0.2764397 -2.932655,-0.1482352 0.780429,-0.5448692 2.051651,0.060102 3.234369,-0.4647362 z m -5.475089,0.316501 C 78.871589,6.7201268 76.872233,6.5438508 76.618799,6.8603519 75.806187,5.9388894 73.328117,7.4052215 73.682127,6.7121167 73.187315,6.7922188 72.692505,6.8723722 71.831614,6.8603519 73.84304,6.0550736 77.423366,6.3435338 79.193418,6.4036257 Z M 167.52697,44.548485 c 0.10862,1.462332 -0.72813,-0.07211 -0.61952,1.430281 -0.20919,0.216347 -0.30976,-2.736368 -0.45861,-0.877402 -0.33792,-2.147426 0.92929,-0.308491 1.07813,-0.552879 z m -0.45861,28.313174 c 0.33792,-0.168276 0.0683,2.003189 0.14885,2.832509 -0.14885,0.02 -0.12068,-0.657042 -0.14885,-1.101748 -0.14079,0.244388 -0.27758,0.540858 -0.30976,1.15784 -0.35803,-0.400634 0.26953,-2.043262 0.30976,-2.888601 z m 8.50026,-35.668914 c -0.43848,-0.805279 -0.81663,-1.943099 -0.14884,-3.072899 -0.39827,-0.87339 -0.53906,1.053677 -0.77642,-0.156255 0.22931,-1.919058 -0.26146,-0.765218 0,-3.802064 -0.59939,0.929481 -0.55111,-1.173873 -0.92926,-1.290056 -0.0884,1.209932 0.4586,2.319701 0,3.157041 0.0121,-0.977565 -0.44654,-0.144234 -0.14885,0.0921 0.26954,1.714731 0.5994,-2.692294 0.92927,-0.576919 -0.65973,1.077717 0.47872,3.762003 0.46667,5.985551 0.33791,-1.053687 0.56721,1.358169 0.60743,-0.33654 z m -0.92526,-10.773182 c 0.008,-1.538453 -0.96949,-1.642627 -0.92926,-1.245994 0.20113,-0.140224 0.20113,1.562496 0,1.878997 -0.008,-0.416665 -0.0281,-0.769227 -0.15689,-0.55689 0.0603,2.744388 0.46664,1.502404 0.77641,1.967141 0.19712,-1.66265 -0.0804,-1.899028 0.14884,-2.608163 0.0121,0.360582 0.0321,0.717145 0.1609,0.564909 z M 161.03007,7.0206083 c 0.55918,-0.2804405 0.57527,0.060093 1.06606,0.1482347 0.78445,-0.6850842 2.88036,0.2283681 3.66079,-0.1482347 -0.46666,-0.2283587 -2.01544,-0.2403791 -2.4821,-0.4687474 0.86491,-0.060102 1.16663,-0.1882965 1.79016,0 0.24942,-0.424675 -1.4804,-0.4366953 -1.62522,-0.7612169 -0.45458,0.2844603 -0.90111,-0.092102 -1.36374,0.1482454 2.0597,0.2684193 -2.36141,1.0696981 -1.04595,1.0817189 z m 5.87738,50.9613017 c -0.47871,0.388624 -1.585,-1.638608 -2.16026,0.749196 0.38619,0.356573 0.82468,0.480768 1.39592,0.124205 -0.30171,1.478353 0.14885,1.943099 -0.30975,2.912643 1.39592,2.211529 -0.14081,-1.935088 1.07409,-3.786044 z m -0.45861,9.314859 c 0.43849,-0.60095 0.39827,0.689105 0.76837,0.384614 -0.31781,-1.045668 0.1408,-4.747569 -0.14885,-3.433471 -0.14885,1.209933 -0.60744,1.326116 -0.61952,3.048857 z M 23.694305,167.01186 c 1.669475,0.34856 3.322864,-0.51281 2.405651,-0.76122 0.0724,0.51283 -2.594731,0.18831 -2.405651,0.76122 z m 70.315236,7.38778 c -1.906825,0.27644 -3.005064,0.028 -3.250456,0.46475 1.870625,0.1282 1.661432,-0.22035 3.270569,-0.14824 0.136774,0.15625 1.118352,0.36458 1.295352,0.14824 -0.901116,-0.0401 -0.73215,-0.33654 -1.315465,-0.46475 z m 83.413609,-70.05576 c 0.2092,0.23638 0.2977,1.01762 0.61953,0.77323 -0.20115,-2.01922 0.15688,-4.17865 0.46665,-5.793234 -0.20919,-0.03202 -0.41839,-0.06415 -0.61952,-0.09608 0.17298,3.149024 -0.19713,3.906234 -0.46666,5.116154 z m 0.92526,4.16665 c -0.22931,0.2604 -0.79652,-0.96955 -0.76434,0.43269 0.32585,0.0241 0.83674,2.65624 0.92526,1.53045 -0.32988,-0.47676 -0.32988,-1.11379 -0.16092,-1.96314 z M 175.87838,0.69852403 c 0.0402,-1.59454652 0.41034,0.29247034 0.61953,0.0280001 -0.0926,-1.03764644 -0.0804,-2.61216223 -0.30977,-2.88460193 0.0402,1.0817282 -0.72813,2.64422351 -0.30976,2.85656105 z M 174.79222,25.029345 c -0.0603,3.293245 0.76836,1.326117 0.92525,4.447087 0.30975,-1.506404 0.22126,-4.374975 0.61953,-5.524806 -0.28965,0.328522 -0.33793,-0.448716 -0.61953,-0.188305 -0.0281,1.197911 0.18102,1.241983 0.16091,2.435884 -0.47872,-0.108172 -0.29768,-0.232368 -0.7764,0.524839 0,-0.86137 0.0805,-1.470341 0.15689,-2.023231 -0.26954,0.436705 -0.39826,-0.641023 -0.46665,0.328532 z M 174.64336,2.5054079 c 0.13679,-1.4222703 -0.51088,-1.89101692 -0.47066,-0.8293192 0.28964,-0.100204 -0.0804,1.1097692 0.16092,1.1257896 0.12872,-1.95911912 0.2293,1.2499942 0.61952,0.024 -0.0201,-1.0897385 0.14884,-1.6225874 0.4586,-1.6746692 -0.0201,-0.72115559 0.0281,-1.88701683 -0.15287,-1.77083276 -0.0281,0.52483858 0,1.23798407 -0.15689,1.3902192 0,-0.36858301 -0.0201,-0.71714552 -0.14884,-0.46874652 0.008,1.09774868 -0.12069,1.71474078 -0.30978,2.20351798 z m 0,8.7699901 c -0.0402,-1.6826808 -0.45859,-1.4983927 -0.77639,-1.8269149 0.15688,2.1714669 0.78445,2.0032019 1.08617,3.4695339 -0.1408,-1.786844 0.47469,-4.2347499 0.14884,-4.5632832 -0.14884,0.9935867 -0.14079,2.5240302 -0.45862,2.9206642 z M 3.1697663,28.390703 c 0.2494186,1.39823 0.5672192,2.53605 0.7764018,4.110556 -0.4988272,0.625003 -1.4039703,-2.211528 -1.0861594,-1.005606 -0.072399,1.690699 0.5792892,0.436705 0.6154883,1.746792 -0.6677838,-1.197912 -0.6677838,5.93347 0,6.089716 C 3.455414,38.258443 3.6283676,37.865819 3.9461681,38.038094 3.8858201,35.189555 4.2760488,33.987631 4.4047797,31.824184 3.7973243,30.381884 3.6484804,25.874695 4.255936,23.350665 3.358836,21.852273 4.3524318,18.827445 3.6364106,16.68803 3.9139854,16.071048 4.155361,18.490913 4.255936,16.63593 3.7369855,15.49011 3.5760719,16.455644 3.3266531,14.861098 3.555959,14.724882 3.8938725,15.061425 3.9461681,14.224085 3.6364106,14.364309 3.6283676,13.350695 3.475497,13.002131 3.5358454,16.33946 2.8197727,12.861916 2.7111649,15.50613 c 0.2292955,1.061698 0.7965148,-1.193902 0.7643321,1.794863 -0.136774,1.085729 -0.2856178,2.115375 -0.7643321,1.923068 0,0.84134 -0.080431,1.330128 -0.1609136,1.878997 0.5873322,-1.201912 -0.1609137,4.222739 0.4666444,1.742781 0,-0.176275 -0.028115,-1.850954 0.1528706,-3.064887 0.5068805,1.017625 0.217236,2.363772 0,4.302861 0.3861927,0.729167 0.4867572,-0.416665 0.6154882,0.516829 -0.3178007,1.538455 -0.6878968,-0.444716 -0.9252458,0.721144 -0.032131,-0.472744 -0.012049,-1.193901 -0.1488438,-1.17787 0.4666444,2.511999 -0.052316,3.605747 0,4.919844 0.2896446,-0.945505 0.3982522,1.43028 0.4586014,-0.673075 z M 3.7852545,6.2473804 c 0,-0.5969512 0,-1.1899022 0,-1.8469453 C 3.3266531,4.2842406 3.2582713,6.6760655 2.8600087,5.0694986 2.9404402,7.7617941 3.4473409,4.941294 3.7852545,6.2473804 Z M 5.4909392,18.302605 c 0.4988375,0.837342 -0.6074452,0.472758 -0.619515,1.302078 0.092583,-1.486363 0.2413756,-2.860562 -0.3097574,-2.992767 0.1609136,1.702711 0.1609136,2.475949 0,4.270811 C 5.2415307,19.095875 5.1007301,22.713643 5.6397933,23.1824 5.7604708,21.812211 5.9696637,20.726473 5.9495508,18.907578 5.728288,19.224079 5.5714011,16.587876 5.4909392,18.302605 Z m 0.6154985,-4.875771 c -0.3178005,-0.332532 -0.048299,-2.996787 -0.6154985,-2.379803 0.088463,1.586535 -0.060349,2.187496 -0.4706711,1.858965 -0.028115,1.185892 0.1810265,1.346147 0.1609136,2.411856 0.5672192,0.604961 0.4988375,-1.274036 0.7683691,-1.883008 0,0.352563 0.1287309,0.697115 0.1568869,-0.0083 z M 39.459816,6.0871247 C 40.095427,5.5502657 37.597243,5.8186952 37.110476,5.9388894 37.894931,5.4901736 37.573104,5.3619691 36.092698,5.1736622 36.555327,5.8066746 34.391031,5.5823168 32.938791,6.24337 32.673286,5.7706133 34.439309,5.6183782 32.427884,5.4821531 30.830818,5.6504292 29.471099,5.4100512 27.097621,5.3218974 26.510288,5.8186952 27.544162,5.9068383 28.155634,6.095135 26.546498,5.986961 26.952803,6.4036257 25.737903,6.4036257 26.003407,6.1552269 25.037927,5.986961 24.599437,6.2553905 26.66316,6.4236564 21.763341,6.832311 23.931644,7.0206083 c 0.1408,-0.1882973 0.64768,-0.1001061 1.154562,0 -0.498838,-0.6570439 2.361408,-0.4286859 3.045289,-0.7652178 1.001691,1.0616975 4.111346,0.693104 7.699715,0.308491 0.285628,-0.2684296 -0.792498,-0.3966341 0.08846,-0.4687465 0.07641,0.2203477 1.243056,0.1802862 1.737867,0.3084907 -0.0083,-0.2564091 0.482742,-0.3846136 1.2511,-0.456726 0.04027,0.088102 0.08043,0.1682659 0.551133,0.140225 z M 8.2707237,125.1651 c 0.8166384,-0.73317 0.3701066,3.42546 0.1488439,4.6394 0.8568741,-0.84534 0.6195255,-7.35573 -0.1488439,-4.6394 z m 0.6195255,-23.57762 c 0,0.98157 -0.4304455,0.54887 -0.4706816,1.44231 0.4787248,-0.23638 -0.4787142,2.62018 0,2.37578 0.4505586,-1.3782 0.3982625,-2.04326 0.4706816,-3.81809 z M 8.7293353,80.285502 c -0.080431,1.774832 -0.2373489,-0.813299 -0.4586116,-0.360584 0.020082,1.498393 0.028219,3.056878 0.4586116,2.732367 -0.2091928,-1.229964 0.4103223,-2.395825 0,-2.371783 z m 0.6275582,31.618428 c 0.1689566,1.32212 0.7965255,-1.45832 0.458601,-1.45832 -0.1408007,1.64263 -0.4264183,-0.7532 -0.3097573,-2.15543 -0.5752621,0.43671 -0.4384881,0.92146 -0.925256,0.60496 -0.2413653,2.24358 0.5189506,0.008 0.4586119,1.49037 -0.3097578,1.1899 -0.1890798,0.0681 -0.6195255,0.41268 0,0.57691 0,1.15783 0,1.73475 0.2614885,-0.17227 0.5189506,-0.34856 0.7764123,-0.52083 0.020088,-0.70913 0.040267,-1.41426 0.3097573,-1.36216 0,0.57691 -0.116661,0.77322 -0.1488437,1.25398 z M 8.5482984,7.0206083 C 7.6270691,6.9805049 8.435664,6.7601985 9.1316145,6.7000961 9.2965547,6.9284642 9.8517038,7.8138756 10.901664,7.317088 8.6046208,6.9404851 11.613712,6.6440144 10.350532,6.3956155 c -0.5310108,0.4567262 -1.9068248,-0.092204 -3.0050539,0 C 6.8788233,6.752178 8.0213153,7.4372727 8.5482984,7.0206083 Z M 12.707923,6.7121167 c -0.120687,0.1201943 -0.526993,0.1802861 -1.214899,0.1482352 0.732159,0.3886235 -0.305741,0.4767674 0.607445,0.6169916 -0.104591,-0.2083378 3.00909,-0.3085005 1.170648,-0.4567352 -1.621206,0.2684287 0.474698,-0.2804405 1.230986,-0.3205122 -0.812611,0.032001 -2.232667,-0.512818 -2.421747,-0.1482352 0.406305,0.011999 0.752272,0.02 0.627567,0.1602558 z m 38.281352,0.6169819 c 0.140801,0.304491 -0.889045,0.304491 -1.279266,0.4647467 3.001048,-0.068103 5.587736,-0.080105 7.10434,-0.1602557 C 55.450605,7.5934866 55.56325,7.2289451 56.4362,7.0206083 54.875343,7.2169253 54.617881,6.9405033 54.026521,7.1768636 55.17303,7.5574667 52.831735,7.317088 50.989275,7.3290986 Z m 0,0"
     style="fill:#ffff00;fill-opacity:1;fill-rule:nonzero;stroke:none;stroke-width:0.999996" />
</svg>
