<?xml version="1.0" encoding="UTF-8" standalone="no"?>
<svg
   inkscape:version="1.2.2 (b0a8486541, 2022-12-01)"
   sodipodi:docname="10_of_clubs.svg"
   width="63.00013mm"
   height="88.000046mm"
   viewBox="0 0 238.11073 332.5986"
   version="1.1"
   id="svg8"
   xmlns:inkscape="http://www.inkscape.org/namespaces/inkscape"
   xmlns:sodipodi="http://sodipodi.sourceforge.net/DTD/sodipodi-0.dtd"
   xmlns="http://www.w3.org/2000/svg"
   xmlns:svg="http://www.w3.org/2000/svg"
   xmlns:rdf="http://www.w3.org/1999/02/22-rdf-syntax-ns#"
   xmlns:cc="http://creativecommons.org/ns#"
   xmlns:dc="http://purl.org/dc/elements/1.1/">
  <sodipodi:namedview
     inkscape:current-layer="svg8"
     inkscape:window-maximized="0"
     inkscape:window-y="23"
     inkscape:window-x="26"
     inkscape:cy="107.77432"
     inkscape:cx="172.26223"
     inkscape:zoom="1.1319951"
     showgrid="false"
     id="namedview25"
     inkscape:window-height="485"
     inkscape:window-width="793"
     inkscape:pageshadow="2"
     inkscape:pageopacity="0"
     guidetolerance="10"
     gridtolerance="10"
     objecttolerance="10"
     borderopacity="1"
     bordercolor="#666666"
     pagecolor="#ffffff"
     inkscape:showpageshadow="2"
     inkscape:pagecheckerboard="0"
     inkscape:deskcolor="#d1d1d1"
     inkscape:document-units="mm" />
  <title
     id="title8745">Vector Playing Cards</title>
  <defs
     id="defs2" />
  <metadata
     id="metadata5">
    <rdf:RDF>
      <cc:Work
         rdf:about="">
        <dc:format>image/svg+xml</dc:format>
        <dc:type
           rdf:resource="http://purl.org/dc/dcmitype/StillImage" />
        <dc:title>Vector Playing Cards</dc:title>
        <dc:creator>
          <cc:Agent>
            <dc:title>Chris Aguilar</dc:title>
          </cc:Agent>
        </dc:creator>
        <dc:rights>
          <cc:Agent>
            <dc:title>Copyright 2011, 017</dc:title>
          </cc:Agent>
        </dc:rights>
        <dc:publisher>
          <cc:Agent>
            <dc:title>Chris Aguilar</dc:title>
          </cc:Agent>
        </dc:publisher>
        <dc:description>Vector Playing Cards</dc:description>
        <dc:contributor>
          <cc:Agent>
            <dc:title>Chris Aguilar</dc:title>
          </cc:Agent>
        </dc:contributor>
        <cc:license
           rdf:resource="https://opensource.org/licenses/lgpl-3.0.html" />
      </cc:Work>
    </rdf:RDF>
  </metadata>
  <rect
     ry="11.374949"
     rx="11.38946"
     style="display:inline;fill:#ffffff;fill-opacity:1;stroke:#000000;stroke-width:0.79999999;stroke-miterlimit:4;stroke-dasharray:none;stroke-opacity:1"
     id="rect6355-6-85-3-6-8-7"
     width="238.11073"
     height="332.5986"
     x="-2.1557616e-05"
     y="-2.5570069e-05" />
  <path
     style="display:inline;stroke-width:1.07077"
     id="path147-0-8-1-6-13-2-22-1-5"
     d="m 174.26866,35.317981 c -10.47289,0.22718 -15.16894,12.003521 -7.41272,21.14851 1.12492,1.333974 1.24096,2.099409 -0.81923,0.818191 -5.22203,-3.487638 -15.23516,-1.19497 -15.74796,9.4673 -0.63333,13.137495 17.74632,16.922724 21.19725,2.953127 0.18225,-1.473942 1.38163,-1.440234 1.09245,0.651899 -0.31469,5.678326 -2.09029,10.985544 -4.53084,16.161034 4.1134,0 8.71046,0 12.45046,0 -2.44044,-5.17549 -4.21605,-10.482708 -4.53073,-16.161034 -0.28919,-2.092133 0.9102,-2.125841 1.09234,-0.651899 3.45103,13.969597 21.83069,10.184368 21.19725,-2.953127 -0.51258,-10.66227 -10.52582,-12.954938 -15.74796,-9.4673 -2.06018,1.281218 -1.94404,0.515783 -0.81912,-0.818191 7.75622,-9.144989 3.06016,-20.92133 -7.41262,-21.14851 0,0 0,1.07e-4 -0.0107,0 z" />
  <path
     style="display:inline;stroke-width:1.07077"
     id="path147-0-8-1-6-75-2-83-21-1-8"
     d="m 63.833453,35.317981 c -10.472888,0.22718 -15.169053,12.003521 -7.41272,21.14851 1.124916,1.333974 1.240954,2.099409 -0.81923,0.818191 -5.222033,-3.487638 -15.235162,-1.19497 -15.747958,9.4673 -0.633334,13.137495 17.746319,16.922724 21.197245,2.953127 0.182254,-1.473942 1.381528,-1.440234 1.092451,0.651899 -0.314685,5.678326 -2.090292,10.985544 -4.530841,16.161034 4.113404,0 8.71046,0 12.450463,0 -2.440441,-5.17549 -4.216048,-10.482708 -4.530733,-16.161034 -0.289185,-2.092133 0.910197,-2.125841 1.092343,-0.651899 3.451033,13.969597 21.830687,10.184368 21.197245,-2.953127 -0.512581,-10.66227 -10.525817,-12.954938 -15.747957,-9.4673 -2.060184,1.281218 -1.944146,0.515783 -0.819231,-0.818191 7.756334,-9.144989 3.060168,-20.92133 -7.412505,-21.14851 0,0 0,1.07e-4 -0.01071,0 z" />
  <path
     style="display:inline;stroke-width:1.07077"
     id="path147-0-8-1-6-7-5-5-7-3-5-5"
     d="m 174.26866,298.16751 c -10.47289,-0.22714 -15.16894,-12.00349 -7.41272,-21.14849 1.12492,-1.3339 1.24096,-2.09939 -0.81923,-0.81812 -5.22203,3.48763 -15.23516,1.1949 -15.74796,-9.46738 -0.63333,-13.13745 17.74632,-16.92269 21.19725,-2.9531 0.18225,1.4739 1.38163,1.44028 1.09245,-0.65186 -0.31469,-5.67833 -2.09029,-10.9856 -4.53084,-16.16106 4.1134,0 8.71046,0 12.45046,0 -2.44044,5.17546 -4.21605,10.48273 -4.53073,16.16106 -0.28919,2.09214 0.9102,2.12576 1.09234,0.65186 3.45103,-13.96959 21.83069,-10.18435 21.19725,2.9531 -0.51258,10.66228 -10.52582,12.95501 -15.74796,9.46738 -2.06018,-1.28127 -1.94404,-0.51578 -0.81912,0.81812 7.75622,9.145 3.06016,20.92134 -7.41262,21.14849 0,6e-5 0,-6e-5 -0.0107,0 z" />
  <path
     style="display:inline;stroke-width:1.07077"
     id="path147-0-8-1-6-75-6-1-2-7-9-3"
     d="m 63.833453,298.16751 c -10.472888,-0.22714 -15.169053,-12.00349 -7.41272,-21.14849 1.124916,-1.3339 1.240954,-2.09939 -0.81923,-0.81812 -5.222033,3.48763 -15.235162,1.1949 -15.747958,-9.46738 -0.633334,-13.13745 17.746319,-16.92269 21.197245,-2.9531 0.182254,1.4739 1.381528,1.44028 1.092451,-0.65186 -0.314685,-5.67833 -2.090292,-10.9856 -4.530841,-16.16106 4.113404,0 8.71046,0 12.450463,0 -2.440441,5.17546 -4.216048,10.48273 -4.530733,16.16106 -0.289185,2.09214 0.910197,2.12576 1.092343,0.65186 3.451033,-13.96959 21.830687,-10.18435 21.197245,2.9531 -0.512581,10.66228 -10.525817,12.95501 -15.747957,9.46738 -2.060184,-1.28127 -1.944146,-0.51578 -0.819231,0.81812 7.756334,9.145 3.060168,20.92134 -7.412505,21.14849 0,6e-5 0,-6e-5 -0.01071,0 z" />
  <path
     style="display:inline;stroke-width:1.07077"
     id="path147-0-8-1-6-2-00-7-1-1-4"
     d="m 119.05095,70.593177 c -10.47289,0.22718 -15.16884,12.003521 -7.41272,21.14851 1.12492,1.333867 1.24095,2.099409 -0.81912,0.818083 -5.22214,-3.487637 -15.235272,-1.194862 -15.748068,9.46742 -0.633334,13.13743 17.746318,16.92268 21.197348,2.95308 0.18215,-1.4739 1.38153,-1.44026 1.09235,0.65187 -0.31469,5.67834 -2.09029,10.9856 -4.53074,16.16106 4.1133,0 8.71036,0 12.45047,0 -2.44044,-5.17546 -4.21616,-10.48272 -4.53084,-16.16106 -0.28919,-2.09213 0.91019,-2.12577 1.09234,-0.65187 3.45103,13.9696 21.83069,10.18435 21.19735,-2.95308 -0.51269,-10.662282 -10.52592,-12.955057 -15.74796,-9.46742 -2.06018,1.281326 -1.94414,0.515784 -0.81923,-0.818083 7.75623,-9.144989 3.06017,-20.92133 -7.41261,-21.14851 0,0 0,1.07e-4 -0.0107,0 z" />
  <path
     style="display:inline;stroke-width:1.07077"
     id="path147-0-8-1-6-2-0-8-6-8-1-8"
     d="m 119.05106,262.8926 c -10.47289,-0.22714 -15.16906,-12.00348 -7.41272,-21.14848 1.12491,-1.3339 1.24095,-2.09939 -0.81923,-0.81812 -5.22204,3.48763 -15.235165,1.1949 -15.747961,-9.46738 -0.633334,-13.13744 17.746321,-16.92269 21.197241,-2.9531 0.18226,1.4739 1.38164,1.44028 1.09245,-0.65185 -0.31468,-5.67835 -2.09029,-10.98562 -4.53084,-16.16108 4.11341,0 8.71046,0 12.45047,0 -2.44044,5.17546 -4.21605,10.48273 -4.53074,16.16108 -0.28918,2.09213 0.9102,2.12575 1.09235,0.65185 3.45103,-13.96959 21.83068,-10.18434 21.19724,2.9531 -0.51258,10.66228 -10.52581,12.95501 -15.74796,9.46738 -2.06018,-1.28127 -1.94403,-0.51578 -0.81923,0.81812 7.75634,9.145 3.06028,20.92133 -7.4125,21.14848 0,6e-5 0,-6e-5 -0.0107,0 z" />
  <path
     style="display:inline;stroke-width:1.07077"
     id="path147-6-9-8-7-0-5-6-83-3-7"
     d="m 219.74807,279.2938 c 4.18905,-0.0946 6.06762,-5.00145 2.96502,-8.81186 -0.45,-0.55579 -0.4964,-0.87475 0.32776,-0.34088 2.08879,1.45318 6.09409,0.49787 6.29916,-3.94475 0.2534,-5.47394 -7.09857,-7.05112 -8.47892,-1.23046 -0.0729,0.61414 -0.55265,0.60012 -0.43693,-0.27161 0.12589,-2.36596 0.83605,-4.57733 1.81225,-6.73376 -1.65989,0 -3.32,0 -4.97989,0 0.9762,2.15643 1.68636,4.3678 1.81225,6.73376 0.11572,0.87173 -0.36408,0.88575 -0.43694,0.27161 -1.38034,-5.82066 -8.73221,-4.24348 -8.47892,1.23046 0.20508,4.44262 4.21037,5.39793 6.29917,3.94475 0.82416,-0.53387 0.77776,-0.21491 0.32775,0.34088 -3.10259,3.81041 -1.22402,8.71721 2.96503,8.81186 0.001,2e-5 0,-2e-5 0,0 z" />
  <path
     style="display:inline;stroke-width:1.07077"
     id="path147-0-8-1-6-75-2-9-77-44-0-7"
     d="m 63.833453,105.86785 c -10.472888,0.22714 -15.168946,12.00349 -7.41272,21.14849 1.124916,1.3339 1.240954,2.09938 -0.81923,0.81811 -5.222033,-3.48762 -15.235162,-1.19489 -15.747958,9.46739 -0.633334,13.13744 17.746319,16.92268 21.197245,2.95309 0.182254,-1.4739 1.381528,-1.44027 1.092451,0.65186 -0.314685,5.67834 -2.090292,10.98561 -4.530841,16.16107 4.113404,0 8.71046,0 12.450463,0 -2.440441,-5.17546 -4.216048,-10.48273 -4.530733,-16.16107 -0.289185,-2.09213 0.910197,-2.12576 1.092343,-0.65186 3.451033,13.96959 21.830687,10.18435 21.197245,-2.95309 -0.512581,-10.66228 -10.525817,-12.95501 -15.747957,-9.46739 -2.060184,1.28127 -1.944146,0.51579 -0.819231,-0.81811 7.756334,-9.145 3.060168,-20.92134 -7.412505,-21.14849 0,-7e-5 0,5e-5 -0.01071,0 z" />
  <path
     style="display:inline;stroke-width:1.07077"
     id="path147-0-8-1-6-75-2-8-0-3-9-3"
     d="m 63.833453,227.61768 c -10.472888,-0.22714 -15.169053,-12.0035 -7.41272,-21.1485 1.124916,-1.3339 1.240954,-2.09939 -0.81923,-0.81811 -5.222033,3.48762 -15.235162,1.19489 -15.747958,-9.46739 -0.633334,-13.13743 17.746319,-16.92268 21.197245,-2.95308 0.182254,1.47389 1.381528,1.44026 1.092451,-0.65187 -0.314685,-5.67834 -2.090292,-10.98561 -4.530841,-16.16107 4.113404,0 8.71046,0 12.450463,0 -2.440441,5.17546 -4.216048,10.48273 -4.530733,16.16107 -0.289185,2.09213 0.910197,2.12576 1.092343,0.65187 3.451033,-13.9696 21.830687,-10.18435 21.197245,2.95308 -0.512581,10.66228 -10.525817,12.95501 -15.747957,9.46739 -2.060184,-1.28128 -1.944146,-0.51579 -0.819231,0.81811 7.756334,9.145 3.060168,20.92135 -7.412505,21.1485 0,6e-5 0,-5e-5 -0.01071,0 z" />
  <path
     style="display:inline;stroke-width:1.07077"
     id="path147-0-8-1-6-75-2-9-7-1-9-7-9"
     d="m 174.26866,105.86785 c -10.47289,0.22714 -15.16894,12.00349 -7.41272,21.14849 1.12492,1.3339 1.24096,2.09938 -0.81923,0.81811 -5.22203,-3.48762 -15.23516,-1.19489 -15.74796,9.46739 -0.63333,13.13744 17.74632,16.92268 21.19725,2.95309 0.18225,-1.4739 1.38163,-1.44027 1.09245,0.65186 -0.31469,5.67834 -2.09029,10.98561 -4.53084,16.16107 4.1134,0 8.71046,0 12.45046,0 -2.44044,-5.17546 -4.21605,-10.48273 -4.53073,-16.16107 -0.28919,-2.09213 0.9102,-2.12576 1.09234,-0.65186 3.45103,13.96959 21.83069,10.18435 21.19725,-2.95309 -0.51258,-10.66228 -10.52582,-12.95501 -15.74796,-9.46739 -2.06018,1.28127 -1.94404,0.51579 -0.81912,-0.81811 7.75622,-9.145 3.06016,-20.92134 -7.41262,-21.14849 0,-7e-5 0,5e-5 -0.0107,0 z" />
  <path
     style="display:inline;stroke-width:1.07077"
     id="path147-0-8-1-6-75-2-8-5-1-52-2-8"
     d="m 174.26866,227.61768 c -10.47289,-0.22714 -15.16894,-12.0035 -7.41272,-21.1485 1.12492,-1.3339 1.24096,-2.09939 -0.81923,-0.81811 -5.22203,3.48762 -15.23516,1.19489 -15.74796,-9.46739 -0.63333,-13.13743 17.74632,-16.92268 21.19725,-2.95308 0.18225,1.47389 1.38163,1.44026 1.09245,-0.65187 -0.31469,-5.67834 -2.09029,-10.98561 -4.53084,-16.16107 4.1134,0 8.71046,0 12.45046,0 -2.44044,5.17546 -4.21605,10.48273 -4.53073,16.16107 -0.28919,2.09213 0.9102,2.12576 1.09234,0.65187 3.45103,-13.9696 21.83069,-10.18435 21.19725,2.95308 -0.51258,10.66228 -10.52582,12.95501 -15.74796,9.46739 -2.06018,-1.28128 -1.94404,-0.51579 -0.81912,0.81811 7.75622,9.145 3.06016,20.92135 -7.41262,21.1485 0,6e-5 0,-5e-5 -0.0107,0 z" />
  <path
     style="display:inline;stroke-width:1.07077"
     id="path147-6-9-8-7-4-5-62-52-8-0"
     d="m 18.363686,53.304803 c -4.189155,0.09417 -6.067621,5.001387 -2.96513,8.81187 0.450009,0.555805 0.496402,0.874692 -0.32765,0.340824 -2.088899,-1.453182 -6.0940859,-0.497806 -6.2991614,3.94478 -0.253398,5.473938 7.0984634,7.051144 8.4789194,1.230496 0.07286,-0.614125 0.552654,-0.600106 0.43683,0.271589 -0.125788,2.365969 -0.836052,4.57731 -1.81225,6.733755 1.659997,0 3.319995,0 4.979992,0 -0.976198,-2.156445 -1.686462,-4.367786 -1.81225,-6.733755 -0.115717,-0.871695 0.363971,-0.885714 0.43683,-0.271589 1.380456,5.820648 8.732317,4.243442 8.479027,-1.230496 -0.205183,-4.442586 -4.21037,-5.397962 -6.299269,-3.94478 -0.824052,0.533868 -0.777659,0.214981 -0.32765,-0.340824 3.102491,-3.810483 1.224025,-8.717274 -2.965023,-8.81187 -0.0011,0 0,0 0,0 z" />
  <path
     d="M 7.6770441,49.960237 V 14.76091 h 3.4121399 v 35.199327 z m 0,0"
     id="path31-6-7-6"
     style="stroke-width:1.07077" />
  <path
     d="m 21.203243,14.760268 c -3.284637,0 -5.924583,3.000104 -5.924583,6.726479 v 21.74776 c 0,3.726374 2.641339,6.725088 5.924583,6.725088 h 1.917146 c 3.28453,0 5.92994,-2.998714 5.92994,-6.725088 v -21.74776 c 0,-3.726375 -2.646803,-6.726479 -5.92994,-6.726479 z m 0.991413,3.328301 c 1.939217,0 3.498498,1.487425 3.498498,3.347884 V 43.47196 c 0,1.860351 -1.559281,3.361795 -3.498498,3.361795 -1.93911,0 -3.503856,-1.501444 -3.503856,-3.361795 V 21.436453 c 0,-1.859068 1.564746,-3.347884 3.503856,-3.347884 z m 0,0"
     id="path33-9-3-6"
     style="stroke-width:1.07077" />
  <path
     d="m 230.43161,282.63837 v 35.19933 h -3.41204 v -35.19933 z m 0,0"
     id="path31-1-4-0-7"
     style="stroke-width:1.07077" />
  <path
     d="m 216.90551,317.83838 c 3.28453,0 5.92448,-3.00008 5.92448,-6.72645 v -21.7478 c 0,-3.72637 -2.64134,-6.72506 -5.92448,-6.72506 h -1.91725 c -3.28453,0 -5.92994,2.99869 -5.92994,6.72506 v 21.7478 c 0,3.72637 2.6468,6.72645 5.92994,6.72645 z m -0.99152,-3.3283 c -1.93921,0 -3.49849,-1.48747 -3.49849,-3.34787 v -22.03553 c 0,-1.8604 1.55928,-3.36183 3.49849,-3.36183 1.93911,0 3.50397,1.50143 3.50397,3.36183 v 22.03553 c 0,1.859 -1.56486,3.34787 -3.50397,3.34787 z m 0,0"
     id="path33-5-7-4-0"
     style="stroke-width:1.07077" />
  <g
     sodipodi:insensitive="true"
     transform="translate(-377.57454,138.09296)"
     id="g862">
    <rect
       ry="124.68219"
       rx="144.48164"
       y="-1029.6816"
       x="-356.47275"
       height="794.39795"
       width="1659.9126"
       id="rect22845-2"
       style="opacity:1;vector-effect:none;fill:#006614;fill-opacity:1;stroke:none;stroke-width:1.74801;stroke-linecap:butt;stroke-linejoin:miter;stroke-miterlimit:4;stroke-dasharray:none;stroke-dashoffset:0;stroke-opacity:1" />
    <text
       onclick=""
       xml:space="preserve"
       style="font-style:normal;font-variant:normal;font-weight:normal;font-stretch:normal;font-size:42.6667px;line-height:125%;font-family:Carlito;-inkscape-font-specification:'Carlito, Normal';text-align:center;letter-spacing:0px;word-spacing:0px;writing-mode:lr-tb;text-anchor:middle;fill:#ffffff;fill-opacity:1;stroke:none;stroke-width:1.06667px;stroke-linecap:butt;stroke-linejoin:miter;stroke-opacity:1"
       x="472.19449"
       y="-935.81342"
       id="text5630-0"><tspan
         sodipodi:role="line"
         x="472.19449"
         y="-935.81342"
         id="tspan4923"
         style="font-style:normal;font-variant:normal;font-weight:normal;font-stretch:normal;font-size:48px;line-height:125%;font-family:Carlito;-inkscape-font-specification:'Carlito, Normal';text-align:center;writing-mode:lr-tb;text-anchor:middle;fill:#ffffff;fill-opacity:1;stroke-width:1.06667px">Single Playing Card from:</tspan><tspan
         sodipodi:role="line"
         x="472.19449"
         y="-875.81342"
         id="tspan5035"
         style="font-style:normal;font-variant:normal;font-weight:normal;font-stretch:normal;font-size:48px;line-height:125%;font-family:Carlito;-inkscape-font-specification:'Carlito, Normal';text-align:center;writing-mode:lr-tb;text-anchor:middle;fill:#ffffff;fill-opacity:1;stroke-width:1.06667px">Standard Edition - Color Set - Bordered </tspan><tspan
         id="tspan12311"
         sodipodi:role="line"
         x="472.19449"
         y="-820.48004" /><tspan
         sodipodi:role="line"
         x="472.19449"
         y="-762.48004"
         id="tspan4927"
         style="font-style:normal;font-variant:normal;font-weight:normal;font-stretch:normal;font-size:48px;line-height:125%;font-family:Carlito;-inkscape-font-specification:'Carlito, Normal';text-align:center;writing-mode:lr-tb;text-anchor:middle;fill:#ffaaaa;fill-opacity:1;stroke-width:1.06667px">Copyright 2011, 2020 - Chris Aguilar - conjurenation@gmail.com</tspan><tspan
         sodipodi:role="line"
         x="472.19449"
         y="-707.14667"
         id="tspan12344" /><tspan
         sodipodi:role="line"
         x="472.19449"
         y="-649.14667"
         id="tspan4931"
         style="font-style:normal;font-variant:normal;font-weight:normal;font-stretch:normal;font-size:48px;line-height:125%;font-family:Carlito;-inkscape-font-specification:'Carlito, Normal';text-align:center;writing-mode:lr-tb;text-anchor:middle;fill:#ffffff;fill-opacity:1;stroke-width:1.06667px">https://totalnonsense.com/open-source-vector-playing-cards/</tspan><tspan
         sodipodi:role="line"
         x="472.19449"
         y="-593.81329"
         id="tspan4929" /><tspan
         sodipodi:role="line"
         x="472.19449"
         y="-535.81329"
         id="tspan4919"
         style="font-style:normal;font-variant:normal;font-weight:normal;font-stretch:normal;font-size:48px;line-height:125%;font-family:Carlito;-inkscape-font-specification:'Carlito, Normal';text-align:center;writing-mode:lr-tb;text-anchor:middle;fill:#ffaaaa;fill-opacity:1;stroke-width:1.06667px">Licensed under:</tspan><tspan
         sodipodi:role="line"
         x="472.19449"
         y="-475.81329"
         style="font-style:normal;font-variant:normal;font-weight:normal;font-stretch:normal;font-size:48px;line-height:125%;font-family:Carlito;-inkscape-font-specification:'Carlito, Normal';text-align:center;writing-mode:lr-tb;text-anchor:middle;fill:#ffaaaa;fill-opacity:1;stroke-width:1.06667px"
         id="tspan1594-5">LGPL 3.0</tspan><tspan
         id="tspan12253-3"
         sodipodi:role="line"
         x="472.19449"
         y="-415.81329"
         style="font-style:normal;font-variant:normal;font-weight:normal;font-stretch:normal;font-size:48px;line-height:125%;font-family:Carlito;-inkscape-font-specification:'Carlito, Normal';text-align:center;writing-mode:lr-tb;text-anchor:middle;fill:#ffaaaa;fill-opacity:1;stroke-width:1.06667px">https://www.gnu.org/licenses/lgpl-3.0.html</tspan><tspan
         sodipodi:role="line"
         x="472.19449"
         y="-360.47995"
         id="tspan5031" /><tspan
         sodipodi:role="line"
         x="472.19449"
         y="-302.47992"
         id="tspan5033"
         style="font-style:normal;font-variant:normal;font-weight:normal;font-stretch:normal;font-size:48px;line-height:125%;font-family:Carlito;-inkscape-font-specification:'Carlito, Normal';text-align:center;writing-mode:lr-tb;text-anchor:middle;fill:#ffffff;fill-opacity:1;stroke-width:1.06667px">Each Card Measures (63mm x 88mm)</tspan><tspan
         sodipodi:role="line"
         x="472.19449"
         y="-247.14656"
         id="tspan5634-6" /></text>
  </g>
</svg>
