<?xml version="1.0" encoding="UTF-8" standalone="no"?>
<!-- Created with Inkscape (http://www.inkscape.org/) -->

<svg
   width="44.188828mm"
   height="64.174637mm"
   viewBox="0 0 44.188827 64.174637"
   version="1.1"
   id="svg7338"
   inkscape:version="1.2.2 (b0a8486541, 2022-12-01)"
   sodipodi:docname="Card_back_blue2.svg"
   inkscape:export-filename="Card_back_blue2.png"
   inkscape:export-xdpi="300"
   inkscape:export-ydpi="300"
   xmlns:inkscape="http://www.inkscape.org/namespaces/inkscape"
   xmlns:sodipodi="http://sodipodi.sourceforge.net/DTD/sodipodi-0.dtd"
   xmlns:xlink="http://www.w3.org/1999/xlink"
   xmlns="http://www.w3.org/2000/svg"
   xmlns:svg="http://www.w3.org/2000/svg">
  <sodipodi:namedview
     id="namedview7340"
     pagecolor="#ffffff"
     bordercolor="#666666"
     borderopacity="1.0"
     inkscape:showpageshadow="2"
     inkscape:pageopacity="0.0"
     inkscape:pagecheckerboard="0"
     inkscape:deskcolor="#d1d1d1"
     inkscape:document-units="mm"
     showgrid="false"
     inkscape:zoom="2.3786088"
     inkscape:cx="-51.500692"
     inkscape:cy="116.45463"
     inkscape:window-width="1920"
     inkscape:window-height="1131"
     inkscape:window-x="0"
     inkscape:window-y="0"
     inkscape:window-maximized="1"
     inkscape:current-layer="layer1" />
  <defs
     id="defs7335" />
  <g
     inkscape:label="Ebene 1"
     inkscape:groupmode="layer"
     id="layer1"
     transform="translate(-78.583548,-96.891578)">
    <g
       id="back"
       transform="matrix(0.26448497,0,0,0.26448497,-9.9924656,-98.041777)">
      <g
         id="use3245"
         transform="translate(335.14999,972.54999)">
        <path
           style="fill:#ffffff;stroke:#000000;stroke-width:0.5"
           d="M 0,0 C 0,3.78 3.09,6.87 6.87,6.87 H 159.715 C 163.485,6.87 166.575,3.78 166.575,0 V -228.4 C 166.575,-232.18 163.485,-235.27 159.715,-235.27 H 6.87 C 3.09,-235.27 0,-232.18 0,-228.4 Z"
           id="path14404" />
      </g>
      <rect
         style="fill:#0062ff;fill-opacity:1;fill-rule:evenodd;stroke:none;stroke-width:0.716133;stroke-linecap:butt;stroke-linejoin:round;stroke-miterlimit:4;stroke-opacity:1"
         width="131.9648"
         height="177.42918"
         x="358.44342"
         y="761.04138"
         transform="matrix(1.157448,0,0,1.291938,-72.77354,-239.377)"
         ry="2.7421434"
         rx="2.7421434"
         id="rect3247" />
      <rect
         width="131.9648"
         height="177.42918"
         rx="2.9805906"
         ry="2.8864667"
         x="358.44342"
         y="761.04138"
         transform="matrix(1.064852,0,0,1.227341,-33.46908,-184.4809)"
         style="fill:#0062ff;fill-opacity:1;fill-rule:evenodd;stroke:#ffffff;stroke-width:1.31317;stroke-linecap:butt;stroke-linejoin:round;stroke-miterlimit:4;stroke-opacity:1"
         id="rect3249" />
      <rect
         width="131.9648"
         height="177.42918"
         rx="0"
         ry="0"
         x="358.44342"
         y="761.04138"
         transform="matrix(0.901291,0,0,1.107675,35.9519,-82.79633)"
         style="fill:#0062ff;fill-opacity:1;fill-rule:evenodd;stroke:#ffffff;stroke-width:1.25207;stroke-linecap:butt;stroke-linejoin:round;stroke-miterlimit:4;stroke-opacity:1"
         id="rect3251" />
      <rect
         width="131.9648"
         height="177.42918"
         rx="0"
         ry="0"
         x="358.44342"
         y="761.04138"
         transform="matrix(0.829188,0,0,1.052291,66.55439,-35.73366)"
         style="fill:#0062ff;fill-opacity:1;fill-rule:evenodd;stroke:#ffffff;stroke-width:1.33928;stroke-linecap:butt;stroke-linejoin:round;stroke-miterlimit:4;stroke-opacity:1"
         id="rect3253" />
      <g
         id="back_c1">
        <g
           id="back_c2">
          <path
             d="M 372.548,792.736 C 371.318,792.736 370.328,793.726 370.328,794.956 C 370.328,796.176 371.318,797.176 372.548,797.176 C 373.768,797.176 374.758,796.176 374.758,794.956 C 374.758,793.726 373.768,792.736 372.548,792.736 Z M 372.518,793.876 L 373.628,794.976 L 372.568,796.036 L 371.458,794.926 Z"
             id="use3255"
             style="fill:#ffffff;fill-opacity:1;fill-rule:evenodd;stroke:none;stroke-width:2.39307;stroke-linecap:round;stroke-linejoin:round;stroke-miterlimit:40;stroke-dashoffset:0;stroke-opacity:1" />
          <path
             d="M 379.641,792.736 C 378.411,792.736 377.421,793.726 377.421,794.956 C 377.421,796.176 378.411,797.176 379.641,797.176 C 380.861,797.176 381.851,796.176 381.851,794.956 C 381.851,793.726 380.861,792.736 379.641,792.736 Z M 379.611,793.876 L 380.721,794.976 L 379.661,796.036 L 378.551,794.926 Z"
             id="use3257"
             style="fill:#ffffff;fill-opacity:1;fill-rule:evenodd;stroke:none;stroke-width:2.39307;stroke-linecap:round;stroke-linejoin:round;stroke-miterlimit:40;stroke-dashoffset:0;stroke-opacity:1" />
          <path
             d="M 386.733,792.736 C 385.503,792.736 384.513,793.726 384.513,794.956 C 384.513,796.176 385.503,797.176 386.733,797.176 C 387.953,797.176 388.943,796.176 388.943,794.956 C 388.943,793.726 387.953,792.736 386.733,792.736 Z M 386.703,793.876 L 387.813,794.976 L 386.753,796.036 L 385.643,794.926 Z"
             id="use3259"
             style="fill:#ffffff;fill-opacity:1;fill-rule:evenodd;stroke:none;stroke-width:2.39307;stroke-linecap:round;stroke-linejoin:round;stroke-miterlimit:40;stroke-dashoffset:0;stroke-opacity:1" />
        </g>
        <g
           id="back_c3">
          <path
             d="M 379.6408,785.6437 C 378.4108,785.6437 377.4208,786.6337 377.4208,787.8637 C 377.4208,789.0837 378.4108,790.0837 379.6408,790.0837 C 380.8608,790.0837 381.8508,789.0837 381.8508,787.8637 C 381.8508,786.6337 380.8608,785.6437 379.6408,785.6437 Z M 379.6108,786.7837 L 380.7208,787.8837 L 379.6608,788.9437 L 378.5508,787.8337 Z"
             id="use3262"
             style="fill:#ffffff;fill-opacity:1;fill-rule:evenodd;stroke:none;stroke-width:2.39307;stroke-linecap:round;stroke-linejoin:round;stroke-miterlimit:40;stroke-dashoffset:0;stroke-opacity:1" />
          <path
             d="M 386.7332,778.5512 C 385.5032,778.5512 384.5132,779.5412 384.5132,780.7712 C 384.5132,781.9912 385.5032,782.9912 386.7332,782.9912 C 387.9532,782.9912 388.9432,781.9912 388.9432,780.7712 C 388.9432,779.5412 387.9532,778.5512 386.7332,778.5512 Z M 386.7032,779.6912 L 387.8132,780.7912 L 386.7532,781.8512 L 385.6432,780.7412 Z"
             id="use3264"
             style="fill:#ffffff;fill-opacity:1;fill-rule:evenodd;stroke:none;stroke-width:2.39307;stroke-linecap:round;stroke-linejoin:round;stroke-miterlimit:40;stroke-dashoffset:0;stroke-opacity:1" />
          <path
             d="M 386.7332,785.6437 C 385.5032,785.6437 384.5132,786.6337 384.5132,787.8637 C 384.5132,789.0837 385.5032,790.0837 386.7332,790.0837 C 387.9532,790.0837 388.9432,789.0837 388.9432,787.8637 C 388.9432,786.6337 387.9532,785.6437 386.7332,785.6437 Z M 386.7032,786.7837 L 387.8132,787.8837 L 386.7532,788.9437 L 385.6432,787.8337 Z"
             id="use3266"
             style="fill:#ffffff;fill-opacity:1;fill-rule:evenodd;stroke:none;stroke-width:2.39307;stroke-linecap:round;stroke-linejoin:round;stroke-miterlimit:40;stroke-dashoffset:0;stroke-opacity:1" />
        </g>
        <g
           id="back_c4">
          <g
             id="back_c5">
            <path
               d="M 393.8258,771.459 C 392.5958,771.459 391.6058,772.449 391.6058,773.679 C 391.6058,774.899 392.5958,775.899 393.8258,775.899 C 395.0458,775.899 396.0358,774.899 396.0358,773.679 C 396.0358,772.449 395.0458,771.459 393.8258,771.459 Z M 393.7958,772.599 L 394.9058,773.699 L 393.8458,774.759 L 392.7358,773.649 Z"
               id="use3269"
               style="fill:#ffffff;fill-opacity:1;fill-rule:evenodd;stroke:none;stroke-width:2.39307;stroke-linecap:round;stroke-linejoin:round;stroke-miterlimit:40;stroke-dashoffset:0;stroke-opacity:1" />
            <path
               d="M 400.9181,771.459 C 399.6881,771.459 398.6981,772.449 398.6981,773.679 C 398.6981,774.899 399.6881,775.899 400.9181,775.899 C 402.1381,775.899 403.1281,774.899 403.1281,773.679 C 403.1281,772.449 402.1381,771.459 400.9181,771.459 Z M 400.8881,772.599 L 401.9981,773.699 L 400.9381,774.759 L 399.8281,773.649 Z"
               id="use3271"
               style="fill:#ffffff;fill-opacity:1;fill-rule:evenodd;stroke:none;stroke-width:2.39307;stroke-linecap:round;stroke-linejoin:round;stroke-miterlimit:40;stroke-dashoffset:0;stroke-opacity:1" />
            <path
               d="M 408.0106,771.459 C 406.7806,771.459 405.7906,772.449 405.7906,773.679 C 405.7906,774.899 406.7806,775.899 408.0106,775.899 C 409.2306,775.899 410.2206,774.899 410.2206,773.679 C 410.2206,772.449 409.2306,771.459 408.0106,771.459 Z M 407.9806,772.599 L 409.0906,773.699 L 408.0306,774.759 L 406.9206,773.649 Z"
               id="use3273"
               style="fill:#ffffff;fill-opacity:1;fill-rule:evenodd;stroke:none;stroke-width:2.39307;stroke-linecap:round;stroke-linejoin:round;stroke-miterlimit:40;stroke-dashoffset:0;stroke-opacity:1" />
            <path
               d="M 415.103,771.459 C 413.873,771.459 412.883,772.449 412.883,773.679 C 412.883,774.899 413.873,775.899 415.103,775.899 C 416.323,775.899 417.313,774.899 417.313,773.679 C 417.313,772.449 416.323,771.459 415.103,771.459 Z M 415.073,772.599 L 416.183,773.699 L 415.123,774.759 L 414.013,773.649 Z"
               id="use3275"
               style="fill:#ffffff;fill-opacity:1;fill-rule:evenodd;stroke:none;stroke-width:2.39307;stroke-linecap:round;stroke-linejoin:round;stroke-miterlimit:40;stroke-dashoffset:0;stroke-opacity:1" />
          </g>
          <use
             transform="translate(0,7.0926)"
             xlink:href="#back_c5"
             id="use3278" />
          <use
             transform="translate(1.4161e-4,14.185)"
             xlink:href="#back_c5"
             id="use3280" />
          <use
             transform="translate(0,21.2775)"
             xlink:href="#back_c5"
             id="use3282" />
          <use
             transform="translate(1.4161e-4,28.3699)"
             xlink:href="#back_c5"
             id="use3284" />
        </g>
        <use
           transform="translate(0,35.4623)"
           xlink:href="#back_c5"
           id="use3287" />
        <use
           transform="translate(1.4161e-4,42.5548)"
           xlink:href="#back_c5"
           id="use3289" />
        <use
           transform="translate(0,49.6472)"
           xlink:href="#back_c5"
           id="use3291" />
        <use
           transform="translate(-21.2773,56.7397)"
           xlink:href="#back_c4"
           id="use3293" />
        <use
           transform="rotate(180,393.8205,809.14)"
           xlink:href="#back_c3"
           id="use3295" />
        <use
           transform="translate(1.477e-4,7.0926)"
           xlink:href="#back_c2"
           id="use3297" />
        <use
           transform="translate(0,14.185)"
           xlink:href="#back_c2"
           id="use3299" />
        <use
           transform="translate(1.477e-4,21.2775)"
           xlink:href="#back_c2"
           id="use3301" />
        <use
           transform="translate(0,28.3699)"
           xlink:href="#back_c2"
           id="use3303" />
      </g>
      <rect
         width="28.4"
         height="6.5999999"
         x="369.5"
         y="856.09998"
         style="fill:#0062ff;stroke:none"
         id="rect3306" />
      <use
         transform="matrix(1,0,0,-1,0,1717.575)"
         xlink:href="#back_c1"
         id="use3308" />
      <use
         transform="matrix(-1,0,0,1,837.289,0)"
         xlink:href="#back_c1"
         id="use3310" />
      <rect
         width="28.4"
         height="6.5999999"
         x="440.29999"
         y="855.5"
         style="fill:#0062ff;stroke:none"
         id="rect3312" />
      <use
         transform="rotate(180,418.6445,858.7875)"
         xlink:href="#back_c1"
         id="use3314" />
      <path
         d="M 418.45,832.87 L 416.84,833.45 C 415.83,833.96 414.73,834.77 414.4,835.24 C 413.84,836.04 413.76,836.04 412.89,835.44 C 411.51,834.47 411.23,834.65 411.45,836.34 C 411.65,837.81 411.61,837.86 410.49,837.86 C 409.1,837.86 407.49,838.98 406.25,840.8 C 404.57,843.27 405.61,848.08 407.95,849.92 C 409.43,851.09 410.06,850.52 408.69,849.07 C 407.22,848.11 406.1,844.4 406.7,844.4 C 406.84,844.4 407.31,844.62 407.74,844.89 C 408.39,845.29 408.66,845.26 409.23,844.69 C 409.84,844.07 409.85,844 409.28,844 C 408.13,844 407.74,841.57 408.69,840.31 C 409.27,839.55 410.99,838.8 412.14,838.8 C 413.88,838.8 414.93,841.48 413.35,841.89 C 412.91,842 412.55,842.26 412.55,842.46 C 412.55,843.1 413.82,843.34 414.59,842.86 C 415.59,842.24 415.58,842.23 416.13,843.55 C 416.39,844.18 417.11,845.19 417.73,845.77 L 418.45,846.47 V 843.86 C 418.34,843.43 418.24,843.03 418.2,842.6 C 418.15,841.92 415.24,838.8 414.67,838.8 C 414.46,838.8 413.85,838.33 413.32,837.75 L 412.35,836.7 L 413.64,836.99 C 414.78,837.23 414.99,837.14 415.32,836.27 C 415.79,835.02 417.07,834.24 418.45,834.09 Z M 418.25,834.85 C 417.14,834.9 415.53,836.68 415.89,838.12 L 416.14,839.11 L 417.77,837.64 C 418.11,837.32 418.27,837.1 418.45,836.86 V 834.9 C 418.39,834.88 418.33,834.85 418.25,834.85 Z M 412.64,846.11 C 412.35,846.04 412.15,846.3 412.15,846.94 C 412.15,847.49 411.97,848.06 411.75,848.2 C 411.53,848.34 410.92,849.11 410.92,849.64 L 410.98,850.47 L 414.05,849.44 C 415.54,848.93 417.02,848.43 417.35,848.31 C 417.75,848.17 417.56,847.99 416.79,847.79 C 416.08,847.6 415.34,847.66 414.9,847.94 C 414.3,848.32 414.1,848.22 413.67,847.32 C 413.31,846.6 412.93,846.19 412.64,846.11 Z M 408.32,846.4 C 407.52,846.4 407.61,846.71 408.75,848.07 C 409.3,848.73 409.75,849.58 409.75,849.97 C 409.75,850.91 408.25,852.8 407.52,852.8 C 406.76,852.8 406.79,853.56 407.55,853.85 C 407.91,853.99 408.15,854.6 408.15,855.36 C 408.15,856.06 408.36,856.86 408.63,857.12 C 409.01,857.5 409.27,856.97 409.82,854.7 C 410.2,853.1 410.52,851.06 410.53,850.15 C 410.55,848.4 409.37,846.4 408.32,846.4 Z M 404.53,846.86 C 404.24,846.96 403.56,847.32 402.93,847.97 C 402.2,849.17 402.05,849.56 402.02,850.87 C 401.99,851.82 402.13,852.94 402.33,853.36 C 402.63,854.01 402.55,854.09 401.82,853.9 C 400.71,853.61 400.22,854.36 401.09,855 C 402,855.67 401.93,855.98 400.55,857.4 L 399.6,858.37 H 400.7 C 400.72,857.7 401.86,857.34 403.34,857.74 C 404.19,857.96 404.55,858.18 404.54,858.37 H 407.53 L 406.44,857.47 C 405.55,856.74 405.44,856.46 405.84,856.05 C 406.25,855.64 406.2,855.43 405.55,854.95 C 404.8,854.39 404.8,854.32 405.45,853.95 C 406.21,853.52 406.4,852.2 405.75,851.8 C 405.53,851.66 405.35,851.84 405.35,852.19 C 405.35,853.04 404.28,853.41 403.54,852.8 C 403.21,852.53 402.95,851.86 402.95,851.32 C 402.95,850.18 404,848 404.55,848 C 404.77,848 404.95,847.73 404.95,847.4 C 404.95,846.95 404.82,846.77 404.53,846.86 Z M 418.45,850.16 L 417.9,851 C 417.52,851.58 417.24,852.67 417.27,853.42 C 417.32,854.92 416.39,855.38 415.97,854.06 C 415.73,853.32 414.7,852.65 413.08,852.2 C 412.25,851.97 412.23,852.03 412.68,853.22 C 412.94,853.92 413.65,854.74 414.25,855.05 C 415.82,855.86 415.68,856.8 414,856.8 C 413.24,856.8 412.19,857.17 411.59,857.64 L 410.65,858.37 H 414.8 C 414.76,858.24 415.07,858.09 415.94,857.84 C 417.18,857.48 417.61,857.11 417.89,856.19 C 418.09,855.53 418.35,854.73 418.45,854.4 Z M 416.79,855.61 C 417.09,855.65 417.35,855.83 417.35,856.15 C 417.35,856.83 416.27,857.31 415.94,856.77 C 415.81,856.56 415.82,856.22 415.95,856 C 416.14,855.7 416.49,855.58 416.79,855.61 Z"
         id="use3316"
         style="fill:#ffffff;fill-opacity:1" />
      <path
         d="M 418.422,832.87 L 420.032,833.45 C 421.042,833.96 422.142,834.77 422.472,835.24 C 423.032,836.04 423.112,836.04 423.982,835.44 C 425.362,834.47 425.642,834.65 425.422,836.34 C 425.222,837.81 425.262,837.86 426.382,837.86 C 427.772,837.86 429.382,838.98 430.622,840.8 C 432.302,843.27 431.262,848.08 428.922,849.92 C 427.442,851.09 426.812,850.52 428.182,849.07 C 429.652,848.11 430.772,844.4 430.172,844.4 C 430.032,844.4 429.562,844.62 429.132,844.89 C 428.482,845.29 428.212,845.26 427.642,844.69 C 427.032,844.07 427.022,844 427.592,844 C 428.742,844 429.132,841.57 428.182,840.31 C 427.602,839.55 425.882,838.8 424.732,838.8 C 422.992,838.8 421.942,841.48 423.522,841.89 C 423.962,842 424.322,842.26 424.322,842.46 C 424.322,843.1 423.052,843.34 422.282,842.86 C 421.282,842.24 421.292,842.23 420.742,843.55 C 420.482,844.18 419.762,845.19 419.142,845.77 L 418.422,846.47 V 843.86 C 418.532,843.43 418.632,843.03 418.672,842.6 C 418.722,841.92 421.632,838.8 422.202,838.8 C 422.412,838.8 423.022,838.33 423.552,837.75 L 424.522,836.7 L 423.232,836.99 C 422.092,837.23 421.882,837.14 421.552,836.27 C 421.082,835.02 419.802,834.24 418.422,834.09 Z M 418.622,834.85 C 419.732,834.9 421.342,836.68 420.982,838.12 L 420.732,839.11 L 419.102,837.64 C 418.762,837.32 418.602,837.1 418.422,836.86 V 834.9 C 418.482,834.88 418.542,834.85 418.622,834.85 Z M 424.232,846.11 C 424.522,846.04 424.722,846.3 424.722,846.94 C 424.722,847.49 424.902,848.06 425.122,848.2 C 425.342,848.34 425.952,849.11 425.952,849.64 L 425.892,850.47 L 422.822,849.44 C 421.332,848.93 419.852,848.43 419.522,848.31 C 419.122,848.17 419.312,847.99 420.082,847.79 C 420.792,847.6 421.532,847.66 421.972,847.94 C 422.572,848.32 422.772,848.22 423.202,847.32 C 423.562,846.6 423.942,846.19 424.232,846.11 Z M 428.552,846.4 C 429.352,846.4 429.262,846.71 428.122,848.07 C 427.572,848.73 427.122,849.58 427.122,849.97 C 427.122,850.91 428.622,852.8 429.352,852.8 C 430.112,852.8 430.082,853.56 429.322,853.85 C 428.962,853.99 428.722,854.6 428.722,855.36 C 428.722,856.06 428.512,856.86 428.242,857.12 C 427.862,857.5 427.602,856.97 427.052,854.7 C 426.672,853.1 426.352,851.06 426.342,850.15 C 426.322,848.4 427.502,846.4 428.552,846.4 Z M 432.342,846.86 C 432.632,846.96 433.312,847.32 433.942,847.97 C 434.672,849.17 434.822,849.56 434.852,850.87 C 434.882,851.82 434.742,852.94 434.542,853.36 C 434.242,854.01 434.322,854.09 435.052,853.9 C 436.162,853.61 436.652,854.36 435.782,855 C 434.872,855.67 434.942,855.98 436.322,857.4 L 437.272,858.37 H 436.172 C 436.152,857.7 435.012,857.34 433.532,857.74 C 432.682,857.96 432.322,858.18 432.332,858.37 H 429.342 L 430.432,857.47 C 431.322,856.74 431.432,856.46 431.032,856.05 C 430.622,855.64 430.672,855.43 431.322,854.95 C 432.072,854.39 432.072,854.32 431.422,853.95 C 430.662,853.52 430.472,852.2 431.122,851.8 C 431.342,851.66 431.522,851.84 431.522,852.19 C 431.522,853.04 432.592,853.41 433.332,852.8 C 433.662,852.53 433.922,851.86 433.922,851.32 C 433.922,850.18 432.872,848 432.322,848 C 432.102,848 431.922,847.73 431.922,847.4 C 431.922,846.95 432.052,846.77 432.342,846.86 Z M 418.422,850.16 L 418.972,851 C 419.352,851.58 419.632,852.67 419.602,853.42 C 419.552,854.92 420.482,855.38 420.902,854.06 C 421.142,853.32 422.172,852.65 423.792,852.2 C 424.622,851.97 424.642,852.03 424.192,853.22 C 423.932,853.92 423.222,854.74 422.622,855.05 C 421.052,855.86 421.192,856.8 422.872,856.8 C 423.632,856.8 424.682,857.17 425.282,857.64 L 426.222,858.37 H 422.072 C 422.112,858.24 421.802,858.09 420.932,857.84 C 419.692,857.48 419.262,857.11 418.982,856.19 C 418.782,855.53 418.522,854.73 418.422,854.4 Z M 420.082,855.61 C 419.782,855.65 419.522,855.83 419.522,856.15 C 419.522,856.83 420.602,857.31 420.932,856.77 C 421.062,856.56 421.052,856.22 420.922,856 C 420.732,855.7 420.382,855.58 420.082,855.61 Z"
         id="use3318"
         style="fill:#ffffff;fill-opacity:1" />
      <path
         d="M 418.45,883.83 L 416.84,883.25 C 415.83,882.74 414.73,881.93 414.4,881.46 C 413.84,880.66 413.76,880.66 412.89,881.26 C 411.51,882.23 411.23,882.05 411.45,880.36 C 411.65,878.89 411.61,878.84 410.49,878.84 C 409.1,878.84 407.49,877.72 406.25,875.9 C 404.57,873.43 405.61,868.62 407.95,866.78 C 409.43,865.61 410.06,866.18 408.69,867.63 C 407.22,868.59 406.1,872.3 406.7,872.3 C 406.84,872.3 407.31,872.08 407.74,871.81 C 408.39,871.41 408.66,871.44 409.23,872.01 C 409.84,872.63 409.85,872.7 409.28,872.7 C 408.13,872.7 407.74,875.13 408.69,876.39 C 409.27,877.15 410.99,877.9 412.14,877.9 C 413.88,877.9 414.93,875.22 413.35,874.81 C 412.91,874.7 412.55,874.44 412.55,874.24 C 412.55,873.6 413.82,873.36 414.59,873.84 C 415.59,874.46 415.58,874.47 416.13,873.15 C 416.39,872.52 417.11,871.51 417.73,870.93 L 418.45,870.23 V 872.84 C 418.34,873.27 418.24,873.67 418.2,874.1 C 418.15,874.78 415.24,877.9 414.67,877.9 C 414.46,877.9 413.85,878.37 413.32,878.95 L 412.35,880 L 413.64,879.71 C 414.78,879.47 414.99,879.56 415.32,880.43 C 415.79,881.68 417.07,882.46 418.45,882.61 Z M 418.25,881.85 C 417.14,881.8 415.53,880.02 415.89,878.58 L 416.14,877.59 L 417.77,879.06 C 418.11,879.38 418.27,879.6 418.45,879.84 V 881.8 C 418.39,881.82 418.33,881.85 418.25,881.85 Z M 412.64,870.59 C 412.35,870.66 412.15,870.4 412.15,869.76 C 412.15,869.21 411.97,868.64 411.75,868.5 C 411.53,868.36 410.92,867.59 410.92,867.06 L 410.98,866.23 L 414.05,867.26 C 415.54,867.77 417.02,868.27 417.35,868.39 C 417.75,868.53 417.56,868.71 416.79,868.91 C 416.08,869.1 415.34,869.04 414.9,868.76 C 414.3,868.38 414.1,868.48 413.67,869.38 C 413.31,870.1 412.93,870.51 412.64,870.59 Z M 408.32,870.3 C 407.52,870.3 407.61,869.99 408.75,868.63 C 409.3,867.97 409.75,867.12 409.75,866.73 C 409.75,865.79 408.25,863.9 407.52,863.9 C 406.76,863.9 406.79,863.14 407.55,862.85 C 407.91,862.71 408.15,862.1 408.15,861.34 C 408.15,860.64 408.36,859.84 408.63,859.58 C 409.01,859.2 409.27,859.73 409.82,862 C 410.2,863.6 410.52,865.64 410.53,866.55 C 410.55,868.3 409.37,870.3 408.32,870.3 Z M 404.53,869.84 C 404.24,869.74 403.56,869.38 402.93,868.73 C 402.2,867.53 402.05,867.14 402.02,865.83 C 401.99,864.88 402.13,863.76 402.33,863.34 C 402.63,862.69 402.55,862.61 401.82,862.8 C 400.71,863.09 400.22,862.34 401.09,861.7 C 402,861.03 401.93,860.72 400.55,859.3 L 399.6,858.33 H 400.7 C 400.72,859 401.86,859.36 403.34,858.96 C 404.19,858.74 404.55,858.52 404.54,858.33 H 407.53 L 406.44,859.23 C 405.55,859.96 405.44,860.24 405.84,860.65 C 406.25,861.06 406.2,861.27 405.55,861.75 C 404.8,862.31 404.8,862.38 405.45,862.75 C 406.21,863.18 406.4,864.5 405.75,864.9 C 405.53,865.04 405.35,864.86 405.35,864.51 C 405.35,863.66 404.28,863.29 403.54,863.9 C 403.21,864.17 402.95,864.84 402.95,865.38 C 402.95,866.52 404,868.7 404.55,868.7 C 404.77,868.7 404.95,868.97 404.95,869.3 C 404.95,869.75 404.82,869.93 404.53,869.84 Z M 418.45,866.54 L 417.9,865.7 C 417.52,865.12 417.24,864.03 417.27,863.28 C 417.32,861.78 416.39,861.32 415.97,862.64 C 415.73,863.38 414.7,864.05 413.08,864.5 C 412.25,864.73 412.23,864.67 412.68,863.48 C 412.94,862.78 413.65,861.96 414.25,861.65 C 415.82,860.84 415.68,859.9 414,859.9 C 413.24,859.9 412.19,859.53 411.59,859.06 L 410.65,858.33 H 414.8 C 414.76,858.46 415.07,858.61 415.94,858.86 C 417.18,859.22 417.61,859.59 417.89,860.51 C 418.09,861.17 418.35,861.97 418.45,862.3 Z M 416.79,861.09 C 417.09,861.05 417.35,860.87 417.35,860.55 C 417.35,859.87 416.27,859.39 415.94,859.93 C 415.81,860.14 415.82,860.48 415.95,860.7 C 416.14,861 416.49,861.12 416.79,861.09 Z"
         id="use3320"
         style="fill:#ffffff;fill-opacity:1" />
      <path
         d="M 418.422,883.83 L 420.032,883.25 C 421.042,882.74 422.142,881.93 422.472,881.46 C 423.032,880.66 423.112,880.66 423.982,881.26 C 425.362,882.23 425.642,882.05 425.422,880.36 C 425.222,878.89 425.262,878.84 426.382,878.84 C 427.772,878.84 429.382,877.72 430.622,875.9 C 432.302,873.43 431.262,868.62 428.922,866.78 C 427.442,865.61 426.812,866.18 428.182,867.63 C 429.652,868.59 430.772,872.3 430.172,872.3 C 430.032,872.3 429.562,872.08 429.132,871.81 C 428.482,871.41 428.212,871.44 427.642,872.01 C 427.032,872.63 427.022,872.7 427.592,872.7 C 428.742,872.7 429.132,875.13 428.182,876.39 C 427.602,877.15 425.882,877.9 424.732,877.9 C 422.992,877.9 421.942,875.22 423.522,874.81 C 423.962,874.7 424.322,874.44 424.322,874.24 C 424.322,873.6 423.052,873.36 422.282,873.84 C 421.282,874.46 421.292,874.47 420.742,873.15 C 420.482,872.52 419.762,871.51 419.142,870.93 L 418.422,870.23 V 872.84 C 418.532,873.27 418.632,873.67 418.672,874.1 C 418.722,874.78 421.632,877.9 422.202,877.9 C 422.412,877.9 423.022,878.37 423.552,878.95 L 424.522,880 L 423.232,879.71 C 422.092,879.47 421.882,879.56 421.552,880.43 C 421.082,881.68 419.802,882.46 418.422,882.61 Z M 418.622,881.85 C 419.732,881.8 421.342,880.02 420.982,878.58 L 420.732,877.59 L 419.102,879.06 C 418.762,879.38 418.602,879.6 418.422,879.84 V 881.8 C 418.482,881.82 418.542,881.85 418.622,881.85 Z M 424.232,870.59 C 424.522,870.66 424.722,870.4 424.722,869.76 C 424.722,869.21 424.902,868.64 425.122,868.5 C 425.342,868.36 425.952,867.59 425.952,867.06 L 425.892,866.23 L 422.822,867.26 C 421.332,867.77 419.852,868.27 419.522,868.39 C 419.122,868.53 419.312,868.71 420.082,868.91 C 420.792,869.1 421.532,869.04 421.972,868.76 C 422.572,868.38 422.772,868.48 423.202,869.38 C 423.562,870.1 423.942,870.51 424.232,870.59 Z M 428.552,870.3 C 429.352,870.3 429.262,869.99 428.122,868.63 C 427.572,867.97 427.122,867.12 427.122,866.73 C 427.122,865.79 428.622,863.9 429.352,863.9 C 430.112,863.9 430.082,863.14 429.322,862.85 C 428.962,862.71 428.722,862.1 428.722,861.34 C 428.722,860.64 428.512,859.84 428.242,859.58 C 427.862,859.2 427.602,859.73 427.052,862 C 426.672,863.6 426.352,865.64 426.342,866.55 C 426.322,868.3 427.502,870.3 428.552,870.3 Z M 432.342,869.84 C 432.632,869.74 433.312,869.38 433.942,868.73 C 434.672,867.53 434.822,867.14 434.852,865.83 C 434.882,864.88 434.742,863.76 434.542,863.34 C 434.242,862.69 434.322,862.61 435.052,862.8 C 436.162,863.09 436.652,862.34 435.782,861.7 C 434.872,861.03 434.942,860.72 436.322,859.3 L 437.272,858.33 H 436.172 C 436.152,859 435.012,859.36 433.532,858.96 C 432.682,858.74 432.322,858.52 432.332,858.33 H 429.342 L 430.432,859.23 C 431.322,859.96 431.432,860.24 431.032,860.65 C 430.622,861.06 430.672,861.27 431.322,861.75 C 432.072,862.31 432.072,862.38 431.422,862.75 C 430.662,863.18 430.472,864.5 431.122,864.9 C 431.342,865.04 431.522,864.86 431.522,864.51 C 431.522,863.66 432.592,863.29 433.332,863.9 C 433.662,864.17 433.922,864.84 433.922,865.38 C 433.922,866.52 432.872,868.7 432.322,868.7 C 432.102,868.7 431.922,868.97 431.922,869.3 C 431.922,869.75 432.052,869.93 432.342,869.84 Z M 418.422,866.54 L 418.972,865.7 C 419.352,865.12 419.632,864.03 419.602,863.28 C 419.552,861.78 420.482,861.32 420.902,862.64 C 421.142,863.38 422.172,864.05 423.792,864.5 C 424.622,864.73 424.642,864.67 424.192,863.48 C 423.932,862.78 423.222,861.96 422.622,861.65 C 421.052,860.84 421.192,859.9 422.872,859.9 C 423.632,859.9 424.682,859.53 425.282,859.06 L 426.222,858.33 H 422.072 C 422.112,858.46 421.802,858.61 420.932,858.86 C 419.692,859.22 419.262,859.59 418.982,860.51 C 418.782,861.17 418.522,861.97 418.422,862.3 Z M 420.082,861.09 C 419.782,861.05 419.522,860.87 419.522,860.55 C 419.522,859.87 420.602,859.39 420.932,859.93 C 421.062,860.14 421.052,860.48 420.922,860.7 C 420.732,861 420.382,861.12 420.082,861.09 Z"
         id="use3322"
         style="fill:#ffffff;fill-opacity:1" />
      <g
         transform="matrix(0.4,0,0,0.4,236.59,667.12)"
         id="use3324"
         style="fill:#ffffff;fill-opacity:1;stroke:none;stroke-opacity:1">
        <path
           d="M 355.65,280.19 C 355.65,280.19 351.9,272.09 347.55,267.59 C 343.19,263.08 337.87,260.01 336.51,261.06"
           transform="translate(-1.35,-0.76)"
           style="fill:#ffffff;fill-opacity:1;fill-rule:evenodd;stroke:none;stroke-width:0.25pt;stroke-linecap:butt;stroke-linejoin:miter;stroke-opacity:1"
           id="path14252" />
        <path
           d="M 368.97,258.94 C 366.68,259.02 363.07,260.86 361.12,262.81 C 358.53,265.41 357.6,270.39 357.53,272.25 C 357.46,274.11 356.21,271.41 355.34,269.88 C 354.48,268.34 353.41,264.48 353.12,266.66 C 352.84,268.86 352.78,269.92 353.19,272.38 C 353.59,274.83 354.78,279.53 355.75,281.06 L 359.72,285 C 361.59,283.12 362.82,278.75 362.91,278.75 L 362.84,288.09 L 367.19,292.41 C 366.03,290.04 365.25,285.83 365.56,282.03 C 365.88,278.23 367.86,273.44 367.62,271.59 C 366.48,271.19 364.72,274.17 362.41,273.47 C 362.33,271.72 363.15,267.45 364.31,265.78 C 365.48,264.12 368.74,260.08 370.72,259.5 C 370.36,259.08 369.73,258.91 368.97,258.94 Z"
           style="fill:#ffffff;fill-opacity:1;fill-rule:evenodd;stroke:none;stroke-width:0.25pt;stroke-linecap:butt;stroke-linejoin:miter;stroke-opacity:1"
           id="path14254" />
        <path
           d="M 329.36,254.28 C 338.98,249.33 349,262.58 349,262.58 C 349,262.58 350.44,253.33 352.32,253.22 C 354.2,253.11 357.19,260.53 357.19,260.53 C 357.19,260.53 362.95,252.89 372.91,252.95 C 382.88,253 384.48,262.08 378.78,262.52 C 373.12,262.96 376.4,257.37 376.51,258.87 C 376.57,259.04 371.14,251.12 357.36,266.73 C 355.33,269.03 353.42,258.27 352.43,260.64 C 351.22,263.52 352.21,266.9 351.32,269.17 C 352.71,270.88 339.97,255.33 334.55,259.59"
           transform="translate(-1.35,-0.76)"
           style="fill:#ffffff;fill-opacity:1;fill-rule:evenodd;stroke:none;stroke-width:0.25pt;stroke-linecap:butt;stroke-linejoin:miter;stroke-opacity:1"
           id="path14256" />
        <path
           d="M 328.02,253.52 C 323.07,263.14 336.32,273.16 336.32,273.16 C 336.32,273.16 327.07,274.6 326.96,276.48 C 326.85,278.36 334.27,281.35 334.27,281.35 C 334.27,281.35 326.63,287.11 326.69,297.07 C 326.74,307.04 335.82,308.64 336.26,302.94 C 336.7,297.28 331.11,300.56 332.61,300.67 C 332.78,300.73 324.86,295.3 340.47,281.52 C 342.77,279.49 332.01,277.58 334.38,276.59 C 337.26,275.38 340.64,276.37 342.91,275.48 C 344.62,276.87 329.07,264.13 333.33,258.71"
           style="fill:#ffffff;fill-opacity:1;fill-rule:evenodd;stroke:none;stroke-width:0.25pt;stroke-linecap:butt;stroke-linejoin:miter;stroke-opacity:1"
           id="use14258" />
        <path
           d="M 354.33,279.37 C 354.33,279.37 346.23,275.62 341.73,271.27 C 337.22,266.91 334.15,261.59 335.2,260.23"
           style="fill:#ffffff;fill-opacity:1;fill-rule:evenodd;stroke:none;stroke-width:0.25pt;stroke-linecap:butt;stroke-linejoin:miter;stroke-opacity:1"
           id="use14260" />
        <path
           d="M 333.76,294.15 C 333.84,291.86 335.68,288.25 337.63,286.3 C 340.23,283.71 345.21,282.78 347.07,282.71 C 348.93,282.64 346.23,281.39 344.7,280.52 C 343.16,279.66 339.3,278.59 341.48,278.3 C 343.68,278.02 344.74,277.96 347.2,278.37 C 349.65,278.77 354.35,279.96 355.88,280.93 L 359.82,284.9 C 357.94,286.77 353.57,288 353.57,288.09 L 362.91,288.02 L 367.23,292.37 C 364.86,291.21 360.65,290.43 356.85,290.74 C 353.05,291.06 348.26,293.04 346.41,292.8 C 346.01,291.66 348.99,289.9 348.29,287.59 C 346.54,287.51 342.27,288.33 340.6,289.49 C 338.94,290.66 334.9,293.92 334.32,295.9 C 333.9,295.54 333.73,294.91 333.76,294.15 Z"
           style="fill:#ffffff;fill-opacity:1;fill-rule:evenodd;stroke:none;stroke-width:0.25pt;stroke-linecap:butt;stroke-linejoin:miter;stroke-opacity:1"
           id="use14262" />
      </g>
      <g
         transform="matrix(-0.4,0,0,0.4,601.574,667.12)"
         id="use3326"
         style="fill:#ffffff;fill-opacity:1;stroke:none;stroke-opacity:1">
        <path
           d="M 355.65,280.19 C 355.65,280.19 351.9,272.09 347.55,267.59 C 343.19,263.08 337.87,260.01 336.51,261.06"
           transform="translate(-1.35,-0.76)"
           style="fill:#ffffff;fill-opacity:1;fill-rule:evenodd;stroke:none;stroke-width:0.25pt;stroke-linecap:butt;stroke-linejoin:miter;stroke-opacity:1"
           id="path14266" />
        <path
           d="M 368.97,258.94 C 366.68,259.02 363.07,260.86 361.12,262.81 C 358.53,265.41 357.6,270.39 357.53,272.25 C 357.46,274.11 356.21,271.41 355.34,269.88 C 354.48,268.34 353.41,264.48 353.12,266.66 C 352.84,268.86 352.78,269.92 353.19,272.38 C 353.59,274.83 354.78,279.53 355.75,281.06 L 359.72,285 C 361.59,283.12 362.82,278.75 362.91,278.75 L 362.84,288.09 L 367.19,292.41 C 366.03,290.04 365.25,285.83 365.56,282.03 C 365.88,278.23 367.86,273.44 367.62,271.59 C 366.48,271.19 364.72,274.17 362.41,273.47 C 362.33,271.72 363.15,267.45 364.31,265.78 C 365.48,264.12 368.74,260.08 370.72,259.5 C 370.36,259.08 369.73,258.91 368.97,258.94 Z"
           style="fill:#ffffff;fill-opacity:1;fill-rule:evenodd;stroke:none;stroke-width:0.25pt;stroke-linecap:butt;stroke-linejoin:miter;stroke-opacity:1"
           id="path14268" />
        <path
           d="M 329.36,254.28 C 338.98,249.33 349,262.58 349,262.58 C 349,262.58 350.44,253.33 352.32,253.22 C 354.2,253.11 357.19,260.53 357.19,260.53 C 357.19,260.53 362.95,252.89 372.91,252.95 C 382.88,253 384.48,262.08 378.78,262.52 C 373.12,262.96 376.4,257.37 376.51,258.87 C 376.57,259.04 371.14,251.12 357.36,266.73 C 355.33,269.03 353.42,258.27 352.43,260.64 C 351.22,263.52 352.21,266.9 351.32,269.17 C 352.71,270.88 339.97,255.33 334.55,259.59"
           transform="translate(-1.35,-0.76)"
           style="fill:#ffffff;fill-opacity:1;fill-rule:evenodd;stroke:none;stroke-width:0.25pt;stroke-linecap:butt;stroke-linejoin:miter;stroke-opacity:1"
           id="path14270" />
        <path
           d="M 328.02,253.52 C 323.07,263.14 336.32,273.16 336.32,273.16 C 336.32,273.16 327.07,274.6 326.96,276.48 C 326.85,278.36 334.27,281.35 334.27,281.35 C 334.27,281.35 326.63,287.11 326.69,297.07 C 326.74,307.04 335.82,308.64 336.26,302.94 C 336.7,297.28 331.11,300.56 332.61,300.67 C 332.78,300.73 324.86,295.3 340.47,281.52 C 342.77,279.49 332.01,277.58 334.38,276.59 C 337.26,275.38 340.64,276.37 342.91,275.48 C 344.62,276.87 329.07,264.13 333.33,258.71"
           style="fill:#ffffff;fill-opacity:1;fill-rule:evenodd;stroke:none;stroke-width:0.25pt;stroke-linecap:butt;stroke-linejoin:miter;stroke-opacity:1"
           id="use14272" />
        <path
           d="M 354.33,279.37 C 354.33,279.37 346.23,275.62 341.73,271.27 C 337.22,266.91 334.15,261.59 335.2,260.23"
           style="fill:#ffffff;fill-opacity:1;fill-rule:evenodd;stroke:none;stroke-width:0.25pt;stroke-linecap:butt;stroke-linejoin:miter;stroke-opacity:1"
           id="use14274" />
        <path
           d="M 333.76,294.15 C 333.84,291.86 335.68,288.25 337.63,286.3 C 340.23,283.71 345.21,282.78 347.07,282.71 C 348.93,282.64 346.23,281.39 344.7,280.52 C 343.16,279.66 339.3,278.59 341.48,278.3 C 343.68,278.02 344.74,277.96 347.2,278.37 C 349.65,278.77 354.35,279.96 355.88,280.93 L 359.82,284.9 C 357.94,286.77 353.57,288 353.57,288.09 L 362.91,288.02 L 367.23,292.37 C 364.86,291.21 360.65,290.43 356.85,290.74 C 353.05,291.06 348.26,293.04 346.41,292.8 C 346.01,291.66 348.99,289.9 348.29,287.59 C 346.54,287.51 342.27,288.33 340.6,289.49 C 338.94,290.66 334.9,293.92 334.32,295.9 C 333.9,295.54 333.73,294.91 333.76,294.15 Z"
           style="fill:#ffffff;fill-opacity:1;fill-rule:evenodd;stroke:none;stroke-width:0.25pt;stroke-linecap:butt;stroke-linejoin:miter;stroke-opacity:1"
           id="use14276" />
      </g>
      <g
         transform="matrix(0.4,0,0,-0.4,236.59,1050.055)"
         id="use3328"
         style="fill:#ffffff;fill-opacity:1;stroke:none;stroke-opacity:1">
        <path
           d="M 355.65,280.19 C 355.65,280.19 351.9,272.09 347.55,267.59 C 343.19,263.08 337.87,260.01 336.51,261.06"
           transform="translate(-1.35,-0.76)"
           style="fill:#ffffff;fill-opacity:1;fill-rule:evenodd;stroke:none;stroke-width:0.25pt;stroke-linecap:butt;stroke-linejoin:miter;stroke-opacity:1"
           id="path14280" />
        <path
           d="M 368.97,258.94 C 366.68,259.02 363.07,260.86 361.12,262.81 C 358.53,265.41 357.6,270.39 357.53,272.25 C 357.46,274.11 356.21,271.41 355.34,269.88 C 354.48,268.34 353.41,264.48 353.12,266.66 C 352.84,268.86 352.78,269.92 353.19,272.38 C 353.59,274.83 354.78,279.53 355.75,281.06 L 359.72,285 C 361.59,283.12 362.82,278.75 362.91,278.75 L 362.84,288.09 L 367.19,292.41 C 366.03,290.04 365.25,285.83 365.56,282.03 C 365.88,278.23 367.86,273.44 367.62,271.59 C 366.48,271.19 364.72,274.17 362.41,273.47 C 362.33,271.72 363.15,267.45 364.31,265.78 C 365.48,264.12 368.74,260.08 370.72,259.5 C 370.36,259.08 369.73,258.91 368.97,258.94 Z"
           style="fill:#ffffff;fill-opacity:1;fill-rule:evenodd;stroke:none;stroke-width:0.25pt;stroke-linecap:butt;stroke-linejoin:miter;stroke-opacity:1"
           id="path14282" />
        <path
           d="M 329.36,254.28 C 338.98,249.33 349,262.58 349,262.58 C 349,262.58 350.44,253.33 352.32,253.22 C 354.2,253.11 357.19,260.53 357.19,260.53 C 357.19,260.53 362.95,252.89 372.91,252.95 C 382.88,253 384.48,262.08 378.78,262.52 C 373.12,262.96 376.4,257.37 376.51,258.87 C 376.57,259.04 371.14,251.12 357.36,266.73 C 355.33,269.03 353.42,258.27 352.43,260.64 C 351.22,263.52 352.21,266.9 351.32,269.17 C 352.71,270.88 339.97,255.33 334.55,259.59"
           transform="translate(-1.35,-0.76)"
           style="fill:#ffffff;fill-opacity:1;fill-rule:evenodd;stroke:none;stroke-width:0.25pt;stroke-linecap:butt;stroke-linejoin:miter;stroke-opacity:1"
           id="path14284" />
        <path
           d="M 328.02,253.52 C 323.07,263.14 336.32,273.16 336.32,273.16 C 336.32,273.16 327.07,274.6 326.96,276.48 C 326.85,278.36 334.27,281.35 334.27,281.35 C 334.27,281.35 326.63,287.11 326.69,297.07 C 326.74,307.04 335.82,308.64 336.26,302.94 C 336.7,297.28 331.11,300.56 332.61,300.67 C 332.78,300.73 324.86,295.3 340.47,281.52 C 342.77,279.49 332.01,277.58 334.38,276.59 C 337.26,275.38 340.64,276.37 342.91,275.48 C 344.62,276.87 329.07,264.13 333.33,258.71"
           style="fill:#ffffff;fill-opacity:1;fill-rule:evenodd;stroke:none;stroke-width:0.25pt;stroke-linecap:butt;stroke-linejoin:miter;stroke-opacity:1"
           id="use14286" />
        <path
           d="M 354.33,279.37 C 354.33,279.37 346.23,275.62 341.73,271.27 C 337.22,266.91 334.15,261.59 335.2,260.23"
           style="fill:#ffffff;fill-opacity:1;fill-rule:evenodd;stroke:none;stroke-width:0.25pt;stroke-linecap:butt;stroke-linejoin:miter;stroke-opacity:1"
           id="use14288" />
        <path
           d="M 333.76,294.15 C 333.84,291.86 335.68,288.25 337.63,286.3 C 340.23,283.71 345.21,282.78 347.07,282.71 C 348.93,282.64 346.23,281.39 344.7,280.52 C 343.16,279.66 339.3,278.59 341.48,278.3 C 343.68,278.02 344.74,277.96 347.2,278.37 C 349.65,278.77 354.35,279.96 355.88,280.93 L 359.82,284.9 C 357.94,286.77 353.57,288 353.57,288.09 L 362.91,288.02 L 367.23,292.37 C 364.86,291.21 360.65,290.43 356.85,290.74 C 353.05,291.06 348.26,293.04 346.41,292.8 C 346.01,291.66 348.99,289.9 348.29,287.59 C 346.54,287.51 342.27,288.33 340.6,289.49 C 338.94,290.66 334.9,293.92 334.32,295.9 C 333.9,295.54 333.73,294.91 333.76,294.15 Z"
           style="fill:#ffffff;fill-opacity:1;fill-rule:evenodd;stroke:none;stroke-width:0.25pt;stroke-linecap:butt;stroke-linejoin:miter;stroke-opacity:1"
           id="use14290" />
      </g>
      <g
         transform="matrix(-0.4,0,0,-0.4,601.574,1050.055)"
         id="use3330"
         style="fill:#ffffff;fill-opacity:1;stroke:none;stroke-opacity:1">
        <path
           d="M 355.65,280.19 C 355.65,280.19 351.9,272.09 347.55,267.59 C 343.19,263.08 337.87,260.01 336.51,261.06"
           transform="translate(-1.35,-0.76)"
           style="fill:#ffffff;fill-opacity:1;fill-rule:evenodd;stroke:none;stroke-width:0.25pt;stroke-linecap:butt;stroke-linejoin:miter;stroke-opacity:1"
           id="path14294" />
        <path
           d="M 368.97,258.94 C 366.68,259.02 363.07,260.86 361.12,262.81 C 358.53,265.41 357.6,270.39 357.53,272.25 C 357.46,274.11 356.21,271.41 355.34,269.88 C 354.48,268.34 353.41,264.48 353.12,266.66 C 352.84,268.86 352.78,269.92 353.19,272.38 C 353.59,274.83 354.78,279.53 355.75,281.06 L 359.72,285 C 361.59,283.12 362.82,278.75 362.91,278.75 L 362.84,288.09 L 367.19,292.41 C 366.03,290.04 365.25,285.83 365.56,282.03 C 365.88,278.23 367.86,273.44 367.62,271.59 C 366.48,271.19 364.72,274.17 362.41,273.47 C 362.33,271.72 363.15,267.45 364.31,265.78 C 365.48,264.12 368.74,260.08 370.72,259.5 C 370.36,259.08 369.73,258.91 368.97,258.94 Z"
           style="fill:#ffffff;fill-opacity:1;fill-rule:evenodd;stroke:none;stroke-width:0.25pt;stroke-linecap:butt;stroke-linejoin:miter;stroke-opacity:1"
           id="path14296" />
        <path
           d="M 329.36,254.28 C 338.98,249.33 349,262.58 349,262.58 C 349,262.58 350.44,253.33 352.32,253.22 C 354.2,253.11 357.19,260.53 357.19,260.53 C 357.19,260.53 362.95,252.89 372.91,252.95 C 382.88,253 384.48,262.08 378.78,262.52 C 373.12,262.96 376.4,257.37 376.51,258.87 C 376.57,259.04 371.14,251.12 357.36,266.73 C 355.33,269.03 353.42,258.27 352.43,260.64 C 351.22,263.52 352.21,266.9 351.32,269.17 C 352.71,270.88 339.97,255.33 334.55,259.59"
           transform="translate(-1.35,-0.76)"
           style="fill:#ffffff;fill-opacity:1;fill-rule:evenodd;stroke:none;stroke-width:0.25pt;stroke-linecap:butt;stroke-linejoin:miter;stroke-opacity:1"
           id="path14298" />
        <path
           d="M 328.02,253.52 C 323.07,263.14 336.32,273.16 336.32,273.16 C 336.32,273.16 327.07,274.6 326.96,276.48 C 326.85,278.36 334.27,281.35 334.27,281.35 C 334.27,281.35 326.63,287.11 326.69,297.07 C 326.74,307.04 335.82,308.64 336.26,302.94 C 336.7,297.28 331.11,300.56 332.61,300.67 C 332.78,300.73 324.86,295.3 340.47,281.52 C 342.77,279.49 332.01,277.58 334.38,276.59 C 337.26,275.38 340.64,276.37 342.91,275.48 C 344.62,276.87 329.07,264.13 333.33,258.71"
           style="fill:#ffffff;fill-opacity:1;fill-rule:evenodd;stroke:none;stroke-width:0.25pt;stroke-linecap:butt;stroke-linejoin:miter;stroke-opacity:1"
           id="use14300" />
        <path
           d="M 354.33,279.37 C 354.33,279.37 346.23,275.62 341.73,271.27 C 337.22,266.91 334.15,261.59 335.2,260.23"
           style="fill:#ffffff;fill-opacity:1;fill-rule:evenodd;stroke:none;stroke-width:0.25pt;stroke-linecap:butt;stroke-linejoin:miter;stroke-opacity:1"
           id="use14302" />
        <path
           d="M 333.76,294.15 C 333.84,291.86 335.68,288.25 337.63,286.3 C 340.23,283.71 345.21,282.78 347.07,282.71 C 348.93,282.64 346.23,281.39 344.7,280.52 C 343.16,279.66 339.3,278.59 341.48,278.3 C 343.68,278.02 344.74,277.96 347.2,278.37 C 349.65,278.77 354.35,279.96 355.88,280.93 L 359.82,284.9 C 357.94,286.77 353.57,288 353.57,288.09 L 362.91,288.02 L 367.23,292.37 C 364.86,291.21 360.65,290.43 356.85,290.74 C 353.05,291.06 348.26,293.04 346.41,292.8 C 346.01,291.66 348.99,289.9 348.29,287.59 C 346.54,287.51 342.27,288.33 340.6,289.49 C 338.94,290.66 334.9,293.92 334.32,295.9 C 333.9,295.54 333.73,294.91 333.76,294.15 Z"
           style="fill:#ffffff;fill-opacity:1;fill-rule:evenodd;stroke:none;stroke-width:0.25pt;stroke-linecap:butt;stroke-linejoin:miter;stroke-opacity:1"
           id="use14304" />
      </g>
      <g
         id="use3332"
         style="fill:none;fill-opacity:1;stroke:#ffffff;stroke-width:1.251;stroke-linecap:round;stroke-linejoin:round;stroke-miterlimit:4;stroke-dasharray:none;stroke-opacity:1"
         transform="matrix(0.3394,-0.3394,0.3394,0.3394,-86.187,870.603)">
        <path
           style="fill:none;fill-opacity:1;fill-rule:evenodd;stroke:#ffffff;stroke-width:1.251;stroke-miterlimit:4;stroke-dasharray:none;stroke-opacity:1"
           d="M 508.992,779.917 C 506.938,778.401 506.732,775.405 508.245,773.437 C 510.072,771.062 513.589,770.842 515.883,772.66 C 518.579,774.797 518.813,778.836 516.69,781.455 C 514.243,784.473 509.681,784.72 506.737,782.292 C 503.397,779.537 503.136,774.45 505.871,771.182 C 508.265,768.32 512.366,767.422 515.786,768.847"
           transform="matrix(0.7518,0.3005,-0.3107,0.7774,372.862,20.8342)"
           id="path14228" />
        <path
           style="fill:none;fill-opacity:1;fill-rule:evenodd;stroke:#ffffff;stroke-width:1.251;stroke-miterlimit:4;stroke-dasharray:none;stroke-opacity:1"
           d="M 507.265,776.876 C 506.956,774.111 509.18,771.711 511.881,771.455 C 515.092,771.151 517.861,773.744 518.12,776.89 C 518.42,780.548 515.457,783.686 511.865,783.947 C 507.761,784.244 504.253,780.91 503.991,776.872 C 503.695,772.322 507.401,768.443 511.885,768.18 C 515.359,767.977 518.678,769.921 520.307,772.977"
           transform="matrix(0.7518,0.3005,0.3107,-0.7774,-109.566,1234.952)"
           id="path14230" />
      </g>
      <g
         id="use3334"
         style="fill:none;fill-opacity:1;stroke:#ffffff;stroke-width:1.251;stroke-linecap:round;stroke-linejoin:round;stroke-miterlimit:4;stroke-dasharray:none;stroke-opacity:1"
         transform="matrix(-0.3394,-0.3394,0.3394,-0.3394,392.405,1401.347)">
        <path
           style="fill:none;fill-opacity:1;fill-rule:evenodd;stroke:#ffffff;stroke-width:1.251;stroke-miterlimit:4;stroke-dasharray:none;stroke-opacity:1"
           d="M 508.992,779.917 C 506.938,778.401 506.732,775.405 508.245,773.437 C 510.072,771.062 513.589,770.842 515.883,772.66 C 518.579,774.797 518.813,778.836 516.69,781.455 C 514.243,784.473 509.681,784.72 506.737,782.292 C 503.397,779.537 503.136,774.45 505.871,771.182 C 508.265,768.32 512.366,767.422 515.786,768.847"
           transform="matrix(0.7518,0.3005,-0.3107,0.7774,372.862,20.8342)"
           id="path14234" />
        <path
           style="fill:none;fill-opacity:1;fill-rule:evenodd;stroke:#ffffff;stroke-width:1.251;stroke-miterlimit:4;stroke-dasharray:none;stroke-opacity:1"
           d="M 507.265,776.876 C 506.956,774.111 509.18,771.711 511.881,771.455 C 515.092,771.151 517.861,773.744 518.12,776.89 C 518.42,780.548 515.457,783.686 511.865,783.947 C 507.761,784.244 504.253,780.91 503.991,776.872 C 503.695,772.322 507.401,768.443 511.885,768.18 C 515.359,767.977 518.678,769.921 520.307,772.977"
           transform="matrix(0.7518,0.3005,0.3107,-0.7774,-109.566,1234.952)"
           id="path14236" />
      </g>
      <g
         id="use3336"
         style="fill:none;fill-opacity:1;stroke:#ffffff;stroke-width:1.251;stroke-linecap:round;stroke-linejoin:round;stroke-miterlimit:4;stroke-dasharray:none;stroke-opacity:1"
         transform="matrix(-0.3394,0.3394,-0.3394,-0.3394,923.149,846.018)">
        <path
           style="fill:none;fill-opacity:1;fill-rule:evenodd;stroke:#ffffff;stroke-width:1.251;stroke-miterlimit:4;stroke-dasharray:none;stroke-opacity:1"
           d="M 508.992,779.917 C 506.938,778.401 506.732,775.405 508.245,773.437 C 510.072,771.062 513.589,770.842 515.883,772.66 C 518.579,774.797 518.813,778.836 516.69,781.455 C 514.243,784.473 509.681,784.72 506.737,782.292 C 503.397,779.537 503.136,774.45 505.871,771.182 C 508.265,768.32 512.366,767.422 515.786,768.847"
           transform="matrix(0.7518,0.3005,-0.3107,0.7774,372.862,20.8342)"
           id="path14240" />
        <path
           style="fill:none;fill-opacity:1;fill-rule:evenodd;stroke:#ffffff;stroke-width:1.251;stroke-miterlimit:4;stroke-dasharray:none;stroke-opacity:1"
           d="M 507.265,776.876 C 506.956,774.111 509.18,771.711 511.881,771.455 C 515.092,771.151 517.861,773.744 518.12,776.89 C 518.42,780.548 515.457,783.686 511.865,783.947 C 507.761,784.244 504.253,780.91 503.991,776.872 C 503.695,772.322 507.401,768.443 511.885,768.18 C 515.359,767.977 518.678,769.921 520.307,772.977"
           transform="matrix(0.7518,0.3005,0.3107,-0.7774,-109.566,1234.952)"
           id="path14242" />
      </g>
      <g
         id="use3338"
         style="fill:none;fill-opacity:1;stroke:#ffffff;stroke-width:1.251;stroke-linecap:round;stroke-linejoin:round;stroke-miterlimit:4;stroke-dasharray:none;stroke-opacity:1"
         transform="matrix(0.3394,0.3394,-0.3394,0.3394,444.557,315.274)">
        <path
           style="fill:none;fill-opacity:1;fill-rule:evenodd;stroke:#ffffff;stroke-width:1.251;stroke-miterlimit:4;stroke-dasharray:none;stroke-opacity:1"
           d="M 508.992,779.917 C 506.938,778.401 506.732,775.405 508.245,773.437 C 510.072,771.062 513.589,770.842 515.883,772.66 C 518.579,774.797 518.813,778.836 516.69,781.455 C 514.243,784.473 509.681,784.72 506.737,782.292 C 503.397,779.537 503.136,774.45 505.871,771.182 C 508.265,768.32 512.366,767.422 515.786,768.847"
           transform="matrix(0.7518,0.3005,-0.3107,0.7774,372.862,20.8342)"
           id="path14246" />
        <path
           style="fill:none;fill-opacity:1;fill-rule:evenodd;stroke:#ffffff;stroke-width:1.251;stroke-miterlimit:4;stroke-dasharray:none;stroke-opacity:1"
           d="M 507.265,776.876 C 506.956,774.111 509.18,771.711 511.881,771.455 C 515.092,771.151 517.861,773.744 518.12,776.89 C 518.42,780.548 515.457,783.686 511.865,783.947 C 507.761,784.244 504.253,780.91 503.991,776.872 C 503.695,772.322 507.401,768.443 511.885,768.18 C 515.359,767.977 518.678,769.921 520.307,772.977"
           transform="matrix(0.7518,0.3005,0.3107,-0.7774,-109.566,1234.952)"
           id="path14248" />
      </g>
      <g
         id="g_lace">
        <g
           transform="matrix(1,0,0,0.95,-190.33,54.46)"
           id="use3340"
           style="fill:none;fill-opacity:1;stroke:#ffffff;stroke-width:0.320883;stroke-miterlimit:40;stroke-dasharray:none;stroke-opacity:1">
          <path
             d="M 585.84,796.83 C 585.19,796.88 583.72,797.78 586.07,796.49 C 586.55,796.23 585.2,797.15 584.9,797.6 C 584.01,799.33 584.44,801.27 585.05,803.03 C 586.34,806.43 587.82,809.76 589.07,813.18 C 589.82,814.97 589.17,816.61 588.06,818.1 C 586.89,819.55 585.4,820.72 583.86,821.77 L 582.31,822.38 C 583.86,821.35 585.36,820.19 586.55,818.75 C 587.64,817.32 588.3,815.73 587.63,813.98 C 586.47,810.53 584.93,807.21 583.63,803.81 C 582.99,802.04 582.49,800.05 583.37,798.27 C 584.17,796.98 585.74,796.02 587.23,795.82 Z"
             transform="translate(-41.66,-51.43)"
             style="fill:none;fill-opacity:1;fill-rule:nonzero;stroke:#ffffff;stroke-width:0.320883;stroke-linecap:butt;stroke-linejoin:miter;stroke-miterlimit:40;stroke-dasharray:none;stroke-opacity:1"
             id="path14338" />
          <path
             d="M 585.84,796.83 C 585.19,796.88 583.72,797.78 586.07,796.49 C 586.55,796.23 585.2,797.15 584.9,797.6 C 584.01,799.33 584.44,801.27 585.05,803.03 C 586.34,806.43 587.82,809.76 589.07,813.18 C 589.82,814.97 589.17,816.61 588.06,818.1 C 586.89,819.55 585.4,820.72 583.86,821.77 L 582.31,822.38 C 583.86,821.35 585.36,820.19 586.55,818.75 C 587.64,817.32 588.3,815.73 587.63,813.98 C 586.47,810.53 584.93,807.21 583.63,803.81 C 582.99,802.04 582.49,800.05 583.37,798.27 C 584.17,796.98 585.74,796.02 587.23,795.82 Z"
             transform="rotate(180,564.75,786.2)"
             style="fill:none;fill-opacity:1;fill-rule:nonzero;stroke:#ffffff;stroke-width:0.320883;stroke-linecap:butt;stroke-linejoin:miter;stroke-miterlimit:40;stroke-dasharray:none;stroke-opacity:1"
             id="path14340" />
        </g>
        <g
           transform="matrix(1,0,0,0.95,-190.33,81.64114)"
           id="use3342"
           style="fill:none;fill-opacity:1;stroke:#ffffff;stroke-width:0.320883;stroke-miterlimit:40;stroke-dasharray:none;stroke-opacity:1">
          <path
             d="M 585.84,796.83 C 585.19,796.88 583.72,797.78 586.07,796.49 C 586.55,796.23 585.2,797.15 584.9,797.6 C 584.01,799.33 584.44,801.27 585.05,803.03 C 586.34,806.43 587.82,809.76 589.07,813.18 C 589.82,814.97 589.17,816.61 588.06,818.1 C 586.89,819.55 585.4,820.72 583.86,821.77 L 582.31,822.38 C 583.86,821.35 585.36,820.19 586.55,818.75 C 587.64,817.32 588.3,815.73 587.63,813.98 C 586.47,810.53 584.93,807.21 583.63,803.81 C 582.99,802.04 582.49,800.05 583.37,798.27 C 584.17,796.98 585.74,796.02 587.23,795.82 Z"
             transform="translate(-41.66,-51.43)"
             style="fill:none;fill-opacity:1;fill-rule:nonzero;stroke:#ffffff;stroke-width:0.320883;stroke-linecap:butt;stroke-linejoin:miter;stroke-miterlimit:40;stroke-dasharray:none;stroke-opacity:1"
             id="path14344" />
          <path
             d="M 585.84,796.83 C 585.19,796.88 583.72,797.78 586.07,796.49 C 586.55,796.23 585.2,797.15 584.9,797.6 C 584.01,799.33 584.44,801.27 585.05,803.03 C 586.34,806.43 587.82,809.76 589.07,813.18 C 589.82,814.97 589.17,816.61 588.06,818.1 C 586.89,819.55 585.4,820.72 583.86,821.77 L 582.31,822.38 C 583.86,821.35 585.36,820.19 586.55,818.75 C 587.64,817.32 588.3,815.73 587.63,813.98 C 586.47,810.53 584.93,807.21 583.63,803.81 C 582.99,802.04 582.49,800.05 583.37,798.27 C 584.17,796.98 585.74,796.02 587.23,795.82 Z"
             transform="rotate(180,564.75,786.2)"
             style="fill:none;fill-opacity:1;fill-rule:nonzero;stroke:#ffffff;stroke-width:0.320883;stroke-linecap:butt;stroke-linejoin:miter;stroke-miterlimit:40;stroke-dasharray:none;stroke-opacity:1"
             id="path14346" />
        </g>
        <g
           transform="matrix(1,0,0,0.95,-190.33,108.83214)"
           id="use3344"
           style="fill:none;fill-opacity:1;stroke:#ffffff;stroke-width:0.320883;stroke-miterlimit:40;stroke-dasharray:none;stroke-opacity:1">
          <path
             d="M 585.84,796.83 C 585.19,796.88 583.72,797.78 586.07,796.49 C 586.55,796.23 585.2,797.15 584.9,797.6 C 584.01,799.33 584.44,801.27 585.05,803.03 C 586.34,806.43 587.82,809.76 589.07,813.18 C 589.82,814.97 589.17,816.61 588.06,818.1 C 586.89,819.55 585.4,820.72 583.86,821.77 L 582.31,822.38 C 583.86,821.35 585.36,820.19 586.55,818.75 C 587.64,817.32 588.3,815.73 587.63,813.98 C 586.47,810.53 584.93,807.21 583.63,803.81 C 582.99,802.04 582.49,800.05 583.37,798.27 C 584.17,796.98 585.74,796.02 587.23,795.82 Z"
             transform="translate(-41.66,-51.43)"
             style="fill:none;fill-opacity:1;fill-rule:nonzero;stroke:#ffffff;stroke-width:0.320883;stroke-linecap:butt;stroke-linejoin:miter;stroke-miterlimit:40;stroke-dasharray:none;stroke-opacity:1"
             id="path14350" />
          <path
             d="M 585.84,796.83 C 585.19,796.88 583.72,797.78 586.07,796.49 C 586.55,796.23 585.2,797.15 584.9,797.6 C 584.01,799.33 584.44,801.27 585.05,803.03 C 586.34,806.43 587.82,809.76 589.07,813.18 C 589.82,814.97 589.17,816.61 588.06,818.1 C 586.89,819.55 585.4,820.72 583.86,821.77 L 582.31,822.38 C 583.86,821.35 585.36,820.19 586.55,818.75 C 587.64,817.32 588.3,815.73 587.63,813.98 C 586.47,810.53 584.93,807.21 583.63,803.81 C 582.99,802.04 582.49,800.05 583.37,798.27 C 584.17,796.98 585.74,796.02 587.23,795.82 Z"
             transform="rotate(180,564.75,786.2)"
             style="fill:none;fill-opacity:1;fill-rule:nonzero;stroke:#ffffff;stroke-width:0.320883;stroke-linecap:butt;stroke-linejoin:miter;stroke-miterlimit:40;stroke-dasharray:none;stroke-opacity:1"
             id="path14352" />
        </g>
        <g
           transform="matrix(1,0,0,0.95,-190.33,136.0231)"
           id="use3346"
           style="fill:none;fill-opacity:1;stroke:#ffffff;stroke-width:0.320883;stroke-miterlimit:40;stroke-dasharray:none;stroke-opacity:1">
          <path
             d="M 585.84,796.83 C 585.19,796.88 583.72,797.78 586.07,796.49 C 586.55,796.23 585.2,797.15 584.9,797.6 C 584.01,799.33 584.44,801.27 585.05,803.03 C 586.34,806.43 587.82,809.76 589.07,813.18 C 589.82,814.97 589.17,816.61 588.06,818.1 C 586.89,819.55 585.4,820.72 583.86,821.77 L 582.31,822.38 C 583.86,821.35 585.36,820.19 586.55,818.75 C 587.64,817.32 588.3,815.73 587.63,813.98 C 586.47,810.53 584.93,807.21 583.63,803.81 C 582.99,802.04 582.49,800.05 583.37,798.27 C 584.17,796.98 585.74,796.02 587.23,795.82 Z"
             transform="translate(-41.66,-51.43)"
             style="fill:none;fill-opacity:1;fill-rule:nonzero;stroke:#ffffff;stroke-width:0.320883;stroke-linecap:butt;stroke-linejoin:miter;stroke-miterlimit:40;stroke-dasharray:none;stroke-opacity:1"
             id="path14356" />
          <path
             d="M 585.84,796.83 C 585.19,796.88 583.72,797.78 586.07,796.49 C 586.55,796.23 585.2,797.15 584.9,797.6 C 584.01,799.33 584.44,801.27 585.05,803.03 C 586.34,806.43 587.82,809.76 589.07,813.18 C 589.82,814.97 589.17,816.61 588.06,818.1 C 586.89,819.55 585.4,820.72 583.86,821.77 L 582.31,822.38 C 583.86,821.35 585.36,820.19 586.55,818.75 C 587.64,817.32 588.3,815.73 587.63,813.98 C 586.47,810.53 584.93,807.21 583.63,803.81 C 582.99,802.04 582.49,800.05 583.37,798.27 C 584.17,796.98 585.74,796.02 587.23,795.82 Z"
             transform="rotate(180,564.75,786.2)"
             style="fill:none;fill-opacity:1;fill-rule:nonzero;stroke:#ffffff;stroke-width:0.320883;stroke-linecap:butt;stroke-linejoin:miter;stroke-miterlimit:40;stroke-dasharray:none;stroke-opacity:1"
             id="path14358" />
        </g>
        <g
           transform="matrix(1,0,0,0.95,-190.33,163.2043)"
           id="use3348"
           style="fill:none;fill-opacity:1;stroke:#ffffff;stroke-width:0.320883;stroke-miterlimit:40;stroke-dasharray:none;stroke-opacity:1">
          <path
             d="M 585.84,796.83 C 585.19,796.88 583.72,797.78 586.07,796.49 C 586.55,796.23 585.2,797.15 584.9,797.6 C 584.01,799.33 584.44,801.27 585.05,803.03 C 586.34,806.43 587.82,809.76 589.07,813.18 C 589.82,814.97 589.17,816.61 588.06,818.1 C 586.89,819.55 585.4,820.72 583.86,821.77 L 582.31,822.38 C 583.86,821.35 585.36,820.19 586.55,818.75 C 587.64,817.32 588.3,815.73 587.63,813.98 C 586.47,810.53 584.93,807.21 583.63,803.81 C 582.99,802.04 582.49,800.05 583.37,798.27 C 584.17,796.98 585.74,796.02 587.23,795.82 Z"
             transform="translate(-41.66,-51.43)"
             style="fill:none;fill-opacity:1;fill-rule:nonzero;stroke:#ffffff;stroke-width:0.320883;stroke-linecap:butt;stroke-linejoin:miter;stroke-miterlimit:40;stroke-dasharray:none;stroke-opacity:1"
             id="path14362" />
          <path
             d="M 585.84,796.83 C 585.19,796.88 583.72,797.78 586.07,796.49 C 586.55,796.23 585.2,797.15 584.9,797.6 C 584.01,799.33 584.44,801.27 585.05,803.03 C 586.34,806.43 587.82,809.76 589.07,813.18 C 589.82,814.97 589.17,816.61 588.06,818.1 C 586.89,819.55 585.4,820.72 583.86,821.77 L 582.31,822.38 C 583.86,821.35 585.36,820.19 586.55,818.75 C 587.64,817.32 588.3,815.73 587.63,813.98 C 586.47,810.53 584.93,807.21 583.63,803.81 C 582.99,802.04 582.49,800.05 583.37,798.27 C 584.17,796.98 585.74,796.02 587.23,795.82 Z"
             transform="rotate(180,564.75,786.2)"
             style="fill:none;fill-opacity:1;fill-rule:nonzero;stroke:#ffffff;stroke-width:0.320883;stroke-linecap:butt;stroke-linejoin:miter;stroke-miterlimit:40;stroke-dasharray:none;stroke-opacity:1"
             id="path14364" />
        </g>
        <g
           transform="matrix(1,0,0,0.95,-190.33,190.3953)"
           id="use3350"
           style="fill:none;fill-opacity:1;stroke:#ffffff;stroke-width:0.320883;stroke-miterlimit:40;stroke-dasharray:none;stroke-opacity:1">
          <path
             d="M 585.84,796.83 C 585.19,796.88 583.72,797.78 586.07,796.49 C 586.55,796.23 585.2,797.15 584.9,797.6 C 584.01,799.33 584.44,801.27 585.05,803.03 C 586.34,806.43 587.82,809.76 589.07,813.18 C 589.82,814.97 589.17,816.61 588.06,818.1 C 586.89,819.55 585.4,820.72 583.86,821.77 L 582.31,822.38 C 583.86,821.35 585.36,820.19 586.55,818.75 C 587.64,817.32 588.3,815.73 587.63,813.98 C 586.47,810.53 584.93,807.21 583.63,803.81 C 582.99,802.04 582.49,800.05 583.37,798.27 C 584.17,796.98 585.74,796.02 587.23,795.82 Z"
             transform="translate(-41.66,-51.43)"
             style="fill:none;fill-opacity:1;fill-rule:nonzero;stroke:#ffffff;stroke-width:0.320883;stroke-linecap:butt;stroke-linejoin:miter;stroke-miterlimit:40;stroke-dasharray:none;stroke-opacity:1"
             id="path14368" />
          <path
             d="M 585.84,796.83 C 585.19,796.88 583.72,797.78 586.07,796.49 C 586.55,796.23 585.2,797.15 584.9,797.6 C 584.01,799.33 584.44,801.27 585.05,803.03 C 586.34,806.43 587.82,809.76 589.07,813.18 C 589.82,814.97 589.17,816.61 588.06,818.1 C 586.89,819.55 585.4,820.72 583.86,821.77 L 582.31,822.38 C 583.86,821.35 585.36,820.19 586.55,818.75 C 587.64,817.32 588.3,815.73 587.63,813.98 C 586.47,810.53 584.93,807.21 583.63,803.81 C 582.99,802.04 582.49,800.05 583.37,798.27 C 584.17,796.98 585.74,796.02 587.23,795.82 Z"
             transform="rotate(180,564.75,786.2)"
             style="fill:none;fill-opacity:1;fill-rule:nonzero;stroke:#ffffff;stroke-width:0.320883;stroke-linecap:butt;stroke-linejoin:miter;stroke-miterlimit:40;stroke-dasharray:none;stroke-opacity:1"
             id="path14370" />
        </g>
        <g
           transform="matrix(1,0,0,0.95,-190.33,217.5862)"
           id="use3352"
           style="fill:none;fill-opacity:1;stroke:#ffffff;stroke-width:0.320883;stroke-miterlimit:40;stroke-dasharray:none;stroke-opacity:1">
          <path
             d="M 585.84,796.83 C 585.19,796.88 583.72,797.78 586.07,796.49 C 586.55,796.23 585.2,797.15 584.9,797.6 C 584.01,799.33 584.44,801.27 585.05,803.03 C 586.34,806.43 587.82,809.76 589.07,813.18 C 589.82,814.97 589.17,816.61 588.06,818.1 C 586.89,819.55 585.4,820.72 583.86,821.77 L 582.31,822.38 C 583.86,821.35 585.36,820.19 586.55,818.75 C 587.64,817.32 588.3,815.73 587.63,813.98 C 586.47,810.53 584.93,807.21 583.63,803.81 C 582.99,802.04 582.49,800.05 583.37,798.27 C 584.17,796.98 585.74,796.02 587.23,795.82 Z"
             transform="translate(-41.66,-51.43)"
             style="fill:none;fill-opacity:1;fill-rule:nonzero;stroke:#ffffff;stroke-width:0.320883;stroke-linecap:butt;stroke-linejoin:miter;stroke-miterlimit:40;stroke-dasharray:none;stroke-opacity:1"
             id="path14374" />
          <path
             d="M 585.84,796.83 C 585.19,796.88 583.72,797.78 586.07,796.49 C 586.55,796.23 585.2,797.15 584.9,797.6 C 584.01,799.33 584.44,801.27 585.05,803.03 C 586.34,806.43 587.82,809.76 589.07,813.18 C 589.82,814.97 589.17,816.61 588.06,818.1 C 586.89,819.55 585.4,820.72 583.86,821.77 L 582.31,822.38 C 583.86,821.35 585.36,820.19 586.55,818.75 C 587.64,817.32 588.3,815.73 587.63,813.98 C 586.47,810.53 584.93,807.21 583.63,803.81 C 582.99,802.04 582.49,800.05 583.37,798.27 C 584.17,796.98 585.74,796.02 587.23,795.82 Z"
             transform="rotate(180,564.75,786.2)"
             style="fill:none;fill-opacity:1;fill-rule:nonzero;stroke:#ffffff;stroke-width:0.320883;stroke-linecap:butt;stroke-linejoin:miter;stroke-miterlimit:40;stroke-dasharray:none;stroke-opacity:1"
             id="path14376" />
        </g>
      </g>
      <use
         transform="translate(129.5877,-0.313128)"
         xlink:href="#g_lace"
         id="use3355" />
      <g
         transform="translate(-145.1693,-59.66309)"
         id="g_lace2">
        <g
           transform="matrix(0,-1,0.95,0,-199.6521,1358.323)"
           id="use3357"
           style="fill:none;fill-opacity:1;stroke:#ffffff;stroke-width:0.320883;stroke-miterlimit:40;stroke-dasharray:none;stroke-opacity:1">
          <path
             d="M 585.84,796.83 C 585.19,796.88 583.72,797.78 586.07,796.49 C 586.55,796.23 585.2,797.15 584.9,797.6 C 584.01,799.33 584.44,801.27 585.05,803.03 C 586.34,806.43 587.82,809.76 589.07,813.18 C 589.82,814.97 589.17,816.61 588.06,818.1 C 586.89,819.55 585.4,820.72 583.86,821.77 L 582.31,822.38 C 583.86,821.35 585.36,820.19 586.55,818.75 C 587.64,817.32 588.3,815.73 587.63,813.98 C 586.47,810.53 584.93,807.21 583.63,803.81 C 582.99,802.04 582.49,800.05 583.37,798.27 C 584.17,796.98 585.74,796.02 587.23,795.82 Z"
             transform="translate(-41.66,-51.43)"
             style="fill:none;fill-opacity:1;fill-rule:nonzero;stroke:#ffffff;stroke-width:0.320883;stroke-linecap:butt;stroke-linejoin:miter;stroke-miterlimit:40;stroke-dasharray:none;stroke-opacity:1"
             id="path14380" />
          <path
             d="M 585.84,796.83 C 585.19,796.88 583.72,797.78 586.07,796.49 C 586.55,796.23 585.2,797.15 584.9,797.6 C 584.01,799.33 584.44,801.27 585.05,803.03 C 586.34,806.43 587.82,809.76 589.07,813.18 C 589.82,814.97 589.17,816.61 588.06,818.1 C 586.89,819.55 585.4,820.72 583.86,821.77 L 582.31,822.38 C 583.86,821.35 585.36,820.19 586.55,818.75 C 587.64,817.32 588.3,815.73 587.63,813.98 C 586.47,810.53 584.93,807.21 583.63,803.81 C 582.99,802.04 582.49,800.05 583.37,798.27 C 584.17,796.98 585.74,796.02 587.23,795.82 Z"
             transform="rotate(180,564.75,786.2)"
             style="fill:none;fill-opacity:1;fill-rule:nonzero;stroke:#ffffff;stroke-width:0.320883;stroke-linecap:butt;stroke-linejoin:miter;stroke-miterlimit:40;stroke-dasharray:none;stroke-opacity:1"
             id="path14382" />
        </g>
        <g
           transform="matrix(0,-1,0.95,0,-172.4611,1358.323)"
           id="use3359"
           style="fill:none;fill-opacity:1;stroke:#ffffff;stroke-width:0.320883;stroke-miterlimit:40;stroke-dasharray:none;stroke-opacity:1">
          <path
             d="M 585.84,796.83 C 585.19,796.88 583.72,797.78 586.07,796.49 C 586.55,796.23 585.2,797.15 584.9,797.6 C 584.01,799.33 584.44,801.27 585.05,803.03 C 586.34,806.43 587.82,809.76 589.07,813.18 C 589.82,814.97 589.17,816.61 588.06,818.1 C 586.89,819.55 585.4,820.72 583.86,821.77 L 582.31,822.38 C 583.86,821.35 585.36,820.19 586.55,818.75 C 587.64,817.32 588.3,815.73 587.63,813.98 C 586.47,810.53 584.93,807.21 583.63,803.81 C 582.99,802.04 582.49,800.05 583.37,798.27 C 584.17,796.98 585.74,796.02 587.23,795.82 Z"
             transform="translate(-41.66,-51.43)"
             style="fill:none;fill-opacity:1;fill-rule:nonzero;stroke:#ffffff;stroke-width:0.320883;stroke-linecap:butt;stroke-linejoin:miter;stroke-miterlimit:40;stroke-dasharray:none;stroke-opacity:1"
             id="path14386" />
          <path
             d="M 585.84,796.83 C 585.19,796.88 583.72,797.78 586.07,796.49 C 586.55,796.23 585.2,797.15 584.9,797.6 C 584.01,799.33 584.44,801.27 585.05,803.03 C 586.34,806.43 587.82,809.76 589.07,813.18 C 589.82,814.97 589.17,816.61 588.06,818.1 C 586.89,819.55 585.4,820.72 583.86,821.77 L 582.31,822.38 C 583.86,821.35 585.36,820.19 586.55,818.75 C 587.64,817.32 588.3,815.73 587.63,813.98 C 586.47,810.53 584.93,807.21 583.63,803.81 C 582.99,802.04 582.49,800.05 583.37,798.27 C 584.17,796.98 585.74,796.02 587.23,795.82 Z"
             transform="rotate(180,564.75,786.2)"
             style="fill:none;fill-opacity:1;fill-rule:nonzero;stroke:#ffffff;stroke-width:0.320883;stroke-linecap:butt;stroke-linejoin:miter;stroke-miterlimit:40;stroke-dasharray:none;stroke-opacity:1"
             id="path14388" />
        </g>
        <g
           transform="matrix(0,-1,0.95,0,-145.2701,1358.323)"
           id="use3361"
           style="fill:none;fill-opacity:1;stroke:#ffffff;stroke-width:0.320883;stroke-miterlimit:40;stroke-dasharray:none;stroke-opacity:1">
          <path
             d="M 585.84,796.83 C 585.19,796.88 583.72,797.78 586.07,796.49 C 586.55,796.23 585.2,797.15 584.9,797.6 C 584.01,799.33 584.44,801.27 585.05,803.03 C 586.34,806.43 587.82,809.76 589.07,813.18 C 589.82,814.97 589.17,816.61 588.06,818.1 C 586.89,819.55 585.4,820.72 583.86,821.77 L 582.31,822.38 C 583.86,821.35 585.36,820.19 586.55,818.75 C 587.64,817.32 588.3,815.73 587.63,813.98 C 586.47,810.53 584.93,807.21 583.63,803.81 C 582.99,802.04 582.49,800.05 583.37,798.27 C 584.17,796.98 585.74,796.02 587.23,795.82 Z"
             transform="translate(-41.66,-51.43)"
             style="fill:none;fill-opacity:1;fill-rule:nonzero;stroke:#ffffff;stroke-width:0.320883;stroke-linecap:butt;stroke-linejoin:miter;stroke-miterlimit:40;stroke-dasharray:none;stroke-opacity:1"
             id="path14392" />
          <path
             d="M 585.84,796.83 C 585.19,796.88 583.72,797.78 586.07,796.49 C 586.55,796.23 585.2,797.15 584.9,797.6 C 584.01,799.33 584.44,801.27 585.05,803.03 C 586.34,806.43 587.82,809.76 589.07,813.18 C 589.82,814.97 589.17,816.61 588.06,818.1 C 586.89,819.55 585.4,820.72 583.86,821.77 L 582.31,822.38 C 583.86,821.35 585.36,820.19 586.55,818.75 C 587.64,817.32 588.3,815.73 587.63,813.98 C 586.47,810.53 584.93,807.21 583.63,803.81 C 582.99,802.04 582.49,800.05 583.37,798.27 C 584.17,796.98 585.74,796.02 587.23,795.82 Z"
             transform="rotate(180,564.75,786.2)"
             style="fill:none;fill-opacity:1;fill-rule:nonzero;stroke:#ffffff;stroke-width:0.320883;stroke-linecap:butt;stroke-linejoin:miter;stroke-miterlimit:40;stroke-dasharray:none;stroke-opacity:1"
             id="path14394" />
        </g>
        <g
           transform="matrix(0,-1,0.95,0,-118.0889,1358.323)"
           id="use3363"
           style="fill:none;fill-opacity:1;stroke:#ffffff;stroke-width:0.320883;stroke-miterlimit:40;stroke-dasharray:none;stroke-opacity:1">
          <path
             d="M 585.84,796.83 C 585.19,796.88 583.72,797.78 586.07,796.49 C 586.55,796.23 585.2,797.15 584.9,797.6 C 584.01,799.33 584.44,801.27 585.05,803.03 C 586.34,806.43 587.82,809.76 589.07,813.18 C 589.82,814.97 589.17,816.61 588.06,818.1 C 586.89,819.55 585.4,820.72 583.86,821.77 L 582.31,822.38 C 583.86,821.35 585.36,820.19 586.55,818.75 C 587.64,817.32 588.3,815.73 587.63,813.98 C 586.47,810.53 584.93,807.21 583.63,803.81 C 582.99,802.04 582.49,800.05 583.37,798.27 C 584.17,796.98 585.74,796.02 587.23,795.82 Z"
             transform="translate(-41.66,-51.43)"
             style="fill:none;fill-opacity:1;fill-rule:nonzero;stroke:#ffffff;stroke-width:0.320883;stroke-linecap:butt;stroke-linejoin:miter;stroke-miterlimit:40;stroke-dasharray:none;stroke-opacity:1"
             id="path14398" />
          <path
             d="M 585.84,796.83 C 585.19,796.88 583.72,797.78 586.07,796.49 C 586.55,796.23 585.2,797.15 584.9,797.6 C 584.01,799.33 584.44,801.27 585.05,803.03 C 586.34,806.43 587.82,809.76 589.07,813.18 C 589.82,814.97 589.17,816.61 588.06,818.1 C 586.89,819.55 585.4,820.72 583.86,821.77 L 582.31,822.38 C 583.86,821.35 585.36,820.19 586.55,818.75 C 587.64,817.32 588.3,815.73 587.63,813.98 C 586.47,810.53 584.93,807.21 583.63,803.81 C 582.99,802.04 582.49,800.05 583.37,798.27 C 584.17,796.98 585.74,796.02 587.23,795.82 Z"
             transform="rotate(180,564.75,786.2)"
             style="fill:none;fill-opacity:1;fill-rule:nonzero;stroke:#ffffff;stroke-width:0.320883;stroke-linecap:butt;stroke-linejoin:miter;stroke-miterlimit:40;stroke-dasharray:none;stroke-opacity:1"
             id="path14400" />
        </g>
      </g>
      <use
         transform="translate(0,207.189)"
         xlink:href="#g_lace2"
         id="use3366" />
    </g>
  </g>
</svg>
